<?xml version="1.0" encoding="utf-8"?>
<!-- Generator: Adobe Illustrator 25.4.1, SVG Export Plug-In . SVG Version: 6.00 Build 0)  -->
<svg version="1.1" id="Layer_1" xmlns="http://www.w3.org/2000/svg" xmlns:xlink="http://www.w3.org/1999/xlink" x="0px" y="0px"
	 viewBox="0 0 106.2 129.5" style="enable-background:new 0 0 106.2 129.5;" xml:space="preserve">
<style type="text/css">
	.st0{fill-rule:evenodd;clip-rule:evenodd;fill:#138608;}
	.st1{fill-rule:evenodd;clip-rule:evenodd;fill:#FF9834;}
	.st2{fill-rule:evenodd;clip-rule:evenodd;fill:#FFFFFF;}
	.st3{fill-rule:evenodd;clip-rule:evenodd;fill:#494949;}
	.st4{fill-rule:evenodd;clip-rule:evenodd;fill:#1A1A18;}
	.st5{fill-rule:evenodd;clip-rule:evenodd;fill:#02017B;}
</style>
<g transform="translate(0 -2)">
	<path class="st0" d="M73.2,98.1c1.6-0.2,7.6-3.7,9.1-4.7c2.8-1.8,5.3-3.9,7.7-6.2c2.4-2.3,4.5-4.8,6.4-7.5c2-2.8,3.7-5.7,5.1-8.8
		c5.8-12.8,6.3-27.3,1.4-40.5c-0.6-1.7-1.3-3.3-2.1-4.8c-0.7-0.1-0.6,0.2-0.9,0.8L86,56.4c-1.2,2.7-0.8,2,0,5
		c3.5,12.9-0.8,26.6-11,35.2c-0.3,0.3-0.6,0.5-0.9,0.7C73.5,97.7,73.3,97.8,73.2,98.1"/>
	<path class="st0" d="M32.9,97.9c-0.4-0.4-1.3-1-1.8-1.4c-0.6-0.5-1.1-1-1.7-1.5c-9.1-8.7-12.6-21.8-9.2-33.9c1-3.7,1.4-2.1,0.1-4.8
		c-0.7-1.5-1.4-2.9-2.1-4.5c-1.4-3-2.8-5.9-4.2-8.9c-0.8-1.8-8-17.5-8.4-17.8c-1,1-3.4,8.1-3.9,10c-4.1,15.2-1.2,31.5,7.8,44.4
		c3.8,5.4,8.6,10.1,14.1,13.8C24.3,93.6,32.2,98.4,32.9,97.9"/>
	<path class="st1" d="M20.9,69.4c-0.1,4.1,0.6,8.2,2.1,12.1c2.3,5.9,6.3,11.1,11.5,14.7c1.3,0.9,2.7,1.7,4.1,2.4
		c0.7,0.4,4.1,1.9,4.7,1.8l1.4-8c-10.4-3.8-16.9-14.3-15.6-25.4c0.4-2.2,1-4.3,1.9-6.4c0.7-2.1,1.5-4.1,2.2-6.1
		c1-2.9,8.6-24.1,8.6-24.5c0-0.3-10.3-21.7-11.9-25.3c-0.4-0.9-1-2-1.3-2.8c-1,0.1-2.7,1.9-3.2,2.7C24.5,6,24,7.6,24,9.2
		c0.1,1.6,0.5,3.1,1.3,4.5c1.8,3.9,3.8,8.1,5.6,11.9c0.7,1.3,1.2,2.6,1.9,3.9c0.6,1.2,0.6,0.8,0.1,2.2c-2.1,6.3-4.6,13.1-6.9,19.4
		l-4.6,12.9C21.1,65.9,20.9,67.7,20.9,69.4"/>
	<path class="st1" d="M61.5,92.5c0,1.1,1.1,6.1,1.3,8c1.4-0.1,5.2-2.1,6.4-2.7C79.7,91.6,85.9,80.1,85.1,68
		c-0.1-2.6-0.6-5.1-1.6-7.5L73.4,31.7c-0.3-0.9-0.5-0.8,0-1.7c0.5-1,1-2.1,1.5-3.2c1.9-4.2,3.9-8.3,5.9-12.4
		c1.1-2.3,2.2-4.3,1.3-7.4c-0.3-1.1-0.8-2.1-1.6-3c-0.7-0.9-1.6-1.6-2.7-2c-0.4,0.9-0.9,1.9-1.3,2.8c-0.5,1-0.8,1.8-1.3,2.8
		c-0.9,1.9-1.8,3.7-2.7,5.6l-6.6,14c-0.4,0.8-1,2-1.3,2.8c-0.2,0.5,0.6,2.4,0.9,3.1L73,54.3c1.2,3.4,3.5,9.2,3.9,12.6
		c1.1,8.9-2.7,17.6-10.1,22.7C65.1,90.7,63.3,91.7,61.5,92.5"/>
	<path class="st2" d="M42.9,114.1l4.2,0.4l0.9-7.2l1.5,0.2l-0.9,7c1.2,0.2,2.5,0.2,3.7,0.1v-7.2l1.4,0l0,7.2l3.7-0.1
		c0.2-0.6-0.7-5.9-0.8-7l1.5-0.2l0.9,6.8c0.1,0.2,0,0.1,0.1,0.2c0.6,0,3.5-0.2,3.9-0.4c0.2-0.1,0.2,0,0.2-0.2l-6.9-39.2
		c-0.3-1.8,0-1.9,0.8-3.1l4.2-6.4c0.2-0.4,0.1-0.9-0.3-1.1c-0.2-0.1-0.4-0.1-0.6-0.1c-0.5,0.1-8.2,3.7-8.6,4
		c-0.8,0.7-0.9,1.9-1.1,3.2l-6.5,35.7C43.9,108.3,43,113,42.9,114.1"/>
	<path class="st3" d="M43.2,113.9l3.6,0.3l0.9-7.2l2.1,0.2c-0.1,1.2-0.2,2.4-0.4,3.5c-0.2,1.2-0.3,2.3-0.4,3.5l3.1,0.1v-7.2h2l0,7.2
		l3.2-0.1l-0.8-7l2.1-0.3l0.9,7.1l3.5-0.3c0.1-0.9-0.9-5.7-1.1-6.9l-4.8-27.5c-0.3-1.5-1.3-5.7-0.8-6.9c0.3-0.7,3.9-6,4.7-7.3
		c0.3-0.5,0.2-1.2-0.6-0.9l-7,3.2c-2.4,1.1-2,1.7-2.7,5.4c-0.8,4.6-1.7,9.1-2.5,13.6L44.4,107c-0.2,1.2-0.4,2.3-0.6,3.4
		C43.6,111.5,43.4,112.7,43.2,113.9"/>
	<path class="st4" d="M8,23.4c0.1,1.5,0.5,3,1.3,4.4l3.7,7.9c1.9,3.9,3.7,8,5.5,11.8c0.6,1.3,1.2,2.7,1.8,4l1.9,3.9
		c0.2-0.4,1.6-4.4,1.9-5.2c2.2-6.1,2.3-5.1-0.4-10.7c-0.8-1.6-1.6-3.3-2.3-4.9c-1.4-3.3-3.1-6.5-4.6-9.8c-0.7-1.6-1.5-3.3-2.3-4.8
		c-0.7-1.7-1.5-3.3-2.4-4.9c-0.4,0.1-0.6,0.5-0.8,0.8C9.6,18.2,8,19.8,8,23.4"/>
	<path class="st4" d="M84.1,55.4c0.5-0.9,1.7-3.7,2.3-4.9c0.8-1.7,1.5-3.4,2.3-5.1c1.6-3.4,3.1-6.8,4.7-10c0.9-1.8,4.2-8.7,4.6-10.1
		c1-3.9-0.9-6.4-3-9.2c-0.3-0.4-0.6-0.8-0.9-1c-0.4,0.3-4.3,9-4.7,9.7c-1.6,3.3-3,6.6-4.6,9.8l-3.4,7.3c-0.5,0.8-0.8,1.8-0.9,2.8
		c0,1.3,2,6.4,2.6,8.1C83.4,53.7,83.7,54.6,84.1,55.4"/>
	<path class="st5" d="M52.3,40.5c-5.1,0.4-8.8,4.9-8.4,10c0.4,5.1,4.9,8.8,10,8.4c5.1-0.4,8.8-4.9,8.4-10c0,0,0,0,0-0.1
		C61.8,43.8,57.4,40.1,52.3,40.5C52.3,40.5,52.3,40.5,52.3,40.5"/>
	<path class="st2" d="M22.2,54.7c0.3-0.7,0.6-1.7,0.9-2.5c0.7-2.1,2.6-6.6,2.3-8.2c-0.2-0.8-0.6-1.7-1-2.4c-0.4-0.8-0.8-1.6-1.1-2.4
		c-2.1-4.8-4.5-9.5-6.7-14.3c-0.7-1.6-1.5-3.2-2.2-4.7L12.6,16c0-0.1-0.1-0.2-0.2-0.3l-0.2-0.3c-0.3,0.3-0.5,0.6-0.8,0.9
		c-2.1,2.7-4,5.2-2.8,9.1c0.3,1.1,10.6,23,11.3,24.4C20.5,51.1,21.7,53.8,22.2,54.7"/>
	<path class="st2" d="M84.2,54.7c0.4-1.2,1.2-2.6,1.8-3.8l3.6-7.6c0.6-1.3,1.2-2.6,1.8-3.8c1.2-2.5,2.4-5.1,3.6-7.6
		c1.1-2.4,3.1-5.9,3.1-8.2c0.1-1.7-0.4-3.4-1.4-4.8l-2.3-3c-0.2-0.2,0-0.1-0.3-0.2c-0.3,0.8-0.7,1.6-1.1,2.4
		c-1.1,2.3-2.1,4.7-3.3,7.1c-2.2,4.5-4.4,9.7-6.6,14.3c-0.4,0.8-0.7,1.6-1.1,2.3c-1.5,3.4-1.5,2.8,0.4,8c0.3,0.9,0.6,1.8,0.9,2.6
		l0.7,1.9c0,0.1,0.1,0.2,0.1,0.3l0.1,0.1C84.1,54.5,84.1,54.6,84.2,54.7"/>
	<path class="st3" d="M33.7,126l2.1,0.1v-2.3l-2.1,0L33.7,126z M40.2,122.2l-21.4,0c0.1,0.4,0.7,1.1,0.9,1.5l1,0
		c0,0.7,0.1,2-0.3,2.4c-0.7,0.4-1.5,0.4-2.2,0c1.4-1.1,0.5-2.6-0.2-3.3c-1.2-1-2.2-0.9-3.9-0.5l1.1,1.6c0.5-0.1,1.6-0.7,2.2-0.3
		c0.6,0.5-0.2,1-0.5,1.2c-0.5,0.2-1.3,0.4-1.7,0.6c0.3,0.5,0.6,1,1,1.4l1.4-0.3c0.2,0.5,0.4,1,0.1,1.5c-0.4,0.4-0.9,0.5-1.4,0.3
		c-1-0.3-1.4-1.2-1.9-2l-0.6,0.3l-0.1,0l-0.2,0.1c0.5,1.4,1.6,2.5,3,3c2,0.5,3.3-0.9,2.6-2.8c0.5,0.4,1.1,0.5,1.7,0.5l-0.1,2.6
		c0.3,0.2,0.6,0.3,0.9,0.5c0.3,0.2,0.4,0.5,0.9,0.5v-7.6h2v6.6c0.6,0.4,1.3,1,1.8,1v-7.6H32v1.8c-5.1-1.8-5.2,3.1-2.5,5.6
		c0.4-0.1,0.7-0.3,1-0.5c-1-1.3-2.6-3.9,0.8-3.9c0.1,0.6,0.3,1.1,0.7,1.4c0.5,0.6,0.5,0.7,1.6,0.7v-1.3l2.2-0.1l-0.1,2.8
		c0.3,0.2,0.5,0.4,0.8,0.6c0.4,0.3,0.3,0.5,0.9,0.5v-7.6h2.3v6.6c1.1,0.6,1.2,1,1.8,0.9v-7.6h5.2v1.9c-0.7,0-3.4-0.1-3.8,0.1
		c-0.8,0.6,0.4,2.4,0.7,2.8l0.9-0.1c-0.1-0.4-0.1-0.9,0-1.3l2.2-0.1l-0.1,3.2c0.3,0.2,0.6,0.3,0.8,0.5c0.4,0.3,0.4,0.5,0.9,0.5v-7.6
		c1.1,0,0.5-0.1,1,0.4c0.3-0.2,0.5-0.4,0.8-0.4l0.4,0.1l0.1,2.3c-0.9,0.5-0.9,0.8,0.1,2c0.6,0.7,0.5,0.7,1.6,0.7v-1.3h2.1l-0.1,2.8
		c1.3,0.6,1.2,1,1.9,0.9v-7.6h2.9c0.1,0.8,0,1.7-0.1,2.5c-0.9,0-1-0.2-1.6,0.7c0.4,0.8,1,1.6,1.6,2.3c0.3,0.4,0.6,0.7,0.9,1.1
		c0.3,0.4,0.6,0.8,1,1.2c0.4-0.2,0.6-0.3,1-0.5c-0.2-0.5-2.1-2-2.2-2.8c1.6-1.2,1.2-1.5,1.2-4.4h1.8c0-0.6,0.1,0-0.5-0.8
		c-0.2-0.2-0.3-0.5-0.5-0.7c-1.7,0-4.1,0.1-5.6,0c-0.6-0.1-1.1-0.9-1.1-1.6c0-0.9,1.2-1,1.2,0.3l0.8-0.2c0.2-3.2-3.7-2.7-3.2-0.2
		c0.2,0.6,0.5,1.2,0.9,1.7h-2.4c0,0.4,0.7,1,0.9,1.5l1.1,0v2.3h-2.1c0-1.6,0.1-2.2-0.8-3c-1-0.9-1.1-0.9-2.8-0.8
		c-2.3,0.1-5.3,0.1-7.6,0c-0.6-1.8,0.7-2.3,2.5-2.2c1.3,0.2,2.5,0.7,3.5,1.5c0.2-0.2,0.4-0.4,0.5-0.7c-0.7-0.6-1.4-1.1-2.2-1.5
		c-1.7-0.9-4.7-1.3-5.7,0.1C39.1,120.7,39.7,121.4,40.2,122.2L40.2,122.2z"/>
	<path class="st4" d="M27.1,41.7c0.6-1.3,2.5-7,3.2-8.9c0.8-2.2,0.3-3-0.5-4.8c-2.4-5.3-5.2-11.1-7.7-16.5c-0.6-1.3-1.3-3-1.9-4.1
		c-0.7,0-2.9,2.3-3.3,3c-2.3,3.4-1.4,6.5,0.2,9.7L25,37.4C25.4,38.1,26.8,41.3,27.1,41.7"/>
	<path class="st4" d="M79.2,41.7c0.3-0.3,3.5-7.4,4-8.5c2-4.2,4-8.7,6-12.9c0.9-1.5,1.4-3.1,1.6-4.8c0.2-3.3-1.3-5.6-3.6-7.4
		c-0.3-0.3-0.5-0.6-1-0.7c-0.8,1.3-1.4,2.6-2,4c-2.6,5.2-5.1,11.1-7.7,16.5c-0.8,1.7-1.4,2.6-0.6,4.8C76.8,34.8,78.7,40,79.2,41.7"
		/>
	<path class="st2" d="M27,41c0.3-0.4,1.4-3.9,1.6-4.2c0.5-1.5,1-2.9,1.5-4.3c0.6-1.8-0.1-3.2-0.8-4.6c-0.6-1.3-1.2-2.7-1.9-4
		L19.9,7.9c0,0,0,0,0-0.1c-1.2,0.8-2.2,1.9-3,3.1c-0.9,1.5-1.3,3.2-1.1,4.9c0.2,2.2,2.5,6.4,3.5,8.6c1.9,4.1,3.9,8.3,5.8,12.4
		C25.7,38.1,26.5,39.6,27,41"/>
	<path class="st2" d="M79.3,41c2.3-5.3,5.3-11.2,7.7-16.6c0.7-1.4,1.2-2.8,1.9-4.1c1.5-3.1,2.5-6,0.4-9.3c-0.8-1.2-1.8-2.2-3-3.1
		c-0.2,0.2-8.1,17.1-9.3,19.9c-0.7,1.5-1.5,2.6-0.9,4.6C76.5,33.3,79.1,40.7,79.3,41"/>
	<path class="st3" d="M64.5,122.5l1,1.7c0.4-0.3,0.6-0.5,1-0.5c0.4,0.1,0.1,0,0.2,0.1l0.1,2.3c-0.9,0.5-0.9,0.8,0.1,2
		c0.6,0.7,0.5,0.7,1.6,0.7v-1.3h2.1l-0.1,2.8c1.3,0.6,1.2,1,1.9,0.9v-7.6h2v6.6c0.3,0.2,0.5,0.4,0.8,0.6c0.3,0.2,0.4,0.5,0.9,0.4
		v-7.6h2.9c0.1,0.8,0,1.7-0.1,2.5c-0.9,0-1-0.2-1.6,0.7c0.4,0.8,1,1.6,1.6,2.3c0.3,0.4,0.6,0.7,0.9,1.1c0.3,0.4,0.6,0.8,1,1.2
		c0.4-0.2,0.6-0.3,1-0.5c-0.2-0.5-2.1-2-2.2-2.8c1.6-1.2,1.2-1.5,1.2-4.4h5.6v1.4c-2,0-3.9-0.1-4.2,1.8c-0.2,1.5,1,3.4,1.8,4.2
		l1-0.5c-0.7-0.7-1.1-1.7-1.3-2.7c0-1.4,1.4-1.3,2.6-1.3l0,3.6c0.3,0.2,0.5,0.3,0.8,0.5c0.3,0.2,0.4,0.5,1,0.5l0-7.6l1.9,0
		c0-0.5-0.5-0.7-1-1.5l-20.6,0c0,0.4,0.7,1,0.9,1.5l1.1,0v2.3h-2.1c0-1.7,0.1-2.3-1-3.1C66.8,122.1,65.5,121.9,64.5,122.5"/>
	<path class="st5" d="M50.7,41.6l-0.3,0l0.2,0c0.3,1.2,0.6,2.4,0.9,3.7c0.2,0.8,1.1,3,1.1,3.3c-0.3-0.5-0.5-1.1-0.8-1.6
		c-0.1-0.3-0.2-0.6-0.4-0.9c-0.3-0.7-2.3-3.2-2.6-3.8c0,0,0,0,0,0.1l-0.1,0.1c0.1,0,0,0,0.1,0.2c0.6,1,1.4,3,2.6,4.7
		c0.4,0.5,0.7,1,1,1.5c-0.4-0.2-1.5-1.9-2.5-2.7c-0.6-0.4-2.5-2.2-2.8-2.3v0c0.1,0.3,2,2.3,2.4,2.7c0.6,0.7,1.3,1.3,2.1,1.9l0.6,0.6
		c-0.5-0.1-1.8-1.3-3.1-1.9c-1.1-0.6-2.2-1.1-3.4-1.5l-0.1,0c1.2,0.5,2.8,2,4.8,2.9c0.3,0.1,0.5,0.2,0.9,0.4
		c0.9,0.4,0.7,0.2,0.7,0.5c-1.1-0.5-2.2-0.8-3.3-1.1c-1.2-0.2-2.4-0.4-3.6-0.7c0,0.2,0.1,0.2-0.1,0.1c1.4,0.2,3,1.1,5.1,1.5
		c0.3,0.1,0.6,0.1,1,0.2c0.1,0,0.4,0,0.5,0.1l0.4,0.2c-1.3-0.2-2.5-0.2-3.8-0.2c-1.2,0.1-2.4,0.2-3.5,0.3l0,0.1
		c1.2,0,2.4,0.1,3.6,0.2c1.2,0.1,2.8-0.2,3.8-0.1c-0.3,0.3-1.4,0.4-1.8,0.5c-1.8,0.4-3.5,1-5.1,1.7L45,52.2c1.2-0.3,2.4-0.6,3.7-0.9
		c1-0.2,2.6-1.1,3.4-1.1c-0.5,0.3-1,0.6-1.6,0.8c-0.6,0.2-1.1,0.6-1.6,0.9l-3,2.1c1.1-0.5,2.2-1,3.3-1.6c0.5-0.3,1-0.6,1.5-1
		c0.5-0.4,1-0.7,1.6-1c-0.2,0.3,0,0.1-0.3,0.3c-0.9,0.7-1.7,1.4-2.5,2.2L47,55.7l0,0.1l2.8-2.5c1.2-1.2,1.4-1.6,2.2-2.4
		c0.2-0.2,0.1-0.2,0.4-0.3c-0.3,0.5-0.6,1-1,1.5c-1,1.6-1.9,3.3-2.6,5.1l0.1,0c0.3-0.6,0.6-1,1-1.5c1-1.4,1.8-2.9,2.5-4.5
		c0.2-0.3,0.1-0.3,0.3-0.3c-0.4,1.1-0.8,2.2-1.1,3.3c-0.3,1.3-0.5,2.6-0.7,3.9l0.1,0c0.3-1.7,1.2-3.2,1.6-5.4
		c0.1-0.6,0.2-1.2,0.4-1.9c0.1,0.2-0.2,2.9-0.1,3.6c0.1,1.2,0.3,2.7,0.3,3.9h0.2c-0.1-2.4,0.4-3.2,0.1-6.6l0-0.7
		c0.1-0.3-0.1,0,0.1-0.2c0.4,0.9,0.4,2.6,0.9,3.7l1,2.6c0.3,0.7,0.3,0.6,0.2,1c0,0,0.1,0,0.1,0l0.2,0c0.1,0,0.2-0.1,0.3-0.2
		c-0.4,0.1-0.3,0.3-0.5-0.8l-0.7-2.9c-0.3-1.4-1.1-2.9-1.2-3.5c0.3,0.5,0.6,1,0.8,1.6c0.9,2,2.5,3.7,3,4.7l0.1,0l-1.7-3.4
		c-0.6-1.2-1.7-2.4-2-3.1c0.4,0.2,1.5,1.8,2.5,2.7l2.8,2.4l0.1,0c-0.4-0.5-0.7-1-1.2-1.4c-0.2-0.3-0.4-0.4-0.6-0.7
		c-0.2-0.3-0.3-0.4-0.6-0.7l-1.4-1.3c-0.5-0.4-0.9-0.8-1.4-1.2c0.4,0.1,1.8,1.3,3.1,1.9c0.6,0.3,1.1,0.5,1.7,0.8
		c0.6,0.3,1.2,0.6,1.8,0.8l0-0.1l-3-1.9c-1.1-0.6-2.2-1.2-3.4-1.6c0.1-0.1-0.2-0.2,0.8,0.1c0.3,0.1,0.6,0.2,0.8,0.3
		c0.6,0.2,1.1,0.4,1.7,0.5c1.3,0.2,2.6,0.5,3.9,0.7c0.3,0.1,0.1,0.1,0.1-0.2c-1.2-0.2-2.4-0.6-3.6-1c-1.1-0.3-2.9-0.5-3.7-0.8
		c0.4-0.1,2.7,0.3,3.5,0.2c1.3-0.1,2.6-0.2,3.9-0.3v-0.1c-1.3-0.1-2.5-0.2-3.8-0.3c-0.7,0-3.4,0.3-3.6,0.1c0.4-0.3,2.3-0.4,3.7-0.9
		c1.1-0.4,2.2-0.8,3.3-1.3l0.1-0.1c-1.3,0.3-2.5,0.6-3.8,0.9s-2.2,0.9-3.4,1.2l0.4-0.3c3.6-1.8,2-0.9,5.7-3.5l-0.1,0
		c-1.1,0.5-2.2,1-3.3,1.6c-1.2,0.6-2.2,1.6-3,2c0.4-0.5,0.9-0.9,1.4-1.2c0.5-0.4,0.9-0.8,1.3-1.2c0.4-0.5,0.8-0.9,1.2-1.4
		c0.2-0.3,0.3-0.4,0.6-0.7c0.2-0.2,0.4-0.4,0.5-0.7c-1,0.8-2,1.6-2.9,2.5c-1,0.8-2.1,2.5-2.5,2.6c0.1-0.4,1.4-2,1.9-3
		c0.6-1.1,1.1-2.3,1.6-3.5L57,42.5c0,0-0.1,0.1-0.1,0.2l-0.7,1.2c-0.9,1.3-1.7,2.7-2.3,4.1c-0.4,0.8-0.2,0.6-0.5,0.7
		c0.4-1.1,0.8-2.2,1.1-3.3c0.2-1.2,0.6-2.6,0.7-3.8l-0.1,0.1c-0.8,1.3-1.8,6.8-1.9,6.9c-0.1-0.3-0.1-0.6,0-0.9
		c0.2-2.1,0.2-4.2-0.1-6.3H53c-0.2,0.8-0.2,2.7-0.2,3.6c0,0.7,0.3,3.3,0.1,3.6c-0.3-0.5-0.4-2.3-0.9-3.7L50.7,41.6z"/>
	<path class="st2" d="M53.2,58.4l0.5-0.1c0.3-0.1,0.1-0.7,0.9-0.3c0.4,0.2,0.2,0.1,0.8,0.1c0.2-0.4,0.1-0.3-0.2-1l-1-2.6
		c-0.4-1.2-0.5-2.8-0.9-3.7c-0.2,0.2,0-0.1-0.1,0.2l0,0.7C53.6,55.2,53.1,56,53.2,58.4"/>
	<path class="st2" d="M45,52.1c1.6-0.8,3.3-1.3,5.1-1.7c0.4-0.1,1.6-0.1,1.8-0.5c-1-0.1-2.5,0.2-3.8,0.1c-1.2-0.1-2.4-0.2-3.6-0.2
		l0,0.6l0.4,0.3c0.1,0.6,0,0.5-0.3,0.8C44.8,51.9,44.7,52,45,52.1"/>
	<path class="st2" d="M61.7,49.7c0-0.2,0-0.5-0.1-0.7c-0.1-0.2-0.6-0.2-0.3-0.8c0.2-0.3,0.2-0.7,0-0.9c0,0,0,0,0,0
		c-1.1,0.5-2.2,0.9-3.3,1.3c-1.4,0.6-3.3,0.6-3.7,0.9c0.3,0.2,3-0.1,3.6-0.1C59.1,49.5,60.4,49.6,61.7,49.7"/>
	<path class="st2" d="M50.7,41.6l1.2,3.3c0.5,1.5,0.6,3.2,0.9,3.7c0.2-0.3-0.1-2.9-0.1-3.6c0.1-0.9,0.1-2.8,0.2-3.6
		c0-0.4-0.2-0.3-0.6-0.2c-0.2,0.2-0.2,0.6-0.7,0.4C51.5,41.6,51.2,41.1,50.7,41.6"/>
	<path class="st2" d="M59.2,55.7c0.8-0.6,0.2-0.4,0.5-1.2c0.8-0.1,0.6,0.2,1-0.7c-0.6-0.2-1.2-0.5-1.8-0.8c-0.6-0.3-1.1-0.5-1.7-0.8
		c-1.2-0.6-2.7-1.8-3.1-1.9c0.4,0.5,0.9,0.9,1.4,1.2l1.4,1.3c0.3,0.3,0.4,0.4,0.6,0.7c0.2,0.3,0.4,0.4,0.6,0.7
		C58.4,54.8,58.8,55.2,59.2,55.7"/>
	<path class="st2" d="M47.1,55.8c0.6,0.7,0.4,0.1,1,0.4c0.3,0.4,0,0.3,0.2,0.6c0.2,0.2,0.4,0.3,0.6,0.4c0.7-1.8,1.6-3.5,2.6-5.1
		c0.4-0.5,0.7-1,1-1.5c-0.3,0.1-0.1,0-0.4,0.3c-0.8,0.9-1,1.3-2.2,2.4L47.1,55.8z"/>
	<path class="st2" d="M59.1,43.7c-0.5-0.9-0.7-0.2-1.1-0.6c-0.4-0.4,0.2-0.6-0.8-0.8c-0.4,1.2-1,2.3-1.6,3.5c-0.5,1-1.8,2.6-1.9,3
		c0.4-0.1,1.5-1.9,2.5-2.6C57.1,45.3,58.1,44.5,59.1,43.7"/>
	<path class="st2" d="M45.6,45.6c1.2,0.4,2.3,0.9,3.4,1.5c1.3,0.6,2.6,1.8,3.1,1.9l-0.6-0.6c-0.7-0.6-1.4-1.2-2.1-1.9
		c-0.4-0.5-2.3-2.5-2.4-2.7c-0.8,0.4-0.3,0.6-0.5,1C46.3,45.4,45.9,44.5,45.6,45.6"/>
	<path class="st2" d="M51,58.1c1.1,0,0.2-0.3,1.2-0.2c0.4,0.5-0.1,0.4,0.9,0.5c0-1.2-0.2-2.7-0.3-3.9c-0.1-0.7,0.3-3.5,0.1-3.6
		c-0.2,0.6-0.3,1.2-0.4,1.8C52.2,54.9,51.3,56.4,51,58.1"/>
	<path class="st2" d="M57.4,57.1c0.6,0,0.5-0.6,0.6-0.9c0.5-0.1,0.9,0.2,1-0.4l-2.8-2.4c-0.9-0.8-2-2.5-2.5-2.7
		c0.3,0.7,1.4,1.8,2,3.1L57.4,57.1z"/>
	<path class="st2" d="M47,43.8c0.3,0.1,2.3,1.9,2.8,2.3c1,0.8,2.1,2.5,2.5,2.7c-0.3-0.5-0.6-1-1-1.5c-1.2-1.7-1.9-3.7-2.6-4.7
		c-0.1-0.1-0.1-0.1-0.1-0.2c-0.8,0.3-0.2,0.2-0.5,0.7c-0.2,0.4-0.4,0.1-0.9,0.2C47.1,43.6,47.2,43.4,47,43.8"/>
	<path class="st2" d="M60.6,53.8c0.6-0.5,0.1-0.5,0.2-1.1c0.6-0.5,0.3,0.1,0.7-0.8c-1.3-0.2-2.6-0.5-3.9-0.7
		c-0.6-0.1-1.2-0.3-1.7-0.5c-0.3-0.1-0.5-0.2-0.8-0.3c-1-0.4-0.6-0.2-0.8-0.1c1.2,0.5,2.3,1,3.4,1.6L60.6,53.8z"/>
	<path class="st2" d="M45,47.6c1.2,0.3,2.4,0.5,3.6,0.7c1.1,0.3,2.2,0.6,3.3,1.1c-0.1-0.2,0.2-0.1-0.7-0.5c-0.3-0.1-0.5-0.2-0.9-0.4
		c-2-0.9-3.7-2.3-4.8-2.9c-0.4,0.6-0.1,0.4,0,0.8c0.1,0.5-0.2,0.4-0.6,0.5l-0.2,0.5L45,47.6z"/>
	<path class="st2" d="M49,57.2c0.7,0.5,0.5-0.3,1,0.1c0.3,0.2,0,0.2,0.3,0.5c0.2,0.1,0.4,0.2,0.6,0.2c0.2-1.3,0.4-2.6,0.7-3.9
		c0.3-1.1,0.7-2.2,1.1-3.3c-0.2,0.1-0.1,0-0.3,0.3c-0.7,1.6-1.5,3.1-2.5,4.5C49.6,56.2,49.3,56.7,49,57.2"/>
	<path class="st2" d="M45,52.2c-0.3,0.9,0.5,0.2,0.6,0.9c0.1,0.3-0.5,0.7,0.2,1l3-2.1c0.5-0.4,1.1-0.7,1.6-0.9
		c0.6-0.2,1.1-0.5,1.6-0.8c-0.8,0.1-2.3,0.9-3.4,1.1C47.4,51.6,46.2,51.9,45,52.2"/>
	<path class="st2" d="M53.1,41.4c0.3,2.1,0.3,4.2,0.1,6.3c-0.1,0.3-0.1,0.6,0,0.9c0.1-0.1,1.1-5.7,1.9-6.9c-0.2-0.3,0.1-0.1-0.2-0.3
		c-0.4-0.2-0.5,0.4-0.9,0.2c-0.2-0.2-0.2-0.3-0.4-0.4C53.1,41,53.2,41.3,53.1,41.4"/>
	<path class="st2" d="M57.2,42.3c-0.6-0.6-0.5,0-1-0.2s-0.1-0.8-1-0.6c-0.1,1.2-0.5,2.6-0.7,3.8c-0.3,1.1-0.7,2.2-1.1,3.3
		c0.3-0.1,0.1,0,0.5-0.7c0.6-1.4,1.4-2.8,2.3-4.1l0.7-1.2c0,0,0.1-0.1,0.1-0.2L57.2,42.3z"/>
	<path class="st2" d="M61.5,51.7c-0.1-0.9-0.3-0.6-0.3-0.9c0-0.6,0.3,0,0.5-1c-1.3,0.1-2.6,0.2-3.9,0.3c-0.9,0.1-3.1-0.3-3.5-0.2
		c0.8,0.3,2.7,0.5,3.7,0.8C59.1,51.1,60.3,51.4,61.5,51.7"/>
	<path class="st2" d="M61.3,47.2c-0.3-0.8-0.5-0.5-0.7-0.8c-0.1-0.3,0.2-0.6,0-0.8c-0.2-0.4,0-0.1-0.3-0.2c-3.8,2.6-2.1,1.7-5.7,3.5
		l-0.4,0.3c1.2-0.3,2.1-0.9,3.4-1.2S60,47.5,61.3,47.2"/>
	<path class="st2" d="M44.5,49.7c1.2-0.1,2.4-0.2,3.5-0.3c1.3,0,2.5,0.1,3.8,0.2l-0.4-0.2c-0.1,0-0.4-0.1-0.5-0.1
		c-0.3-0.1-0.7-0.1-1-0.2c-2.1-0.4-3.7-1.2-5.1-1.5c-0.2,0.1-0.1,0-0.2,0.2c-0.2,0.5,0.3-0.1,0.3,1c-0.2,0.2-0.2,0.1-0.4,0.2
		L44.5,49.7z"/>
	<path class="st2" d="M55.9,57.9c0.4-0.3,0-0.3,0.4-0.6c0.5-0.1,0.4,0.1,0.7,0.1c0.1,0,0.5-0.1,0.4-0.2c-0.4-1-2.1-2.7-3-4.7
		c-0.2-0.6-0.5-1.1-0.8-1.6c0.1,0.6,0.9,2.1,1.2,3.5l0.7,2.9C55.6,58.1,55.5,57.9,55.9,57.9"/>
	<path class="st2" d="M45.8,54.1c-0.1,0.5,0.3,0.4,0.8,0.5c0.2,0.5-0.1,0.6,0.1,0.9s0.1,0.1,0.4,0.2l2.4-2.8
		c0.8-0.8,1.6-1.5,2.5-2.2c0.3-0.2,0.1,0,0.3-0.3c-0.6,0.3-1.1,0.7-1.6,1c-0.5,0.4-1,0.7-1.5,1C48.1,53,47,53.6,45.8,54.1"/>
	<path class="st2" d="M48.8,42.3c0.2,0.6,2.2,3.1,2.6,3.8c0.2,0.3,0.3,0.6,0.4,0.9c0.3,0.6,0.5,1.2,0.8,1.6c0-0.4-0.9-2.6-1.1-3.3
		c-0.3-1.3-0.6-2.5-0.9-3.7l-0.2,0c-0.7,0.1,0,0.8-0.9,0.6C49.1,42.2,49.4,41.9,48.8,42.3"/>
	<path class="st2" d="M60.2,45.4c0.2-0.2,0.1-0.1,0.1-0.3c-0.8-0.6-0.2-0.1-0.9-0.4c-0.2-0.7,0.3-0.6-0.4-1
		c-0.2,0.3-0.3,0.5-0.5,0.7c-0.3,0.3-0.4,0.4-0.6,0.7c-0.4,0.5-0.8,0.9-1.2,1.4c-0.4,0.5-0.8,0.9-1.3,1.2c-0.5,0.4-1,0.8-1.4,1.2
		c0.7-0.4,1.8-1.3,3-2C58,46.5,59.1,45.9,60.2,45.4"/>
</g>
</svg>
