<svg xmlns="http://www.w3.org/2000/svg" width="106.23" height="129.495" viewBox="0 0 106.23 129.495"><g transform="translate(0 -2)"><path d="M770.531,323.811c1.582-.225,7.579-3.713,9.132-4.74a50.592,50.592,0,0,0,7.7-6.165,47.882,47.882,0,0,0,6.416-7.451,56.468,56.468,0,0,0,5.08-8.785,53.306,53.306,0,0,0,1.438-40.516,34.08,34.08,0,0,0-2.114-4.795c-.676-.054-.632.228-.868.751l-13.951,29.922c-1.248,2.665-.818,2.045-.008,5.014a34.206,34.206,0,0,1-11.039,35.214c-.315.264-.564.463-.893.722-.5.391-.771.457-.891.829" transform="translate(-697.378 -225.68)" fill="#138608" fill-rule="evenodd"/><path d="M32.855,318.267c-.4-.437-1.289-1.019-1.765-1.431-.59-.51-1.14-1.017-1.7-1.529a34.084,34.084,0,0,1-9.165-33.921c.993-3.654,1.352-2.112.111-4.79-.718-1.549-1.375-2.945-2.085-4.463-1.412-3.019-2.8-5.927-4.169-8.935-.806-1.765-8.043-17.459-8.353-17.753-1.022,1-3.372,8.119-3.886,9.965a53.429,53.429,0,0,0,7.791,44.424,52.565,52.565,0,0,0,14.144,13.774c.518.344,8.413,5.134,9.078,4.658" transform="translate(0 -220.333)" fill="#138608" fill-rule="evenodd"/><path d="M220.411,69.446a31.2,31.2,0,0,0,2.141,12.1,32.157,32.157,0,0,0,11.5,14.714,30.762,30.762,0,0,0,4.1,2.447c.746.383,4.077,1.9,4.707,1.821l1.441-8.01a24.036,24.036,0,0,1-15.623-25.362,30.091,30.091,0,0,1,1.884-6.367c.688-2.057,1.474-4.092,2.165-6.1,1.013-2.946,8.635-24.094,8.582-24.546-.039-.335-10.252-21.7-11.933-25.309-.421-.905-1.01-1.98-1.337-2.838-1.008.122-2.652,1.9-3.17,2.676a8.447,8.447,0,0,0-1.341,4.568,9.678,9.678,0,0,0,1.288,4.522c1.806,3.865,3.766,8.142,5.641,11.924.657,1.325,1.246,2.593,1.861,3.934.564,1.23.585.825.126,2.191-2.1,6.266-4.6,13.1-6.87,19.43L221,64.166a21.361,21.361,0,0,0-.593,5.281" transform="translate(-199.485)" fill="#ff9834" fill-rule="evenodd"/><path d="M647.494,92.73c-.035,1.107,1.129,6.148,1.334,8,1.386-.108,5.165-2.06,6.388-2.749A32.242,32.242,0,0,0,671.161,68.22a20.763,20.763,0,0,0-1.611-7.515L659.39,31.923c-.3-.909-.484-.813-.042-1.692.514-1.023,1-2.082,1.5-3.153,1.939-4.177,3.912-8.328,5.881-12.448,1.089-2.279,2.165-4.309,1.3-7.385a8.146,8.146,0,0,0-1.557-3,6.912,6.912,0,0,0-2.662-2.015c-.371.941-.889,1.9-1.3,2.768-.455.96-.85,1.814-1.307,2.776-.9,1.888-1.764,3.709-2.657,5.608l-6.625,13.982c-.395.8-1.031,1.995-1.313,2.774-.2.549.644,2.428.867,3.057l7.547,21.323c1.205,3.376,3.505,9.239,3.9,12.6a24.048,24.048,0,0,1-10.053,22.725,37.256,37.256,0,0,1-5.376,2.888" transform="translate(-586.021 -0.209)" fill="#ff9834" fill-rule="evenodd"/><path d="M451.572,704.3l4.188.417.929-7.175,1.511.187-.9,6.993a21.57,21.57,0,0,0,3.736.126v-7.191l1.406.005.016,7.189,3.748-.12c.167-.57-.706-5.882-.818-7.015l1.512-.17.9,6.824c.064.207.036.131.1.232.594-.037,3.5-.235,3.869-.367.212-.075.158.009.187-.229l-6.864-39.181c-.33-1.85-.033-1.9.759-3.141l4.166-6.381a.784.784,0,0,0-.862-1.171c-.54.1-8.225,3.7-8.618,4.044-.832.732-.888,1.874-1.117,3.151l-6.53,35.725c-.272,1.485-1.191,6.117-1.312,7.245" transform="translate(-408.7 -590.205)" fill="#fff" fill-rule="evenodd"/><path d="M455.394,706.863l3.588.329.911-7.154,2.053.22a29,29,0,0,1-.418,3.541,28.8,28.8,0,0,0-.39,3.509l3.07.063,0-7.206h1.971l.021,7.184,3.168-.1-.848-6.969,2.094-.281.906,7.09,3.532-.321c.073-.867-.935-5.688-1.147-6.9l-4.818-27.473c-.255-1.481-1.312-5.711-.761-6.9.34-.733,3.947-6.024,4.745-7.316.329-.533.249-1.209-.61-.905l-6.967,3.2c-2.371,1.055-1.989,1.748-2.657,5.419-.83,4.564-1.68,9.089-2.492,13.647l-3.742,20.468c-.207,1.155-.41,2.252-.617,3.379a29.312,29.312,0,0,0-.595,3.473" transform="translate(-412.16 -592.994)" fill="#fff" fill-rule="evenodd"/><path d="M84.592,147.311a10.339,10.339,0,0,0,1.284,4.39l3.684,7.9c1.861,3.894,3.668,8.028,5.531,11.843.645,1.32,1.2,2.657,1.841,3.954l1.882,3.911c.242-.4,1.6-4.441,1.888-5.236,2.184-6.064,2.341-5.136-.351-10.735-.761-1.583-1.591-3.332-2.291-4.927-1.445-3.29-3.092-6.471-4.561-9.776-.706-1.588-1.487-3.258-2.272-4.848a44.739,44.739,0,0,0-2.385-4.871c-.383.122-.554.483-.777.779-1.858,2.464-3.48,4.017-3.472,7.613" transform="translate(-76.561 -123.92)" fill="#1a1a18" fill-rule="evenodd"/><path d="M851.88,180.233c.535-.947,1.729-3.689,2.316-4.916.814-1.7,1.544-3.361,2.35-5.064,1.592-3.362,3.083-6.765,4.678-10.041.859-1.764,4.215-8.7,4.578-10.141.99-3.932-.873-6.433-3.049-9.191-.283-.358-.551-.839-.938-1-.424.258-4.34,9.046-4.665,9.715-1.59,3.277-2.989,6.579-4.562,9.78l-3.42,7.3a6.415,6.415,0,0,0-.863,2.772c-.011,1.252,1.986,6.372,2.614,8.141a24.549,24.549,0,0,0,.961,2.645" transform="translate(-767.768 -124.786)" fill="#1a1a18" fill-rule="evenodd"/><path d="M470.187,407.595a9.235,9.235,0,1,0,9.994,8.336,9.19,9.19,0,0,0-9.994-8.336" transform="translate(-417.905 -367.046)" fill="#02017b" fill-rule="evenodd"/><path d="M101.083,182.608c.334-.728.636-1.74.905-2.513.72-2.065,2.63-6.578,2.349-8.162a10.892,10.892,0,0,0-.987-2.434c-.376-.788-.76-1.583-1.121-2.389-2.146-4.787-4.485-9.481-6.671-14.318-.719-1.591-1.463-3.207-2.2-4.732l-1.934-4.142c-.045-.095-.1-.228-.155-.314l-.211-.265a9.706,9.706,0,0,0-.765.943c-2.1,2.735-3.961,5.185-2.779,9.053.347,1.135,10.559,22.973,11.282,24.426.611,1.228,1.74,3.927,2.287,4.846" transform="translate(-78.871 -127.921)" fill="#fff" fill-rule="evenodd"/><path d="M854.68,183.081c.447-1.188,1.2-2.639,1.762-3.847l3.571-7.626c.576-1.282,1.153-2.56,1.773-3.834,1.237-2.539,2.4-5.074,3.571-7.633,1.08-2.355,3.113-5.945,3.113-8.235a7.612,7.612,0,0,0-1.438-4.782l-2.283-3.041c-.2-.2.014-.052-.256-.192a20.146,20.146,0,0,1-1.057,2.365c-1.142,2.295-2.137,4.726-3.324,7.121-2.24,4.522-4.415,9.659-6.643,14.251-.377.777-.744,1.55-1.088,2.33-1.514,3.428-1.475,2.8.385,7.955.31.859.622,1.751.919,2.593l.663,1.9a2.772,2.772,0,0,0,.125.349l.069.136a.834.834,0,0,0,.136.192" transform="translate(-770.483 -128.42)" fill="#fff" fill-rule="evenodd"/><path d="M162.2,1236.7l2.092.063,0-2.307-2.091.01Zm6.488-3.782-21.4.016c.063.4.67,1.062.918,1.5l.987.037c-.013.7.125,2.006-.26,2.433a2.01,2.01,0,0,1-2.157.012c1.45-1.094.522-2.634-.24-3.278-1.221-1.033-2.18-.86-3.879-.453l1.143,1.551c.544-.138,1.638-.711,2.18-.267.6.49-.174,1.034-.544,1.216-.477.234-1.292.373-1.662.57a8.863,8.863,0,0,0,1,1.409l1.368-.342c.154.482.413.992.051,1.491a1.289,1.289,0,0,1-1.414.283c-.964-.3-1.378-1.167-1.935-1.951l-.638.343-.058.043-.165.148a5.155,5.155,0,0,0,3.028,2.985c2.018.495,3.291-.948,2.552-2.754a2.643,2.643,0,0,0,1.7.521l-.114,2.615a8.427,8.427,0,0,1,.854.519c.332.234.416.466.946.481v-7.6h2.018v6.566c.6.4,1.338,1.019,1.782,1.032v-7.6l5.789,0,0,1.813c-5.067-1.847-5.2,3.071-2.468,5.578a4.653,4.653,0,0,0,1.011-.483c-.961-1.256-2.624-3.9.782-3.944a2.289,2.289,0,0,0,.724,1.45c.543.609.457.742,1.609.737l0-1.306,2.162-.052-.113,2.76a5.1,5.1,0,0,0,.848.57c.436.286.342.461.95.477v-7.6l2.279,0v6.638c1.085.566,1.207.978,1.784.938l0-7.576h5.174v1.9c-.675,0-3.417-.145-3.777.14-.792.627.407,2.424.72,2.777l.927-.066a3.562,3.562,0,0,1,.035-1.309l2.165-.051-.069,3.222c.289.184.574.327.832.509.387.273.386.462.948.475v-7.6c1.052.009.526-.094,1.016.437.267-.2.468-.432.793-.448l.4.1.128,2.311c-.894.528-.946.841.064,2.039.553.657.455.689,1.588.695v-1.328l2.106,0-.107,2.84c1.257.555,1.237,1.027,1.851.913l0-7.55,2.923,0a11.62,11.62,0,0,1-.111,2.488c-.886.005-1.036-.161-1.587.668a12.814,12.814,0,0,0,1.6,2.321c.3.391.59.712.891,1.1a8.916,8.916,0,0,0,.98,1.151c.422-.153.581-.342.974-.469-.218-.545-2.084-1.981-2.2-2.828,1.649-1.249,1.226-1.512,1.226-4.433l1.824,0c-.04-.56.12-.006-.463-.79a5.35,5.35,0,0,1-.483-.73c-1.658.013-4.051.138-5.631.005-.592-.05-1.145-.94-1.117-1.616.036-.863,1.183-.957,1.239.266l.763-.167c.213-3.161-3.73-2.7-3.19-.161a4.789,4.789,0,0,0,.932,1.675H181.05c.049.449.688,1.024.948,1.514l1.142.006v2.3h-2.086c-.021-1.554.1-2.158-.82-3-1.008-.922-1.141-.894-2.79-.819-2.286.1-5.3.079-7.6-.008-.555-1.833.7-2.336,2.472-2.176a6.748,6.748,0,0,1,3.5,1.489,1.624,1.624,0,0,0,.513-.658,19.688,19.688,0,0,0-2.181-1.524c-1.732-.916-4.68-1.3-5.725.128C167.57,1231.345,168.217,1232.055,168.686,1232.914Z" transform="translate(-128.504 -1110.688)" fill="#fff" fill-rule="evenodd"/><path d="M173.979,93.623c.584-1.277,2.453-6.988,3.159-8.893.815-2.2.253-2.977-.537-4.751-2.365-5.312-5.21-11.148-7.7-16.514-.6-1.284-1.294-2.984-1.931-4.116-.687,0-2.855,2.275-3.317,2.971-2.263,3.4-1.387,6.5.2,9.7l8.062,17.294c.318.706,1.726,3.914,2.065,4.308" transform="translate(-146.874 -51.904)" fill="#1a1a18" fill-rule="evenodd"/><path d="M800.853,94.109c.336-.329,3.522-7.444,4.037-8.519,2.033-4.238,3.984-8.714,6.013-12.884a12.453,12.453,0,0,0,1.6-4.777c.234-3.31-1.307-5.564-3.567-7.368-.324-.259-.534-.571-.954-.7a30.5,30.5,0,0,0-2.006,4.015c-2.565,5.246-5.1,11.135-7.669,16.456-.824,1.7-1.388,2.629-.62,4.771.733,2.046,2.66,7.263,3.169,9" transform="translate(-721.624 -52.371)" fill="#1a1a18" fill-rule="evenodd"/><path d="M176.76,96.251c.267-.364,1.437-3.874,1.565-4.248.512-1.493,1.024-2.857,1.541-4.345.63-1.815-.147-3.223-.846-4.611-.645-1.282-1.235-2.693-1.868-4.025l-7.469-15.9c-.009-.012-.031-.037-.047-.054a11.447,11.447,0,0,0-3.032,3.067,7.919,7.919,0,0,0-1.1,4.87c.234,2.249,2.531,6.4,3.532,8.631,1.855,4.14,3.9,8.283,5.8,12.429.618,1.346,1.418,2.853,1.92,4.186" transform="translate(-149.757 -55.269)" fill="#fff" fill-rule="evenodd"/><path d="M803.788,96.642c2.34-5.275,5.255-11.236,7.731-16.569.654-1.409,1.248-2.755,1.932-4.146,1.516-3.083,2.522-5.974.447-9.343a12.577,12.577,0,0,0-2.99-3.061c-.173.155-8.1,17.061-9.349,19.882-.661,1.5-1.528,2.629-.892,4.574.333,1.018,2.877,8.367,3.121,8.664" transform="translate(-724.452 -55.681)" fill="#fff" fill-rule="evenodd"/><path d="M679.557,1267.722l.992,1.708c.447-.318.577-.524.981-.454.38.066.091,0,.238.093l.122,2.31c-.894.528-.946.841.064,2.039.553.657.455.689,1.588.695v-1.328l2.106,0-.107,2.84c1.257.555,1.237,1.027,1.851.913l0-7.55,2.04,0v6.552a7.393,7.393,0,0,0,.844.58c.317.236.439.484.935.441l0-7.573h2.9a11.616,11.616,0,0,1-.111,2.488c-.886.005-1.036-.161-1.587.668a12.814,12.814,0,0,0,1.6,2.321c.3.391.59.712.891,1.1a8.914,8.914,0,0,0,.98,1.15c.422-.153.581-.342.974-.469-.218-.545-2.084-1.981-2.2-2.828,1.649-1.249,1.226-1.512,1.226-4.433l5.6,0v1.427c-1.994-.016-3.885-.114-4.154,1.818-.2,1.459.961,3.38,1.783,4.152l1.032-.457a4.688,4.688,0,0,1-1.254-2.667c.024-1.352,1.376-1.321,2.575-1.3l-.033,3.64c.287.158.507.295.819.5.346.231.44.46.973.482l-.007-7.577,1.878-.021c-.05-.533-.467-.655-.962-1.509l-20.6-.009c.049.45.688,1.025.948,1.515l1.142.006v2.3h-2.086c-.023-1.712.075-2.274-.976-3.134a2.318,2.318,0,0,0-3.013-.429" transform="translate(-615.041 -1145.221)" fill="#fff" fill-rule="evenodd"/><path d="M475.3,417.544l-.284-.009.16.04c.3,1.193.569,2.449.854,3.708.172.757,1.136,2.959,1.114,3.328-.281-.472-.549-1.091-.805-1.644-.145-.312-.243-.59-.411-.919-.342-.671-2.324-3.231-2.567-3.8a.237.237,0,0,0-.021.054l-.128.081c.058.036.043.014.14.162.649.992,1.357,2.986,2.593,4.717a9.993,9.993,0,0,1,.984,1.507c-.433-.206-1.461-1.891-2.511-2.733-.554-.444-2.5-2.218-2.816-2.345l0,.032c.105.287,2.013,2.254,2.4,2.738a16.826,16.826,0,0,0,2.091,1.9l.639.632c-.5-.129-1.833-1.312-3.148-1.926a28.277,28.277,0,0,0-3.387-1.494l-.08.024c1.151.542,2.784,1.952,4.834,2.86.32.142.525.241.853.381.915.392.653.233.724.464a20.228,20.228,0,0,0-3.315-1.1,36.383,36.383,0,0,1-3.6-.652c0,.218.058.188-.144.129,1.4.239,2.957,1.09,5.088,1.461.322.056.641.111.981.164.13.02.386.047.5.078l.387.188a24.046,24.046,0,0,0-3.774-.225c-1.165.085-2.38.2-3.537.257l-.007.121a34,34,0,0,1,3.643.2c1.246.077,2.756-.249,3.779-.129-.252.316-1.406.391-1.807.466A25.174,25.174,0,0,0,469.6,428l-.051.107c1.239-.288,2.433-.569,3.69-.852,1.04-.234,2.606-1.072,3.357-1.146a6.432,6.432,0,0,1-1.6.812,9.136,9.136,0,0,0-1.646.915l-2.97,2.147a34.124,34.124,0,0,0,3.3-1.627,9.541,9.541,0,0,0,1.5-.963,11.054,11.054,0,0,1,1.566-1.046c-.178.305-.027.093-.29.33a22.554,22.554,0,0,0-2.491,2.159l-2.371,2.776.016.121,2.793-2.461c1.208-1.176,1.4-1.578,2.224-2.429.212-.218.086-.192.358-.265a10.924,10.924,0,0,1-.966,1.465,29.157,29.157,0,0,0-2.6,5.1l.106.014c.307-.561.632-1,.964-1.527a24.119,24.119,0,0,0,2.487-4.542c.159-.341.053-.257.3-.331a25.6,25.6,0,0,0-1.115,3.313,37.2,37.2,0,0,0-.682,3.918l.079.04c.323-1.708,1.179-3.172,1.561-5.376a13.8,13.8,0,0,1,.368-1.85c.105.156-.2,2.948-.146,3.628.093,1.184.276,2.682.253,3.855l.151,0c-.12-2.365.412-3.178.065-6.636l-.02-.682c.069-.3-.071-.014.09-.2.359.883.449,2.574.884,3.732l.96,2.552c.257.668.332.582.173.952.026,0,.066-.022.079,0l.155-.02a.606.606,0,0,0,.3-.2c-.4.057-.289.263-.495-.761l-.651-2.854c-.306-1.35-1.1-2.919-1.193-3.488a7.2,7.2,0,0,1,.818,1.581c.871,2.011,2.534,3.74,2.959,4.744l.109-.049-1.658-3.351c-.623-1.243-1.707-2.432-1.985-3.089.425.228,1.538,1.845,2.471,2.693l2.841,2.427.073-.008a12.665,12.665,0,0,0-1.174-1.4c-.21-.264-.4-.429-.632-.7-.248-.286-.345-.44-.62-.709l-1.372-1.289a8.982,8.982,0,0,1-1.355-1.239c.417.054,1.845,1.293,3.087,1.888.6.286,1.08.506,1.677.784a12.947,12.947,0,0,0,1.816.783l-.024-.067-3.038-1.94a23.92,23.92,0,0,0-3.365-1.629c.143-.111-.223-.242.787.126.284.1.559.206.833.308a8.811,8.811,0,0,0,1.746.523c1.327.227,2.609.461,3.894.689.256.053.094.057.087-.171a21.848,21.848,0,0,1-3.556-1.033c-1.066-.347-2.929-.463-3.746-.806.422-.126,2.684.262,3.535.2,1.322-.1,2.61-.209,3.926-.26v-.1c-1.259-.1-2.547-.164-3.815-.252-.666-.046-3.378.276-3.646.075.425-.294,2.255-.356,3.7-.907,1.1-.42,2.232-.792,3.321-1.27l.057-.1c-1.274.278-2.5.566-3.783.865s-2.19.861-3.373,1.17l.434-.311c3.6-1.784,1.978-.871,5.744-3.485l-.093-.022a31.464,31.464,0,0,0-3.278,1.61c-1.2.65-2.242,1.61-2.975,1.974a7.419,7.419,0,0,1,1.426-1.246,7.636,7.636,0,0,0,1.329-1.235c.4-.516.8-.9,1.239-1.418.23-.269.348-.414.616-.713a4.053,4.053,0,0,0,.528-.7,35.565,35.565,0,0,0-2.861,2.45c-.963.76-2.132,2.543-2.5,2.62.068-.378,1.441-1.98,1.908-3.028a31.242,31.242,0,0,0,1.556-3.455l-.178.189c-.03.038-.092.125-.119.164l-.747,1.151a22.433,22.433,0,0,0-2.263,4.1c-.371.765-.2.639-.468.721a26.074,26.074,0,0,0,1.118-3.3c.213-1.184.554-2.586.679-3.76l-.095.054c-.782,1.283-1.837,6.794-1.915,6.939a1.9,1.9,0,0,1,0-.86,24.572,24.572,0,0,0-.109-6.269h-.1c-.177.843-.174,2.68-.24,3.627-.048.679.31,3.253.093,3.552-.263-.53-.358-2.283-.9-3.734Z" transform="translate(-424.556 -375.921)" fill="#02017b" fill-rule="evenodd"/><path d="M560.027,524.122l.5-.08c.272-.149.1-.734.893-.278.357.206.218.06.759.081.159-.37.084-.284-.173-.952l-.96-2.552c-.435-1.157-.525-2.849-.884-3.732-.162.182-.021-.1-.09.2l.02.682c.346,3.458-.185,4.271-.065,6.636" transform="translate(-506.843 -465.752)" fill="#fff" fill-rule="evenodd"/><path d="M469.4,507.61a25.176,25.176,0,0,1,5.1-1.748c.4-.075,1.555-.15,1.807-.466-1.023-.12-2.533.207-3.779.129a34.01,34.01,0,0,0-3.643-.2l-.021.561.44.257c.062.554-.037.487-.288.788.1.464-.008.558.379.68" transform="translate(-424.352 -455.526)" fill="#fff" fill-rule="evenodd"/><path d="M578.385,481.8c-.04-.2.023-.472-.089-.669-.129-.228-.573-.231-.326-.771a.641.641,0,0,0-.022-.915c-1.089.478-2.219.85-3.321,1.27-1.447.551-3.277.613-3.7.907.268.2,2.98-.122,3.646-.075,1.268.088,2.555.15,3.815.252" transform="translate(-516.722 -432.114)" fill="#fff" fill-rule="evenodd"/><path d="M534.46,414.84l1.212,3.255c.543,1.45.639,3.2.9,3.734.217-.3-.141-2.872-.093-3.552.067-.947.063-2.785.24-3.627,0-.415-.194-.26-.645-.234-.187.243-.24.643-.687.449-.176-.076-.422-.57-.928-.026" transform="translate(-483.719 -373.217)" fill="#fff" fill-rule="evenodd"/><path d="M574,517.038c.771-.558.212-.44.46-1.207.793-.144.564.163.965-.671a12.95,12.95,0,0,1-1.816-.783c-.6-.278-1.08-.5-1.677-.784-1.242-.6-2.67-1.835-3.087-1.888a8.98,8.98,0,0,0,1.355,1.239l1.372,1.289c.275.27.372.423.62.709.231.266.422.431.632.7a12.666,12.666,0,0,1,1.174,1.4" transform="translate(-514.841 -461.314)" fill="#fff" fill-rule="evenodd"/><path d="M495.626,519.711c.558.721.446.06,1.05.4.3.391.016.338.189.6a3.731,3.731,0,0,0,.566.409,29.157,29.157,0,0,1,2.6-5.1,10.924,10.924,0,0,0,.966-1.465c-.272.073-.146.047-.358.265-.829.851-1.016,1.254-2.224,2.429Z" transform="translate(-448.572 -463.895)" fill="#fff" fill-rule="evenodd"/><path d="M571.347,427.922c-.55-.868-.686-.221-1.106-.587-.444-.383.172-.587-.792-.825a31.247,31.247,0,0,1-1.556,3.455c-.468,1.047-1.841,2.65-1.908,3.028.369-.077,1.538-1.86,2.5-2.62a35.56,35.56,0,0,1,2.861-2.45" transform="translate(-512.251 -384.208)" fill="#fff" fill-rule="evenodd"/><path d="M480.626,444.143a28.277,28.277,0,0,1,3.387,1.494c1.315.614,2.644,1.8,3.148,1.926l-.639-.632a16.828,16.828,0,0,1-2.091-1.9c-.384-.484-2.291-2.451-2.4-2.738-.816.4-.276.575-.45.979-.263.612-.735-.288-.958.87" transform="translate(-434.996 -398.493)" fill="#fff" fill-rule="evenodd"/><path d="M537.163,524.188c1.12,0,.236-.331,1.183-.244.415.512-.064.381.853.5.024-1.173-.16-2.671-.253-3.855-.053-.68.251-3.471.146-3.628a13.81,13.81,0,0,0-.368,1.85c-.382,2.2-1.238,3.668-1.561,5.376" transform="translate(-486.166 -466.073)" fill="#fff" fill-rule="evenodd"/><path d="M570.056,520.484c.63-.032.507-.6.62-.916.528-.134.916.187,1.049-.4l-2.841-2.427c-.934-.848-2.047-2.464-2.471-2.693.278.656,1.362,1.846,1.985,3.089Z" transform="translate(-512.638 -463.431)" fill="#fff" fill-rule="evenodd"/><path d="M495.51,429.492c.314.128,2.262,1.9,2.816,2.345,1.05.842,2.078,2.527,2.511,2.733a9.993,9.993,0,0,0-.984-1.507c-1.236-1.731-1.944-3.724-2.593-4.717-.1-.148-.082-.126-.14-.162-.762.3-.2.239-.452.711-.192.364-.431.125-.863.173-.215.3-.133.061-.294.424" transform="translate(-448.467 -385.723)" fill="#fff" fill-rule="evenodd"/><path d="M576.857,512.257c.568-.456.052-.517.159-1.14.611-.525.315.148.7-.784-1.285-.228-2.567-.461-3.894-.689a8.813,8.813,0,0,1-1.746-.523c-.273-.1-.549-.2-.833-.308-1.01-.367-.644-.237-.787-.126a23.923,23.923,0,0,1,3.365,1.629Z" transform="translate(-516.296 -458.478)" fill="#fff" fill-rule="evenodd"/><path d="M472.125,463.977a36.383,36.383,0,0,0,3.6.652,20.228,20.228,0,0,1,3.315,1.1c-.07-.231.191-.071-.724-.464-.328-.141-.533-.239-.853-.381-2.05-.908-3.683-2.317-4.834-2.86-.442.649-.108.361-.041.818.074.506-.228.388-.558.544l-.151.476Z" transform="translate(-427.081 -416.353)" fill="#fff" fill-rule="evenodd"/><path d="M515.747,522.877c.688.48.452-.321,1.045.1.319.223.039.249.3.489a3.918,3.918,0,0,0,.612.247,37.217,37.217,0,0,1,.682-3.918,25.6,25.6,0,0,1,1.115-3.313c-.246.074-.14-.01-.3.331a24.119,24.119,0,0,1-2.487,4.542c-.332.528-.658.965-.964,1.527" transform="translate(-466.783 -465.633)" fill="#fff" fill-rule="evenodd"/><path d="M473.414,511.626c-.253.853.472.242.6.853.072.35-.48.719.231,1.023l2.97-2.147a9.136,9.136,0,0,1,1.646-.915,6.432,6.432,0,0,0,1.6-.812c-.751.075-2.317.913-3.357,1.146-1.257.282-2.452.564-3.69.852" transform="translate(-428.421 -459.435)" fill="#fff" fill-rule="evenodd"/><path d="M559.362,414.391a24.571,24.571,0,0,1,.109,6.269,1.9,1.9,0,0,0,0,.86c.078-.145,1.133-5.655,1.915-6.939-.167-.286.054-.126-.245-.251-.387-.161-.454.4-.913.231-.225-.183-.18-.29-.363-.385-.479-.249-.446.045-.5.215" transform="translate(-506.257 -372.958)" fill="#fff" fill-rule="evenodd"/><path d="M566.493,419.119c-.611-.633-.495-.02-1-.154s-.085-.791-.977-.58c-.125,1.173-.466,2.575-.679,3.76a26.074,26.074,0,0,1-1.118,3.3c.269-.082.1.044.468-.721a22.431,22.431,0,0,1,2.263-4.1l.747-1.151c.027-.039.088-.127.119-.164Z" transform="translate(-509.295 -376.817)" fill="#fff" fill-rule="evenodd"/><path d="M578.217,507.208c-.115-.921-.308-.64-.3-.944.022-.554.319-.006.454-.956-1.316.051-2.6.162-3.926.26-.852.063-3.114-.324-3.535-.2.817.343,2.68.459,3.746.806a21.851,21.851,0,0,0,3.556,1.033" transform="translate(-516.712 -455.525)" fill="#fff" fill-rule="evenodd"/><path d="M577.287,461.212c-.332-.785-.535-.452-.686-.781-.115-.251.175-.582.009-.818-.246-.35.039-.14-.3-.162-3.766,2.613-2.146,1.7-5.744,3.485l-.433.311c1.183-.309,2.1-.872,3.373-1.17s2.509-.586,3.783-.865" transform="translate(-516.004 -413.983)" fill="#fff" fill-rule="evenodd"/><path d="M469.01,485.85c1.157-.053,2.372-.173,3.537-.257a24.046,24.046,0,0,1,3.774.225l-.387-.188c-.111-.031-.367-.058-.5-.078-.34-.053-.66-.108-.981-.164-2.131-.372-3.684-1.223-5.088-1.461-.23.067-.116-.05-.194.18-.185.546.322-.063.26.959-.229.18-.2.082-.44.233Z" transform="translate(-424.468 -436.173)" fill="#fff" fill-rule="evenodd"/><path d="M566.188,522.865c.388-.266.049-.277.42-.637.547-.106.354.067.66.09.133.01.517-.114.358-.231-.425-1-2.089-2.733-2.959-4.744a7.2,7.2,0,0,0-.818-1.581c.1.569.887,2.139,1.193,3.488l.651,2.854c.206,1.024.1.817.495.761" transform="translate(-510.318 -464.986)" fill="#fff" fill-rule="evenodd"/><path d="M482.382,515.762c-.15.52.339.379.775.53.169.536-.128.592.084.859s.126.128.357.24l2.371-2.776a22.56,22.56,0,0,1,2.491-2.159c.263-.237.111-.024.29-.33a11.052,11.052,0,0,0-1.566,1.046,9.541,9.541,0,0,1-1.5.963,34.11,34.11,0,0,1-3.3,1.627" transform="translate(-436.56 -461.695)" fill="#fff" fill-rule="evenodd"/><path d="M514.034,419.969c.243.569,2.224,3.129,2.567,3.8.168.329.267.607.411.919.256.553.524,1.172.805,1.644.021-.369-.942-2.571-1.114-3.328-.286-1.259-.554-2.515-.854-3.708l-.16-.04c-.719.118-.008.836-.9.642-.422-.092-.185-.337-.758.071" transform="translate(-465.232 -377.642)" fill="#fff" fill-rule="evenodd"/><path d="M574.6,443.118c.168-.225.061-.051.12-.338-.815-.632-.166-.116-.868-.412-.171-.712.261-.572-.368-.982a4.055,4.055,0,0,1-.528.7c-.268.3-.386.444-.616.713-.442.516-.835.9-1.239,1.418a7.633,7.633,0,0,1-1.329,1.235,7.418,7.418,0,0,0-1.426,1.246c.733-.364,1.779-1.324,2.975-1.974a31.464,31.464,0,0,1,3.278-1.61" transform="translate(-514.392 -397.671)" fill="#fff" fill-rule="evenodd"/></g></svg>