<?xml version="1.0" encoding="utf-8"?>
<!-- Generator: Adobe Illustrator 25.4.1, SVG Export Plug-In . SVG Version: 6.00 Build 0)  -->
<svg version="1.1" id="Layer_1" xmlns="http://www.w3.org/2000/svg" xmlns:xlink="http://www.w3.org/1999/xlink" x="0px" y="0px"
	 viewBox="0 0 179 96.9" style="enable-background:new 0 0 179 96.9;" xml:space="preserve">
<style type="text/css">
	.st0{fill:#9F8A63;}
	.st1{fill-rule:evenodd;clip-rule:evenodd;fill:#9F8A63;}
	.st2{fill-rule:evenodd;clip-rule:evenodd;fill:#F6921E;}
	.st3{fill-rule:evenodd;clip-rule:evenodd;fill:#00A04E;}
</style>
<g>
	<g>
		<path class="st0" d="M22.2,64.6H13l-1.7,4.1H8.1l8-18.1h3.1l7.9,18.1h-3.3L22.2,64.6z M21,61.9l-3.4-8l-3.4,8H21z"/>
		<path class="st0" d="M39.2,55v2l-7.9,9.3l8.1,0v2.4l-11.8,0v-2l7.9-9.3h-7.6V55L39.2,55z"/>
		<path class="st0" d="M50,68.7v-1.7c-1,1.2-2.6,1.8-4.6,1.8c-3,0-4.8-1.8-4.8-4.3c0-2.5,1.9-4.1,5.2-4.1H50V60
			c0-1.7-1.1-2.8-3.3-2.8c-1.3,0-2.7,0.5-4.1,1.4l-1.2-2.1c1.9-1.1,3.3-1.7,5.9-1.7c3.5,0,5.5,1.8,5.6,4.8l0,9H50z M50,63.9v-1.3
			h-3.7c-1.9,0-2.8,0.5-2.8,1.8c0,1.2,1,2,2.7,2C48.2,66.5,49.8,65.4,50,63.9z"/>
		<path class="st0" d="M69.4,49.5v19.2h-3v-2.4c-1,1.6-2.6,2.5-4.8,2.5c-4,0-6.6-2.9-6.6-7.1c0-4.1,2.7-7,6.5-7
			c2.2,0,3.9,0.9,4.9,2.5v-7.8H69.4z M66.4,61.9c0-2.7-1.7-4.5-4.2-4.5s-4.2,1.9-4.2,4.5c0,2.6,1.7,4.5,4.2,4.5
			C64.7,66.4,66.4,64.5,66.4,61.9z"/>
		<path class="st0" d="M76.5,51c0,1-0.8,1.8-1.7,1.8S73,52,73,51c0-1,0.8-1.8,1.7-1.8S76.5,50,76.5,51z M76.2,55v13.8h-3V55H76.2z"
			/>
	</g>
	<g>
		<g>
			<polygon class="st1" points="39.4,21.6 45.6,28.3 47,30.1 48.3,32 46.7,30.4 45,28.8 			"/>
			<polygon class="st1" points="42.2,19.7 46.6,27.7 47.5,29.9 48.3,32 47.1,30 45.9,28.1 			"/>
			<polygon class="st1" points="45.4,18.7 47.8,27.5 48,29.7 48.3,32 47.6,29.8 46.9,27.6 			"/>
			<polygon class="st1" points="48.9,18.5 48.9,27.5 48.6,29.8 48.3,32 48.2,29.7 48.1,27.5 			"/>
			<polygon class="st1" points="52.3,19.3 50,27.9 49.2,29.9 48.3,32 48.8,29.8 49.2,27.6 			"/>
			<polygon class="st1" points="55.4,20.9 51,28.5 49.7,30.3 48.3,32 49.3,30 50.3,28.1 			"/>
			<polygon class="st1" points="58,23.3 51.8,29.4 50.1,30.7 48.3,32 49.8,30.4 51.3,28.8 			"/>
			<polygon class="st1" points="60,26.2 52.4,30.5 50.3,31.2 48.3,32 50.2,30.8 52,29.7 			"/>
			<polygon class="st1" points="61.2,29.6 52.7,31.6 50.5,31.8 48.3,32 50.4,31.4 52.5,30.8 			"/>
			<polygon class="st1" points="61.5,33.1 52.7,32.8 50.5,32.4 48.3,32 50.5,32 52.7,32 			"/>
			<polygon class="st1" points="60.9,36.6 52.4,33.9 50.3,33 48.3,32 50.5,32.6 52.6,33.1 			"/>
			<polygon class="st1" points="59.5,39.7 51.8,34.9 50.1,33.4 48.3,32 50.3,33.1 52.2,34.2 			"/>
			<polygon class="st1" points="57.3,42.3 51,35.7 49.6,33.8 48.3,32 49.9,33.6 51.6,35.2 			"/>
			<polygon class="st1" points="54.4,44.3 50,36.2 49.1,34.1 48.3,32 49.5,33.9 50.7,35.9 			"/>
			<polygon class="st1" points="51.2,45.3 48.9,36.5 48.6,34.2 48.3,32 49,34.2 49.7,36.3 			"/>
			<polygon class="st1" points="47.7,45.5 47.7,36.4 48,34.2 48.3,32 48.4,34.2 48.5,36.5 			"/>
			<polygon class="st1" points="44.3,44.7 46.6,36.1 47.5,34 48.3,32 47.8,34.2 47.4,36.4 			"/>
			<polygon class="st1" points="41.2,43.1 45.6,35.4 47,33.7 48.3,32 47.3,33.9 46.3,35.9 			"/>
			<polygon class="st1" points="38.6,40.7 44.8,34.6 46.6,33.3 48.3,32 46.8,33.6 45.4,35.2 			"/>
			<polygon class="st1" points="36.6,37.7 44.2,33.5 46.3,32.8 48.3,32 46.5,33.1 44.6,34.3 			"/>
			<polygon class="st1" points="35.4,34.4 43.9,32.4 46.1,32.2 48.3,32 46.2,32.6 44.1,33.2 			"/>
			<polygon class="st1" points="35.1,30.8 43.9,31.2 46.1,31.6 48.3,32 46.1,32 43.9,32 			"/>
			<polygon class="st1" points="35.7,27.4 44.2,30.1 46.3,31 48.3,32 46.1,31.4 44,30.9 			"/>
			<polygon class="st1" points="37.2,24.2 44.8,29.1 46.6,30.5 48.3,32 46.3,30.9 44.4,29.8 			"/>
		</g>
		<path class="st1" d="M43.7,19.2c0.3-0.2,0.7,0,0.9,0.3c0.2,0.3,0,0.7-0.3,0.9c-0.3,0.2-0.7,0-0.9-0.3
			C43.2,19.7,43.4,19.3,43.7,19.2z"/>
		<path class="st1" d="M47,18.5c0.4-0.1,0.7,0.2,0.8,0.5c0.1,0.4-0.1,0.7-0.5,0.8c-0.4,0.1-0.7-0.2-0.8-0.5
			C46.4,18.9,46.7,18.6,47,18.5z"/>
		<path class="st1" d="M50.5,18.8c0.4,0,0.6,0.4,0.6,0.7c0,0.4-0.3,0.7-0.7,0.6c-0.4,0-0.6-0.4-0.6-0.7C49.8,19,50.1,18.8,50.5,18.8
			z"/>
		<path class="st1" d="M53.7,20c0.3,0.1,0.5,0.5,0.4,0.9c-0.1,0.3-0.5,0.5-0.8,0.4c-0.3-0.1-0.5-0.5-0.4-0.9
			C53,20,53.4,19.8,53.7,20z"/>
		<path class="st1" d="M56.7,22c0.3,0.2,0.4,0.6,0.2,0.9c-0.2,0.3-0.6,0.4-0.9,0.2c-0.3-0.2-0.4-0.6-0.2-0.9
			C55.9,21.8,56.4,21.7,56.7,22z"/>
		<path class="st1" d="M59,24.6c0.3,0.3,0.2,0.7,0,1c-0.3,0.2-0.7,0.2-0.9-0.1c-0.2-0.3-0.2-0.7,0-1C58.3,24.3,58.8,24.3,59,24.6z"
			/>
		<path class="st1" d="M60.6,27.8c0.2,0.3,0,0.7-0.3,0.9c-0.3,0.2-0.7,0-0.9-0.3c-0.2-0.3,0-0.7,0.3-0.9
			C60.1,27.3,60.5,27.5,60.6,27.8z"/>
		<path class="st1" d="M61.4,31.3c0.1,0.4-0.1,0.7-0.5,0.8c-0.4,0.1-0.7-0.2-0.8-0.5c-0.1-0.4,0.1-0.7,0.5-0.8
			C61,30.6,61.3,30.9,61.4,31.3z"/>
		<path class="st1" d="M61.3,34.8c0,0.4-0.3,0.6-0.7,0.6c-0.4,0-0.6-0.4-0.6-0.7c0-0.4,0.3-0.6,0.7-0.6C61,34.1,61.3,34.4,61.3,34.8
			z"/>
		<path class="st1" d="M60.3,38.1c-0.1,0.4-0.5,0.5-0.8,0.4c-0.3-0.1-0.5-0.5-0.4-0.9c0.1-0.3,0.5-0.5,0.8-0.4
			C60.2,37.3,60.4,37.7,60.3,38.1z"/>
		<path class="st1" d="M58.5,41c-0.2,0.3-0.6,0.4-0.9,0.2c-0.3-0.2-0.4-0.6-0.2-0.9c0.2-0.3,0.6-0.4,0.9-0.2
			C58.6,40.3,58.7,40.7,58.5,41z"/>
		<path class="st1" d="M56,43.3c-0.3,0.2-0.7,0.2-0.9-0.1c-0.2-0.3-0.2-0.7,0-1c0.3-0.2,0.7-0.2,0.9,0.1C56.3,42.6,56.2,43,56,43.3z
			"/>
		<path class="st1" d="M52.9,44.8c-0.3,0.2-0.7,0-0.9-0.3c-0.2-0.3,0-0.7,0.3-0.9c0.3-0.2,0.7,0,0.9,0.3
			C53.4,44.2,53.3,44.6,52.9,44.8z"/>
		<path class="st1" d="M49.6,45.4c-0.4,0.1-0.7-0.2-0.8-0.5c-0.1-0.4,0.1-0.7,0.5-0.8c0.4-0.1,0.7,0.2,0.8,0.5
			C50.2,45,49.9,45.4,49.6,45.4z"/>
		<path class="st1" d="M46.2,45.2c-0.4,0-0.6-0.4-0.6-0.7c0-0.4,0.3-0.6,0.7-0.6c0.4,0,0.6,0.4,0.6,0.7
			C46.8,44.9,46.5,45.2,46.2,45.2z"/>
		<path class="st1" d="M47.2,30.7c0.7-0.6,1.7-0.5,2.4,0.2c0.6,0.7,0.6,1.8-0.1,2.4c-0.7,0.6-1.7,0.5-2.4-0.2
			C46.5,32.4,46.5,31.3,47.2,30.7z"/>
		<path class="st1" d="M58.4,23c-4.1-4.8-10.6-6.2-15.8-3.9v1.2c4.9-2.4,11.1-1.1,15.1,3.4c4.7,5.5,4.4,13.7-0.8,18.3
			c-4,3.6-9.7,3.9-14.3,1.4v1.2c4.9,2.5,10.8,2,15-1.7C63.1,37.7,63.5,28.9,58.4,23z"/>
	</g>
	<g>
		<path class="st0" d="M94,75l-4.8-6.4l-2.5,2.7V75h-2.4V60.5h2.4V68l6.9-7.5h2.9l-5.6,6.2l6,8.3H94z"/>
		<path class="st0" d="M105.1,75v-1.3c-0.8,1-2.1,1.5-3.6,1.5c-2.4,0-3.9-1.5-3.9-3.4c0-2,1.5-3.3,4.2-3.3h3.3V68
			c0-1.4-0.9-2.2-2.6-2.2c-1.1,0-2.2,0.4-3.3,1.1l-1-1.7c1.5-0.9,2.7-1.4,4.7-1.4c2.8,0,4.4,1.4,4.5,3.9l0,7.2H105.1z M105.1,71.1
			v-1h-3c-1.6,0-2.3,0.4-2.3,1.5c0,1,0.8,1.6,2.1,1.6C103.7,73.2,105,72.3,105.1,71.1z"/>
	</g>
	<g>
		<path class="st0" d="M65.8,78.7l6,12l6-12h3.6v18.1h-2.8l0-13.5l-5.7,11.6h-2L65,83.3v13.5h-2.9V78.7H65.8z"/>
		<path class="st0" d="M93.5,96.8v-1.7c-1,1.2-2.6,1.8-4.6,1.8c-3,0-4.8-1.8-4.8-4.3c0-2.5,1.9-4.1,5.2-4.1h4.2v-0.4
			c0-1.7-1.1-2.8-3.3-2.8c-1.3,0-2.7,0.5-4.1,1.4l-1.2-2.1c1.9-1.1,3.3-1.7,5.9-1.7c3.5,0,5.5,1.8,5.6,4.8l0,9H93.5z M93.5,92v-1.3
			h-3.7c-1.9,0-2.8,0.5-2.8,1.8c0,1.2,1,2,2.7,2C91.7,94.6,93.4,93.5,93.5,92z"/>
		<path class="st0" d="M113.1,88.2v8.6h-3v-7.7c0-2.1-1.2-3.3-3.3-3.3c-2.5,0-3.9,1.9-3.9,4.3v6.8h-3V77.6h3v8.1
			c1-1.9,2.7-2.8,5.1-2.8C111.2,82.9,113.1,85,113.1,88.2z"/>
		<path class="st0" d="M129.6,89.9c0,4.2-2.9,7-7.2,7c-4.3,0-7.2-2.8-7.2-7c0-4.1,2.9-7,7.2-7C126.6,82.9,129.6,85.8,129.6,89.9z
			 M118.2,90c0,2.7,1.7,4.5,4.2,4.5c2.5,0,4.2-1.8,4.2-4.5c0-2.6-1.7-4.5-4.2-4.5C119.9,85.5,118.2,87.3,118.2,90z"/>
		<path class="st0" d="M139.8,95.9c-1.1,0.6-2.2,1-3.4,1c-2.1,0-3.9-1.2-3.9-4v-7.1h-1.9v-2.2h1.9v-3.8h3v3.8h4.1v2.2h-4.1v6.6
			c0,1.4,0.5,1.9,1.5,1.9c0.6,0,1.3-0.2,2.1-0.6L139.8,95.9z"/>
		<path class="st0" d="M145.8,85.3c-1.2,0-2,0.4-2,1.4c0,2.5,7.3,1.2,7.3,6.2c0,2.8-2.5,4.1-5.3,4.1c-2,0-4.2-0.7-5.5-1.9l1.1-2.1
			c1.2,1.1,3.1,1.7,4.6,1.7c1.3,0,2.3-0.4,2.3-1.5c0-2.8-7.2-1.2-7.2-6.2c0-2.8,2.4-4,5.1-4c1.7,0,3.6,0.5,4.8,1.4l-1.1,2.2
			C148.5,85.8,147,85.3,145.8,85.3z"/>
		<path class="st0" d="M161.7,96.8v-1.7c-1,1.2-2.6,1.8-4.6,1.8c-3,0-4.8-1.8-4.8-4.3c0-2.5,1.9-4.1,5.2-4.1h4.2v-0.4
			c0-1.7-1.1-2.8-3.3-2.8c-1.3,0-2.7,0.5-4.1,1.4l-1.2-2.1c1.9-1.1,3.3-1.7,5.9-1.7c3.5,0,5.5,1.8,5.6,4.8l0,9H161.7z M161.6,92
			v-1.3h-3.7c-1.9,0-2.8,0.5-2.8,1.8c0,1.2,1,2,2.7,2C159.9,94.6,161.5,93.5,161.6,92z"/>
		<path class="st0" d="M168.5,83l3.8,10.8l3.8-10.8h3l-5.3,13.8h-3.1L165.4,83H168.5z"/>
	</g>
	<g>
		<path class="st0" d="M11.2,86.2H3.9l-1.4,3.3H0L6.4,75h2.5l6.3,14.5h-2.6L11.2,86.2z M10.3,84l-2.7-6.4L4.8,84H10.3z"/>
		<path class="st0" d="M34.9,82.6v6.9h-2.4v-6.2c0-1.7-1-2.7-2.6-2.7c-1.9,0.1-3,1.5-3,3.4v5.4h-2.4v-6.2c0-1.7-1-2.7-2.6-2.7
			c-1.9,0.1-3.1,1.5-3.1,3.4v5.4h-2.4v-11h2.4v2.1c0.8-1.6,2.2-2.2,4-2.2c2,0,3.3,1,3.8,2.7c0.7-1.8,2.2-2.7,4.2-2.7
			C33.4,78.4,34.9,80,34.9,82.6z"/>
		<path class="st0" d="M43.8,78.4v2.3c-2.2-0.1-3.6,1.2-3.8,3.1v5.8h-2.4v-11H40v2.2C40.7,79.2,42,78.4,43.8,78.4z"/>
		<path class="st0" d="M47.8,75.3c0,0.8-0.6,1.4-1.4,1.4c-0.8,0-1.4-0.6-1.4-1.4c0-0.8,0.6-1.4,1.4-1.4
			C47.2,73.9,47.8,74.5,47.8,75.3z M47.6,78.5v11h-2.4v-11H47.6z"/>
		<path class="st0" d="M56.8,88.8c-0.9,0.5-1.8,0.8-2.7,0.8c-1.7,0-3.1-1-3.1-3.2v-5.7h-1.6v-1.8H51v-3h2.4v3h3.3v1.8h-3.3v5.3
			c0,1.1,0.4,1.5,1.2,1.5c0.5,0,1-0.2,1.7-0.5L56.8,88.8z"/>
	</g>
	<path class="st2" d="M144.7,15.4c-0.8-0.4-1.3-0.1-1.9,0.2c-5,2.3-10,2.2-15.3,0.6c-4.2-1.2-8.5-2.3-12.9-2.7
		c-7.9-0.7-14.9,2.1-21.7,5.5c-3,1.5-5.9,3.1-9.2,3.9c-2.9,0.7-4-0.5-3.4-3.4c0.5-2.5-0.1-3.5-2.5-4.3c-0.6-0.2-1.3-0.4-2-0.5
		c-8.4-1-16.7,0.2-24.9,2.2l-0.7,0.3c0,0,9.2-0.6,13.2,7.5c5.1-0.8,10.2-0.6,15.3,0.2c2.1,0.3,2.9,1.4,2.1,3.5
		c-0.3,0.8-0.5,1.8-0.5,2.7c-0.2,2.7,1,3.8,3.7,3.2c0.9-0.2,1.8-0.5,2.6-0.9c3.7-1.8,7.4-3.5,10.8-5.8c3.6-2.5,7.5-4.1,12-4.5
		c5.9-0.6,11.8-0.2,17.7-0.4c5.1-0.2,10.2-0.8,14.5-3.9C142.8,17.8,144.2,17,144.7,15.4z"/>
	<path class="st3" d="M144.7,34c-0.8-0.4-1.3-0.1-1.9,0.2c-5,2.3-10,2.2-15.3,0.6c-4.2-1.2-8.5-2.3-12.9-2.7
		c-7.9-0.7-14.9,2.1-21.7,5.5c-3,1.5-5.9,3.1-9.2,3.9c-2.9,0.7-4-0.5-3.4-3.4c0.5-2.5-0.1-3.5-2.5-4.3c-0.6-0.2-1.3-0.4-2-0.5
		c-3.5-0.4-7-0.5-10.5-0.2c-0.1,1.3-1.1,8-7.3,11.4c0.8-0.2,1.5-0.4,2.3-0.6c6.1-1.4,12.3-1.3,18.5-0.5c2.1,0.3,2.9,1.4,2.1,3.5
		c-0.3,0.8-0.5,1.8-0.5,2.7c-0.2,2.7,1,3.8,3.7,3.2c0.9-0.2,1.8-0.5,2.6-0.9c3.7-1.8,7.4-3.5,10.8-5.8c3.6-2.5,7.5-4.1,12-4.5
		c5.9-0.6,11.8-0.2,17.7-0.4c5.1-0.2,10.2-0.8,14.5-3.9C142.8,36.5,144.2,35.7,144.7,34z"/>
	<polygon class="st1" points="9.3,0 9.3,4 33.1,4 13.1,40.7 16.3,43 40.2,0 	"/>
	<polygon class="st1" points="62.8,0 44.3,0 30.8,24.3 33.9,25.9 46.3,4 62.8,4 	"/>
</g>
</svg>
