<svg xmlns="http://www.w3.org/2000/svg" width="179.046" height="96.946" viewBox="0 0 179.046 96.946"><g transform="translate(-60.477 -101.527)"><path d="M82.633,166.173H73.5l-1.735,4.09H68.578l8-18.119h3.132l7.921,18.119H84.367Zm-1.165-2.718-3.417-8.05-3.416,8.05Z" fill="#fff"/><path d="M99.718,156.518v1.993l-7.869,9.319,8.1.025v2.433l-11.777-.025v-2.019l7.868-9.319H88.406v-2.433Z" fill="#fff"/><path d="M110.461,170.263V168.58a5.584,5.584,0,0,1-4.556,1.812c-2.976,0-4.84-1.838-4.84-4.271,0-2.51,1.889-4.116,5.2-4.141h4.167v-.414c0-1.735-1.113-2.77-3.287-2.77a7.259,7.259,0,0,0-4.064,1.4l-1.217-2.071a10.086,10.086,0,0,1,5.928-1.734c3.546,0,5.539,1.811,5.565,4.84l.026,9.034Zm-.026-4.841v-1.268h-3.728c-1.941,0-2.847.518-2.847,1.838,0,1.242,1.01,2.045,2.666,2.045C108.649,168.037,110.28,166.924,110.435,165.422Z" fill="#fff"/><path d="M129.849,151.056v19.207h-2.976v-2.356a5.338,5.338,0,0,1-4.841,2.485c-3.96,0-6.6-2.873-6.6-7.066,0-4.142,2.666-6.963,6.549-6.963a5.445,5.445,0,0,1,4.892,2.51v-7.817Zm-2.976,12.373a4.193,4.193,0,0,0-4.219-4.529,4.241,4.241,0,0,0-4.245,4.529,4.239,4.239,0,1,0,8.464,0Z" fill="#fff"/><path d="M136.943,152.558a1.735,1.735,0,1,1-1.734-1.786A1.709,1.709,0,0,1,136.943,152.558Zm-.259,3.934v13.771h-2.951V156.492Z" fill="#fff"/><path d="M99.842,123.156l6.281,6.655,1.328,1.851,1.334,1.852-1.636-1.582-1.633-1.578Z" fill="#fff" fill-rule="evenodd"/><path d="M102.672,121.256l4.448,8.016.83,2.12.835,2.123-1.2-1.941-1.2-1.944Z" fill="#fff" fill-rule="evenodd"/><path d="M105.911,120.188l2.321,8.832.278,2.245.275,2.249-.68-2.174-.679-2.174Z" fill="#fff" fill-rule="evenodd"/><path d="M109.346,120.023l.039,9.051-.3,2.217-.3,2.223-.113-2.253L108.56,129Z" fill="#fff" fill-rule="evenodd"/><path d="M112.746,120.783l-2.255,8.652-.849,2.04-.855,2.04.462-2.181.461-2.184Z" fill="#fff" fill-rule="evenodd"/><path d="M115.881,122.413l-4.4,7.657-1.349,1.724-1.351,1.721,1-1.959,1-1.962Z" fill="#fff" fill-rule="evenodd"/><path d="M118.526,124.793l-6.235,6.152-1.75,1.285-1.755,1.285,1.475-1.609,1.473-1.606Z" fill="#fff" fill-rule="evenodd"/><path d="M120.512,127.776l-7.647,4.216-2.043.761-2.036.761,1.851-1.142,1.849-1.145Z" fill="#fff" fill-rule="evenodd"/><path d="M121.692,131.145l-8.534,2-2.184.188-2.189.182,2.1-.6,2.1-.6Z" fill="#fff" fill-rule="evenodd"/><path d="M122,134.675l-8.846-.356-2.183-.4-2.182-.405,2.2-.022,2.2-.015Z" fill="#fff" fill-rule="evenodd"/><path d="M121.4,138.129l-8.557-2.686-2.028-.961-2.033-.967,2.154.565,2.155.571Z" fill="#fff" fill-rule="evenodd"/><path d="M119.947,141.264l-7.679-4.828-1.74-1.459-1.742-1.462,1.961,1.114,1.958,1.111Z" fill="#fff" fill-rule="evenodd"/><path d="M117.728,143.873l-6.279-6.646-1.331-1.855-1.333-1.858,1.636,1.587,1.636,1.582Z" fill="#fff" fill-rule="evenodd"/><path d="M114.9,145.779l-4.456-8.019-.832-2.12-.83-2.126,1.2,1.947,1.2,1.947Z" fill="#fff" fill-rule="evenodd"/><path d="M111.662,146.851l-2.325-8.836-.28-2.249-.271-2.251.682,2.177.673,2.174Z" fill="#fff" fill-rule="evenodd"/><path d="M108.221,147.008l-.038-9.052.3-2.222.3-2.22.112,2.259.109,2.256Z" fill="#fff" fill-rule="evenodd"/><path d="M104.822,146.248l2.256-8.652.853-2.043.856-2.039-.461,2.19-.463,2.181Z" fill="#fff" fill-rule="evenodd"/><path d="M101.692,144.625l4.39-7.663,1.354-1.724,1.349-1.724-1.006,1.962-1,1.965Z" fill="#fff" fill-rule="evenodd"/><path d="M99.044,142.235l6.23-6.152,1.756-1.284,1.756-1.284-1.476,1.609-1.478,1.605Z" fill="#fff" fill-rule="evenodd"/><path d="M97.062,139.262l7.644-4.22,2.039-.763,2.04-.764-1.85,1.145-1.854,1.144Z" fill="#fff" fill-rule="evenodd"/><path d="M95.875,135.887l8.537-2,2.187-.185,2.187-.191-2.1.6-2.1.6Z" fill="#fff" fill-rule="evenodd"/><path d="M95.571,132.356l8.846.356,2.186.4,2.183.4-2.2.018-2.2.021Z" fill="#fff" fill-rule="evenodd"/><path d="M96.17,128.908l8.551,2.68,2.034.962,2.031.964-2.159-.563-2.152-.568Z" fill="#fff" fill-rule="evenodd"/><path d="M97.629,125.771l7.676,4.831,1.743,1.456,1.738,1.456-1.965-1.112-1.958-1.111Z" fill="#fff" fill-rule="evenodd"/><path d="M104.152,120.706a.676.676,0,0,1,.894.326.653.653,0,1,1-.894-.326Z" fill="#fff" fill-rule="evenodd"/><path d="M107.5,120.054a.7.7,0,0,1,.789.55.65.65,0,0,1-.5.785.689.689,0,0,1-.786-.546A.65.65,0,0,1,107.5,120.054Z" fill="#fff" fill-rule="evenodd"/><path d="M110.937,120.324a.7.7,0,0,1,.629.729.63.63,0,0,1-.691.618.7.7,0,0,1-.629-.728A.638.638,0,0,1,110.937,120.324Z" fill="#fff" fill-rule="evenodd"/><path d="M114.223,121.491a.706.706,0,0,1,.434.867.637.637,0,0,1-.832.4.719.719,0,0,1-.434-.868A.64.64,0,0,1,114.223,121.491Z" fill="#fff" fill-rule="evenodd"/><path d="M117.143,123.478a.694.694,0,0,1,.2.939.63.63,0,0,1-.908.168.7.7,0,0,1-.207-.942A.644.644,0,0,1,117.143,123.478Z" fill="#fff" fill-rule="evenodd"/><path d="M119.488,126.144a.678.678,0,0,1-.042.954.649.649,0,0,1-.932-.081.684.684,0,0,1,.04-.952A.655.655,0,0,1,119.488,126.144Z" fill="#fff" fill-rule="evenodd"/><path d="M121.109,129.319a.657.657,0,0,1-.283.9.686.686,0,1,1,.283-.9Z" fill="#fff" fill-rule="evenodd"/><path d="M121.884,132.78a.648.648,0,0,1-.5.785.7.7,0,0,1-.789-.549.643.643,0,0,1,.5-.785A.687.687,0,0,1,121.884,132.78Z" fill="#fff" fill-rule="evenodd"/><path d="M121.771,136.286a.627.627,0,0,1-.688.617.707.707,0,0,1-.632-.732.632.632,0,0,1,.688-.616A.707.707,0,0,1,121.771,136.286Z" fill="#fff" fill-rule="evenodd"/><path d="M120.775,139.608a.624.624,0,0,1-.829.4.7.7,0,0,1-.432-.864.633.633,0,0,1,.827-.4A.712.712,0,0,1,120.775,139.608Z" fill="#fff" fill-rule="evenodd"/><path d="M118.957,142.515a.64.64,0,0,1-.909.167.7.7,0,0,1-.2-.944.628.628,0,0,1,.909-.168A.7.7,0,0,1,118.957,142.515Z" fill="#fff" fill-rule="evenodd"/><path d="M116.449,144.808a.661.661,0,0,1-.934-.085.689.689,0,0,1,.036-.956.657.657,0,0,1,.938.083A.688.688,0,0,1,116.449,144.808Z" fill="#fff" fill-rule="evenodd"/><path d="M113.416,146.325a.677.677,0,0,1-.892-.322.663.663,0,0,1,.281-.9.673.673,0,0,1,.891.328A.66.66,0,0,1,113.416,146.325Z" fill="#fff" fill-rule="evenodd"/><path d="M110.068,146.974a.686.686,0,0,1-.786-.546.638.638,0,0,1,.5-.782.681.681,0,0,1,.784.543A.636.636,0,0,1,110.068,146.974Z" fill="#fff" fill-rule="evenodd"/><path d="M106.633,146.7a.7.7,0,0,1-.628-.728.632.632,0,0,1,.688-.616.7.7,0,0,1,.629.728A.626.626,0,0,1,106.633,146.7Z" fill="#fff" fill-rule="evenodd"/><path d="M107.656,132.206a1.656,1.656,0,0,1,2.359.208,1.725,1.725,0,0,1-.1,2.408,1.654,1.654,0,0,1-2.359-.206A1.731,1.731,0,0,1,107.656,132.206Z" fill="#fff" fill-rule="evenodd"/><path d="M118.866,124.489a13.805,13.805,0,0,0-15.826-3.936v1.162a12.746,12.746,0,0,1,15.085,3.437c4.736,5.486,4.393,13.681-.763,18.3a12.288,12.288,0,0,1-14.322,1.362v1.163a13.241,13.241,0,0,0,15-1.737C123.613,139.251,123.979,130.412,118.866,124.489Z" fill="#fff" fill-rule="evenodd"/><path d="M154.456,176.478l-4.764-6.4-2.465,2.712v3.687h-2.443v-14.5h2.443v7.5l6.918-7.5h2.879l-5.613,6.193,5.986,8.3Z" fill="#fff"/><path d="M165.6,176.478v-1.346a4.471,4.471,0,0,1-3.646,1.45c-2.381,0-3.872-1.471-3.872-3.418,0-2.009,1.511-3.292,4.162-3.313h3.335v-.332c0-1.387-.89-2.216-2.63-2.216a5.812,5.812,0,0,0-3.252,1.118l-.973-1.656a8.064,8.064,0,0,1,4.743-1.388c2.837,0,4.432,1.45,4.452,3.873l.021,7.228Zm-.021-3.873v-1.014h-2.982c-1.554,0-2.279.413-2.279,1.47,0,.994.808,1.636,2.134,1.636C164.147,174.7,165.452,173.806,165.576,172.6Z" fill="#fff"/><path d="M126.27,180.224l5.98,12.037,5.953-12.037h3.6v18.119h-2.822l-.025-13.537-5.721,11.648H131.24l-5.72-11.648v13.537h-2.873V180.224Z" fill="#fff"/><path d="M154.02,198.343v-1.682a5.583,5.583,0,0,1-4.556,1.812c-2.976,0-4.84-1.838-4.84-4.271,0-2.511,1.89-4.116,5.2-4.142h4.167v-.414c0-1.734-1.113-2.769-3.287-2.769a7.257,7.257,0,0,0-4.064,1.4l-1.216-2.071a10.09,10.09,0,0,1,5.927-1.734c3.546,0,5.539,1.812,5.565,4.841l.026,9.033Zm-.026-4.84v-1.268h-3.727c-1.942,0-2.847.517-2.847,1.837,0,1.243,1.009,2.045,2.666,2.045C152.208,196.117,153.839,195,153.994,193.5Z" fill="#fff"/><path d="M173.616,189.776v8.567h-2.977V190.6a3.067,3.067,0,0,0-3.313-3.339c-2.459.026-3.934,1.863-3.934,4.3v6.781h-2.977V179.137h2.977v8.128c.983-1.941,2.743-2.8,5.1-2.8C171.7,184.469,173.616,186.488,173.616,189.776Z" fill="#fff"/><path d="M190.027,191.432c0,4.168-2.924,7.015-7.17,7.015-4.27,0-7.195-2.847-7.195-7.015,0-4.141,2.925-6.963,7.195-6.963C187.1,184.469,190.027,187.291,190.027,191.432Zm-11.389.052a4.215,4.215,0,1,0,4.219-4.478A4.15,4.15,0,0,0,178.638,191.484Z" fill="#fff"/><path d="M200.279,197.463a6.614,6.614,0,0,1-3.391,1.01c-2.071,0-3.857-1.191-3.857-4.012v-7.144H191.09V185.09h1.941v-3.778h2.951v3.778h4.064v2.227h-4.064v6.6c0,1.424.544,1.864,1.476,1.864a4.794,4.794,0,0,0,2.07-.6Z" fill="#fff"/><path d="M206.259,186.825c-1.165,0-2.019.388-2.019,1.372,0,2.537,7.325,1.164,7.3,6.16,0,2.822-2.511,4.09-5.281,4.09a8.52,8.52,0,0,1-5.539-1.915l1.061-2.123a7.5,7.5,0,0,0,4.608,1.708c1.268,0,2.252-.44,2.252-1.475,0-2.821-7.248-1.243-7.222-6.213,0-2.795,2.433-3.986,5.073-3.986a8.7,8.7,0,0,1,4.814,1.4l-1.087,2.2A8.1,8.1,0,0,0,206.259,186.825Z" fill="#fff"/><path d="M222.153,198.343v-1.682a5.584,5.584,0,0,1-4.556,1.812c-2.976,0-4.84-1.838-4.84-4.271,0-2.511,1.889-4.116,5.2-4.142h4.167v-.414c0-1.734-1.113-2.769-3.287-2.769a7.257,7.257,0,0,0-4.064,1.4l-1.217-2.071a10.1,10.1,0,0,1,5.928-1.734c3.546,0,5.539,1.812,5.565,4.841l.026,9.033Zm-.026-4.84v-1.268H218.4c-1.941,0-2.847.517-2.847,1.837,0,1.243,1.01,2.045,2.667,2.045C220.341,196.117,221.972,195,222.127,193.5Z" fill="#fff"/><path d="M228.936,184.573l3.831,10.845,3.779-10.845h2.977l-5.281,13.77h-3.08l-5.332-13.77Z" fill="#fff"/><path d="M71.724,187.746H64.413l-1.388,3.273H60.477l6.4-14.5h2.506l6.338,14.5h-2.61Zm-.932-2.175-2.734-6.441-2.734,6.441Z" fill="#fff"/><path d="M95.395,184.163v6.856H93.013v-6.193a2.45,2.45,0,0,0-2.61-2.693,3.136,3.136,0,0,0-3.023,3.438v5.448H85v-6.193a2.435,2.435,0,0,0-2.589-2.693,3.154,3.154,0,0,0-3.065,3.438v5.448H76.982V180h2.362v2.133a4.07,4.07,0,0,1,4-2.216,3.692,3.692,0,0,1,3.831,2.651,4.049,4.049,0,0,1,4.184-2.651C93.883,179.917,95.395,181.533,95.395,184.163Z" fill="#fff"/><path d="M104.257,179.917V182.2a3.335,3.335,0,0,0-3.81,3.065v5.758H98.065V180h2.382v2.2A4,4,0,0,1,104.257,179.917Z" fill="#fff"/><path d="M108.275,176.852a1.389,1.389,0,1,1-1.388-1.429A1.368,1.368,0,0,1,108.275,176.852ZM108.067,180v11.019h-2.361V180Z" fill="#fff"/><path d="M117.3,190.314a5.289,5.289,0,0,1-2.713.808,2.9,2.9,0,0,1-3.086-3.21V182.2h-1.553v-1.782H111.5V177.39h2.361v3.024h3.252V182.2h-3.252v5.281c0,1.139.435,1.491,1.18,1.491a3.85,3.85,0,0,0,1.657-.476Z" fill="#fff"/><path d="M205.133,116.887a1.983,1.983,0,0,0-1.876.158c-5.01,2.255-10.027,2.163-15.269.642a66.557,66.557,0,0,0-12.88-2.658c-7.867-.667-14.9,2.056-21.722,5.5-2.979,1.506-5.906,3.119-9.185,3.857-2.913.655-3.982-.453-3.438-3.379.458-2.467-.1-3.459-2.471-4.286a9.6,9.6,0,0,0-1.984-.466c-8.443-1.029-16.7.17-24.863,2.185l-.66.307s9.222-.606,13.24,7.5a53.09,53.09,0,0,1,15.269.155c2.078.289,2.9,1.392,2.132,3.51a10.115,10.115,0,0,0-.539,2.663c-.214,2.748,1.012,3.8,3.7,3.186a11.965,11.965,0,0,0,2.579-.851,84.858,84.858,0,0,0,10.77-5.84,25.8,25.8,0,0,1,11.966-4.539c5.9-.623,11.8-.157,17.7-.415,5.1-.223,10.153-.773,14.479-3.885C203.3,119.352,204.686,118.533,205.133,116.887Z" fill="#fff" fill-rule="evenodd"/><path d="M205.133,135.543a1.986,1.986,0,0,0-1.876.158c-5.01,2.255-10.027,2.163-15.269.643a66.56,66.56,0,0,0-12.88-2.659c-7.867-.666-14.9,2.057-21.722,5.5-2.979,1.506-5.906,3.12-9.185,3.857-2.913.655-3.982-.453-3.438-3.379.458-2.467-.1-3.458-2.471-4.286a9.668,9.668,0,0,0-1.984-.466,54.658,54.658,0,0,0-10.472-.223c-.125,1.306-1.069,8.047-7.3,11.412.76-.2,1.521-.4,2.287-.583a49.789,49.789,0,0,1,18.471-.458c2.078.289,2.9,1.391,2.132,3.509a10.123,10.123,0,0,0-.539,2.663c-.214,2.749,1.012,3.8,3.7,3.186a11.964,11.964,0,0,0,2.579-.851,84.733,84.733,0,0,0,10.77-5.84A25.8,25.8,0,0,1,169.9,143.19c5.9-.623,11.8-.157,17.7-.414,5.1-.223,10.153-.774,14.479-3.886C203.3,138.009,204.686,137.189,205.133,135.543Z" fill="#fff" fill-rule="evenodd"/><path d="M69.824,101.527v4H93.549l-20,36.688,3.268,2.361L100.7,101.527Z" fill="#fff" fill-rule="evenodd"/><path d="M123.3,101.527H104.741l-13.5,24.338,3.122,1.544,12.4-21.886H123.3Z" fill="#fff" fill-rule="evenodd"/></g></svg>