<svg xmlns="http://www.w3.org/2000/svg" width="63" height="63" viewBox="0 0 63 63"><g transform="translate(0.001 -1020.361)"><circle cx="31.5" cy="31.5" r="31.5" transform="translate(-0.001 1020.361)" fill="#ffba00"/><path d="M33.882,52.5q.774-.32,1.53-.681,1.4-.716,2.73-1.569t2.561-1.83q1.234-.978,2.365-2.076a31.5,31.5,0,0,0,2.149-2.307q1.014-1.2,1.9-2.5a31.5,31.5,0,0,0,1.646-2.688q.755-1.382,1.369-2.834.491-1.191.884-2.419L28.464,11.045a10.4,10.4,0,0,0-17.753,7.11,1.524,1.524,0,0,1,.023.281c0,4.027,1.764,7.721,4.126,11.478C16.8,33,18.982,36.192,20.878,39.5Z" transform="translate(10.377 1028.113)" fill="#ff7500"/><path d="M17.187,4.533A10.388,10.388,0,0,1,27.6,14.943a1.491,1.491,0,0,0,.029.32c-.089,3.89-1.89,7.492-4.311,11.154-2.046,3.1-4.353,6.293-6.35,9.615-1.9-3.308-4.079-6.5-6.019-9.586-2.361-3.757-4.125-7.453-4.125-11.48a1.488,1.488,0,0,0-.023-.279A10.375,10.375,0,0,1,17.187,4.533Zm0,5.961a4.462,4.462,0,1,0,4.462,4.462,4.485,4.485,0,0,0-4.462-4.462Zm0,2.975A1.487,1.487,0,1,1,15.7,14.955a1.465,1.465,0,0,1,1.487-1.487Z" transform="translate(14.287 1031.582)" fill="#fff"/></g></svg>