<svg xmlns="http://www.w3.org/2000/svg" width="33.447" height="25.085" viewBox="0 0 33.447 25.085"><path d="M29.266,9.968V8.575l-4.181,2.787L20.9,8.575V9.968l4.181,2.787M30.66,3H2.787A2.8,2.8,0,0,0,0,5.787V25.3a2.8,2.8,0,0,0,2.787,2.787H30.66A2.8,2.8,0,0,0,33.447,25.3V5.787A2.8,2.8,0,0,0,30.66,3M11.149,7.181a4.181,4.181,0,1,1-4.181,4.181,4.175,4.175,0,0,1,4.181-4.181M19.511,23.9H2.787V22.511c0-2.787,5.575-4.32,8.362-4.32s8.362,1.533,8.362,4.32M30.66,15.543H19.511V7.181H30.66" transform="translate(0 -3)" fill="#fff"/></svg>