<?xml version="1.0" encoding="utf-8"?>
<!-- Generator: Adobe Illustrator 25.4.1, SVG Export Plug-In . SVG Version: 6.00 Build 0)  -->
<svg version="1.1"
	 id="svg11" xmlns:cc="http://creativecommons.org/ns#" xmlns:dc="http://purl.org/dc/elements/1.1/" xmlns:rdf="http://www.w3.org/1999/02/22-rdf-syntax-ns#" xmlns:svg="http://www.w3.org/2000/svg"
	 xmlns="http://www.w3.org/2000/svg" xmlns:xlink="http://www.w3.org/1999/xlink" x="0px" y="0px" viewBox="0 0 28.52 28.52"
	 style="enable-background:new 0 0 28.52 28.52;" xml:space="preserve">
<style type="text/css">
	.st0{fill:#F38221;}
	.st1{fill:none;stroke:#FFFFFF;stroke-linecap:round;stroke-linejoin:round;stroke-miterlimit:10;}
</style>
<circle class="st0" cx="14.26" cy="14.26" r="11"/>
<g>
	<path id="path3" class="st1" d="M20.15,14.03c0.17,0.17,0.2,0.45,0.05,0.65c-0.1,0.14-0.21,0.3-0.32,0.45
		c-0.09,0.12-0.22,0.19-0.37,0.21c-0.15,0.01-0.29-0.04-0.39-0.14c-1.25-1.25-4.87-4.87-4.87-4.87s-3.62,3.62-4.87,4.87
		c-0.1,0.1-0.25,0.16-0.39,0.14c-0.15-0.01-0.28-0.09-0.37-0.21c-0.11-0.15-0.22-0.31-0.32-0.45c-0.14-0.2-0.12-0.47,0.05-0.65
		c1.24-1.24,5.89-5.89,5.89-5.89S18.91,12.79,20.15,14.03z"/>
	<path id="path5" class="st1" d="M9.75,14.82l4.51-4.51l4.51,4.51v5c0,0.15-0.06,0.29-0.17,0.4c-0.11,0.11-0.25,0.17-0.4,0.17
		c-1.62,0-6.27,0-7.89,0c-0.15,0-0.29-0.06-0.4-0.17c-0.11-0.11-0.16-0.25-0.16-0.4C9.75,19.82,9.75,14.82,9.75,14.82z"/>
	<path id="path7" class="st1" d="M11.44,10.95l-1.97,1.97V9.96h1.97V10.95z"/>
	<path id="path9" class="st1" d="M15.51,17.26c0-0.1-0.04-0.19-0.11-0.27c-0.07-0.07-0.17-0.11-0.27-0.11c-0.47,0-1.28,0-1.75,0
		c-0.1,0-0.19,0.04-0.27,0.11c-0.07,0.07-0.11,0.17-0.11,0.27c0,0.9,0,3.12,0,3.12h2.5V17.26z"/>
</g>
</svg>
