<svg xmlns="http://www.w3.org/2000/svg" width="36.948" height="36.938" viewBox="0 0 36.948 36.938"><g transform="translate(0.1 0.1)"><path d="M92.264,94.224H60.112a2.742,2.742,0,0,1-1.762-1.108,8.567,8.567,0,0,1-.534-1.188V64.016a2.983,2.983,0,0,1,3.333-2.281c4.376.046,8.754.016,13.13.016h.453c.031-.124.056-.2.071-.285a4.763,4.763,0,0,1,9.379-.1c.063.326.181.39.479.389q3.534-.015,7.067,0A2.714,2.714,0,0,1,94.56,64.6q0,13.4,0,26.794a2.693,2.693,0,0,1-1.455,2.46A7.448,7.448,0,0,1,92.264,94.224ZM79.6,77.215c.07-.086.138-.185.221-.27q2.121-2.166,4.245-4.329c.628-.64,1.253-1.283,1.888-1.917a.5.5,0,0,1,.763-.022.516.516,0,0,1,.009.765c-.054.064-.116.121-.174.181l-6.434,6.56c-.458.467-.665.467-1.131,0L73.3,72.5q-4.719-4.718-9.443-9.432a.749.749,0,0,0-.448-.231c-.956-.021-1.914-.017-2.87,0a4.429,4.429,0,0,0-.67.109l-.052.133a2.34,2.34,0,0,1,.321.229q2.858,2.85,5.71,5.706c.5.5.5.676-.007,1.182q-3.336,3.336-6.678,6.667a.863.863,0,0,0-.278.689c.015,1.064.006,2.128.006,3.193v.41c.149-.141.244-.226.334-.316l8.627-8.624c.516-.516.683-.515,1.207.01Q78.9,82.062,88.75,91.9c.421.421.793.991,1.3,1.193a5.282,5.282,0,0,0,1.812.05,1.151,1.151,0,0,0,.143-.006,1.6,1.6,0,0,0,1.2-.723c-.1-.1-.184-.2-.275-.288L82.277,81.475c-.533-.533-.535-.7-.018-1.236Q87.751,74.57,93.246,68.9a.768.768,0,0,0,.245-.595c-.014-1.088-.006-2.176-.006-3.264v-.477c-.38.38-.7.7-1.019,1.018-1.174,1.194-2.339,2.4-3.527,3.576a.739.739,0,0,1-.59.189.642.642,0,0,1-.366-.456.755.755,0,0,1,.246-.513q2.286-2.356,4.592-4.692c.089-.091.175-.186.269-.286a1.68,1.68,0,0,0-1.4-.578q-3.534,0-7.069,0c-.117,0-.234.011-.344.017a.764.764,0,0,0-.043.126,14.736,14.736,0,0,1-2.394,6.456A7.631,7.631,0,0,1,80.5,70.952a1.374,1.374,0,0,1-1.984.012,6.9,6.9,0,0,1-1.226-1.341,14.987,14.987,0,0,1-2.027-4.369c-.231-.786-.385-1.595-.573-2.391H65.241ZM68.439,73.166c-.053.046-.1.082-.141.123Q63.681,77.9,59.07,82.525a.676.676,0,0,0-.171.434q-.015,4.25-.006,8.5a1.607,1.607,0,0,0,1.694,1.688q13.775,0,27.55,0a2.461,2.461,0,0,0,.263-.028Zm14.8,7.61L93.457,90.989V70.229ZM75.8,62.32c.021.25.028.5.066.749A14.9,14.9,0,0,0,78,68.728a8.073,8.073,0,0,0,1.085,1.324c.322.33.514.3.867-.01a3.84,3.84,0,0,0,.544-.568,13.621,13.621,0,0,0,2.689-6.81A3.7,3.7,0,1,0,75.8,62.32ZM58.891,75.509l5.906-5.9-5.81-5.821a7.81,7.81,0,0,0-.092.846q-.009,5.274,0,10.547Z" transform="translate(-57.815 -57.487)" fill="#fff" stroke="#fff" stroke-width="0.2"/><path d="M130.468,277.458a13.262,13.262,0,0,1-1.29,4.634,11.639,11.639,0,0,1-1.759,2.9,4.746,4.746,0,0,1-.813.751,1.363,1.363,0,0,1-1.788,0,4.585,4.585,0,0,1-1-.967,14.777,14.777,0,0,1-2.872-7.534,4.766,4.766,0,0,1,6.574-4.689c.435.181.573.423.432.756s-.4.414-.84.245a3.688,3.688,0,0,0-5.016,2.617,5.21,5.21,0,0,0,.106,2.343,14.7,14.7,0,0,0,2.525,5.682,3.716,3.716,0,0,0,.359.4c.515.511.738.516,1.248-.008a9.7,9.7,0,0,0,1.79-2.792,12.612,12.612,0,0,0,1.267-4.6,3.758,3.758,0,0,0-.338-1.812.526.526,0,0,1,.231-.781c.312-.142.568-.026.745.338A5.221,5.221,0,0,1,130.468,277.458Z" transform="translate(-114.885 -251.61)" fill="#fff" stroke="#fff" stroke-width="0.2"/><path d="M147.081,302.027a2.514,2.514,0,1,1,2.532-2.488A2.5,2.5,0,0,1,147.081,302.027Zm-1.413-2.514a1.425,1.425,0,0,0,1.43,1.437,1.437,1.437,0,1,0,0-2.874A1.423,1.423,0,0,0,145.667,299.513Z" transform="translate(-136.273 -274.041)" fill="#fff" stroke="#fff" stroke-width="0.2"/><path d="M262.848,84.708a2.511,2.511,0,1,1-5.022.005,2.511,2.511,0,0,1,5.022-.005Zm-1.077,0a1.429,1.429,0,0,0-1.444-1.426,1.438,1.438,0,1,0,.028,2.875A1.421,1.421,0,0,0,261.771,84.706Z" transform="translate(-238.654 -79.834)" fill="#fff" stroke="#fff" stroke-width="0.2"/><path d="M155.822,309.666a1.423,1.423,0,0,1,1.429-1.437,1.437,1.437,0,1,1,0,2.874A1.425,1.425,0,0,1,155.822,309.666Z" transform="translate(-146.428 -284.194)" fill="#fff" stroke="#fff" stroke-width="0.2"/><path d="M271.925,94.859a1.421,1.421,0,0,1-1.416,1.449,1.438,1.438,0,1,1,1.416-1.449Z" transform="translate(-248.808 -89.987)" fill="#fff" stroke="#fff" stroke-width="0.2"/></g></svg>