<?xml version="1.0" encoding="utf-8"?>
<!-- Generator: Adobe Illustrator 25.4.1, SVG Export Plug-In . SVG Version: 6.00 Build 0)  -->
<svg version="1.1" id="Layer_1" xmlns="http://www.w3.org/2000/svg" xmlns:xlink="http://www.w3.org/1999/xlink" x="0px" y="0px"
	 viewBox="0 0 720 240" style="enable-background:new 0 0 720 240;" xml:space="preserve">
<style type="text/css">
	.st0{fill:#F38220;}
	.st1{fill:#FFFFFF;}
</style>
<g id="Layer_1_00000052792543449376050220000009896431242362605986_">
	<rect x="122" y="65.1" class="st0" width="210.8" height="59.5"/>
	<polygon class="st0" points="335.9,124.6 331,124.6 331,65.1 335.9,65.1 360.4,94.8 	"/>
	<g>
		<g>
			<g>
				<polygon class="st0" points="371.9,94.8 396.4,124.5 387.7,124.5 363.2,94.8 387.7,65 396.4,65 				"/>
			</g>
			<g>
				<polygon class="st0" points="363,94.8 338.5,124.5 347.2,124.5 371.7,94.8 347.2,65 338.5,65 				"/>
			</g>
		</g>
	</g>
	<g>
		<g>
			<path class="st1" d="M132.8,148c1.3,0,2.6,0.4,3.7,1.1c1.1,0.7,2.1,1.7,2.7,2.9c0.7,1.2,1,2.6,1,4.2s-0.3,2.9-1,4.2
				c-0.7,1.3-1.6,2.3-2.7,3c-1.1,0.7-2.4,1.1-3.7,1.1h-7.3l0.3-0.6v10.7c-3.7,0-3.7,0-3.7,0V148c2,0,1.9,0,1.9,0H132.8z
				 M132.8,160.9c0.7,0,1.3-0.2,1.8-0.6s1-1,1.3-1.7c0.3-0.7,0.5-1.5,0.5-2.3s-0.2-1.6-0.5-2.3s-0.8-1.2-1.3-1.7s-1.1-0.6-1.8-0.6
				h-7.4l0.4-0.6v10.3l-0.3-0.5L132.8,160.9L132.8,160.9z"/>
			<path class="st1" d="M160.2,170.9c0,3.7,0,3.7,0,3.7h-14c-1.9,0-1.9,0-1.9,0V148c4,0,4,0,4,0v23.5l-0.8-0.6L160.2,170.9
				L160.2,170.9z"/>
			<path class="st1" d="M175.8,152.9l-9.1,21.7c-3.7,0-3.7,0-3.7,0l11-26.6c2.7,0,2.7,0,2.7,0l10.1,24.1c0.1,0.3,1,2.5,1,2.5l-3.7,0
				l-9.3-21.5L175.8,152.9z M168.8,168l1.7-3.6h10.8l0.6,3.6H168.8z"/>
			<path class="st1" d="M274.9,152.9l-9.1,21.7c-3.7,0-3.7,0-3.7,0l11-26.6c2.7,0,2.7,0,2.7,0l10.1,24.1c0.1,0.3,1,2.5,1,2.5l-3.7,0
				l-9.3-21.5L274.9,152.9z M267.9,168l1.7-3.6h10.8l0.6,3.6H267.9z"/>
			<path class="st1" d="M431.2,152.9l-9.1,21.7c-3.7,0-3.7,0-3.7,0l11-26.6c2.7,0,2.7,0,2.7,0l10.1,24.1c0.1,0.3,1,2.5,1,2.5l-3.7,0
				l-9.3-21.5L431.2,152.9z M424.1,168l1.7-3.6h10.8l0.6,3.6H424.1z"/>
			<path class="st1" d="M482.2,152.9l-9.1,21.7c-3.7,0-3.7,0-3.7,0l11-26.6c2.7,0,2.7,0,2.7,0l10.1,24.1c0.1,0.3,1,2.5,1,2.5l-3.7,0
				l-9.3-21.5L482.2,152.9z M475.1,168l1.7-3.6h10.8l0.6,3.6H475.1z"/>
			<path class="st1" d="M207.2,149.4l-1.9,3.3c0,0-1.5-0.7-2.3-0.9c-0.8-0.2-1.7-0.3-2.6-0.3c-1.4,0-2.7,0.2-3.9,0.7
				c-1.2,0.5-2.1,1.1-3,2c-0.8,0.9-1.5,1.9-1.9,3.1c-0.4,1.2-0.7,2.5-0.7,4c0,1.6,0.2,3,0.7,4.2s1.1,2.3,2,3.1
				c0.8,0.9,1.8,1.5,3,1.9c1.2,0.4,2.4,0.6,3.7,0.6c0.9,0,1.7-0.1,2.5-0.3c0.8-0.2,2.3-0.9,2.3-0.9l1.9,3.3c0,0-1.3,0.7-2.1,0.9
				s-1.5,0.5-2.3,0.6c-0.8,0.2-1.6,0.2-2.4,0.2c-1.8,0-3.5-0.3-5.2-0.9s-3.1-1.5-4.3-2.7s-2.3-2.6-3-4.3c-0.7-1.7-1.1-3.6-1.1-5.8
				c0-2,0.3-3.8,1-5.4c0.7-1.7,1.6-3.1,2.9-4.3c1.2-1.2,2.7-2.1,4.3-2.8c1.6-0.7,3.4-1,5.4-1c1.2,0,2.4,0.2,3.6,0.5
				C205.2,148.4,207.2,149.4,207.2,149.4z"/>
			<path class="st1" d="M212.5,148h16.7c0,3.6,0,3.6,0,3.6h-13.1l0.4-0.6v8.5l-0.3-0.4h10.7c0,3.7,0,3.7,0,3.7h-10.7l0.3-0.3v8.8
				l-0.3-0.3h13c0,3.6,0,3.6,0,3.6h-16.7c0-1.9,0-1.9,0-1.9v-22.7C212.5,148,212.5,148,212.5,148z"/>
			<path class="st1" d="M237.4,148l10.2,15.5l-1.6-0.1l10.4-15.5c2.8,0,2.9,0,2.9,0v26.6c-4,0-4,0-4,0v-21.2l1.2,0.3l-8.7,13.4
				c-2.3,0-2.3,0-2.3,0l-8.6-13.1l0.9-1.5v22.3c-1.9,0-3.7,0-3.7,0V148C237.4,148,237.4,148,237.4,148z"/>
			<path class="st1" d="M393.8,148l10.2,15.5l-1.6-0.1l10.4-15.5c2.8,0,2.9,0,2.9,0v26.6c-4,0-4,0-4,0v-21.2l1.2,0.3l-8.7,13.4
				c-2.3,0-2.3,0-2.3,0l-8.6-13.1l0.9-1.5v22.3c-1.9,0-3.7,0-3.7,0V148C393.8,148,393.8,148,393.8,148z"/>
			<path class="st1" d="M289.9,174.6V148c2.6,0,4,0,4,0v26.6C290.5,174.6,289.9,174.6,289.9,174.6z M313,148l-19.6,18.5l-0.2-4.5
				l14.5-14.1H313z M307.5,174.6l-9.9-12.9l2.9-3l12.2,15.8C308.7,174.6,307.5,174.6,307.5,174.6z"/>
			<path class="st1" d="M320.4,174.6c-3,0-4,0-4,0V148c2.8,0,4,0,4,0V174.6z"/>
			<path class="st1" d="M346.8,148v26.6c-2.1,0-2.8,0-2.8,0l-16.2-20.8l0.9-0.5v21.3c-2.4,0-3.5,0-3.5,0V148c1.9,0,3,0,3,0
				l15.8,20.5l-0.6,0.5V148C345.1,148,346.8,148,346.8,148z"/>
			<path class="st1" d="M594.8,148v26.6c-2.1,0-2.8,0-2.8,0l-16.2-20.8l0.9-0.5v21.3c-2.4,0-3.5,0-3.5,0V148c1.9,0,3,0,3,0
				l15.8,20.5l-0.6,0.5V148C593,148,594.8,148,594.8,148z"/>
			<path class="st1" d="M365.4,175c-1.9,0-3.7-0.4-5.4-1c-1.7-0.7-3.1-1.7-4.4-2.9s-2.2-2.7-2.9-4.4c-0.7-1.6-1.1-3.4-1.1-5.4
				s0.4-3.7,1.1-5.4c0.7-1.6,1.7-3.1,2.9-4.4s2.7-2.2,4.4-2.9c1.7-0.7,3.5-1,5.4-1c1.2,0,2.4,0.1,3.6,0.4c1.2,0.3,4.5,1.8,4.5,1.8
				l-1.6,3.3c0,0-1.4-0.6-1.6-0.7c-0.7-0.4-1.5-0.6-2.3-0.8c-0.8-0.2-1.7-0.3-2.6-0.3c-1.8,0-3.5,0.4-4.9,1.3
				c-1.5,0.9-2.6,2.1-3.5,3.6c-0.9,1.5-1.3,3.2-1.3,5c0,1.8,0.4,3.5,1.3,5c0.8,1.5,2,2.7,3.5,3.6c1.5,0.9,3.1,1.3,4.9,1.3
				c0.9,0,1.8-0.1,2.8-0.3s1.8-0.5,2.5-0.9l-0.3,1v-7.2l0.6,0.5h-5.9c0-1.8,0-3.8,0-3.8h9.4c0,0.8,0,1.9,0,1.9v9.4
				c-1.1,0.8-1.1,0.8-1.1,0.8s-2.3,1.2-3.7,1.7S366.9,175,365.4,175z"/>
			<path class="st1" d="M445.7,174.6v-24.7c0-0.6,0-1.9,0-1.9h12.7c1.4,0,2.6,0.3,3.8,1c1.1,0.7,2.1,1.6,2.8,2.8c0.7,1.2,1,2.5,1,4
				c0,1-0.2,2-0.6,2.9c-0.4,0.9-0.9,1.7-1.6,2.5c-0.7,0.7-1.5,1.2-2.3,1.6l-0.4-0.7c0.8,0.3,1.5,0.7,2.1,1.2c0.6,0.5,1,1.1,1.4,1.8
				c0.3,0.7,0.5,1.5,0.6,2.4c0.1,0.8,0.1,1.4,0.2,2c0.1,0.5,0.2,0.9,0.3,1.3c0.1,0.3,0.6,0.9,0.6,0.9l1.7,1.5v1.5l-3.6,0
				c0,0-1.1-0.9-1.5-1.4s-0.8-1.1-1-2c-0.3-0.8-0.4-1.9-0.4-3.3c0-0.6-0.1-1.2-0.3-1.6c-0.2-0.5-0.5-0.8-0.8-1.1
				c-0.4-0.3-0.8-0.5-1.3-0.6c-0.5-0.1-1-0.2-1.6-0.2h-8.1l0.5-0.8v11C447,174.6,445.7,174.6,445.7,174.6z M449.2,161h9.1
				c0.6,0,1.1-0.3,1.7-0.7s1-1,1.3-1.8s0.5-1.6,0.5-2.6c0-1.2-0.4-2.2-1.1-3.1c-0.7-0.8-1.6-1.2-2.6-1.2h-8.9l0.4-1v11.2L449.2,161z
				"/>
			<path class="st1" d="M491.5,151.6c0-1.6,0-3.6,0-3.6h22.4c0,2.1,0,3.6,0,3.6H491.5z M500.7,174.6v-24.7h4.1v24.7
				C502.5,174.6,500.7,174.6,500.7,174.6z"/>
			<path class="st1" d="M521.5,148v26.6c-2,0-4,0-4,0V148C518.8,148,521.5,148,521.5,148z M519.5,159.3h17.3l0,3.6h-17.3
				L519.5,159.3z M538.7,148v26.6c-2.4,0-4,0-4,0V148C536.7,148,538.7,148,538.7,148z"/>
			<path class="st1" d="M569.1,161.3c0,1.9-0.3,3.7-0.9,5.4c-0.6,1.7-1.5,3.1-2.7,4.4c-1.2,1.2-2.5,2.2-4.1,2.9
				c-1.6,0.7-3.3,1-5.2,1c-1.8,0-3.6-0.4-5.1-1c-1.6-0.7-2.9-1.7-4.1-2.9c-1.2-1.2-2-2.7-2.7-4.4c-0.6-1.7-0.9-3.5-0.9-5.4
				s0.3-3.7,0.9-5.4c0.6-1.7,1.5-3.1,2.7-4.4c1.2-1.2,2.5-2.2,4.1-2.9c1.6-0.7,3.3-1,5.1-1c1.9,0,3.6,0.4,5.2,1
				c1.6,0.7,2.9,1.7,4.1,2.9c1.2,1.2,2,2.7,2.7,4.4C568.8,157.6,569.1,159.3,569.1,161.3z M565,161.3c0-1.9-0.4-3.6-1.1-5.1
				c-0.7-1.5-1.8-2.7-3.1-3.5c-1.3-0.9-2.8-1.3-4.6-1.3c-1.7,0-3.2,0.4-4.5,1.3c-1.3,0.9-2.3,2-3.1,3.5c-0.7,1.5-1.1,3.2-1.1,5.1
				c0,1.9,0.4,3.6,1.1,5.1c0.7,1.5,1.8,2.7,3.1,3.5c1.3,0.9,2.8,1.3,4.5,1.3c1.7,0,3.2-0.4,4.6-1.3c1.3-0.9,2.3-2,3.1-3.5
				C564.6,164.8,565,163.1,565,161.3z"/>
		</g>
	</g>
	<g>
		<g>
			<path class="st0" d="M420.4,85.9c-4.5,5.6-7.4,10.8-8.5,15.6c-0.5,1.9-0.9,4.4-1.1,7.3h-5.4c0.9-5.6,2-9.6,3.1-12.2
				c1.1-2.5,3.2-5.9,6.4-10h-13.3v-4.8h19V85.9z"/>
			<path class="st0" d="M442.1,99.9c0,2.8-0.9,5.2-2.8,7c-1.8,1.9-4.1,2.8-6.9,2.8c-2.5,0-4.7-0.8-6.5-2.4s-2.6-3.4-2.4-5.5h5.2
				c0.2,1.2,0.5,2.1,1.1,2.6c0.5,0.5,1.4,0.8,2.6,0.8c1.4,0,2.4-0.4,3.2-1.3c0.7-0.9,1.1-2.1,1.1-3.7c0-3.6-1.4-5.4-4.2-5.4
				c-1.5,0-2.7,0.7-3.4,2h-4.9l2.4-15H441v4.8h-11l-0.9,5.6c1-0.6,1.8-1,2.5-1.2s1.5-0.3,2.6-0.3c2.3,0,4.2,0.9,5.7,2.7
				C441.4,95.1,442.1,97.3,442.1,99.9z"/>
			<path class="st0" d="M481,108.8h-5.7V96.3h-11v12.5h-5.7V81.1h5.7v10.4h11V81.1h5.7V108.8z"/>
			<path class="st0" d="M512.6,95.2c0,4.4-1.2,7.9-3.7,10.5c-2.5,2.6-5.7,4-9.6,4c-4.2,0-7.5-1.4-10-4.3c-2.3-2.6-3.4-6-3.4-10.2
				c0-4,1.1-7.4,3.2-10c2.5-3,5.9-4.5,10.4-4.5c4.1,0,7.4,1.4,9.8,4.3C511.5,87.6,512.6,91,512.6,95.2z M507.1,95.2
				c0-3-0.7-5.3-2.1-7c-1.4-1.7-3.4-2.5-5.9-2.5c-2.4,0-4.3,0.8-5.7,2.5s-2.1,4-2.1,6.9c0,3,0.7,5.4,2.2,7.1c1.5,1.7,3.5,2.6,6,2.6
				c2.3,0,4.1-0.9,5.5-2.6C506.4,100.3,507.1,98,507.1,95.2z"/>
			<path class="st0" d="M539.8,101c0,2.3-0.9,4.2-2.6,5.8c-2.1,1.9-5,2.9-8.8,2.9c-2.9,0-5.4-0.9-7.5-2.8c-2.1-1.8-3.1-4-3.1-6.3
				V81.1h5.7v19.6c0,1.1,0.5,2.1,1.4,2.9c1,0.8,2.1,1.2,3.6,1.2c3.7,0,5.6-1.3,5.6-4V81.1h5.7L539.8,101L539.8,101z"/>
			<path class="st0" d="M569,108.8h-6.2c-0.5-1.3-0.8-2.4-0.8-3.2v-4.2c0-1.1-0.2-1.9-0.5-2.4c-0.5-0.8-1.4-1.1-2.8-1.1H552v10.9
				h-5.7V81.1h15.6c1.7,0,3.2,0.6,4.5,1.7c1.5,1.4,2.3,3.4,2.3,5.9c0,3-1.4,5.2-4.1,6.7c2,1.1,3,2.3,3,3.6l0.3,6.8
				c0,0.8,0.4,1.5,1,1.9L569,108.8L569,108.8z M563.3,89.1c0-2.2-1.1-3.3-3.3-3.3h-8v7.3h7.9c0.9,0,1.6-0.4,2.3-1.3
				C562.9,91,563.3,90.1,563.3,89.1z"/>
			<path class="st0" d="M595.8,100.6c0,2.9-1,5.1-3.1,6.7c-2,1.6-4.9,2.4-8.6,2.4c-3.3,0-5.9-0.8-7.9-2.4c-1.9-1.6-3-3.8-3.3-6.7
				h5.5c0.4,3,2.5,4.5,6.2,4.5c1.7,0,3.1-0.3,4.1-1c1-0.6,1.5-1.5,1.5-2.6c0-2.1-1.3-3.3-3.9-3.8l-6.8-1.3c-1.9-0.4-3.4-1.2-4.5-2.5
				c-1.2-1.3-1.7-2.8-1.7-4.6c0-2.7,0.9-4.8,2.8-6.4c1.9-1.5,4.4-2.3,7.7-2.3c3.5,0,6.2,0.8,8.2,2.3c1.9,1.5,2.9,3.7,2.9,6.6h-5.3
				c-0.1-1.3-0.7-2.4-1.7-3.2s-2.5-1.2-4.2-1.2c-3.2,0-4.9,1.2-4.9,3.6c0,1.5,1.1,2.5,3.3,3l5.9,1.2c2.7,0.6,4.6,1.3,5.7,2.3
				C595.1,96.5,595.8,98.2,595.8,100.6z"/>
		</g>
	</g>
	<g>
		<path class="st1" d="M167.5,89.4c0,1.6-0.1,2.8-0.4,3.5c-0.2,0.6-0.8,1.4-1.7,2.4c-0.9,1-1.9,1.9-3,2.8c-1.2,0.9-2.3,1.7-3.4,2.6
			s-1.9,1.7-2.3,2.7h10.8v4.5H150c0.2-3.8,1.2-6.5,3.1-7.8l5.7-4.4c2.4-1.8,3.6-3.7,3.6-5.8c0-1.2-0.3-2.1-1-2.9s-1.5-1.1-2.5-1.1
			c-2.5,0-3.6,1.8-3.5,5.3h-4.8c-0.1-3.1,0.6-5.5,2.2-7.1c1.5-1.5,3.5-2.3,6.1-2.3c2.6,0,4.7,0.7,6.3,2.1
			C166.6,85.3,167.5,87.1,167.5,89.4z"/>
		<path class="st1" d="M188.8,99.8c0,2.2-0.8,4.2-2.3,5.9c-1.8,1.9-4,2.9-6.9,2.9c-2.6,0-4.7-0.8-6.4-2.2c-1.7-1.5-2.5-3.4-2.5-5.7
			c0-1.5,0.3-2.8,0.8-3.8c0.6-1.1,1.6-2.1,3.1-3c-2-1.4-3.1-3.1-3.1-5c0-2.1,0.8-3.8,2.4-5.2c1.6-1.4,3.6-2,6.1-2
			c2.3,0.1,4.2,0.8,5.7,2.1c1.5,1.4,2.2,3.1,2.2,5.1c0,2.3-1.2,4-3.5,4.9c1.2,0.4,2.3,1.1,3.1,2.2S188.8,98.4,188.8,99.8z
			 M183.4,100c0-1.2-0.3-2.2-1-3c-0.7-0.8-1.6-1.2-2.7-1.2c-1.2,0-2.1,0.4-2.8,1.2c-0.7,0.8-1,1.8-1,3.1c0,1.3,0.3,2.3,1,3.1
			s1.5,1.2,2.5,1.2c1.2,0,2.2-0.4,2.9-1.3C183,102.3,183.4,101.3,183.4,100z M183.7,88.6c0-1-0.3-1.7-1-2.2
			c-0.7-0.5-1.6-0.8-2.8-0.8c-1.1,0-2,0.3-2.7,0.9c-0.8,0.6-1.1,1.4-1.1,2.3c0,1,0.3,1.9,1,2.6c0.7,0.7,1.6,1,2.6,1
			c1.1,0,2-0.4,2.8-1.1S183.7,89.7,183.7,88.6z"/>
		<path class="st1" d="M226.4,98.8c-0.3,3.3-1.6,5.8-3.7,7.5c-2,1.5-4.6,2.3-7.8,2.3c-3.6,0-6.4-1.2-8.4-3.7s-3.1-5.9-3.1-10.2
			c0-4,1-7.2,3.1-9.6c2.2-2.6,5.1-3.9,9-3.9c3.2,0,5.8,0.9,7.9,2.6c2.1,1.7,3.1,4,3.2,6.8h-5.1c-0.1-1.4-0.8-2.5-1.9-3.5
			c-1.1-0.9-2.4-1.4-3.9-1.4c-2.1,0-3.8,0.8-5.1,2.5c-1.2,1.7-1.9,3.9-1.9,6.7c0,2.8,0.6,5,1.8,6.7c1.2,1.6,2.9,2.5,4.9,2.5
			c1.6,0,3-0.5,4.1-1.4c1.1-0.9,1.7-2.2,1.8-3.7C221.1,98.8,226.4,98.8,226.4,98.8z"/>
		<path class="st1" d="M236.3,107.8h-5.4V81.6h5.4V107.8z"/>
		<path class="st1" d="M261,86.1h-7.7v21.7h-5.4V86.1h-8v-4.5h21V86.1z"/>
		<path class="st1" d="M270.1,107.8h-5.4V81.6h5.4V107.8z"/>
		<path class="st1" d="M295.7,107.8h-19.6V81.6h19v4.5h-13.6v6h12.6v4.5h-12.6v6.8h14.2L295.7,107.8L295.7,107.8z"/>
		<path class="st1" d="M321,100.1c0,2.7-1,4.8-2.9,6.3c-1.9,1.5-4.6,2.2-8.1,2.2c-3.1,0-5.6-0.8-7.5-2.3c-1.8-1.5-2.9-3.6-3.2-6.3
			h5.2c0.4,2.8,2.3,4.2,5.9,4.2c1.6,0,2.9-0.3,3.9-0.9c1-0.6,1.5-1.4,1.5-2.5c0-1.9-1.2-3.1-3.7-3.6l-6.4-1.2
			c-1.8-0.3-3.2-1.1-4.3-2.3c-1.1-1.2-1.7-2.7-1.7-4.3c0-2.6,0.9-4.6,2.6-6c1.8-1.5,4.2-2.2,7.3-2.2c3.3,0,5.9,0.7,7.7,2.2
			c1.8,1.5,2.7,3.5,2.7,6.2h-5c-0.1-1.3-0.6-2.3-1.6-3c-1-0.7-2.3-1.1-4-1.1c-3.1,0-4.6,1.1-4.6,3.4c0,1.5,1,2.4,3.1,2.8l5.5,1.2
			c2.5,0.5,4.3,1.2,5.4,2.2C320.3,96.1,321,97.8,321,100.1z"/>
	</g>
</g>
<g id="Layer_2_00000173865275412425778920000012545541495613284263_">
</g>
</svg>
