<?xml version="1.0" encoding="utf-8"?>
<!-- Generator: Adobe Illustrator 16.0.0, SVG Export Plug-In . SVG Version: 6.00 Build 0)  -->
<!DOCTYPE svg PUBLIC "-//W3C//DTD SVG 1.1//EN" "http://www.w3.org/Graphics/SVG/1.1/DTD/svg11.dtd">
<svg version="1.1" xmlns="http://www.w3.org/2000/svg" xmlns:xlink="http://www.w3.org/1999/xlink" x="0px" y="0px" width="720px"
	 height="240px" viewBox="0 0 720 240" enable-background="new 0 0 720 240" xml:space="preserve">
<g id="Layer_1">
	<rect x="122.036" y="65.053" fill="#F38220" width="210.833" height="59.494"/>
	<polygon fill="#F38220" points="335.88,124.551 331.036,124.551 331.036,65.053 335.88,65.053 360.38,94.801 	"/>
	<g>
		<g>
			<g>
				<polygon fill="#F38220" points="371.884,94.797 396.384,124.547 387.714,124.547 363.214,94.797 387.714,65.047 396.384,65.047 
									"/>
			</g>
			<g>
				<polygon fill="#F38220" points="363.048,94.797 338.548,124.547 347.218,124.547 371.718,94.797 347.218,65.047 338.548,65.047 
									"/>
			</g>
		</g>
	</g>
	<path fill="#FFFFFF" d="M228.206,98.838c-0.336,3.287-1.584,5.771-3.744,7.451c-1.993,1.535-4.608,2.305-7.848,2.305
		c-3.552,0-6.36-1.248-8.424-3.744c-2.064-2.496-3.096-5.881-3.096-10.152c0-3.961,1.02-7.176,3.06-9.648
		c2.16-2.615,5.148-3.924,8.964-3.924c3.192,0,5.82,0.859,7.884,2.574c2.063,1.717,3.132,3.967,3.204,6.75h-5.148
		c-0.144-1.391-0.762-2.543-1.854-3.455c-1.092-0.912-2.406-1.369-3.942-1.369c-2.136,0-3.822,0.828-5.058,2.484
		c-1.236,1.656-1.854,3.9-1.854,6.732c0,2.807,0.612,5.033,1.836,6.678c1.224,1.645,2.856,2.465,4.896,2.465
		c1.608,0,2.976-0.473,4.104-1.422c1.128-0.947,1.728-2.189,1.8-3.725H228.206z"/>
	<path fill="#FFFFFF" d="M238.105,107.801h-5.4V81.557h5.4V107.801z"/>
	<path fill="#FFFFFF" d="M262.837,86.057h-7.668v21.744h-5.4V86.057h-7.956v-4.5h21.024V86.057z"/>
	<path fill="#FFFFFF" d="M271.909,107.801h-5.4V81.557h5.4V107.801z"/>
	<path fill="#FFFFFF" d="M297.577,107.801h-19.62V81.557h19.008v4.5h-13.608v5.977h12.564v4.5h-12.564v6.768h14.22V107.801z"/>
	<path fill="#FFFFFF" d="M322.849,100.061c0,2.736-0.967,4.85-2.898,6.336c-1.932,1.488-4.638,2.232-8.118,2.232
		c-3.145,0-5.628-0.756-7.452-2.268c-1.824-1.512-2.88-3.623-3.168-6.336h5.231c0.385,2.832,2.345,4.248,5.881,4.248
		c1.636,0,2.94-0.307,3.915-0.92c0.974-0.613,1.461-1.449,1.461-2.506c0-1.947-1.223-3.15-3.669-3.607l-6.409-1.221
		c-1.753-0.336-3.181-1.115-4.285-2.338s-1.657-2.662-1.657-4.318c0-2.564,0.882-4.58,2.646-6.043
		c1.764-1.463,4.182-2.195,7.254-2.195c3.312,0,5.886,0.732,7.722,2.195c1.836,1.465,2.742,3.541,2.718,6.229h-5.04
		c-0.072-1.271-0.618-2.279-1.638-3.023s-2.346-1.115-3.978-1.115c-3.072,0-4.608,1.127-4.608,3.383
		c0,1.465,1.044,2.412,3.132,2.844l5.544,1.152c2.52,0.529,4.32,1.248,5.4,2.16C322.176,96.102,322.849,97.805,322.849,100.061z"/>
	<g>
		<g>
			<path fill="#46B760" d="M132.752,147.973c1.342,0,2.584,0.361,3.724,1.084c1.141,0.721,2.052,1.703,2.736,2.943
				c0.684,1.242,1.025,2.637,1.025,4.182s-0.342,2.943-1.025,4.197c-0.685,1.254-1.596,2.256-2.736,3.002
				c-1.14,0.748-2.382,1.121-3.724,1.121h-7.334l0.304-0.607v10.678c-3.686,0-3.686,0-3.686,0v-26.6c2.011,0,1.938,0,1.938,0
				H132.752z M132.752,160.855c0.658,0,1.26-0.215,1.805-0.646s0.988-1,1.33-1.711c0.342-0.709,0.513-1.48,0.513-2.316
				s-0.171-1.598-0.513-2.281s-0.785-1.234-1.33-1.652s-1.146-0.627-1.805-0.627h-7.41l0.38-0.57v10.299l-0.342-0.494H132.752z"/>
			<path fill="#46B760" d="M160.197,170.85c0,3.723,0,3.723,0,3.723h-13.953c-1.938,0-1.938,0-1.938,0v-26.6c3.99,0,3.99,0,3.99,0
				v23.521l-0.798-0.645H160.197z"/>
			<path fill="#46B760" d="M175.781,152.912l-9.084,21.66C163,174.568,163,174.568,163,174.568l10.963-26.596
				c2.734,0,2.734,0,2.734,0l10.104,24.131c0.101,0.252,1.02,2.481,1.02,2.481l-3.733-0.013l-9.295-21.545L175.781,152.912z
				 M168.751,168.037l1.71-3.648h10.755l0.646,3.648H168.751z"/>
			<path fill="#46B760" d="M274.906,152.912l-9.084,21.66c-3.697-0.004-3.697-0.004-3.697-0.004l10.963-26.596
				c2.734,0,2.734,0,2.734,0l10.104,24.131c0.101,0.252,1.02,2.481,1.02,2.481l-3.733-0.013l-9.295-21.545L274.906,152.912z
				 M267.876,168.037l1.71-3.648h10.755l0.646,3.648H267.876z"/>
			<path fill="#46B760" d="M431.156,152.912l-9.084,21.66c-3.697-0.004-3.697-0.004-3.697-0.004l10.963-26.596
				c2.734,0,2.734,0,2.734,0l10.104,24.131c0.101,0.252,1.02,2.481,1.02,2.481l-3.733-0.013l-9.295-21.545L431.156,152.912z
				 M424.126,168.037l1.71-3.648h10.755l0.646,3.648H424.126z"/>
			<path fill="#46B760" d="M482.156,152.912l-9.084,21.66c-3.697-0.004-3.697-0.004-3.697-0.004l10.963-26.596
				c2.734,0,2.734,0,2.734,0l10.104,24.131c0.101,0.252,1.02,2.481,1.02,2.481l-3.733-0.013l-9.295-21.545L482.156,152.912z
				 M475.127,168.037l1.709-3.648h10.755l0.646,3.648H475.127z"/>
			<path fill="#46B760" d="M207.248,149.416l-1.861,3.27c0,0-1.508-0.686-2.318-0.912c-0.811-0.229-1.672-0.344-2.584-0.344
				c-1.444,0-2.742,0.236-3.895,0.703c-1.153,0.471-2.147,1.141-2.983,2.016c-0.836,0.873-1.477,1.906-1.919,3.096
				c-0.443,1.191-0.665,2.508-0.665,3.953c0,1.596,0.24,3.008,0.722,4.236s1.146,2.268,1.995,3.115
				c0.849,0.85,1.849,1.482,3.002,1.9c1.152,0.418,2.4,0.627,3.743,0.627c0.861,0,1.703-0.1,2.527-0.303
				c0.822-0.203,2.337-0.912,2.337-0.912l1.938,3.268c0,0-1.33,0.658-2.09,0.912s-1.533,0.455-2.317,0.607
				c-0.786,0.152-1.584,0.229-2.395,0.229c-1.824,0-3.547-0.305-5.168-0.912s-3.065-1.494-4.332-2.66s-2.261-2.596-2.983-4.295
				c-0.722-1.695-1.083-3.635-1.083-5.813c0-1.951,0.336-3.756,1.008-5.416c0.671-1.658,1.62-3.09,2.85-4.293
				c1.229-1.203,2.666-2.141,4.313-2.813c1.646-0.672,3.444-1.008,5.396-1.008c1.216,0,2.4,0.152,3.553,0.457
				C205.189,148.428,207.248,149.416,207.248,149.416z"/>
			<path fill="#46B760" d="M212.53,147.973h16.72c0,3.648,0,3.648,0,3.648h-13.11l0.38-0.646v8.512l-0.342-0.379h10.738
				c0,3.686,0,3.686,0,3.686h-10.662l0.266-0.342v8.777l-0.266-0.305h12.996c0,3.648,0,3.648,0,3.648h-16.72
				c0-1.938,0-1.938,0-1.938V149.91C212.53,147.973,212.53,147.973,212.53,147.973z"/>
			<path fill="#46B760" d="M237.369,147.973l10.197,15.543l-1.634-0.076l10.431-15.467c2.818,0,2.907,0,2.907,0v26.6
				c-3.952,0-3.952,0-3.952,0v-21.203l1.216,0.266l-8.708,13.363c-2.269,0-2.269-0.028-2.269-0.028l-8.556-13.146l0.912-1.52v22.268
				c-1.904,0-3.686,0-3.686,0v-26.6C237.369,147.973,237.369,147.973,237.369,147.973z"/>
			<path fill="#46B760" d="M393.754,147.973l10.197,15.543l-1.634-0.076l10.431-15.467c2.818,0,2.907,0,2.907,0v26.6
				c-3.952,0-3.952,0-3.952,0v-21.203l1.216,0.266l-8.708,13.363c-2.269,0-2.269-0.028-2.269-0.028l-8.556-13.146l0.912-1.52v22.268
				c-1.904,0-3.686,0-3.686,0v-26.6C393.754,147.973,393.754,147.973,393.754,147.973z"/>
			<path fill="#46B760" d="M289.859,174.585v-26.612c2.641,0,3.99,0,3.99,0v26.612C290.541,174.585,289.859,174.585,289.859,174.585
				z M312.958,147.973l-19.564,18.545l-0.229-4.484l14.522-14.061H312.958z M307.468,174.566l-9.933-12.875l2.927-2.965
				l12.193,15.84C308.696,174.566,307.468,174.566,307.468,174.566z"/>
			<path fill="#46B760" d="M320.38,174.585c-3.026,0-3.989,0-3.989,0v-26.612c2.838,0,3.989,0,3.989,0V174.585z"/>
			<path fill="#46B760" d="M346.821,147.973v26.612c-2.124,0-2.821,0-2.821,0l-16.217-20.837l0.874-0.494v21.331
				c-2.432,0-3.496,0-3.496,0v-26.612c1.927,0,2.989,0,2.989,0l15.783,20.52l-0.57,0.533v-21.053
				C345.072,147.973,346.821,147.973,346.821,147.973z"/>
			<path fill="#46B760" d="M594.771,147.973v26.612c-2.123,0-2.821,0-2.821,0l-16.216-20.837l0.873-0.494v21.331
				c-2.432,0-3.496,0-3.496,0v-26.612c1.928,0,2.99,0,2.99,0l15.782,20.52l-0.57,0.533v-21.053
				C593.023,147.973,594.771,147.973,594.771,147.973z"/>
			<path fill="#46B760" d="M365.365,174.953c-1.926,0-3.725-0.35-5.396-1.045c-1.672-0.697-3.135-1.672-4.389-2.926
				s-2.236-2.705-2.945-4.352c-0.71-1.646-1.064-3.432-1.064-5.357s0.354-3.711,1.064-5.359c0.709-1.646,1.691-3.096,2.945-4.35
				s2.717-2.23,4.389-2.926c1.672-0.697,3.471-1.047,5.396-1.047c1.24,0,2.444,0.141,3.609,0.42
				c1.165,0.277,4.469,1.824,4.469,1.824l-1.645,3.348c0,0-1.418-0.613-1.57-0.689c-0.709-0.354-1.47-0.627-2.279-0.816
				c-0.812-0.189-1.673-0.285-2.584-0.285c-1.824,0-3.472,0.438-4.94,1.311c-1.47,0.875-2.629,2.059-3.477,3.553
				c-0.85,1.496-1.273,3.168-1.273,5.018c0,1.824,0.424,3.49,1.273,4.996c0.848,1.508,2.007,2.697,3.477,3.572
				c1.469,0.873,3.116,1.311,4.94,1.311c0.886,0,1.823-0.107,2.812-0.322s1.824-0.5,2.508-0.855L370.381,171v-7.219l0.607,0.531
				h-5.885c0-1.846,0-3.799,0-3.799h9.381c0,0.759,0,1.938,0,1.938v9.422c-1.1,0.766-1.1,0.766-1.1,0.766s-2.288,1.238-3.669,1.668
				S366.885,174.953,365.365,174.953z"/>
			<path fill="#46B760" d="M445.658,174.585V149.91c0-0.557,0-1.938,0-1.938h12.654c1.367,0,2.621,0.336,3.762,1.008
				c1.141,0.67,2.059,1.596,2.756,2.773c0.695,1.178,1.045,2.527,1.045,4.047c0,1.014-0.203,1.982-0.609,2.906
				c-0.404,0.926-0.949,1.742-1.633,2.451c-0.684,0.711-1.457,1.242-2.318,1.596l-0.418-0.721c0.785,0.279,1.469,0.678,2.053,1.197
				c0.582,0.52,1.045,1.127,1.387,1.824c0.342,0.695,0.525,1.488,0.551,2.375c0.076,0.785,0.145,1.438,0.209,1.957
				c0.063,0.52,0.158,0.943,0.285,1.271c0.125,0.33,0.635,0.934,0.635,0.934l1.672,1.453v1.54l-3.613-0.026
				c0,0-1.107-0.904-1.525-1.373s-0.754-1.121-1.006-1.957c-0.254-0.836-0.381-1.938-0.381-3.307c0-0.633-0.102-1.178-0.305-1.633
				c-0.203-0.457-0.48-0.83-0.836-1.121c-0.354-0.291-0.771-0.506-1.254-0.646c-0.48-0.139-1.014-0.209-1.596-0.209h-8.056
				l0.532-0.76v11.032C447.047,174.585,445.658,174.585,445.658,174.585z M449.154,161.006h9.082
				c0.582-0.023,1.146-0.258,1.691-0.701s0.988-1.047,1.33-1.807s0.512-1.621,0.512-2.584c0-1.215-0.359-2.234-1.082-3.059
				c-0.723-0.822-1.578-1.234-2.564-1.234h-8.893l0.418-0.988v11.172L449.154,161.006z"/>
			<path fill="#46B760" d="M491.531,151.621c0-1.623,0-3.648,0-3.648h22.391c0,2.104,0,3.648,0,3.648H491.531z M500.682,174.585
				v-24.712h4.066v24.712C502.511,174.585,500.682,174.585,500.682,174.585z"/>
			<path fill="#46B760" d="M521.545,147.973v26.612c-1.967,0-3.99,0-3.99,0v-26.612
				C518.781,147.973,521.545,147.973,521.545,147.973z M519.455,159.297h17.328l-0.039,3.648h-17.328L519.455,159.297z
				 M538.721,147.973v26.612c-2.377,0-3.953,0-3.953,0v-26.612C536.734,147.973,538.721,147.973,538.721,147.973z"/>
			<path fill="#46B760" d="M569.119,161.273c0,1.926-0.316,3.717-0.949,5.377c-0.633,1.658-1.525,3.109-2.68,4.35
				c-1.152,1.242-2.514,2.211-4.084,2.908c-1.57,0.695-3.293,1.045-5.168,1.045c-1.85,0-3.561-0.35-5.131-1.045
				c-1.57-0.697-2.932-1.666-4.084-2.908c-1.154-1.24-2.039-2.691-2.66-4.35c-0.621-1.66-0.932-3.451-0.932-5.377
				s0.311-3.719,0.932-5.377c0.621-1.66,1.506-3.109,2.66-4.352c1.152-1.24,2.514-2.211,4.084-2.906
				c1.57-0.697,3.281-1.047,5.131-1.047c1.875,0,3.598,0.35,5.168,1.047c1.57,0.695,2.932,1.666,4.084,2.906
				c1.154,1.242,2.047,2.691,2.68,4.352C568.803,157.555,569.119,159.348,569.119,161.273z M565.016,161.273
				c0-1.875-0.373-3.561-1.121-5.055c-0.746-1.494-1.779-2.672-3.096-3.533c-1.318-0.861-2.838-1.293-4.561-1.293
				c-1.697,0-3.205,0.432-4.521,1.293c-1.318,0.861-2.344,2.031-3.078,3.514c-0.736,1.482-1.104,3.174-1.104,5.074
				c0,1.875,0.367,3.559,1.104,5.053c0.734,1.496,1.76,2.674,3.078,3.535c1.316,0.861,2.824,1.291,4.521,1.291
				c1.723,0,3.242-0.43,4.561-1.291c1.316-0.861,2.35-2.039,3.096-3.535C564.643,164.832,565.016,163.148,565.016,161.273z"/>
		</g>
	</g>
	<g>
		<g>
			<path fill="#F38220" d="M420.393,85.926c-4.509,5.623-7.359,10.816-8.55,15.58c-0.482,1.926-0.862,4.357-1.14,7.295h-5.434
				c0.937-5.572,1.97-9.633,3.097-12.178c1.127-2.547,3.249-5.871,6.365-9.977h-13.3v-4.787h18.962V85.926z"/>
			<path fill="#F38220" d="M442.129,99.91c0,2.836-0.918,5.186-2.755,7.049c-1.837,1.861-4.148,2.793-6.935,2.793
				c-2.534,0-4.712-0.787-6.536-2.357c-1.824-1.57-2.622-3.42-2.394-5.547h5.183c0.178,1.24,0.54,2.115,1.086,2.621
				c0.546,0.508,1.417,0.76,2.611,0.76c1.372,0,2.433-0.441,3.182-1.33c0.749-0.885,1.125-2.113,1.125-3.686
				c0-3.572-1.385-5.357-4.155-5.357c-1.55,0-2.681,0.672-3.393,2.014h-4.879l2.432-15.01h14.326v4.75h-11.015l-0.938,5.551
				c0.987-0.609,1.815-1.016,2.486-1.219s1.549-0.305,2.638-0.305c2.276,0,4.167,0.887,5.673,2.66
				C441.376,95.07,442.129,97.275,442.129,99.91z"/>
			<path fill="#F38220" d="M480.965,108.801h-5.7V96.262h-10.981v12.539h-5.701V81.1h5.701v10.412h10.981V81.1h5.7V108.801z"/>
			<path fill="#F38220" d="M512.58,95.197c0,4.357-1.235,7.854-3.705,10.488c-2.471,2.635-5.682,3.951-9.633,3.951
				c-4.231,0-7.55-1.43-9.957-4.293c-2.254-2.635-3.381-6.043-3.381-10.223c0-4.027,1.063-7.359,3.191-9.994
				c2.457-2.988,5.915-4.484,10.374-4.484c4.129,0,7.385,1.432,9.767,4.295C511.465,87.623,512.58,91.043,512.58,95.197z
				 M507.146,95.197c0-2.988-0.707-5.332-2.119-7.029c-1.414-1.697-3.367-2.547-5.862-2.547c-2.418,0-4.327,0.842-5.728,2.527
				s-2.1,3.984-2.1,6.896c0,3.016,0.725,5.385,2.176,7.105c1.451,1.725,3.463,2.584,6.033,2.584c2.266,0,4.099-0.879,5.499-2.641
				C506.445,100.334,507.146,98.035,507.146,95.197z"/>
			<path fill="#F38220" d="M539.75,100.973c0,2.256-0.874,4.193-2.622,5.814c-2.103,1.926-5.028,2.889-8.778,2.889
				c-2.939,0-5.434-0.926-7.486-2.775c-2.051-1.848-3.077-3.951-3.077-6.307V81.1h5.7v19.57c0,1.139,0.475,2.096,1.425,2.869
				c0.95,0.771,2.134,1.158,3.553,1.158c3.724,0,5.586-1.342,5.586-4.027V81.1h5.7V100.973z"/>
			<path fill="#F38220" d="M569.01,108.801h-6.156c-0.508-1.316-0.76-2.381-0.76-3.191v-4.18c0-1.115-0.166-1.926-0.494-2.432
				c-0.482-0.762-1.42-1.141-2.813-1.141h-6.764v10.943h-5.7V81.1h15.58c1.722,0,3.217,0.582,4.483,1.748
				c1.545,1.393,2.318,3.369,2.318,5.928c0,2.965-1.355,5.193-4.066,6.688c1.977,1.064,2.989,2.256,3.041,3.572l0.304,6.764
				c0.024,0.836,0.366,1.482,1.026,1.938V108.801z M563.271,89.117c0-2.178-1.09-3.268-3.268-3.268h-7.98v7.258h7.865
				c0.861,0,1.641-0.418,2.338-1.254C562.923,91.018,563.271,90.105,563.271,89.117z"/>
			<path fill="#F38220" d="M595.761,100.631c0,2.889-1.021,5.117-3.059,6.688c-2.04,1.572-4.896,2.357-8.569,2.357
				c-3.318,0-5.941-0.799-7.865-2.395c-1.926-1.596-3.041-3.824-3.345-6.688h5.522c0.406,2.988,2.475,4.484,6.207,4.484
				c1.727,0,3.104-0.324,4.132-0.971c1.028-0.648,1.543-1.529,1.543-2.646c0-2.057-1.292-3.324-3.874-3.807l-6.764-1.289
				c-1.852-0.354-3.358-1.178-4.523-2.469c-1.166-1.291-1.749-2.811-1.749-4.557c0-2.709,0.931-4.836,2.793-6.379
				c1.862-1.545,4.414-2.318,7.657-2.318c3.496,0,6.213,0.773,8.15,2.318c1.938,1.545,2.895,3.738,2.869,6.574h-5.32
				c-0.076-1.342-0.652-2.406-1.729-3.191c-1.077-0.785-2.477-1.178-4.199-1.178c-3.242,0-4.863,1.189-4.863,3.57
				c0,1.547,1.102,2.547,3.306,3.004l5.853,1.215c2.659,0.559,4.56,1.318,5.699,2.279C595.051,96.451,595.761,98.25,595.761,100.631
				z"/>
		</g>
	</g>
	<path fill="#FFFFFF" d="M162.44,102.185h-2.664v5.616h-5.04v-5.616h-10.224V97.9l9.396-15.624h5.868v15.732h2.664V102.185z
		 M154.736,98.009V87.325l-6.635,10.684H154.736z"/>
	<path fill="#FFFFFF" d="M184.776,100.493c0,2.496-0.816,4.481-2.448,5.958c-1.633,1.476-3.816,2.214-6.552,2.214
		c-2.28,0-4.188-0.601-5.724-1.8c-1.896-1.488-2.844-3.673-2.844-6.553h4.882c-0.12,1.488,0.311,2.628,1.292,3.42
		c0.766,0.625,1.699,0.937,2.8,0.937c0.885,0,1.681-0.462,2.387-1.386s1.059-1.902,1.059-2.935c0-1.319-0.507-2.334-1.521-3.042
		c-1.014-0.707-2.391-1.025-4.131-0.954v-3.42c3.408,0.097,5.112-1.199,5.112-3.888c0-2.232-1.176-3.348-3.528-3.348
		c-1.057,0-1.824,0.264-2.304,0.792c-0.625,0.696-0.972,1.968-1.044,3.815h-4.608c-0.048-0.384-0.072-0.756-0.072-1.116
		c0-2.207,0.786-4.008,2.358-5.399c1.571-1.392,3.558-2.088,5.958-2.088c2.399,0,4.32,0.563,5.76,1.691
		c1.56,1.2,2.34,2.916,2.34,5.148c0,1.296-0.216,2.34-0.648,3.132c-0.36,0.624-1.08,1.439-2.16,2.448
		C183.564,95.682,184.776,97.805,184.776,100.493z"/>
</g>
<g id="Layer_2">
</g>
</svg>
