<svg xmlns="http://www.w3.org/2000/svg" width="971.789" height="225.459" viewBox="0 0 971.789 225.459"><g transform="translate(-122.036 -65.047)"><rect width="432.498" height="122.045" transform="translate(122.036 65.059)" fill="#f38220"/><path d="M340.973,187.106h-9.937V65.053h9.937l50.259,61.024Z" transform="translate(219.738 0.006)" fill="#f38220"/><g transform="translate(566.184 65.047)"><g transform="translate(50.599)"><path d="M381,126.076,431.258,187.1H413.473l-50.259-61.028,50.259-61.029h17.785Z" transform="translate(-363.214 -65.047)" fill="#f38220"/></g><path d="M388.807,126.076,338.548,187.1h17.785l50.259-61.028L356.333,65.047H338.548Z" transform="translate(-338.548 -65.047)" fill="#f38220"/></g><g transform="translate(152.655 98.029)"><path d="M172.705,97.432a21.969,21.969,0,0,1-.886,7.235,19.076,19.076,0,0,1-3.4,4.876,39.808,39.808,0,0,1-6.24,5.684q-3.585,2.662-6.979,5.28a15.252,15.252,0,0,0-4.726,5.5h22.229v9.231H136.962q.662-11.816,6.259-16.1l11.635-8.934q7.29-5.613,7.289-11.816a8.53,8.53,0,0,0-2.062-5.873,6.677,6.677,0,0,0-5.227-2.324q-7.585,0-7.141,10.782h-9.939q-.3-9.527,4.431-14.548,4.5-4.729,12.554-4.728,7.976,0,12.961,4.4A14.421,14.421,0,0,1,172.705,97.432Z" transform="translate(-136.962 -80.52)" fill="#fff"/><path d="M193.621,97.432a21.969,21.969,0,0,1-.886,7.235,19.076,19.076,0,0,1-3.4,4.876,39.806,39.806,0,0,1-6.24,5.684q-3.585,2.662-6.979,5.28a15.253,15.253,0,0,0-4.726,5.5h22.229v9.231H157.878q.662-11.816,6.259-16.1l11.635-8.934q7.29-5.613,7.289-11.816A8.53,8.53,0,0,0,181,92.519a6.677,6.677,0,0,0-5.227-2.324q-7.585,0-7.141,10.782h-9.939q-.3-9.527,4.431-14.548,4.5-4.729,12.554-4.728,7.976,0,12.961,4.4A14.421,14.421,0,0,1,193.621,97.432Z" transform="translate(-114.971 -80.52)" fill="#fff"/><path d="M215.221,113.041H201.781v13.443h-8.862V113.041H179.478v-8.934h13.441V90.736h8.862v13.371h13.441Z" transform="translate(-92.262 -80.66)" fill="#fff"/><path d="M259.505,117.46q-1.034,10.114-7.68,15.285-6.133,4.723-16.1,4.728-10.93,0-17.281-7.68t-6.351-20.826q0-12.188,6.277-19.792,6.646-8.047,18.389-8.05,9.822,0,16.173,5.28a17.789,17.789,0,0,1,6.573,13.847h-10.56a10.309,10.309,0,0,0-3.8-7.088,13.085,13.085,0,0,0-18.462,2.287q-3.8,5.1-3.8,13.81,0,8.637,3.766,13.7a11.9,11.9,0,0,0,10.044,5.057A12.639,12.639,0,0,0,245.1,125.1a10.159,10.159,0,0,0,3.692-7.641h10.708Z" transform="translate(-57.97 -81.124)" fill="#fff"/><path d="M250.782,135.393H239.705V81.557h11.077Z" transform="translate(-28.94 -80.671)" fill="#fff"/><path d="M291.941,90.788h-15.73v44.605H265.134V90.788H248.813V81.557h43.128Z" transform="translate(-19.364 -80.671)" fill="#fff"/><path d="M284.586,135.393H273.509V81.557h11.077Z" transform="translate(6.601 -80.671)" fill="#fff"/><path d="M325.205,135.393H284.957V81.557H323.95v9.231H296.034v12.261h25.773v9.231H296.034v13.884h29.171Z" transform="translate(18.637 -80.671)" fill="#fff"/><path d="M352.6,119.97q0,8.419-5.945,13T330,137.546q-9.677,0-15.287-4.653t-6.5-13h10.731q1.185,8.714,12.064,8.714a14.949,14.949,0,0,0,8.031-1.887,5.809,5.809,0,0,0,3-5.141q0-5.991-7.527-7.4l-13.147-2.5a15.367,15.367,0,0,1-8.79-4.8,12.791,12.791,0,0,1-3.4-8.858q0-7.89,5.428-12.4t14.881-4.5q10.191,0,15.841,4.5T350.9,98.406H340.559a7.87,7.87,0,0,0-3.36-6.2,13.516,13.516,0,0,0-8.16-2.287q-9.453,0-9.453,6.94,0,4.508,6.425,5.834l11.373,2.363q7.754,1.628,11.077,4.431Q352.594,113.03,352.6,119.97Z" transform="translate(43.088 -81.125)" fill="#fff"/></g><g transform="translate(122.036 234.376)"><path d="M144.019,147.973a13.992,13.992,0,0,1,7.639,2.224,16.308,16.308,0,0,1,5.613,6.037,17.488,17.488,0,0,1,2.1,8.579,17.7,17.7,0,0,1-2.1,8.61,16.886,16.886,0,0,1-5.613,6.158,13.652,13.652,0,0,1-7.639,2.3H128.974l.624-1.245v21.9h-7.561V147.973h21.983Zm0,26.426a5.831,5.831,0,0,0,3.7-1.325,9.787,9.787,0,0,0,2.728-3.51,10.784,10.784,0,0,0,1.052-4.751,10.314,10.314,0,0,0-1.052-4.679,9.6,9.6,0,0,0-2.728-3.389,5.941,5.941,0,0,0-3.7-1.286h-15.2l.78-1.169v21.127l-.7-1.013h15.123Z" transform="translate(-122.036 -147.189)" fill="#fff"/><path d="M176.9,194.9v7.637h-32.6V147.973h8.185v48.25l-1.637-1.323H176.9Z" transform="translate(-98.622 -147.189)" fill="#fff"/><path d="M189.219,158.106l-18.635,44.433L163,202.53l22.489-54.559H191.1l20.727,49.5c.207.517,2.092,5.089,2.092,5.089l-7.658-.027-19.068-44.2ZM174.8,189.133l3.508-7.483h22.063l1.325,7.483Z" transform="translate(-78.967 -147.19)" fill="#fff"/><path d="M288.344,158.106l-18.635,44.433-7.584-.008,22.489-54.558h5.608l20.727,49.5c.207.517,2.092,5.089,2.092,5.089l-7.658-.027-19.068-44.2Zm-14.421,31.027,3.508-7.483h22.063l1.325,7.483Z" transform="translate(25.25 -147.19)" fill="#fff"/><path d="M444.594,158.106l-18.635,44.433-7.584-.008,22.489-54.558h5.609l20.727,49.5c.207.517,2.092,5.089,2.092,5.089l-7.658-.027-19.068-44.2Zm-14.421,31.027,3.508-7.483h22.063l1.325,7.483Z" transform="translate(189.528 -147.19)" fill="#fff"/><path d="M495.594,158.106l-18.635,44.433-7.584-.008,22.489-54.558h5.608l20.727,49.5c.207.517,2.092,5.089,2.092,5.089l-7.658-.027-19.068-44.2Zm-14.419,31.027,3.506-7.483h22.063l1.325,7.483Z" transform="translate(243.149 -147.19)" fill="#fff"/><path d="M228.621,151.255l-3.818,6.708a46.107,46.107,0,0,0-4.755-1.871,19.419,19.419,0,0,0-5.3-.706,21.117,21.117,0,0,0-7.99,1.442,17.5,17.5,0,0,0-6.119,4.136,18.266,18.266,0,0,0-3.937,6.351,23.1,23.1,0,0,0-1.364,8.109,23.665,23.665,0,0,0,1.481,8.69,18.372,18.372,0,0,0,4.093,6.39,16.561,16.561,0,0,0,6.158,3.9,22.349,22.349,0,0,0,7.678,1.286,21.585,21.585,0,0,0,5.184-.622,36.789,36.789,0,0,0,4.794-1.871l3.976,6.7a46.555,46.555,0,0,1-4.287,1.871,37.485,37.485,0,0,1-4.753,1.245,25.813,25.813,0,0,1-4.913.47,29.985,29.985,0,0,1-10.6-1.871,26.964,26.964,0,0,1-8.887-5.457,25.157,25.157,0,0,1-6.119-8.811,30.2,30.2,0,0,1-2.222-11.925,29.33,29.33,0,0,1,2.068-11.11,25.583,25.583,0,0,1,5.846-8.807,27.192,27.192,0,0,1,8.848-5.771,29.006,29.006,0,0,1,11.069-2.068,28.373,28.373,0,0,1,7.289.938A51.9,51.9,0,0,1,228.621,151.255Z" transform="translate(-53.819 -147.511)" fill="#fff"/><path d="M212.53,147.973h34.3v7.483H219.936l.78-1.325v17.461l-.7-.777h22.028v7.561H220.169l.546-.7v18l-.546-.626h26.66v7.483h-34.3V147.973Z" transform="translate(-26.893 -147.189)" fill="#fff"/><path d="M240.672,147.973l20.918,31.885-3.352-.156,21.4-31.729H285.6V202.54h-8.107v-43.5l2.494.546L262.124,187c-4.655,0-4.655-.057-4.655-.057l-17.552-26.967,1.871-3.118v45.68h-7.561V147.973Z" transform="translate(-4.081 -147.189)" fill="#fff"/><path d="M397.057,147.973l20.918,31.885-3.352-.156,21.4-31.729h5.963V202.54h-8.107v-43.5l2.495.546L418.509,187c-4.655,0-4.655-.057-4.655-.057L396.3,159.978l1.871-3.118v45.68h-7.561V147.973Z" transform="translate(160.339 -147.189)" fill="#fff"/><path d="M289.859,202.564V147.973h8.185v54.591Zm47.385-54.591-40.133,38.043-.47-9.2,29.79-28.844Zm-11.262,54.552-20.376-26.412,6-6.082,25.012,32.494Z" transform="translate(54.409 -147.189)" fill="#fff"/><path d="M324.574,202.564h-8.183V147.973h8.183Z" transform="translate(82.305 -147.189)" fill="#fff"/><path d="M369.594,147.973v54.591h-5.787L330.54,159.82l1.793-1.013v43.758h-7.172V147.973h6.132l32.377,42.094-1.169,1.093V147.973Z" transform="translate(91.525 -147.189)" fill="#fff"/><path d="M617.544,147.973v54.591h-5.787L578.492,159.82l1.791-1.013v43.758h-7.172V147.973h6.133l32.375,42.094-1.169,1.093V147.973Z" transform="translate(352.214 -147.189)" fill="#fff"/><path d="M379.868,203.721a28.54,28.54,0,0,1-11.069-2.144,27.63,27.63,0,0,1-9-6,28.372,28.372,0,0,1-6.041-8.928,28.766,28.766,0,0,1,0-21.983,28.377,28.377,0,0,1,6.041-8.923,27.6,27.6,0,0,1,9-6,28.481,28.481,0,0,1,11.069-2.148,31.693,31.693,0,0,1,7.4.862c2.39.568,9.168,3.742,9.168,3.742l-3.375,6.868s-2.909-1.257-3.221-1.413a21.263,21.263,0,0,0-4.675-1.674,23.323,23.323,0,0,0-5.3-.585,19.5,19.5,0,0,0-17.266,9.978,21.5,21.5,0,0,0,0,20.543,19.43,19.43,0,0,0,17.266,10.017,27.179,27.179,0,0,0,5.769-.661,20.78,20.78,0,0,0,5.145-1.754l-.624,2.1V180.8l1.245,1.089H379.33V174.1h19.244v23.3l-2.257,1.571a57.355,57.355,0,0,1-7.527,3.422A29.836,29.836,0,0,1,379.868,203.721Z" transform="translate(119.292 -147.591)" fill="#fff"/><path d="M445.658,202.565V147.972h25.958a14.929,14.929,0,0,1,7.717,2.068,15.8,15.8,0,0,1,5.654,5.688,16.031,16.031,0,0,1,2.144,8.3,14.656,14.656,0,0,1-1.249,5.961,16.92,16.92,0,0,1-3.35,5.028,13.88,13.88,0,0,1-4.755,3.274l-.857-1.479a12.629,12.629,0,0,1,4.211,2.456,12.154,12.154,0,0,1,2.845,3.742,11.693,11.693,0,0,1,1.13,4.872q.234,2.416.429,4.015a11.033,11.033,0,0,0,.585,2.607,10.1,10.1,0,0,0,1.3,1.916l3.43,2.981v3.159l-7.412-.053a39.656,39.656,0,0,1-3.128-2.817,10.543,10.543,0,0,1-2.064-4.015,24,24,0,0,1-.782-6.784,8.184,8.184,0,0,0-.626-3.35,6.109,6.109,0,0,0-1.715-2.3,7.109,7.109,0,0,0-2.572-1.325,11.769,11.769,0,0,0-3.274-.429H452.754l1.091-1.559v22.631C448.507,202.565,445.658,202.565,445.658,202.565Zm7.172-27.856H471.46a5.838,5.838,0,0,0,3.469-1.438,9.911,9.911,0,0,0,2.728-3.707,12.783,12.783,0,0,0,1.05-5.3,9.175,9.175,0,0,0-2.22-6.275,6.8,6.8,0,0,0-5.26-2.531H452.986l.857-2.027v22.918Z" transform="translate(218.213 -147.19)" fill="#fff"/><path d="M491.531,155.456v-7.483h45.932v7.483ZM510.3,202.564V151.871h8.341v50.694Z" transform="translate(266.443 -147.189)" fill="#fff"/><path d="M525.74,147.973v54.591h-8.185V147.973Zm-4.287,23.23H557l-.08,7.483H521.373Zm39.522-23.23v54.591h-8.109V147.973Z" transform="translate(293.804 -147.189)" fill="#fff"/><path d="M596.127,175.658a30.689,30.689,0,0,1-1.947,11.03,27.169,27.169,0,0,1-5.5,8.923,25.3,25.3,0,0,1-8.378,5.965,27.1,27.1,0,0,1-21.127,0,25.3,25.3,0,0,1-8.378-5.965,26.657,26.657,0,0,1-5.457-8.923,32.774,32.774,0,0,1,0-22.061A26.716,26.716,0,0,1,550.8,155.7a25.291,25.291,0,0,1,8.378-5.961,27.051,27.051,0,0,1,21.127,0,25.291,25.291,0,0,1,8.378,5.961,27.178,27.178,0,0,1,5.5,8.928A30.692,30.692,0,0,1,596.127,175.658Zm-8.417,0a22.847,22.847,0,0,0-2.3-10.37,18.143,18.143,0,0,0-6.351-7.248,17.683,17.683,0,0,0-18.63,0,17.9,17.9,0,0,0-6.314,7.209,24.953,24.953,0,0,0,0,20.774,17.847,17.847,0,0,0,6.314,7.252,17.707,17.707,0,0,0,18.63,0,18.145,18.145,0,0,0,6.351-7.252A22.83,22.83,0,0,0,587.71,175.658Z" transform="translate(321.01 -147.591)" fill="#fff"/></g><g transform="translate(695.181 97.036)"><path d="M440.329,90.2q-13.874,17.3-17.539,31.96a103.321,103.321,0,0,0-2.339,14.965H409.3q2.883-17.145,6.353-24.982t13.057-20.467H401.431v-9.82h38.9Z" transform="translate(-401.431 -79.36)" fill="#f38220"/><path d="M461.746,118.887a19.75,19.75,0,0,1-5.652,14.46,19.16,19.16,0,0,1-14.226,5.73,19.874,19.874,0,0,1-13.408-4.835q-5.613-4.831-4.911-11.379h10.632q.548,3.816,2.228,5.377t5.356,1.559a8.06,8.06,0,0,0,6.528-2.728q2.3-2.723,2.308-7.561,0-10.991-8.523-10.989a7.339,7.339,0,0,0-6.96,4.131H425.108L430.1,81.86h29.388V91.6h-22.6l-1.924,11.387a22.979,22.979,0,0,1,5.1-2.5,19.175,19.175,0,0,1,5.411-.626,14.636,14.636,0,0,1,11.637,5.457A20.24,20.24,0,0,1,461.746,118.887Z" transform="translate(-378.259 -79.359)" fill="#f38220"/><path d="M504.5,137.925H492.8V112.2H470.278v25.722H458.583V81.1h11.695v21.359H492.8V81.1H504.5Z" transform="translate(-341.343 -80.158)" fill="#f38220"/><path d="M540.627,110.5q0,13.407-7.6,21.515t-19.761,8.1q-13.019,0-20.426-8.807-6.936-8.108-6.936-20.971,0-12.391,6.546-20.5,7.56-9.194,21.281-9.2,12.705,0,20.036,8.811Q540.625,97.718,540.627,110.5Zm-11.147,0q0-9.194-4.347-14.419t-12.025-5.225q-7.44,0-11.75,5.184t-4.308,14.146q0,9.28,4.464,14.575t12.376,5.3a13.717,13.717,0,0,0,11.281-5.418Q529.477,119.235,529.479,110.5Z" transform="translate(-312.618 -80.64)" fill="#f38220"/><path d="M562.842,121.867a15.708,15.708,0,0,1-5.379,11.927q-6.471,5.926-18.007,5.926a22.124,22.124,0,0,1-15.357-5.693q-6.311-5.686-6.312-12.938V81.1H529.48v40.145a7.309,7.309,0,0,0,2.923,5.885,11.191,11.191,0,0,0,7.288,2.375q11.459,0,11.459-8.261V81.1h11.693v40.767Z" transform="translate(-279.097 -80.158)" fill="#f38220"/><path d="M592.863,137.925H580.234a19.29,19.29,0,0,1-1.559-6.546V122.8a9.447,9.447,0,0,0-1.013-4.989q-1.483-2.345-5.771-2.341H558.016v22.448H546.323V81.1h31.961a13.127,13.127,0,0,1,9.2,3.586q4.754,4.286,4.755,12.161,0,9.123-8.341,13.72,6.083,3.274,6.238,7.328l.624,13.876a4.728,4.728,0,0,0,2.1,3.976v2.181ZM581.09,97.546q0-6.7-6.7-6.7h-16.37v14.889H574.15a6.2,6.2,0,0,0,4.8-2.572A8.578,8.578,0,0,0,581.09,97.546Z" transform="translate(-249.095 -80.158)" fill="#f38220"/><path d="M619.772,121.648q0,8.89-6.275,13.72T595.919,140.2q-10.21,0-16.134-4.913t-6.862-13.72h11.328q1.25,9.194,12.733,9.2a15.77,15.77,0,0,0,8.476-1.992,6.135,6.135,0,0,0,3.165-5.428q0-6.33-7.947-7.81L586.8,112.895a16.2,16.2,0,0,1-9.278-5.065,13.5,13.5,0,0,1-3.588-9.348q0-8.336,5.729-13.086t15.707-4.755q10.758,0,16.719,4.755t5.885,13.486H607.064a8.3,8.3,0,0,0-3.547-6.546,14.276,14.276,0,0,0-8.614-2.417q-9.976,0-9.976,7.323,0,4.76,6.782,6.162l12.007,2.492q8.182,1.72,11.691,4.675Q619.77,114.324,619.772,121.648Z" transform="translate(-221.128 -80.641)" fill="#f38220"/></g></g></svg>