<svg xmlns="http://www.w3.org/2000/svg" width="22.734" height="33.086" viewBox="0 0 22.734 33.086"><g transform="translate(1.009 1)"><g transform="translate(0 0)"><g transform="translate(0 0)"><path d="M178.99,134.908h-1.9a8.518,8.518,0,0,0-1.6-3.454h3.5a1.727,1.727,0,1,0,0-3.454H161.72a1.727,1.727,0,0,0,0,3.454h6.908a5.172,5.172,0,0,1,4.863,3.454H161.72a1.727,1.727,0,0,0,0,3.454h11.771a5.172,5.172,0,0,1-4.863,3.454H161.72a1.728,1.728,0,0,0-1.6,1.067,1.713,1.713,0,0,0,0,1.319,1.646,1.646,0,0,0,.376.563l13.813,13.813a1.727,1.727,0,1,0,2.445-2.439l-10.87-10.87h2.739a8.643,8.643,0,0,0,8.459-6.908h1.9a1.727,1.727,0,1,0,0-3.454Z" transform="translate(-159.992 -128)" fill="#fff" stroke="#ffffffff" stroke-width="0"/></g></g></g></svg>