<svg xmlns="http://www.w3.org/2000/svg" width="131.528" height="137.123" viewBox="0 0 131.528 137.123"><g transform="translate(-22.16 -19.8)"><g transform="translate(22.16 120.915)"><path d="M31.633,360.11a1.8,1.8,0,0,0-.664-1.446,7.323,7.323,0,0,0-1.668-1.016q-1-.459-2.179-.947a11.131,11.131,0,0,1-2.179-1.2,6.128,6.128,0,0,1-1.668-1.766,4.98,4.98,0,0,1-.664-2.7,5.792,5.792,0,0,1,.482-2.462,4.634,4.634,0,0,1,1.371-1.741,5.916,5.916,0,0,1,2.107-1.03,10.263,10.263,0,0,1,2.716-.335,17.438,17.438,0,0,1,3.253.292,8.284,8.284,0,0,1,2.517.849l-1.215,3.2a6.872,6.872,0,0,0-1.868-.71,10.75,10.75,0,0,0-2.687-.32,3.479,3.479,0,0,0-2.078.528,1.669,1.669,0,0,0-.722,1.42,1.746,1.746,0,0,0,.664,1.391,7.59,7.59,0,0,0,1.668,1.03c.67.315,1.394.641,2.176.973a11.81,11.81,0,0,1,2.179,1.209,6.226,6.226,0,0,1,1.668,1.752,4.768,4.768,0,0,1,.664,2.6,6.317,6.317,0,0,1-.522,2.684,5.1,5.1,0,0,1-1.472,1.879,6.3,6.3,0,0,1-2.289,1.114,11.422,11.422,0,0,1-2.956.361,15.972,15.972,0,0,1-3.732-.39,11.542,11.542,0,0,1-2.376-.779L23.4,361.3a7.621,7.621,0,0,0,.805.361,10,10,0,0,0,1.117.361,12.815,12.815,0,0,0,1.313.28,8.9,8.9,0,0,0,1.429.113,5.038,5.038,0,0,0,2.644-.572A1.889,1.889,0,0,0,31.633,360.11Z" transform="translate(-22.16 -345.47)" fill="#fff"/><path d="M88.093,379.055v-7.568a7.182,7.182,0,0,0-.367-2.728,1.5,1.5,0,0,0-1.527-.805,2.289,2.289,0,0,0-1.556.514,3.27,3.27,0,0,0-.906,1.322v9.265H80.06V365.14h2.855l.424,1.839h.113a6.388,6.388,0,0,1,1.654-1.559,4.594,4.594,0,0,1,2.586-.667,4.111,4.111,0,0,1,2.22.543,3.514,3.514,0,0,1,1.342,1.821,5.086,5.086,0,0,1,1.668-1.726,4.522,4.522,0,0,1,2.459-.641,6.478,6.478,0,0,1,2.023.277,2.762,2.762,0,0,1,1.357.961,4.635,4.635,0,0,1,.779,1.821,13.6,13.6,0,0,1,.254,2.9v8.348H96.117v-7.819a6.574,6.574,0,0,0-.352-2.462,1.519,1.519,0,0,0-1.57-.82,2.242,2.242,0,0,0-1.57.528,3.156,3.156,0,0,0-.863,1.446v9.127H88.093Z" transform="translate(-63.348 -359.185)" fill="#fff"/><path d="M159.525,366.225a12.232,12.232,0,0,1,2.687-.794,17.462,17.462,0,0,1,3.253-.292,7.517,7.517,0,0,1,2.459.346,3.77,3.77,0,0,1,1.57.987,3.651,3.651,0,0,1,.82,1.53,7.763,7.763,0,0,1,.24,2q0,1.225-.084,2.462c-.055.826-.089,1.637-.1,2.433s.014,1.573.069,2.324a8.718,8.718,0,0,0,.424,2.127h-3l-.592-1.919h-.141a5.03,5.03,0,0,1-1.57,1.489,4.814,4.814,0,0,1-2.586.626,5.132,5.132,0,0,1-1.781-.292,3.887,3.887,0,0,1-1.357-.834,3.771,3.771,0,0,1-.877-1.282,4.213,4.213,0,0,1-.312-1.654,3.816,3.816,0,0,1,.58-2.156,4.189,4.189,0,0,1,1.668-1.42,8.391,8.391,0,0,1,2.6-.75,18.855,18.855,0,0,1,3.38-.127,3.552,3.552,0,0,0-.228-2.24c-.283-.456-.915-.681-1.893-.681a13.212,13.212,0,0,0-2.332.222,8.611,8.611,0,0,0-2.02.583Zm4.664,10.354a2.843,2.843,0,0,0,1.752-.488,3.4,3.4,0,0,0,.961-1.045v-1.81a10.318,10.318,0,0,0-1.683-.026,6.27,6.27,0,0,0-1.429.251,2.426,2.426,0,0,0-.99.557,1.235,1.235,0,0,0-.367.918,1.56,1.56,0,0,0,.468,1.209A1.823,1.823,0,0,0,164.189,376.579Z" transform="translate(-119.253 -359.462)" fill="#fff"/><path d="M221.4,368.743a4.838,4.838,0,0,0-1.585-.306,2.612,2.612,0,0,0-1.654.514,2.5,2.5,0,0,0-.892,1.322v8.988H213.6V365.346h2.855l.424,1.839h.113a3.8,3.8,0,0,1,1.3-1.588,3.354,3.354,0,0,1,1.922-.557,5.389,5.389,0,0,1,1.668.306Z" transform="translate(-158.343 -359.391)" fill="#fff"/><path d="M248.87,357.125h1.951V354.51l3.677-1.03v3.646h3.449v3.06H254.5v5.343a5.2,5.2,0,0,0,.3,2.072,1.12,1.12,0,0,0,1.117.626,3.731,3.731,0,0,0,.976-.113,6.671,6.671,0,0,0,.921-.335l.649,2.783a9.355,9.355,0,0,1-1.781.612,8.575,8.575,0,0,1-2.064.251,3.744,3.744,0,0,1-2.869-.987,4.687,4.687,0,0,1-.921-3.241v-7.014h-1.951v-3.057Z" transform="translate(-183.432 -351.168)" fill="#fff"/><path d="M329.918,364.543a5.984,5.984,0,0,1-2.306.912,14.741,14.741,0,0,1-2.869.274,10.382,10.382,0,0,1-3.38-.543,7.256,7.256,0,0,1-2.814-1.752,8.58,8.58,0,0,1-1.937-3.146,13.442,13.442,0,0,1-.722-4.69,12.53,12.53,0,0,1,.805-4.8,8.716,8.716,0,0,1,2.093-3.117,7.766,7.766,0,0,1,2.869-1.7,10.192,10.192,0,0,1,3.166-.514,15.8,15.8,0,0,1,2.869.222,10.672,10.672,0,0,1,1.937.528l-.765,3.227a5.618,5.618,0,0,0-1.541-.444,14.383,14.383,0,0,0-2.165-.139,4.755,4.755,0,0,0-3.775,1.645q-1.429,1.645-1.429,5.1a10.337,10.337,0,0,0,.341,2.748,5.853,5.853,0,0,0,1.03,2.119,4.711,4.711,0,0,0,1.726,1.365,5.574,5.574,0,0,0,2.39.488,7.922,7.922,0,0,0,2.15-.251,6.393,6.393,0,0,0,1.527-.641Z" transform="translate(-231.108 -345.47)" fill="#fff"/><path d="M394.37,357.125h1.951V354.51L400,353.48v3.646h3.449v3.06H400v5.343a5.2,5.2,0,0,0,.3,2.072,1.12,1.12,0,0,0,1.117.626,3.731,3.731,0,0,0,.976-.113,6.673,6.673,0,0,0,.921-.335l.649,2.783a9.354,9.354,0,0,1-1.781.612,8.575,8.575,0,0,1-2.064.251,3.744,3.744,0,0,1-2.869-.987,4.687,4.687,0,0,1-.921-3.241v-7.014h-1.951v-3.057Z" transform="translate(-286.935 -351.168)" fill="#fff"/><path d="M435.008,373.908l.508,2.171h.17l.367-2.2,2.15-7.793h3.79l-4.3,12.55q-.537,1.559-1.03,2.852a12.967,12.967,0,0,1-1.088,2.24,5.107,5.107,0,0,1-1.313,1.461,2.867,2.867,0,0,1-1.712.514,4.921,4.921,0,0,1-2.347-.473l.678-2.9a2.278,2.278,0,0,0,.849.167,1.884,1.884,0,0,0,1.258-.543,3.69,3.69,0,0,0,.921-1.963L428,366.08h4.413Z" transform="translate(-310.858 -360.131)" fill="#fff"/></g><g transform="translate(22.203 150.14)"><path d="M27.428,449.256l.1-.984h-.049l-.361.9-1.732,2.959h-.237l-1.836-2.967-.343-.889h-.046l.133.973v4.408H22.31V447.1H22.9l2.084,3.351.315.73h.017l.294-.75L27.6,447.1h.618v6.552h-.791v-4.4Z" transform="translate(-22.31 -446.99)" fill="#fff"/><path d="M50.02,447.12h.791v6.552H50.02Z" transform="translate(-42.022 -447.005)" fill="#fff"/><path d="M62.1,451.726a.9.9,0,0,0-.237-.641,2.391,2.391,0,0,0-.595-.439,7.8,7.8,0,0,0-.776-.361,4.184,4.184,0,0,1-.774-.407,2.178,2.178,0,0,1-.595-.589,1.558,1.558,0,0,1-.237-.895,1.5,1.5,0,0,1,.543-1.218,2.348,2.348,0,0,1,1.541-.447,6.223,6.223,0,0,1,1.056.084,2.857,2.857,0,0,1,.742.214l-.237.693a3.23,3.23,0,0,0-.644-.2,4.37,4.37,0,0,0-.955-.1A1.4,1.4,0,0,0,60,447.7a.849.849,0,0,0-.315.652.836.836,0,0,0,.237.609,2.477,2.477,0,0,0,.595.436c.237.127.5.254.774.378a4.813,4.813,0,0,1,.776.436,2.329,2.329,0,0,1,.595.595,1.49,1.49,0,0,1,.237.863,1.838,1.838,0,0,1-.153.759,1.588,1.588,0,0,1-.447.58,2.071,2.071,0,0,1-.713.375,3.2,3.2,0,0,1-.95.13,5.365,5.365,0,0,1-1.181-.107,3.168,3.168,0,0,1-.722-.24l.266-.693a3.131,3.131,0,0,0,.647.231,3.787,3.787,0,0,0,.961.113,2.712,2.712,0,0,0,.589-.061,1.367,1.367,0,0,0,.476-.2,1.023,1.023,0,0,0,.318-.341A1,1,0,0,0,62.1,451.726Z" transform="translate(-48.218 -446.727)" fill="#fff"/><path d="M80.614,451.726a.9.9,0,0,0-.237-.641,2.391,2.391,0,0,0-.595-.439,7.8,7.8,0,0,0-.776-.361,4.184,4.184,0,0,1-.774-.407,2.178,2.178,0,0,1-.595-.589,1.558,1.558,0,0,1-.237-.895,1.5,1.5,0,0,1,.543-1.218,2.348,2.348,0,0,1,1.541-.447,6.223,6.223,0,0,1,1.056.084,2.857,2.857,0,0,1,.742.214l-.237.693a3.23,3.23,0,0,0-.644-.2,4.37,4.37,0,0,0-.955-.1,1.4,1.4,0,0,0-.941.274.849.849,0,0,0-.315.652.836.836,0,0,0,.237.609,2.478,2.478,0,0,0,.595.436c.237.127.5.254.774.378a4.814,4.814,0,0,1,.776.436,2.329,2.329,0,0,1,.595.595,1.49,1.49,0,0,1,.237.863,1.838,1.838,0,0,1-.153.759,1.588,1.588,0,0,1-.447.58,2.071,2.071,0,0,1-.713.375,3.2,3.2,0,0,1-.95.13,5.365,5.365,0,0,1-1.181-.107,3.168,3.168,0,0,1-.722-.24l.266-.693a3.131,3.131,0,0,0,.647.231,3.787,3.787,0,0,0,.961.113,2.712,2.712,0,0,0,.589-.061,1.367,1.367,0,0,0,.476-.2,1.023,1.023,0,0,0,.317-.341A.966.966,0,0,0,80.614,451.726Z" transform="translate(-61.385 -446.727)" fill="#fff"/><path d="M97.67,447.12h.791v6.552H97.67Z" transform="translate(-75.918 -447.005)" fill="#fff"/><path d="M106.7,450.109a3.927,3.927,0,0,1,.7-2.514,2.427,2.427,0,0,1,2.006-.875,2.831,2.831,0,0,1,1.218.242,2.279,2.279,0,0,1,.851.687,3.02,3.02,0,0,1,.5,1.068,5.573,5.573,0,0,1,.162,1.388,3.9,3.9,0,0,1-.71,2.514,2.452,2.452,0,0,1-2.02.875,2.782,2.782,0,0,1-1.2-.242,2.292,2.292,0,0,1-.849-.687,3.005,3.005,0,0,1-.5-1.065A5.6,5.6,0,0,1,106.7,450.109Zm.834,0a4.759,4.759,0,0,0,.11,1.03,2.743,2.743,0,0,0,.338.857,1.785,1.785,0,0,0,.586.589,1.564,1.564,0,0,0,.84.219,1.652,1.652,0,0,0,1.388-.658,3.336,3.336,0,0,0,.505-2.035,4.764,4.764,0,0,0-.11-1.025,2.671,2.671,0,0,0-.343-.86,1.85,1.85,0,0,0-.589-.589,1.585,1.585,0,0,0-.851-.219,1.628,1.628,0,0,0-1.374.658A3.369,3.369,0,0,0,107.534,450.109Z" transform="translate(-82.342 -446.72)" fill="#fff"/><path d="M132.408,449.127l-.514-.944h-.038l.1.944v4.286h-.742V446.76h.419l3.187,4.37.494.9h.046l-.1-.9v-4.266h.742v6.653h-.419Z" transform="translate(-99.777 -446.748)" fill="#fff"/><path d="M165.936,447.8h-2.072v5.859h-.791V447.8H161v-.693h4.936Z" transform="translate(-120.968 -446.997)" fill="#fff"/><path d="M182.5,446.991c.24-.043.52-.078.831-.1s.6-.038.86-.038a3.685,3.685,0,0,1,.831.092,1.928,1.928,0,0,1,.7.309,1.57,1.57,0,0,1,.479.563,2.032,2.032,0,0,1-.245,2.087,2.086,2.086,0,0,1-1.085.638l.456.346,1.654,2.592h-.921l-1.836-2.826-.932-.141v2.967H182.5v-6.486Zm1.712.534h-.257c-.089,0-.173,0-.257.009l-.234.017a.8.8,0,0,0-.176.029v2.413h.742a1.77,1.77,0,0,0,1.082-.318,1.155,1.155,0,0,0,.427-.993,1.094,1.094,0,0,0-.352-.834A1.386,1.386,0,0,0,184.215,447.525Z" transform="translate(-136.263 -446.812)" fill="#fff"/><path d="M203.627,451.6h-2.442l-.664,1.816h-.791l2.52-6.653h.361l2.528,6.653H204.3Zm-2.185-.673h1.951l-.739-1.992-.237-.993h-.012l-.237,1.01Z" transform="translate(-148.519 -446.748)" fill="#fff"/><path d="M223.778,449.127l-.514-.944h-.038l.1.944v4.286h-.742V446.76H223l3.187,4.37.494.9h.046l-.1-.9v-4.266h.742v6.653h-.419Z" transform="translate(-164.774 -446.748)" fill="#fff"/><path d="M247.874,451.726a.883.883,0,0,0-.237-.641,2.391,2.391,0,0,0-.595-.439,8.052,8.052,0,0,0-.774-.361,4.185,4.185,0,0,1-.774-.407,2.178,2.178,0,0,1-.595-.589,1.558,1.558,0,0,1-.237-.895,1.5,1.5,0,0,1,.543-1.218,2.348,2.348,0,0,1,1.541-.447,6.223,6.223,0,0,1,1.056.084,2.857,2.857,0,0,1,.742.214l-.237.693a3.255,3.255,0,0,0-.641-.2,4.369,4.369,0,0,0-.955-.1,1.4,1.4,0,0,0-.941.274.864.864,0,0,0-.078,1.261,2.537,2.537,0,0,0,.595.436c.237.127.5.254.774.378a4.663,4.663,0,0,1,.774.436,2.329,2.329,0,0,1,.595.595,1.49,1.49,0,0,1,.237.863,1.793,1.793,0,0,1-.153.759,1.588,1.588,0,0,1-.447.58,2.07,2.07,0,0,1-.713.375,3.215,3.215,0,0,1-.95.13,5.365,5.365,0,0,1-1.181-.107,3.2,3.2,0,0,1-.724-.24l.266-.693a3.131,3.131,0,0,0,.647.231,3.787,3.787,0,0,0,.961.113,2.751,2.751,0,0,0,.589-.061,1.367,1.367,0,0,0,.476-.2,1.023,1.023,0,0,0,.318-.341A1,1,0,0,0,247.874,451.726Z" transform="translate(-180.367 -446.727)" fill="#fff"/><path d="M264.293,447.12h3.622v.693h-2.834v2.237h2.644v.693h-2.644v2.93h-.791V447.12Z" transform="translate(-194.445 -447.005)" fill="#fff"/><path d="M281.4,450.109a3.927,3.927,0,0,1,.7-2.514,2.427,2.427,0,0,1,2.006-.875,2.831,2.831,0,0,1,1.218.242,2.279,2.279,0,0,1,.852.687,3.02,3.02,0,0,1,.5,1.068,5.574,5.574,0,0,1,.162,1.388,3.9,3.9,0,0,1-.71,2.514,2.452,2.452,0,0,1-2.02.875,2.782,2.782,0,0,1-1.2-.242,2.293,2.293,0,0,1-.849-.687,3.006,3.006,0,0,1-.5-1.065A5.6,5.6,0,0,1,281.4,450.109Zm.837,0a4.758,4.758,0,0,0,.11,1.03,2.771,2.771,0,0,0,.338.857,1.786,1.786,0,0,0,.586.589,1.564,1.564,0,0,0,.84.219,1.652,1.652,0,0,0,1.388-.658,3.336,3.336,0,0,0,.505-2.035,4.763,4.763,0,0,0-.11-1.025,2.672,2.672,0,0,0-.343-.86,1.85,1.85,0,0,0-.589-.589,1.585,1.585,0,0,0-.852-.219,1.628,1.628,0,0,0-1.374.658A3.349,3.349,0,0,0,282.237,450.109Z" transform="translate(-206.616 -446.72)" fill="#fff"/><path d="M305.9,446.991c.24-.043.52-.078.831-.1s.6-.038.86-.038a3.685,3.685,0,0,1,.831.092,1.928,1.928,0,0,1,.7.309,1.57,1.57,0,0,1,.479.563,2.032,2.032,0,0,1-.245,2.087,2.086,2.086,0,0,1-1.085.638l.456.346,1.654,2.592h-.921l-1.836-2.826-.932-.141v2.967H305.9v-6.486Zm1.712.534h-.257c-.089,0-.173,0-.257.009l-.234.017a.8.8,0,0,0-.176.029v2.413h.742a1.77,1.77,0,0,0,1.082-.318,1.155,1.155,0,0,0,.427-.993,1.094,1.094,0,0,0-.352-.834A1.386,1.386,0,0,0,307.615,447.525Z" transform="translate(-224.044 -446.812)" fill="#fff"/><path d="M331.658,449.263l.1-.984h-.046l-.361.9-1.732,2.959h-.237l-1.839-2.964-.344-.889h-.046l.133.973v4.408h-.742V447.11h.589l2.084,3.351.315.73h.017l.294-.75,1.989-3.331h.618v6.552h-.791v-4.4Z" transform="translate(-238.727 -446.997)" fill="#fff"/><path d="M352.77,459.27h2.3v.693h-2.3Z" transform="translate(-257.386 -455.648)" fill="#fff"/><path d="M367.708,449.127l-.514-.944h-.038l.1.944v4.286h-.742V446.76h.419l3.187,4.37.494.9h.046l-.1-.9v-4.266h.742v6.653h-.419Z" transform="translate(-267.16 -446.748)" fill="#fff"/><path d="M391.057,451.6h-2.442l-.664,1.816h-.791l2.52-6.653h.361l2.529,6.653h-.837Zm-2.188-.673h1.951l-.739-1.992-.237-.993h-.012l-.237,1.01Z" transform="translate(-281.849 -446.748)" fill="#fff"/><path d="M410.526,447.8h-2.072v5.859h-.791V447.8H405.59v-.693h4.936v.693Z" transform="translate(-294.96 -446.997)" fill="#fff"/><path d="M427.73,447.12h.791v6.552h-.791Z" transform="translate(-310.709 -447.005)" fill="#fff"/><path d="M436.76,450.109a3.927,3.927,0,0,1,.7-2.514,2.427,2.427,0,0,1,2.006-.875,2.831,2.831,0,0,1,1.218.242,2.279,2.279,0,0,1,.852.687,3.02,3.02,0,0,1,.5,1.068,5.572,5.572,0,0,1,.162,1.388,3.9,3.9,0,0,1-.71,2.514,2.452,2.452,0,0,1-2.021.875,2.782,2.782,0,0,1-1.2-.242,2.292,2.292,0,0,1-.849-.687,3.005,3.005,0,0,1-.5-1.065A5.6,5.6,0,0,1,436.76,450.109Zm.837,0a4.758,4.758,0,0,0,.11,1.03,2.771,2.771,0,0,0,.338.857,1.786,1.786,0,0,0,.586.589,1.564,1.564,0,0,0,.84.219,1.652,1.652,0,0,0,1.388-.658,3.336,3.336,0,0,0,.505-2.035,4.765,4.765,0,0,0-.11-1.025,2.671,2.671,0,0,0-.344-.86,1.85,1.85,0,0,0-.589-.589,1.585,1.585,0,0,0-.852-.219,1.628,1.628,0,0,0-1.374.658A3.349,3.349,0,0,0,437.6,450.109Z" transform="translate(-317.133 -446.72)" fill="#fff"/><path d="M462.468,449.127l-.514-.944h-.038l.1.944v4.286h-.742V446.76h.419l3.187,4.37.494.9h.046l-.1-.9v-4.266h.742v6.653h-.419Z" transform="translate(-334.568 -446.748)" fill="#fff"/></g><g transform="translate(107.381 27.98)"><rect width="5.222" height="4.959" fill="#fff"/></g><g transform="translate(99.755 19.8)"><g transform="translate(0)"><rect width="5.222" height="4.959" fill="#3eb249"/></g></g><g transform="translate(115.151 19.8)"><rect width="5.222" height="4.959" fill="#f68633"/></g><g transform="translate(107.381 43.578)"><path d="M246.151,171.957H240.93V167h5.221Zm0-7.831H240.93v-4.959h5.221Zm0-7.831H240.93v-4.959h5.221Zm0-7.831H240.93V143.5h5.221Zm0-7.831H240.93v-4.959h5.221Zm0-7.834H240.93v-4.959h5.221Zm0-7.831H240.93v-4.959h5.221Zm0-7.831H240.93V112.18h5.221Z" transform="translate(-240.93 -112.18)" fill="#fff"/></g><g transform="translate(123.271 35.773)"><g transform="translate(0 15.679)"><path d="M301.2,167.911H295.98v-4.959H301.2Zm0-7.831H295.98v-4.959H301.2Zm0-7.831H295.98v-4.959H301.2Zm0-7.831H295.98V139.46H301.2Z" transform="translate(-295.98 -139.46)" fill="#fff"/></g><g transform="translate(8.275 7.77)"><path d="M329.871,156.176H324.65v-4.959h5.221Zm0-7.831H324.65v-4.959h5.221Zm0-23.5H324.65v-4.959h5.221Zm0-7.831H324.65V112.06h5.221Z" transform="translate(-324.65 -112.06)" fill="#fff"/></g><g transform="translate(16.556)"><path d="M358.561,144.92H353.34v-4.959h5.221Zm0-7.831H353.34v-4.959h5.221Zm0-7.831H353.34V124.3h5.221Zm0-23.5H353.34V100.8h5.221Zm0-7.831H353.34V92.974h5.221Zm0-7.834H353.34V85.14h5.221Z" transform="translate(-353.34 -85.14)" fill="#fff"/></g><g transform="translate(24.803)"><path d="M387.132,144.92H381.91v-4.959h5.221Zm0-7.831H381.91v-4.959h5.221Zm0-7.831H381.91V124.3h5.221Zm0-23.5H381.91V100.8h5.221Zm0-7.831H381.91V92.974h5.221Zm0-7.834H381.91V85.14h5.221Z" transform="translate(-381.91 -85.14)" fill="#fff"/></g><g transform="translate(8.275 23.432)"><g transform="translate(8.284 0.063)"><rect width="5.222" height="4.959" fill="#f68633"/></g><rect width="5.222" height="4.959" fill="#f68633"/></g><g transform="translate(8.275 31.263)"><g transform="translate(8.284 0.064)"><rect width="5.222" height="4.959" fill="#3eb149"/></g><rect width="5.222" height="4.959" fill="#3eb149"/></g></g><g transform="translate(66.954 35.773)"><g transform="translate(24.803 15.676)"><path d="M186.8,162.945h5.222V167.9H186.8Zm0-7.831h5.222v4.959H186.8Zm0-7.834h5.222v4.959H186.8Zm0-7.831h5.222v4.959H186.8Z" transform="translate(-186.8 -139.45)" fill="#fff"/></g><g transform="translate(16.528 7.767)"><path d="M158.13,151.207h5.221v4.959H158.13Zm0-7.831h5.221v4.959H158.13Zm0-23.5h5.221v4.959H158.13Zm0-7.831h5.221v4.959H158.13Z" transform="translate(-158.13 -112.05)" fill="#fff"/></g><g transform="translate(8.246)"><path d="M129.44,139.962h5.222v4.959H129.44Zm0-7.834h5.222v4.959H129.44Zm0-7.831h5.222v4.959H129.44Zm0-23.5h5.222v4.959H129.44Zm0-7.831h5.222V97.93H129.44Zm0-7.831h5.222V90.1H129.44Z" transform="translate(-129.44 -85.14)" fill="#fff"/></g><g transform="translate(0)"><path d="M100.87,139.962h5.222v4.959H100.87Zm0-7.834h5.222v4.959H100.87Zm0-7.831h5.222v4.959H100.87Zm0-23.5h5.222v4.959H100.87Zm0-7.831h5.222V97.93H100.87Zm0-7.831h5.222V90.1H100.87Z" transform="translate(-100.87 -85.14)" fill="#fff"/></g><g transform="translate(8.246 23.432)"><g transform="translate(0 0.063)"><rect width="5.222" height="4.959" fill="#f68633"/></g><g transform="translate(8.281)"><rect width="5.222" height="4.959" fill="#f68633"/></g></g><g transform="translate(8.246 31.263)"><g transform="translate(0 0.064)"><rect width="5.222" height="4.959" fill="#3eb149"/></g><g transform="translate(8.281)"><rect width="5.222" height="4.959" fill="#3eb149"/></g></g></g><g transform="translate(123.236 121.417)"><rect width="3.455" height="3.285" fill="#f68633"/><g transform="translate(0 5.314)"><rect width="3.455" height="3.285" fill="#fff"/></g><g transform="translate(0 10.628)"><rect width="3.455" height="3.285" fill="#fff"/></g><g transform="translate(0 16.086)"><rect width="3.455" height="3.285" fill="#fff"/></g></g></g></svg>