<?xml version="1.0" encoding="utf-8"?>
<!-- Generator: Adobe Illustrator 25.4.1, SVG Export Plug-In . SVG Version: 6.00 Build 0)  -->
<svg version="1.1" id="Layer_1" xmlns="http://www.w3.org/2000/svg" xmlns:xlink="http://www.w3.org/1999/xlink" x="0px" y="0px"
	 viewBox="0 0 131.5 137.1" style="enable-background:new 0 0 131.5 137.1;" xml:space="preserve">
<style type="text/css">
	.st0{fill:#3EB249;}
	.st1{fill:#F68633;}
	.st2{fill:#3EB149;}
	.st3{fill:#6D6D6D;}
</style>
<g transform="translate(-22.16 -19.8)">
	<g transform="translate(99.755 19.8)">
		<g transform="translate(0)">
			<rect x="0" class="st0" width="5.2" height="5"/>
		</g>
	</g>
	<g transform="translate(115.151 19.8)">
		<rect x="0" class="st1" width="5.2" height="5"/>
	</g>
	<g transform="translate(8.275 23.432)">
		<g transform="translate(8.284 0.063)">
			<rect x="123.3" y="35.8" class="st1" width="5.2" height="5"/>
		</g>
		<rect x="123.3" y="35.8" class="st1" width="5.2" height="5"/>
	</g>
	<g transform="translate(8.275 31.263)">
		<g transform="translate(8.284 0.064)">
			<rect x="123.3" y="35.8" class="st2" width="5.2" height="5"/>
		</g>
		<rect x="123.3" y="35.8" class="st2" width="5.2" height="5"/>
	</g>
	<g>
		<g transform="translate(22.16 120.915)">
			<path class="st3" d="M9.5,14.6c0-0.6-0.2-1.1-0.7-1.4c-0.5-0.4-1.1-0.8-1.7-1c-0.7-0.3-1.4-0.6-2.2-0.9c-0.8-0.3-1.5-0.7-2.2-1.2
				C2.1,9.6,1.5,9,1.1,8.3C0.6,7.4,0.4,6.5,0.5,5.6c0-0.8,0.1-1.7,0.5-2.5c0.3-0.7,0.8-1.3,1.4-1.7c0.6-0.5,1.3-0.8,2.1-1
				C5.3,0.1,6.2,0,7.1,0c1.1,0,2.2,0.1,3.3,0.3c0.9,0.1,1.7,0.4,2.5,0.8l-1.2,3.2C11.1,4,10.5,3.8,9.8,3.6C8.9,3.4,8,3.3,7.1,3.3
				C6.4,3.3,5.7,3.4,5,3.8C4.6,4.2,4.3,4.7,4.3,5.3c0,0.5,0.2,1.1,0.7,1.4c0.5,0.4,1.1,0.8,1.7,1c0.7,0.3,1.4,0.6,2.2,1
				C9.6,9,10.3,9.4,11,9.9c0.7,0.5,1.2,1.1,1.7,1.8c0.5,0.8,0.7,1.7,0.7,2.6c0,0.9-0.2,1.8-0.5,2.7c-0.3,0.7-0.8,1.4-1.5,1.9
				c-0.7,0.5-1.5,0.9-2.3,1.1c-1,0.2-2,0.4-3,0.4c-1.3,0-2.5-0.1-3.7-0.4c-0.8-0.2-1.6-0.4-2.4-0.8l1.2-3.3C1.5,16,1.8,16.1,2,16.2
				c0.4,0.1,0.7,0.3,1.1,0.4c0.4,0.1,0.9,0.2,1.3,0.3c0.5,0.1,1,0.1,1.4,0.1c0.9,0.1,1.8-0.1,2.6-0.6C9.2,16,9.5,15.3,9.5,14.6z"/>
			<path class="st3" d="M24.7,19.9v-7.6c0.1-0.9-0.1-1.9-0.4-2.7c-0.3-0.6-0.9-0.9-1.5-0.8c-0.6,0-1.1,0.2-1.6,0.5
				c-0.4,0.4-0.7,0.8-0.9,1.3v9.3h-3.7V6h2.9L20,7.8h0.1c0.5-0.6,1-1.1,1.7-1.6c0.8-0.5,1.7-0.7,2.6-0.7c0.8,0,1.5,0.2,2.2,0.5
				c0.6,0.4,1.1,1.1,1.3,1.8c0.4-0.7,1-1.3,1.7-1.7c0.7-0.4,1.6-0.7,2.5-0.6c0.7,0,1.4,0.1,2,0.3c0.5,0.2,1,0.5,1.4,1
				c0.4,0.5,0.7,1.2,0.8,1.8c0.2,1,0.3,1.9,0.3,2.9v8.3h-3.7v-7.8c0-0.8-0.1-1.7-0.4-2.5c-0.3-0.6-0.9-0.9-1.6-0.8
				c-0.6,0-1.1,0.2-1.6,0.5c-0.4,0.4-0.7,0.9-0.9,1.4v9.1L24.7,19.9L24.7,19.9z"/>
			<path class="st3" d="M40.3,6.8C41.1,6.4,42,6.1,43,6c1.1-0.2,2.2-0.3,3.3-0.3c0.8,0,1.7,0.1,2.5,0.3c0.6,0.2,1.1,0.5,1.6,1
				c0.4,0.4,0.7,1,0.8,1.5c0.2,0.7,0.2,1.3,0.2,2c0,0.8,0,1.6-0.1,2.5c-0.1,0.8-0.1,1.6-0.1,2.4s0,1.6,0.1,2.3
				c0.1,0.7,0.2,1.4,0.4,2.1h-3L48,18h-0.1c-0.4,0.6-0.9,1.1-1.6,1.5c-0.8,0.4-1.7,0.7-2.6,0.6c-0.6,0-1.2-0.1-1.8-0.3
				c-0.5-0.2-1-0.5-1.4-0.8c-0.4-0.4-0.7-0.8-0.9-1.3c-0.2-0.5-0.3-1.1-0.3-1.7c0-0.8,0.2-1.5,0.6-2.2c0.4-0.6,1-1.1,1.7-1.4
				c0.8-0.4,1.7-0.6,2.6-0.8c1.1-0.1,2.3-0.2,3.4-0.1c0.2-0.8,0.1-1.5-0.2-2.2c-0.3-0.5-0.9-0.7-1.9-0.7c-0.8,0-1.6,0.1-2.3,0.2
				c-0.7,0.1-1.4,0.3-2,0.6L40.3,6.8z M44.9,17.1c0.6,0,1.2-0.1,1.8-0.5c0.4-0.3,0.7-0.6,1-1v-1.8c-0.6-0.1-1.1-0.1-1.7,0
				c-0.5,0-1,0.1-1.4,0.3c-0.4,0.1-0.7,0.3-1,0.6c-0.2,0.2-0.4,0.6-0.4,0.9c0,0.5,0.1,0.9,0.5,1.2C44,17,44.5,17.1,44.9,17.1z"/>
			<path class="st3" d="M63.1,9.4c-0.5-0.2-1-0.3-1.6-0.3c-0.6,0-1.2,0.2-1.7,0.5c-0.4,0.3-0.7,0.8-0.9,1.3v9h-3.7V6h2.9l0.4,1.8
				h0.1c0.3-0.6,0.7-1.2,1.3-1.6c0.6-0.4,1.2-0.6,1.9-0.6c0.6,0,1.1,0.1,1.7,0.3L63.1,9.4z"/>
			<path class="st3" d="M65.4,6h2V3.3l3.7-1V6h3.4V9h-3.4v5.3c0,0.7,0.1,1.4,0.3,2.1c0.2,0.4,0.7,0.7,1.1,0.6c0.3,0,0.7,0,1-0.1
				c0.3-0.1,0.6-0.2,0.9-0.3l0.6,2.8c-0.6,0.3-1.2,0.5-1.8,0.6c-0.7,0.2-1.4,0.3-2.1,0.3c-1.1,0.1-2.1-0.3-2.9-1
				c-0.7-0.9-1-2.1-0.9-3.2V9h-2L65.4,6L65.4,6z"/>
			<path class="st3" d="M98.8,19.1c-0.7,0.5-1.5,0.8-2.3,0.9c-0.9,0.2-1.9,0.3-2.9,0.3c-1.1,0-2.3-0.2-3.4-0.5c-1.1-0.4-2-1-2.8-1.8
				c-0.9-0.9-1.5-2-1.9-3.1c-0.5-1.5-0.8-3.1-0.7-4.7c0-1.6,0.2-3.3,0.8-4.8c0.5-1.2,1.2-2.2,2.1-3.1c0.8-0.8,1.8-1.3,2.9-1.7
				c1-0.3,2.1-0.5,3.2-0.5c1,0,1.9,0.1,2.9,0.2c0.7,0.1,1.3,0.3,1.9,0.5L97.8,4c-0.5-0.2-1-0.4-1.5-0.4c-0.7-0.1-1.4-0.1-2.2-0.1
				c-1.4-0.1-2.8,0.6-3.8,1.6c-1,1.1-1.4,2.8-1.4,5.1c0,0.9,0.1,1.9,0.3,2.7c0.2,0.8,0.5,1.5,1,2.1c0.5,0.6,1.1,1.1,1.7,1.4
				c0.8,0.3,1.6,0.5,2.4,0.5c0.7,0,1.4-0.1,2.1-0.3c0.5-0.1,1-0.4,1.5-0.6L98.8,19.1z"/>
			<path class="st3" d="M107.4,6h2V3.3l3.7-1V6h3.4V9h-3.4v5.3c0,0.7,0.1,1.4,0.3,2.1c0.2,0.4,0.7,0.7,1.1,0.6c0.3,0,0.7,0,1-0.1
				c0.3-0.1,0.6-0.2,0.9-0.3l0.6,2.8c-0.6,0.3-1.2,0.5-1.8,0.6c-0.7,0.2-1.4,0.3-2.1,0.3c-1.1,0.1-2.1-0.3-2.9-1
				c-0.7-0.9-1-2.1-0.9-3.2V9h-2L107.4,6L107.4,6z"/>
			<path class="st3" d="M124.1,13.8l0.5,2.2h0.2l0.4-2.2l2.1-7.8h3.8l-4.3,12.5c-0.4,1-0.7,2-1,2.9c-0.3,0.8-0.7,1.5-1.1,2.2
				c-0.3,0.6-0.8,1.1-1.3,1.5c-0.5,0.3-1.1,0.5-1.7,0.5c-0.8,0-1.6-0.1-2.3-0.5l0.7-2.9c0.3,0.1,0.6,0.2,0.8,0.2
				c0.5,0,0.9-0.2,1.3-0.5c0.5-0.5,0.8-1.2,0.9-2l-5.9-13.9h4.4L124.1,13.8z"/>
		</g>
		<g transform="translate(22.203 150.14)">
			<path class="st3" d="M5.1,2.3l0.1-1h0L4.8,2.2l-1.7,3H2.8L1,2.2L0.7,1.3h0l0.1,1v4.4H0V0.1h0.6l2.1,3.4L3,4.2h0l0.3-0.7l2-3.3
				h0.6v6.6H5.1L5.1,2.3L5.1,2.3z"/>
			<path class="st3" d="M8,0.1h0.8v6.6H8V0.1z"/>
			<path class="st3" d="M13.9,5c0-0.2-0.1-0.5-0.2-0.6C13.5,4.2,13.3,4,13,3.9c-0.3-0.1-0.5-0.3-0.8-0.4c-0.3-0.1-0.5-0.2-0.8-0.4
				c-0.2-0.2-0.4-0.4-0.6-0.6c-0.2-0.3-0.3-0.6-0.2-0.9c0-0.5,0.2-0.9,0.5-1.2c0.4-0.3,1-0.5,1.5-0.4c0.4,0,0.7,0,1.1,0.1
				c0.3,0,0.5,0.1,0.7,0.2L14.3,1c-0.2-0.1-0.4-0.2-0.6-0.2c-0.3-0.1-0.6-0.1-1-0.1c-0.3,0-0.7,0.1-0.9,0.3
				c-0.2,0.2-0.3,0.4-0.3,0.7c0,0.2,0.1,0.4,0.2,0.6c0.2,0.2,0.4,0.3,0.6,0.4c0.2,0.1,0.5,0.3,0.8,0.4c0.3,0.1,0.5,0.3,0.8,0.4
				c0.2,0.2,0.4,0.4,0.6,0.6c0.2,0.3,0.2,0.6,0.2,0.9c0,0.3,0,0.5-0.2,0.8c-0.1,0.2-0.3,0.4-0.4,0.6c-0.2,0.2-0.5,0.3-0.7,0.4
				c-0.3,0.1-0.6,0.1-1,0.1c-0.4,0-0.8,0-1.2-0.1c-0.2-0.1-0.5-0.1-0.7-0.2l0.3-0.7C11,5.8,11.2,5.9,11.4,6c0.3,0.1,0.6,0.1,1,0.1
				c0.2,0,0.4,0,0.6-0.1c0.2,0,0.3-0.1,0.5-0.2c0.1-0.1,0.2-0.2,0.3-0.3C13.8,5.3,13.9,5.2,13.9,5z"/>
			<path class="st3" d="M19.2,5c0-0.2-0.1-0.5-0.2-0.6c-0.2-0.2-0.4-0.3-0.6-0.4c-0.3-0.1-0.5-0.3-0.8-0.4c-0.3-0.1-0.5-0.2-0.8-0.4
				c-0.2-0.2-0.4-0.4-0.6-0.6C16.1,2.3,16,2,16,1.7c0-0.5,0.2-0.9,0.5-1.2C17,0.1,17.5,0,18.1,0c0.4,0,0.7,0,1.1,0.1
				c0.3,0,0.5,0.1,0.7,0.2L19.7,1c-0.2-0.1-0.4-0.2-0.6-0.2c-0.3-0.1-0.6-0.1-1-0.1c-0.3,0-0.7,0.1-0.9,0.3
				c-0.2,0.2-0.3,0.4-0.3,0.7c0,0.2,0.1,0.4,0.2,0.6c0.2,0.2,0.4,0.3,0.6,0.4c0.2,0.1,0.5,0.3,0.8,0.4c0.3,0.1,0.5,0.3,0.8,0.4
				c0.2,0.2,0.4,0.4,0.6,0.6C19.9,4.3,20,4.6,20,4.9c0,0.3,0,0.5-0.2,0.8c-0.1,0.2-0.3,0.4-0.4,0.6c-0.2,0.2-0.5,0.3-0.7,0.4
				c-0.3,0.1-0.6,0.1-0.9,0.1c-0.4,0-0.8,0-1.2-0.1c-0.2-0.1-0.5-0.1-0.7-0.2l0.3-0.7c0.2,0.1,0.4,0.2,0.6,0.2
				c0.3,0.1,0.6,0.1,1,0.1c0.2,0,0.4,0,0.6-0.1c0.2,0,0.3-0.1,0.5-0.2c0.1-0.1,0.2-0.2,0.3-0.3C19.2,5.3,19.2,5.2,19.2,5z"/>
			<path class="st3" d="M21.8,0.1h0.8v6.6h-0.8V0.1z"/>
			<path class="st3" d="M24.4,3.4c-0.1-0.9,0.2-1.8,0.7-2.5c0.5-0.6,1.2-0.9,2-0.9c0.4,0,0.8,0.1,1.2,0.2c0.3,0.2,0.6,0.4,0.9,0.7
				c0.2,0.3,0.4,0.7,0.5,1.1c0.1,0.5,0.2,0.9,0.2,1.4c0.1,0.9-0.2,1.8-0.7,2.5c-0.5,0.6-1.2,0.9-2,0.9c-0.4,0-0.8-0.1-1.2-0.2
				c-0.3-0.2-0.6-0.4-0.8-0.7c-0.2-0.3-0.4-0.7-0.5-1.1C24.4,4.3,24.4,3.9,24.4,3.4z M25.2,3.4c0,0.3,0,0.7,0.1,1
				c0.1,0.3,0.2,0.6,0.3,0.9c0.1,0.2,0.3,0.4,0.6,0.6c0.3,0.2,0.5,0.2,0.8,0.2c0.5,0,1.1-0.2,1.4-0.7c0.4-0.6,0.6-1.3,0.5-2
				c0-0.3,0-0.7-0.1-1c-0.1-0.3-0.2-0.6-0.3-0.9c-0.1-0.2-0.4-0.4-0.6-0.6c-0.3-0.2-0.6-0.2-0.9-0.2c-0.5,0-1.1,0.2-1.4,0.7
				C25.3,2,25.1,2.7,25.2,3.4z"/>
			<path class="st3" d="M32.6,2.4l-0.5-0.9h0l0.1,0.9v4.3h-0.7V0h0.4L35,4.4l0.5,0.9h0l-0.1-0.9V0.1h0.7v6.7h-0.4L32.6,2.4z"/>
			<path class="st3" d="M45,0.8h-2.1v5.9h-0.8V0.8H40V0.1H45V0.8z"/>
			<path class="st3" d="M46.2,0.2c0.2,0,0.5-0.1,0.8-0.1s0.6,0,0.9,0c0.3,0,0.6,0,0.8,0.1c0.3,0.1,0.5,0.2,0.7,0.3
				c0.2,0.1,0.4,0.3,0.5,0.6c0.3,0.7,0.2,1.5-0.2,2.1c-0.3,0.3-0.7,0.5-1.1,0.6l0.5,0.3l1.7,2.6h-0.9L48,3.8L47,3.7v3h-0.8V0.2
				L46.2,0.2z M47.9,0.7h-0.3c-0.1,0-0.2,0-0.3,0l-0.2,0c-0.1,0-0.1,0-0.2,0v2.4h0.7c0.4,0,0.8-0.1,1.1-0.3c0.3-0.2,0.5-0.6,0.4-1
				c0-0.3-0.1-0.6-0.4-0.8C48.7,0.8,48.3,0.7,47.9,0.7L47.9,0.7z"/>
			<path class="st3" d="M55.1,4.9h-2.4L52,6.7h-0.8L53.7,0h0.4l2.5,6.7h-0.8L55.1,4.9z M52.9,4.2h2l-0.7-2l-0.2-1h0l-0.2,1L52.9,4.2
				z"/>
			<path class="st3" d="M59,2.4l-0.5-0.9h0l0.1,0.9v4.3h-0.7V0h0.4l3.2,4.4l0.5,0.9h0l-0.1-0.9V0.1h0.7v6.7h-0.4L59,2.4z"/>
			<path class="st3" d="M67.5,5c0-0.2-0.1-0.5-0.2-0.6c-0.2-0.2-0.4-0.3-0.6-0.4c-0.3-0.1-0.5-0.3-0.8-0.4c-0.3-0.1-0.5-0.2-0.8-0.4
				c-0.2-0.2-0.4-0.4-0.6-0.6c-0.2-0.3-0.3-0.6-0.2-0.9c0-0.5,0.2-0.9,0.5-1.2c0.4-0.3,1-0.5,1.5-0.4c0.4,0,0.7,0,1.1,0.1
				c0.3,0,0.5,0.1,0.7,0.2L67.9,1c-0.2-0.1-0.4-0.2-0.6-0.2c-0.3-0.1-0.6-0.1-1-0.1c-0.3,0-0.7,0.1-0.9,0.3C65,1.3,65,1.8,65.3,2.2
				c0,0,0,0,0,0c0.2,0.2,0.4,0.3,0.6,0.4c0.2,0.1,0.5,0.3,0.8,0.4c0.3,0.1,0.5,0.3,0.8,0.4c0.2,0.2,0.4,0.4,0.6,0.6
				c0.2,0.3,0.2,0.6,0.2,0.9c0,0.3,0,0.5-0.2,0.8c-0.1,0.2-0.3,0.4-0.4,0.6c-0.2,0.2-0.5,0.3-0.7,0.4c-0.3,0.1-0.6,0.1-0.9,0.1
				c-0.4,0-0.8,0-1.2-0.1c-0.3-0.1-0.5-0.1-0.7-0.2l0.3-0.7C64.6,5.8,64.8,5.9,65,6c0.3,0.1,0.6,0.1,1,0.1c0.2,0,0.4,0,0.6-0.1
				c0.2,0,0.3-0.1,0.5-0.2c0.1-0.1,0.2-0.2,0.3-0.3C67.5,5.3,67.5,5.2,67.5,5z"/>
			<path class="st3" d="M69.8,0.1h3.6v0.7h-2.8V3h2.6v0.7h-2.6v2.9h-0.8L69.8,0.1L69.8,0.1z"/>
			<path class="st3" d="M74.8,3.4c-0.1-0.9,0.2-1.8,0.7-2.5C76,0.3,76.7,0,77.5,0c0.4,0,0.8,0.1,1.2,0.2c0.3,0.2,0.6,0.4,0.9,0.7
				C79.8,1.2,80,1.6,80.1,2c0.1,0.5,0.2,0.9,0.2,1.4c0.1,0.9-0.2,1.8-0.7,2.5c-0.5,0.6-1.2,0.9-2,0.9c-0.4,0-0.8-0.1-1.2-0.2
				c-0.3-0.2-0.6-0.4-0.8-0.7c-0.2-0.3-0.4-0.7-0.5-1.1C74.8,4.3,74.8,3.9,74.8,3.4z M75.6,3.4c0,0.3,0,0.7,0.1,1
				c0.1,0.3,0.2,0.6,0.3,0.9c0.1,0.2,0.3,0.4,0.6,0.6c0.3,0.2,0.5,0.2,0.8,0.2c0.5,0,1.1-0.2,1.4-0.7c0.4-0.6,0.6-1.3,0.5-2
				c0-0.3,0-0.7-0.1-1c-0.1-0.3-0.2-0.6-0.3-0.9c-0.1-0.2-0.4-0.4-0.6-0.6c-0.3-0.2-0.6-0.2-0.9-0.2c-0.5,0-1.1,0.2-1.4,0.7
				C75.7,2,75.6,2.7,75.6,3.4z"/>
			<path class="st3" d="M81.9,0.2c0.2,0,0.5-0.1,0.8-0.1s0.6,0,0.9,0c0.3,0,0.6,0,0.8,0.1c0.3,0.1,0.5,0.2,0.7,0.3
				c0.2,0.1,0.4,0.3,0.5,0.6c0.3,0.7,0.2,1.5-0.2,2.1c-0.3,0.3-0.7,0.5-1.1,0.6l0.5,0.3l1.7,2.6h-0.9l-1.8-2.8l-0.9-0.1v3h-0.8V0.2
				L81.9,0.2z M83.6,0.7h-0.3c-0.1,0-0.2,0-0.3,0l-0.2,0c-0.1,0-0.1,0-0.2,0v2.4h0.7c0.4,0,0.8-0.1,1.1-0.3c0.3-0.2,0.5-0.6,0.4-1
				c0-0.3-0.1-0.6-0.4-0.8C84.3,0.8,83.9,0.7,83.6,0.7L83.6,0.7z"/>
			<path class="st3" d="M92.9,2.3l0.1-1h0l-0.4,0.9l-1.7,3h-0.2l-1.8-3l-0.3-0.9h0l0.1,1v4.4h-0.7V0.1h0.6l2.1,3.4l0.3,0.7h0
				l0.3-0.7l2-3.3h0.6v6.6h-0.8L92.9,2.3L92.9,2.3z"/>
			<path class="st3" d="M95.4,3.6h2.3v0.7h-2.3V3.6z"/>
			<path class="st3" d="M100.5,2.4L100,1.4h0l0.1,0.9v4.3h-0.7V0h0.4l3.2,4.4l0.5,0.9h0l-0.1-0.9V0.1h0.7v6.7h-0.4L100.5,2.4z"/>
			<path class="st3" d="M109.2,4.9h-2.4l-0.7,1.8h-0.8l2.5-6.7h0.4l2.5,6.7h-0.8L109.2,4.9z M107,4.2h2l-0.7-2l-0.2-1h0l-0.2,1
				L107,4.2z"/>
			<path class="st3" d="M115.6,0.8h-2.1v5.9h-0.8V0.8h-2.1V0.1h4.9V0.8z"/>
			<path class="st3" d="M117,0.1h0.8v6.6H117V0.1z"/>
			<path class="st3" d="M119.6,3.4c-0.1-0.9,0.2-1.8,0.7-2.5c0.5-0.6,1.2-0.9,2-0.9c0.4,0,0.8,0.1,1.2,0.2c0.3,0.2,0.6,0.4,0.9,0.7
				c0.2,0.3,0.4,0.7,0.5,1.1c0.1,0.5,0.2,0.9,0.2,1.4c0.1,0.9-0.2,1.8-0.7,2.5c-0.5,0.6-1.2,0.9-2,0.9c-0.4,0-0.8-0.1-1.2-0.2
				c-0.3-0.2-0.6-0.4-0.8-0.7c-0.2-0.3-0.4-0.7-0.5-1.1C119.7,4.3,119.6,3.9,119.6,3.4z M120.5,3.4c0,0.3,0,0.7,0.1,1
				c0.1,0.3,0.2,0.6,0.3,0.9c0.1,0.2,0.3,0.4,0.6,0.6c0.3,0.2,0.5,0.2,0.8,0.2c0.5,0,1.1-0.2,1.4-0.7c0.4-0.6,0.6-1.3,0.5-2
				c0-0.3,0-0.7-0.1-1c-0.1-0.3-0.2-0.6-0.3-0.9c-0.1-0.2-0.4-0.4-0.6-0.6c-0.3-0.2-0.6-0.2-0.9-0.2c-0.5,0-1.1,0.2-1.4,0.7
				C120.6,2,120.4,2.7,120.5,3.4L120.5,3.4z"/>
			<path class="st3" d="M127.9,2.4l-0.5-0.9h0l0.1,0.9v4.3h-0.7V0h0.4l3.2,4.4l0.5,0.9h0l-0.1-0.9V0.1h0.7v6.7h-0.4L127.9,2.4z"/>
		</g>
		<g transform="translate(107.381 27.98)">
			<rect x="0" y="0" class="st3" width="5.2" height="5"/>
		</g>
		<g transform="translate(107.381 43.578)">
			<path class="st3" d="M5.2,59.8H0v-5h5.2L5.2,59.8z M5.2,51.9H0v-5h5.2L5.2,51.9z M5.2,44.1H0v-5h5.2L5.2,44.1z M5.2,36.3H0v-5
				h5.2L5.2,36.3z M5.2,28.5H0v-5h5.2L5.2,28.5z M5.2,20.6H0v-5h5.2L5.2,20.6z M5.2,12.8H0v-5h5.2L5.2,12.8z M5.2,5H0V0h5.2L5.2,5z"
				/>
		</g>
		<g transform="translate(0 15.679)">
			<path class="st3" d="M128.5,64.2h-5.2v-5h5.2V64.2z M128.5,56.4h-5.2v-5h5.2V56.4z M128.5,48.6h-5.2v-5h5.2V48.6z M128.5,40.7
				h-5.2v-5h5.2V40.7z"/>
		</g>
		<g transform="translate(8.275 7.77)">
			<path class="st3" d="M128.5,79.9h-5.2v-5h5.2V79.9z M128.5,72.1h-5.2v-5h5.2V72.1z M128.5,48.6h-5.2v-5h5.2V48.6z M128.5,40.7
				h-5.2v-5h5.2V40.7z"/>
		</g>
		<g transform="translate(16.556)">
			<path class="st3" d="M128.5,95.6h-5.2v-5h5.2V95.6z M128.5,87.7h-5.2v-5h5.2V87.7z M128.5,79.9h-5.2v-5h5.2V79.9z M128.5,56.4
				h-5.2v-5h5.2V56.4z M128.5,48.6h-5.2v-5h5.2V48.6z M128.5,40.7h-5.2v-5h5.2V40.7z"/>
		</g>
		<g transform="translate(24.803)">
			<path class="st3" d="M128.5,95.6h-5.2v-5h5.2L128.5,95.6z M128.5,87.7h-5.2v-5h5.2L128.5,87.7z M128.5,79.9h-5.2v-5h5.2
				L128.5,79.9z M128.5,56.4h-5.2v-5h5.2L128.5,56.4z M128.5,48.6h-5.2v-5h5.2L128.5,48.6z M128.5,40.7h-5.2v-5h5.2L128.5,40.7z"/>
		</g>
		<g transform="translate(24.803 15.676)">
			<path class="st3" d="M67,59.3h5.2v5H67V59.3z M67,51.4h5.2v5H67V51.4z M67,43.6h5.2v5H67V43.6z M67,35.8h5.2v5H67V35.8z"/>
		</g>
		<g transform="translate(16.528 7.767)">
			<path class="st3" d="M67,74.9h5.2v5H67V74.9z M67,67.1h5.2v5H67V67.1z M67,43.6h5.2v5H67V43.6z M67,35.8h5.2v5H67V35.8z"/>
		</g>
		<g transform="translate(8.246)">
			<path class="st3" d="M67,90.6h5.2v5H67V90.6z M67,82.8h5.2v5H67V82.8z M67,74.9h5.2v5H67V74.9z M67,51.4h5.2v5H67V51.4z M67,43.6
				h5.2v5H67V43.6z M67,35.8h5.2v5H67V35.8z"/>
		</g>
		<g transform="translate(0)">
			<path class="st3" d="M67,90.6h5.2v5H67V90.6z M67,82.8h5.2v5H67V82.8z M67,74.9h5.2v5H67V74.9z M67,51.4h5.2v5H67V51.4z M67,43.6
				h5.2v5H67V43.6z M67,35.8h5.2v5H67V35.8z"/>
		</g>
	</g>
	<g transform="translate(8.246 23.432)">
		<g transform="translate(0 0.063)">
			<rect x="67" y="35.8" class="st1" width="5.2" height="5"/>
		</g>
		<g transform="translate(8.281)">
			<rect x="67" y="35.8" class="st1" width="5.2" height="5"/>
		</g>
	</g>
	<g transform="translate(8.246 31.263)">
		<g transform="translate(0 0.064)">
			<rect x="67" y="35.8" class="st2" width="5.2" height="5"/>
		</g>
		<g transform="translate(8.281)">
			<rect x="67" y="35.8" class="st2" width="5.2" height="5"/>
		</g>
	</g>
	<g transform="translate(123.236 121.417)">
		<rect x="0" y="0" class="st1" width="3.5" height="3.3"/>
	</g>
	<g transform="translate(0 5.314)">
		<rect x="123.2" y="121.4" class="st3" width="3.5" height="3.3"/>
	</g>
	<g transform="translate(0 10.628)">
		<rect x="123.2" y="121.4" class="st3" width="3.5" height="3.3"/>
	</g>
	<g transform="translate(0 16.086)">
		<rect x="123.2" y="121.4" class="st3" width="3.5" height="3.3"/>
	</g>
</g>
</svg>
