<svg xmlns="http://www.w3.org/2000/svg" width="32.491" height="32.493" viewBox="0 0 32.491 32.493"><g transform="translate(-56.044 -68.885)"><path d="M56.044,97.127c.053-.214.1-.431.16-.642A4.255,4.255,0,0,1,57.233,94.8a64.037,64.037,0,0,1,6.976-6.031c.643-.515,1.293-1.021,1.956-1.543-.046-.091-.084-.175-.129-.254A12.053,12.053,0,1,1,88.351,78.9a11.861,11.861,0,0,1-1.463,8.126,1.27,1.27,0,1,1-2.2-1.259,9.939,9.939,0,0,0,1.159-3.134,9.519,9.519,0,1,0-10.862,7.716,9.689,9.689,0,0,0,5.537-.777,1.259,1.259,0,0,1,1.82.84,1.238,1.238,0,0,1-.662,1.408,11.5,11.5,0,0,1-3.942,1.118,11.957,11.957,0,0,1-7.451-1.645,1.116,1.116,0,0,0-.115-.048l-.267.333c-1.7,2.13-3.381,4.282-5.125,6.379a32.439,32.439,0,0,1-2.443,2.488,3.425,3.425,0,0,1-1.833.876,2.03,2.03,0,0,0-.209.06h-.888a1.512,1.512,0,0,0-.178-.057,3.724,3.724,0,0,1-2.965-2.49c-.1-.263-.148-.544-.22-.817Zm11.683-7.9c-1.222.969-2.406,1.908-3.591,2.846a45.55,45.55,0,0,0-5.144,4.562,1.283,1.283,0,0,0-.031,1.844,1.261,1.261,0,0,0,1.819-.042c.72-.715,1.478-1.4,2.121-2.183,1.76-2.138,3.467-4.319,5.195-6.484a.227.227,0,0,0,.035-.068Z" fill="#fff"/><path d="M283.592,128.812a6.947,6.947,0,0,1,6.144,4.118,1.266,1.266,0,1,1-2.287,1.082,4.423,4.423,0,0,0-3.18-2.566,4.867,4.867,0,0,0-.849-.093,1.272,1.272,0,1,1,.045-2.541Z" transform="translate(-206.897 -54.846)" fill="#fff"/></g></svg>