<svg xmlns="http://www.w3.org/2000/svg" width="168.875" height="73.393" viewBox="0 0 168.875 73.393"><g transform="translate(-13.168 -22.76)"><rect width="13.145" height="2.432" transform="translate(60.834 50.495)" fill="#faa819"/><rect width="11.384" height="2.424" transform="translate(61.807 54.802)" fill="#21a64a"/><g transform="translate(13.168 22.76)"><path d="M224.49,22.835a6.3,6.3,0,0,1,1.936,0Z" transform="translate(-149.146 -22.76)" fill="#fff" fill-rule="evenodd"/><path d="M226.18,28.775a.921.921,0,0,1,.727,0Z" transform="translate(-150.233 -26.582)" fill="#fff" fill-rule="evenodd"/><path d="M455.96,47.285a2.025,2.025,0,0,1,1.091,0Z" transform="translate(-298.088 -38.493)" fill="#fff" fill-rule="evenodd"/><path d="M252.51,51.84a.779.779,0,0,1,0,.667Z" transform="translate(-167.176 -41.472)" fill="#fff" fill-rule="evenodd"/><path d="M455.79,53.575a2.742,2.742,0,0,1,1.273,0Z" transform="translate(-297.979 -42.54)" fill="#fff" fill-rule="evenodd"/><path d="M85.06,56.635a2.491,2.491,0,0,1,1.212,0Z" transform="translate(-59.428 -44.509)" fill="#fff" fill-rule="evenodd"/><path d="M241.47,56.635a1.81,1.81,0,0,1,1.03,0Z" transform="translate(-160.072 -44.509)" fill="#fff" fill-rule="evenodd"/><path d="M84.55,62.745a5.2,5.2,0,0,1,1.758,0Z" transform="translate(-59.1 -48.441)" fill="#fff" fill-rule="evenodd"/><path d="M240.45,62.745a4.846,4.846,0,0,1,1.7,0Z" transform="translate(-159.416 -48.441)" fill="#fff" fill-rule="evenodd"/><path d="M480.76,75.45a3.006,3.006,0,0,1,0,1.333Z" transform="translate(-314.046 -56.664)" fill="#fff" fill-rule="evenodd"/><path d="M47.53,114.035c9.1-.1,18.629-.1,27.731,0H47.53Z" transform="translate(-35.279 -81.444)" fill="#fff" fill-rule="evenodd"/><path d="M209.54,115.743c.1-.139.463-.021.667-.061C210.1,115.818,209.743,115.7,209.54,115.743Z" transform="translate(-139.526 -82.546)" fill="#fff" fill-rule="evenodd"/><path d="M60.223,121.036a13.918,13.918,0,0,1,.121-2.966h6.478c-2.057.143-4.378.021-6.539.061v2.906Z" transform="translate(-43.433 -84.089)" fill="#fff" fill-rule="evenodd"/><path d="M84.04,118.111c3.754-.143,7.769-.021,11.627-.061C91.912,118.193,87.894,118.071,84.04,118.111Z" transform="translate(-58.772 -84.069)" fill="#fff" fill-rule="evenodd"/><path d="M121.723,118.07h1.637a7.393,7.393,0,0,1-1.515.061c-.139.064-.021.381-.061.545C121.644,118.594,121.762,118.255,121.723,118.07Z" transform="translate(-83.013 -84.089)" fill="#fff" fill-rule="evenodd"/><path d="M82.969,125.494c-.342.057-.175-.485-.182-.667-.086-1.965.064-4.417,0-6.418C83,120.317,82.648,123.43,82.969,125.494Z" transform="translate(-57.943 -84.307)" fill="#fff" fill-rule="evenodd"/><path d="M240.28,118.445a9.822,9.822,0,0,1,2.421,0Z" transform="translate(-159.306 -84.282)" fill="#fff" fill-rule="evenodd"/><path d="M275.6,118.445a1.608,1.608,0,0,1,.97,0Z" transform="translate(-182.033 -84.282)" fill="#fff" fill-rule="evenodd"/><path d="M218.2,118.565h1.576c.089.032.314-.071.3.061A11.058,11.058,0,0,1,218.2,118.565Z" transform="translate(-145.099 -84.401)" fill="#fff" fill-rule="evenodd"/><path d="M227.88,118.637c0-.036.011-.071.061-.061h2.421a5.7,5.7,0,0,1-.061,1.333V118.7A19.779,19.779,0,0,0,227.88,118.637Z" transform="translate(-151.327 -84.413)" fill="#fff" fill-rule="evenodd"/><path d="M274.59,118.627c.007-.132.257-.025.364-.061h1.03A6.045,6.045,0,0,1,274.59,118.627Z" transform="translate(-181.383 -84.403)" fill="#fff" fill-rule="evenodd"/><path d="M26.793,120.157c.039-.225-.078-.6.061-.727C26.814,119.655,26.932,120.033,26.793,120.157Z" transform="translate(-21.929 -84.964)" fill="#fff" fill-rule="evenodd"/><path d="M20.725,119.77v2.118A7.525,7.525,0,0,1,20.725,119.77Z" transform="translate(-17.982 -85.182)" fill="#fff" fill-rule="evenodd"/><path d="M176.76,119.94h.061c-.039.185.078.521-.061.606Z" transform="translate(-118.433 -85.292)" fill="#fff" fill-rule="evenodd"/><path d="M70.96,120.315a1.417,1.417,0,0,1,.909,0Z" transform="translate(-50.355 -85.485)" fill="#fff" fill-rule="evenodd"/><path d="M302.78,120.28a5.175,5.175,0,0,1,0,1.754Z" transform="translate(-199.523 -85.511)" fill="#fff" fill-rule="evenodd"/><path d="M182.745,120.45v1.633A4.489,4.489,0,0,1,182.745,120.45Z" transform="translate(-122.236 -85.62)" fill="#fff" fill-rule="evenodd"/><path d="M152.82,121.3h.061v1.091h-.061Z" transform="translate(-103.029 -86.167)" fill="#fff" fill-rule="evenodd"/><path d="M308.89,121.3a2.025,2.025,0,0,1,0,1.091Z" transform="translate(-203.454 -86.167)" fill="#fff" fill-rule="evenodd"/><path d="M264.74,123.383c.2-.139.667-.021.97-.061h.97A12.214,12.214,0,0,1,264.74,123.383Z" transform="translate(-175.045 -87.462)" fill="#fff" fill-rule="evenodd"/><path d="M107.65,123.715a.651.651,0,0,1,.606,0Z" transform="translate(-73.964 -87.673)" fill="#fff" fill-rule="evenodd"/><path d="M26.791,124.36c.139.1.021.464.061.667C26.713,124.92,26.827,124.563,26.791,124.36Z" transform="translate(-21.927 -88.136)" fill="#fff" fill-rule="evenodd"/><path d="M152.82,124.36h.061c-.039.225.078.6-.061.727Z" transform="translate(-103.029 -88.136)" fill="#fff" fill-rule="evenodd"/><path d="M215.863,125.04c-.039.264.078.685-.061.849C215.842,125.621,215.724,125.2,215.863,125.04Z" transform="translate(-143.55 -88.573)" fill="#fff" fill-rule="evenodd"/><path d="M99.149,125.55c.15.232-.61.075-.849.121C98.446,125.489,99.006,125.728,99.149,125.55Z" transform="translate(-67.947 -88.902)" fill="#fff" fill-rule="evenodd"/><path d="M87.77,125.688c.246.078.827-.182.788.182H88.5C88.5,125.567,87.87,125.891,87.77,125.688Z" transform="translate(-61.172 -88.979)" fill="#fff" fill-rule="evenodd"/><path d="M266.09,126.255a3.57,3.57,0,0,1,1.455,0Z" transform="translate(-175.914 -89.307)" fill="#fff" fill-rule="evenodd"/><path d="M125.65,126.56a.78.78,0,0,1,0,.667Z" transform="translate(-85.546 -89.552)" fill="#fff" fill-rule="evenodd"/><path d="M62.3,126.73h.606A.631.631,0,0,1,62.3,126.73Z" transform="translate(-44.783 -89.661)" fill="#fff" fill-rule="evenodd"/><path d="M234.551,127.07a7.392,7.392,0,0,1-.061,1.515A7.147,7.147,0,0,1,234.551,127.07Z" transform="translate(-155.574 -89.88)" fill="#fff" fill-rule="evenodd"/><path d="M209.54,127.453c.143-.139.542-.021.788-.061C210.185,127.532,209.782,127.414,209.54,127.453Z" transform="translate(-139.526 -90.081)" fill="#fff" fill-rule="evenodd"/><path d="M270.213,128.26a5.184,5.184,0,0,1-.061,1.273A5.2,5.2,0,0,1,270.213,128.26Z" transform="translate(-178.522 -90.645)" fill="#fff" fill-rule="evenodd"/><path d="M261.493,130.165c.039-.164-.078-.481.061-.546v.606C261.518,130.223,261.482,130.215,261.493,130.165Z" transform="translate(-172.95 -91.521)" fill="#fff" fill-rule="evenodd"/><path d="M63.66,130.81h.606A.651.651,0,0,1,63.66,130.81Z" transform="translate(-45.658 -92.286)" fill="#fff" fill-rule="evenodd"/><path d="M215.49,131.525a14.135,14.135,0,0,1,2.906,0Z" transform="translate(-143.355 -92.698)" fill="#fff" fill-rule="evenodd"/><path d="M223.512,131.83c-.039.185.078.521-.061.606C223.487,132.251,223.373,131.912,223.512,131.83Z" transform="translate(-148.471 -92.943)" fill="#fff" fill-rule="evenodd"/><path d="M72.15,134.72h.727A.921.921,0,0,1,72.15,134.72Z" transform="translate(-51.121 -94.802)" fill="#fff" fill-rule="evenodd"/><path d="M84.38,182.763c.242.039.645-.078.788.061C84.922,182.784,84.523,182.9,84.38,182.763Z" transform="translate(-58.99 -125.71)" fill="#fff" fill-rule="evenodd"/><path d="M87.27,182.823c.125-.139.5-.021.727-.061C87.873,182.9,87.491,182.784,87.27,182.823Z" transform="translate(-60.85 -125.71)" fill="#fff" fill-rule="evenodd"/><path d="M240.45,182.763c.225.039.6-.078.727.061C240.953,182.784,240.575,182.9,240.45,182.763Z" transform="translate(-159.416 -125.71)" fill="#fff" fill-rule="evenodd"/><path d="M243.17,182.823c.143-.139.542-.021.788-.061C243.812,182.9,243.412,182.784,243.17,182.823Z" transform="translate(-161.166 -125.71)" fill="#fff" fill-rule="evenodd"/><path d="M244.19,188.763c.082-.139.421-.021.606-.061C244.711,188.842,244.372,188.724,244.19,188.763Z" transform="translate(-161.822 -129.532)" fill="#fff" fill-rule="evenodd"/><path d="M241.675,198.74v.667A.78.78,0,0,1,241.675,198.74Z" transform="translate(-160.156 -135.997)" fill="#fff" fill-rule="evenodd"/><path d="M100,207.74a1.24,1.24,0,0,1,0,.849Z" transform="translate(-69.041 -141.788)" fill="#fff" fill-rule="evenodd"/><path d="M103.441,207.74a11.736,11.736,0,0,1-.061,1.936A11.75,11.75,0,0,1,103.441,207.74Z" transform="translate(-71.209 -141.788)" fill="#fff" fill-rule="evenodd"/><path d="M109.51,207.74a7.1,7.1,0,0,1,0,2.057Z" transform="translate(-75.161 -141.788)" fill="#fff" fill-rule="evenodd"/><path d="M112.945,209.807a7.1,7.1,0,0,1,0-2.057Z" transform="translate(-77.323 -141.794)" fill="#fff" fill-rule="evenodd"/><path d="M121.441,207.74c-.039,1.875.082,3.915-.061,5.69C121.419,211.555,121.3,209.519,121.441,207.74Z" transform="translate(-82.791 -141.788)" fill="#fff" fill-rule="evenodd"/><path d="M159.315,207.74c-.039,1.875.082,3.915-.061,5.69C159.3,211.555,159.176,209.519,159.315,207.74Z" transform="translate(-107.164 -141.788)" fill="#fff" fill-rule="evenodd"/><path d="M161.48,207.74h4.845A37.883,37.883,0,0,1,161.48,207.74Z" transform="translate(-108.601 -141.788)" fill="#fff" fill-rule="evenodd"/><path d="M183.73,207.74a.779.779,0,0,1,0,.667Z" transform="translate(-122.918 -141.788)" fill="#fff" fill-rule="evenodd"/><path d="M191.54,207.74h3.815c-.039.342.078.845-.061,1.091V207.8C194.064,207.761,192.67,207.883,191.54,207.74Z" transform="translate(-127.944 -141.788)" fill="#fff" fill-rule="evenodd"/><path d="M205.511,207.74c-.039,1.875.082,3.915-.061,5.69C205.489,211.555,205.368,209.519,205.511,207.74Z" transform="translate(-136.887 -141.788)" fill="#fff" fill-rule="evenodd"/><path d="M212.981,207.74c-.039,1.875.082,3.915-.061,5.69C212.959,211.555,212.838,209.519,212.981,207.74Z" transform="translate(-141.694 -141.788)" fill="#fff" fill-rule="evenodd"/><path d="M249.09,207.74c.143,1.515.021,3.291.061,4.906C249.008,211.131,249.129,209.355,249.09,207.74Z" transform="translate(-164.968 -141.788)" fill="#fff" fill-rule="evenodd"/><path d="M252.551,207.74c-.039,1.875.082,3.915-.061,5.69C252.529,211.555,252.408,209.519,252.551,207.74Z" transform="translate(-167.156 -141.788)" fill="#fff" fill-rule="evenodd"/><path d="M281.38,207.74a3.87,3.87,0,0,1,0,1.515Z" transform="translate(-185.753 -141.788)" fill="#fff" fill-rule="evenodd"/><path d="M288.83,207.74c.143,1.515.021,3.291.061,4.906C288.748,211.131,288.869,209.355,288.83,207.74Z" transform="translate(-190.539 -141.788)" fill="#fff" fill-rule="evenodd"/><path d="M292.23,213.44c.039-1.879-.082-3.915.061-5.69C292.248,209.625,292.369,211.661,292.23,213.44Z" transform="translate(-192.727 -141.794)" fill="#fff" fill-rule="evenodd"/><path d="M303.331,207.74a13.273,13.273,0,0,1-.061,2.057A13.3,13.3,0,0,1,303.331,207.74Z" transform="translate(-199.831 -141.788)" fill="#fff" fill-rule="evenodd"/><path d="M181.385,212.33v.606A.651.651,0,0,1,181.385,212.33Z" transform="translate(-121.361 -144.741)" fill="#fff" fill-rule="evenodd"/><path d="M93.075,212.67v.667A.78.78,0,0,1,93.075,212.67Z" transform="translate(-64.537 -144.96)" fill="#fff" fill-rule="evenodd"/><path d="M40.085,213.01v.606A.651.651,0,0,1,40.085,213.01Z" transform="translate(-30.44 -145.179)" fill="#fff" fill-rule="evenodd"/><path d="M72.015,213.01v.667A.779.779,0,0,1,72.015,213.01Z" transform="translate(-50.986 -145.179)" fill="#fff" fill-rule="evenodd"/><path d="M227.235,213.01v.667A.78.78,0,0,1,227.235,213.01Z" transform="translate(-150.864 -145.179)" fill="#fff" fill-rule="evenodd"/><path d="M202.05,213.86a23.438,23.438,0,0,1,.061,2.724A23.435,23.435,0,0,1,202.05,213.86Z" transform="translate(-134.7 -145.726)" fill="#fff" fill-rule="evenodd"/><path d="M281.421,218.055a10.307,10.307,0,0,1-.061-1.815A10.649,10.649,0,0,1,281.421,218.055Z" transform="translate(-185.733 -147.257)" fill="#fff" fill-rule="evenodd"/><path d="M38.69,75.62a9.693,9.693,0,0,1,1.03-1.03A9.374,9.374,0,0,1,38.69,75.62Z" transform="translate(-29.59 -56.111)" fill="#fff" fill-rule="evenodd"/><path d="M38.18,167.49c.242.139.378.389.606.545v.061A3.483,3.483,0,0,1,38.18,167.49Z" transform="translate(-29.262 -115.888)" fill="#fff" fill-rule="evenodd"/><path d="M40.56,169.87c.349.307.381.228.606.606A3.482,3.482,0,0,1,40.56,169.87Z" transform="translate(-30.794 -117.42)" fill="#fff" fill-rule="evenodd"/><path d="M132.44,169.189a6.58,6.58,0,0,1,.849-.849A6.579,6.579,0,0,1,132.44,169.189Z" transform="translate(-89.915 -116.435)" fill="#fff" fill-rule="evenodd"/><path d="M194.43,167.83a16.227,16.227,0,0,1,1.333,1.333A16.225,16.225,0,0,1,194.43,167.83Z" transform="translate(-129.803 -116.107)" fill="#fff" fill-rule="evenodd"/><path d="M288.34,169.079a7.819,7.819,0,0,1,.909-.909A7.823,7.823,0,0,1,288.34,169.079Z" transform="translate(-190.231 -116.326)" fill="#fff" fill-rule="evenodd"/><path d="M467.34,103.942a12.1,12.1,0,0,1,1.152-1.152A12.543,12.543,0,0,1,467.34,103.942Z" transform="translate(-305.411 -74.256)" fill="#fff" fill-rule="evenodd"/><path d="M478.306,54.826a3.363,3.363,0,0,1-.606-.606A3.365,3.365,0,0,1,478.306,54.826Z" transform="translate(-312.077 -43.003)" fill="#fff" fill-rule="evenodd"/><path d="M40.009,35.021a23.907,23.907,0,0,1,9.93,2.421c.381.193.849.6,1.152.606a9.412,9.412,0,0,0,2.3-1.03c8.243-3.836,16.34-7.794,24.765-11.324A30.672,30.672,0,0,1,88.508,22.97h1.936c6.828.463,10.889,4.952,10.051,12.593,9.227,2.681,15.27,8.546,17.62,18.1,12.9-5.826,25.617-11.726,38.631-17.559,4.343-1.947,8.685-4.118,14.29-4.421h1.091a10.706,10.706,0,0,1,6.66,2.421,3.482,3.482,0,0,0,.606.606c2.125,2.282,3.334,6.685,2.239,11.142a16,16,0,0,1-3.754,6.963c-.5.567-1.234,1.558-2.057,1.455a1.14,1.14,0,0,1-.727-1.7,12.109,12.109,0,0,0,1.152-1.152,13.233,13.233,0,0,0,3.633-8.418,3.006,3.006,0,0,0,0-1.333c-.4-4.724-2.735-7.516-7.63-7.751a2.742,2.742,0,0,0-1.273,0c-5.548.353-9.851,2.517-14.169,4.482-12.821,5.837-25.5,11.505-38.328,17.559.039.688.135,1.316.121,2.057v1.091a23.26,23.26,0,0,1-6.418,15.62,7.819,7.819,0,0,0-.909.909,22.99,22.99,0,0,1-15.139,6.418c-.185.039-.521-.078-.606.061a23.6,23.6,0,0,1-16.408-6.175,16.8,16.8,0,0,0-1.333-1.333,23.544,23.544,0,0,1-6.3-16.468c.139-.086.021-.421.061-.606v-.788c.1-.481.125-1.045.182-1.576.107-.763.264-1.472.424-2.178.164-.845.463-1.555.667-2.36a24.75,24.75,0,0,1,5.148-8.3c.349-.146.588-.56.849-.849A23.28,23.28,0,0,1,94.566,35.01H95.6a17.757,17.757,0,0,1,2.785.242,4.283,4.283,0,0,0,.121-1.333.78.78,0,0,0,0-.667c-.339-5.273-3.255-7.969-8.66-8.175a.921.921,0,0,0-.727,0,28.9,28.9,0,0,0-10.051,2.481c-8.806,3.694-16.968,7.919-25.8,11.808a27.839,27.839,0,0,0,2.118,1.815,16.227,16.227,0,0,0,1.333,1.333,25.486,25.486,0,0,1,4.967,8.175c.21.8.5,1.515.667,2.36.146.6.264,1.23.364,1.875a3.071,3.071,0,0,0,.121.788v.061c.036.125-.075.4.061.424v.121c.039.2-.078.563.061.667v2.849a23.527,23.527,0,0,1-6.418,14.957,6.579,6.579,0,0,0-.849.849,23.612,23.612,0,0,1-15.926,6.478A23.346,23.346,0,0,1,23.54,75.944c-.225-.378-.257-.3-.606-.606a.532.532,0,0,1-.242-.242v-.061c-.228-.157-.364-.406-.606-.546a23.271,23.271,0,0,1-6.175-14.9V57.476a1.758,1.758,0,0,1,.061-.667c-.631.285-3.038,1.308-2.785-.667.16-1.248,2.193-1.2,3.088-1.875A23.786,23.786,0,0,1,22.267,42.4a9.7,9.7,0,0,0,1.03-1.03,23.532,23.532,0,0,1,15.5-6.346ZM38.618,37.2a20.815,20.815,0,0,0-12.957,4.967,20.344,20.344,0,0,0-6.842,10.96C28.8,48.53,38.8,43.963,48.612,39.2a20.75,20.75,0,0,0-8.236-2A5.106,5.106,0,0,0,38.618,37.2Zm55.584,0a21.184,21.184,0,0,0-14.29,6.175,21.511,21.511,0,0,0-6.236,14.351,4.489,4.489,0,0,0,0,1.633,21.271,21.271,0,0,0,5.69,13.805,10.975,10.975,0,0,0,1.152,1.152A21.3,21.3,0,0,0,94.2,79.945c.125.139.5.021.727.061h.242c.242-.039.645.078.788-.061a21.057,21.057,0,0,0,13.866-5.872,4.068,4.068,0,0,0,.667-.667,20.891,20.891,0,0,0,5.933-13.987,5.175,5.175,0,0,0,0-1.754v-.727c-.834.506-2.6.767-2.481-.727.086-1.066,1.455-1.016,2.178-1.576a21.422,21.422,0,0,0-5.327-10.6,15.313,15.313,0,0,0-1.273-1.273,21.125,21.125,0,0,0-9.505-5.027,16.954,16.954,0,0,1-4,6.6c-.182.189-.631.652-.97,1.03a1.09,1.09,0,0,1-1.636-1.394,11.255,11.255,0,0,0,1.091-1.091,14.245,14.245,0,0,0,3.33-5.569,14.425,14.425,0,0,0-1.936-.121A5.022,5.022,0,0,0,94.2,37.2ZM53.935,42.768a19.962,19.962,0,0,0-3.027-2.239c-10.846,5.12-21.7,10.225-32.7,15.2a10.653,10.653,0,0,0-.121,1.637c-.139.125-.021.5-.061.727v1.03c.039.2-.078.563.061.667a20.862,20.862,0,0,0,5.63,13.32,12.106,12.106,0,0,0,1.152,1.152,21.016,21.016,0,0,0,13.684,5.69c.143.139.542.021.788.061h.242c.225-.039.6.078.727-.061,9.284-.734,15.406-5.48,18.59-12.472a22.334,22.334,0,0,0,1.515-13.2,21.71,21.71,0,0,0-5.266-10.293A13.532,13.532,0,0,0,53.935,42.768Z" transform="translate(-13.168 -22.895)" fill="#fff" fill-rule="evenodd"/><path d="M194.94,75.779a6.58,6.58,0,0,1,.849-.849C195.528,75.222,195.289,75.636,194.94,75.779Z" transform="translate(-130.132 -56.329)" fill="#fff" fill-rule="evenodd"/><path d="M132.923,75.413a16.225,16.225,0,0,1-1.333-1.333A17.424,17.424,0,0,1,132.923,75.413Z" transform="translate(-89.368 -55.783)" fill="#fff" fill-rule="evenodd"/><path d="M198.84,163.76a12.107,12.107,0,0,1,1.152,1.152A11.325,11.325,0,0,1,198.84,163.76Z" transform="translate(-132.641 -113.488)" fill="#fff" fill-rule="evenodd"/><path d="M284.27,165.107a4.066,4.066,0,0,1,.667-.667A4.533,4.533,0,0,1,284.27,165.107Z" transform="translate(-187.612 -113.926)" fill="#fff" fill-rule="evenodd"/><path d="M283.42,78.5a15.317,15.317,0,0,1,1.273,1.273A14.3,14.3,0,0,1,283.42,78.5Z" transform="translate(-187.065 -58.627)" fill="#fff" fill-rule="evenodd"/><path d="M243.79,82.92a4.756,4.756,0,0,1-.97,1.03C243.162,83.572,243.611,83.109,243.79,82.92Z" transform="translate(-160.941 -61.471)" fill="#fff" fill-rule="evenodd"/><path d="M238.24,79.931a11.254,11.254,0,0,1,1.091-1.091A11.255,11.255,0,0,1,238.24,79.931Z" transform="translate(-157.994 -58.845)" fill="#fff" fill-rule="evenodd"/><path d="M43.922,164.732a12.537,12.537,0,0,1-1.152-1.152A13,13,0,0,1,43.922,164.732Z" transform="translate(-32.216 -113.373)" fill="#fff" fill-rule="evenodd"/><path d="M128.722,79.712A13.41,13.41,0,0,1,127.51,78.5,13.89,13.89,0,0,1,128.722,79.712Z" transform="translate(-86.743 -58.627)" fill="#fff" fill-rule="evenodd"/><path d="M48.636,115.493c-.16-.385-.424-.667-.606-1.03.05.053.168.036.182.121.05-.064-.132-.275.061-.424H75.64a7.848,7.848,0,0,0,.849,1.333c-.064.139-.381.021-.545.061H74.367c.3-.267,1.077-.053,1.576-.121a7.392,7.392,0,0,0-1.515-.061c.157-.321,1.187.2,1.455-.061-.018.018-1.383-.1-1.636-.121.292.086-.039.139.182.182-.018.125-.16.121-.242.182.029.089.053-.007.121,0,.039.185-.078.521.061.606-.164.588.809.87.97,1.515-.139.018-.068-.175-.182-.182-.21.039.339.253,0,.242.011-.071-.014-.107-.061-.121-.221.089,0,.271-.182.424.182-.292.232.046.485,0-.061-.289-.292.064-.364-.364.128.157.235.05.364.121h.061c.036.307.239.446.242.788v.667a3.854,3.854,0,0,1-1.455,2.6c.018-.075-.175-.21-.182-.061-.064-.071.125-.207-.061-.364-.175.253.128.4.121.485-.082.182-.275.253-.424.364.143-.118-.118-.332-.242-.182.018.128.16-.089.242.061-.018.082-.153.05-.242.061.014.068.121.043.121.121-1.743,1.522-5.145.67-5.63-1.455.078.071.1.025.182,0-.1-.239-.1-.185,0-.424-.114.007-.043.2-.182.182-.135-.111-.382.182-.485.3H67.4c.025-.139.267-.16.121-.3-.053.053,0,.185-.242.182.118-.371-.178.007.061.121v.061a2.747,2.747,0,0,1-3.512.182c-.021-.078-.107-.1-.121-.182v-.061c.2.036.264.053.182.242.328-.342-.328-.171-.364-.424.061-.185.057.175.182.121-.011-.071.014-.107.061-.121-.135-.036-.153-.061-.182-.242-.068.053,0,.135-.121.242-.139-.043-.16-.2-.3-.242a2.037,2.037,0,0,1-.242-2.057h.061c.039-.36-.542-.1-.788-.182v-.061c.2-.1-.046-.125.121-.424-.2.043-.111.275-.182.3h-.061a6.746,6.746,0,0,0-.667-1.152c1.433-.143,3.127-.021,4.664-.061a13.255,13.255,0,0,0,.727,1.333c-.143.178-.7-.057-.849.121a1.557,1.557,0,0,0-1.212.364c0-.228-.292.2-.364-.182a.261.261,0,0,0-.121.242c.061,0,.046-.075.061-.121.111.011.036.2.121.242.089-.025-.025-.078,0-.182.053.029.107.053.121.121-.228.424-.717.891-.485,1.576.242.414,1.005.189,1.394.061-.025.153-.5.164-.182.3.093-.032,0-.064-.061-.061-.011-.132.214-.029.3-.061.021.1-.046.114-.121.121.039.182.128-.057.242,0,.032-.2-.3-.128-.121-.3a12.869,12.869,0,0,0,1.758-1.152c-.011.193.135-.043.242.182.057-.064.064-.239.121-.3-.05-.2-.21.3-.3.061.082-.178.278-.246.364-.424-1.134-1.216.082-3.027,1.875-2.542-.121.053-.121.2,0,.061.182.039-.057.128,0,.242.053-.036.107-.075.121,0,.164-.053-.061-.21-.061-.3.439.289.481.97.849,1.333-.075.107-.371-.068-.606,0a.651.651,0,0,0-.606,0c-.938-.071-1,1.333-.242,1.515a3.777,3.777,0,0,1,1.515-.242c.1.3.246.56.364.849-.061,0-.046.075-.061.121-.064-.014-.043-.121-.121-.121-.157.007-.1.225-.182.3.16-.071.189-.053.121-.242a.166.166,0,0,1,.121.182.41.41,0,0,0,.121-.182,1.5,1.5,0,0,1,.242.546c-.941.128-2.2.143-1.936,1.212.1.4.656.5,1.394.424,1.084-.111,2.881-1.045,2.663-1.515-.135-.242.143-.039.182.061.039-.257-.4-.214-.121-.364-.107-.007-.128.075-.242.061.011.082.253.114,0,.121-1.8-.4-2.731-3.665-.182-4v-.727c-.025-.135-.3-.025-.424-.061-3.854.039-7.872-.082-11.627.061v7.509a7,7,0,0,1-1.273-.849c.068-.139.239.118.3.182-.061-.285.043-.182-.242-.242-.021-.1.046-.114.121-.121-.05-.178-.153.078-.3,0,.242-.093-.057-.246-.182-.121v-.788c.139-.086.021-.421.061-.606a.166.166,0,0,0-.182.121c-.228.057-.317.246-.546.3-.018-.139.175-.068.182-.182-.217.057-.367.275-.727.121.128.221.357,0,.424.121a.622.622,0,0,1-.364.182c-.011-.082-.253-.114,0-.121-.078-.114-.385.057-.545.061.057.15.232-.082.424,0,0,.089-.36.089-.061.121a1.365,1.365,0,0,1-.606.182h-.727a2.392,2.392,0,0,1-.849-.3.285.285,0,0,1,.182-.061c-.16-.1-.235.071-.242-.182-.164.089-.292-.068-.182.121-.132-.068-.2-.2-.364-.242a3.364,3.364,0,0,0-.606-.606.285.285,0,0,1-.061-.182c-.146-.025-.132.111-.3.061h-.606a1.387,1.387,0,0,1-1.212-.849,5.47,5.47,0,0,1-1.212,1.152,7.007,7.007,0,0,0,.849,1.152h-.182c.025.225.267-.046.121.182.032.093.064,0,.061-.061.157.157.2.26.121.424.078-.021.1-.107.182-.121-.146-.036-.036-.061-.182-.242a6.963,6.963,0,0,1,1.212,1.333c-.232.15-.371.4-.667.485-.353-.5-.734-.963-1.091-1.455a.59.59,0,0,1,.364.182c-.157-.153.014-.292.121-.364-.392.011-.114-.267-.364.182-.253-.061.153-.267-.182-.121-.175-.029-.143-.26-.3-.3v-.061a.306.306,0,0,1,.3,0c-.018-.239-.21.068-.182-.182.185-.175.185.185.3-.061-.064-.071-.182-.043-.364,0a.164.164,0,0,1,0-.242.131.131,0,1,1-.182-.182c-.4.275.153.214.182.606-.061-.039-.064-.139-.182-.121a5.069,5.069,0,0,1-.727-.97c.128-.071.228.029.3-.182-.032-.175-.089.1-.121.121-.178-.05.078-.153,0-.3-.139.043-.018.346-.242.3-.435-.513-1.861-2.153-.485-2.6-.235.168-.2.018-.3.364-.071-.011-.05-.111-.061-.182-.157.1.086.314,0,.546.146-.506.132-.478.485-.727.278.107.463.3.727.424-.011.05.025.057.061.061a6.269,6.269,0,0,0,0-2.724h-.061A14.113,14.113,0,0,1,48.636,115.493Zm26.038,5.451c-.349-.014-.225.5-.121.485.014-.114-.068-.132-.061-.242.089-.032.153-.089.242-.121.007.082-.2.225-.061.242,0-.121.164-.078.121-.242C74.727,121.052,74.7,121,74.674,120.945Zm-12.835-3.754c.032-.086-.235-.146-.061-.182.032,0,.068-.05,0-.061-.114.1-.335-.071-.121.121C61.5,117.176,61.821,117.123,61.839,117.191Zm2.3,2.239c.118-.171.132-.538.3-.485C64.245,118.766,64.071,119.358,64.138,119.43Zm3.936-.485c-.3,0,.221-.517-.121-.364.15.228-.121.018-.182-.061.025.1-.089.157,0,.182C67.85,118.535,67.932,119.184,68.074,118.945Zm.606-1.33c-.068.007-.093-.089-.121,0,.278.1-.1.257-.182.364.228,0,.435-.328.364-.424C68.738,117.59,68.731,117.626,68.681,117.615Zm-.424.849c.2-.606-.164-.071-.061.121.168.025.093.752.182,0C68.31,118.57,68.281,118.517,68.256,118.463Zm-18.1,1.087c0,.132-.168.392-.061.424.061-.153.1.21.242.182.221-.16.178-.2-.061-.061C50.073,119.882,50.265,119.708,50.151,119.551Zm.424-1.087c.381.082.207-.075.485-.121-.118.018-.121-.082-.182-.121C50.9,118.478,50.273,118.46,50.576,118.463Zm-1.818-2.97c0-.036.011-.071.061-.061a11,11,0,0,0,1.875-.061,11.736,11.736,0,0,1-1.936-.061h1.936C50.223,115.258,48.572,115.076,48.757,115.493Zm3.633-.121c0,.036.011.071.061.061,1.965-.282,4.4-.043,6.478-.121.25-.207.007-.061-.061-.061-1.886-.025-4.4.018-6.418,0-.071-.114-.153-.139-.242,0h.121C52.38,115.265,52.4,115.3,52.39,115.372Zm18.893-.121H63.956a17.156,17.156,0,0,0-2.966,0c-.353.071.357.057.424.061,3.7.1,7.409-.075,11.021,0,.036,0,.071.011.061.061H60.808c-.014.075-.093.125.061.121,3.776-.143,7.812-.021,11.687-.061C72.228,115.1,71.686,115.251,71.283,115.251Zm-18.772.3a13.918,13.918,0,0,0-.121,2.966c-.3-.107.16.178.242.242-.071.011-.171-.011-.182.061.31.025.16-.128.242-.242.078.082.264.061.424.061a.651.651,0,0,0,.606,0h.242a2.016,2.016,0,0,1,1.273-1.94c-.053.189-.485.221-.182.424-.018-.139.175-.068.182-.182-.114-.057-.2.182-.242,0,.089-.093.346-.018.3-.242a1.712,1.712,0,0,1,.909-.3h.909c.16.039.378.025.485.121-.2.364.185-.157.182.242.4-.018.093.011.061-.182.617.292.945.87,1.515,1.212-.168.36-.135.146-.182,0-.014.086-.132.068-.182.121.078-.011.078-.371,0-.182-.032.153-.082.21.061.3.025-.232.164-.093.061.061.143-.021.26-.061.3-.182-.068.068.046-.528-.061-.182a14.92,14.92,0,0,1-.061-2.178H52.579c.011-.053,0-.111.061-.121,1.89-.346,4.549.264,6.357,0-2.039-.139-4.339-.021-6.478-.061A1.55,1.55,0,0,0,52.512,115.554Zm7.933.121c.064,2-.086,4.453,0,6.418.007.182-.16.724.182.667C60.306,120.7,60.662,117.583,60.445,115.675Zm12.775,1.818c-.114-.014.036-.1-.061-.121,0,.036-.011.071-.061.061.078-.153-.032-.189.061-.242.121-.032.139.335.242.121a.325.325,0,0,1-.182-.182c.032,0,.068-.05,0-.061,0,.036-.011.071-.061.061-.068.007-.093-.089-.121,0,.175.036-.093.1-.061.182a1.028,1.028,0,0,1,.182.242,1.623,1.623,0,0,0-.121,1.815c-.032,0-.068.05,0,.061-.018.135-.093.385,0,.3.225-.1.1.164.121.121-.018.189.175-.153.182.061-.032,0-.068.05,0,.061,0-.078.107-.053.121-.121-.189-.014-.235-.168-.364-.242v-.121c.292.132.339.51.727.546.014-.046,0-.121.061-.121.16.032.374.139.182-.121.118.018.121-.082.182-.121,0,.064.029.153.061.061-.125-.086-.057-.385-.121-.242.021.05-.153.453-.242.364C74.514,119.162,74.678,116.517,73.219,117.494Zm-.424.182c-.014-.046,0-.121-.061-.121.075.107.011.353.121.424.018-.1.068-.339,0-.424C72.845,117.6,72.856,117.672,72.8,117.675Zm-16.953,2.6a5.221,5.221,0,0,0,3.512-1.455c-.513-.906-2.8-1.519-3.633-.485,0-.078-.107-.057-.121-.121.086-.025.1-.071.182,0,.071-.025.071-.292,0-.121,0,.036-.011.071-.061.061-.014-.046-.05-.071-.121-.061-.018.178-.082.225,0,.3,0-.032.05-.068.061,0a1.671,1.671,0,0,0-.182,1.515.285.285,0,0,0-.182.061c-.039-.132.171-.193-.061-.182-.018.221.242.481.364.364-.082-.061-.225-.057-.242-.182h.121a.532.532,0,0,1,.242.242c.007.071.107.139,0,.182-.014-.068-.068-.1-.121-.121-.1.16-.043.21.061.061a.189.189,0,0,0,.3.061C55.892,120.392,55.82,120.382,55.842,120.278Zm3.148-2.118c.025.207.185.1,0,.242.089-.036.474.207.364.121A1.143,1.143,0,0,0,58.99,118.16Zm-4.66-.424c0,.036-.011.071-.061.061.014.046,0,.118.061.121,0-.036.011-.071.061-.061a.166.166,0,0,0,.121.182c.007-.082.114-.335,0-.182C54.451,118.043,54.455,117.683,54.33,117.736Zm-1.818,1.269c-.039-.032-.182-.246-.242-.061.257-.011,0,.1-.061.121-.014-.046,0-.121-.061-.121.039.346.114.146.3.061C52.451,119.041,52.5,119.077,52.512,119.005Zm20.044.242c.125-.235.257.339.3.182.007-.478-.125-.146-.182-.424C72.692,119.112,72.392,119.194,72.556,119.248Zm-3.936.182c.1-.025.157.089.182,0-.135-.036.075-.1-.061-.182.178-.018.207.014.121.121.168.078.3-.175.182-.182,0,.036-.011.071-.061.061-.078-.011-.3-.175-.3-.061C68.645,119.276,68.766,119.3,68.62,119.43Zm-9.569,0c-.032,0-.068.05,0,.061.068-.139.235.086.3-.121-.189.029-.16-.164-.3-.182C59.058,119.355,58.951,119.312,59.051,119.43Zm8.115.485c-.036,0-.071-.007-.061-.061.032,0,.068-.05,0-.061.018.107-.235.214-.182,0-.125-.053-.228.2-.121.182,0-.036.011-.071.061-.061A.261.261,0,0,0,67.165,119.914Zm-10.9,1.212c-.086,0-.232.014-.121.061.107-.1.46.018.3-.061-.011-.093-.467-.171-.3-.061C56.191,121.08,56.266,121.066,56.266,121.127Zm13.5.966c-.453.2.378.064.485-.061C70.057,122.022,70,122.143,69.768,122.093Zm-.121.606c.16.036.506-.053.364-.121-.036.018-.232.15-.242,0,.046-.014.118,0,.121-.061C69.74,122.51,69.7,122.61,69.647,122.7Zm-16.408.242c-.089.078-.346.292-.242.364a2.485,2.485,0,0,0,.3-.364C53.235,122.92,53.153,122.87,53.239,122.941Z" transform="translate(-35.6 -81.573)" fill="#fff" fill-rule="evenodd"/><path d="M49.73,117.9a13.763,13.763,0,0,0,2.057.061A4.671,4.671,0,0,1,49.73,117.9Z" transform="translate(-36.694 -83.979)" fill="#fff" fill-rule="evenodd"/><path d="M55.567,118.07a6.269,6.269,0,0,1,0,2.724c-.036,0-.071-.011-.061-.061A7.89,7.89,0,0,0,55.567,118.07Z" transform="translate(-40.41 -84.089)" fill="#fff" fill-rule="evenodd"/><path d="M66.38,131.15a3.364,3.364,0,0,1,.606.606A3.363,3.363,0,0,1,66.38,131.15Z" transform="translate(-47.408 -92.505)" fill="#fff" fill-rule="evenodd"/><path d="M79.28,132.291a.166.166,0,0,1,.182-.121c-.039.185.078.521-.061.606v-.545C79.355,132.241,79.341,132.291,79.28,132.291Z" transform="translate(-55.709 -93.161)" fill="#fff" fill-rule="evenodd"/><path d="M90.49,132c.139.043.16.2.3.242a.532.532,0,0,0,.242.242c.014.086.1.1.121.182A4.211,4.211,0,0,1,90.49,132Z" transform="translate(-62.922 -93.052)" fill="#fff" fill-rule="evenodd"/><path d="M205.461,114.264a1.849,1.849,0,0,1,1.394,0c.257.1.029.321.364.364a.409.409,0,0,0-.182-.121c.046-.214.285.182.3,0,.97.585,1.223,1.886,1.152,3.512-.139.164-.021.585-.061.849v.061h2.663a31.373,31.373,0,0,0,.061-3.148c.011-.132-.214-.029-.3-.061.039-.2-1.226.071-1.576-.121-.317-.349-.474-.859-.788-1.212,6.985-.143,14.229-.021,21.314-.061.178.217-1.633.121-2.421.121H208.852c5.512.111,12.2.061,18.166.061a12.652,12.652,0,0,1,2.6,0c.292.089.071.364.424.061.05-.011.057.025.061.061-.207.043-.389.339-.3.485.046-.1.128-.3.3-.3.2.125-.2.153-.182.3.121-.061.26-.1.3-.242a1.14,1.14,0,0,1,.242.364.41.41,0,0,0-.121.182c-.15-.007-.014-.2.061-.182-.282-.068-.15.592.061.061.153.089.214.271.3.424h-.061a1.608,1.608,0,0,0-.97,0c-.107.036-.357-.075-.364.061v7.509a8.178,8.178,0,0,1-.909-.546c-.25-.168-.674-.324-.667-.727.332-.068.439.128.424.242.193-.2-.146-.374-.424-.3v-1.515a5.175,5.175,0,0,0,.061-1.273c-.039-.2.078-.563-.061-.667a3.57,3.57,0,0,0-1.455,0c-.777-.1-1.615.239-1.576,1.152-.139.064-.021.382-.061.545-.111.175-.05.239-.242.242.053.068.168-.039.121.242.16.018-.057-.339.182-.242a4.139,4.139,0,0,0,.364.849c-.107.239-.2.046-.364.3.018.239.21-.068.182.182.2-.21-.182-.061-.121-.242.178-.225.25.392.364.061.021.111-.114.353.121.061.221.424.592.7.788,1.152-.246.068-.606.638-.727.121.064.032.385.05.121.121.089.164.253-.1.3-.182-.171.214-.346-.093-.485,0a2.507,2.507,0,0,1-.242-.3c.05.011.057-.025.061-.061.16.061.332-.075.242-.364.125.032.118.182.242.061-.086-.164-.317-.2-.3.242-.214.007-.346-.257-.546-.424a.166.166,0,0,1,.182-.121c-.1-.064-.546-.46-.242-.364-.071-.235-.157-.018-.242.061h-.061c-.845-.938-1.84-3.64-.061-4.3.21.228.385.121.727.182-.146-.093-.374-.107-.485-.242a12.725,12.725,0,0,1,3.209-.182h.061a5.9,5.9,0,0,0-.061-1.333.641.641,0,0,0,.061-.121c-1.793-.128-4.931.225-6.539.061-.029.321.164-.139.182.061-.061,0-.046.075-.061.121v.242a11.115,11.115,0,0,0,0,2.6,1.227,1.227,0,0,1-.424.97c-.15-.339-.257-.082-.485.182.1.036.314-.3.485-.121-.164.282-.471.417-.667.667-.125-.132-.2.007-.3.061.15.139.232.089.061.364.182-.121.21-.217.424-.121a4.417,4.417,0,0,1,.485.546,1.027,1.027,0,0,0-.242.182c.1.082.239.2.242-.061.089.05.089.2.121.3.239-.089-.011-.071,0-.242a1.655,1.655,0,0,1,.424.424,1.028,1.028,0,0,1-.242-.182c-.011.146.264.168.061.485.111-.011.036-.207.121-.242.05.011.061.061.121.061.217.125.328.36.546.485.56.36.146.61-.182.97a11.336,11.336,0,0,1-1.091-1.273c.139.039.16.2.3.242-.046-.25-.535-.31-.242-.545.107.043.011.111,0,.182.178-.171.2-.121.242-.242-.053-.164-.135.185-.242,0-.046-.275.168.093.121-.182-.1-.014-.157.1-.182,0-.046.121.1.242-.121.364a10.5,10.5,0,0,1-1.03-1.273c.039-.061.139-.061.121-.182.025.221-.05.225.121.364.153-.086-.214-.353.121-.182-.121-.314-.36-.15-.546-.242a10.756,10.756,0,0,1-.97-1.152.166.166,0,0,0,.121-.182c.242.053.164.193.364.182-.114-.324-.56-.146-.667-.3-.756-1.016.788-1.226,1.394-.606.4-.531.078-1.779.182-2.6-.025-.135-.3-.025-.424-.061a9.822,9.822,0,0,0-2.421,0h-.424c-.143,2.4-.021,5.066-.061,7.569-.05-.011-.061-.061-.121-.061-.506-.278-.923-.652-1.455-.909v-2.057a7.393,7.393,0,0,0,.061-1.515v-1.694a5.7,5.7,0,0,0,.061-1.333h-.485a13.568,13.568,0,0,0-2.057-.061c.021.1.107-.053.121.061-.05-.011-.057.025-.061.061v3.815c0,1.134.31,3-.121,3.694.011-.014-.007-.046,0-.061a.746.746,0,0,1,.061-.364v-6.781c-.143,2.161-.021,4.582-.061,6.842-.146-.025-.132.111-.3.061.05.178.2-.036.3,0-.039.061-.139.064-.121.182-.082-.061-.225-.057-.242-.182.025-.324-.428-.414-.424-.424-.071.207.253.193.424.3-.011.05-.061.061-.061.121a7.8,7.8,0,0,0-.97-.606c-.111-.128-.039-.442-.061-.667v-.667c.139-.082.021-.421.061-.606v-.061a14.134,14.134,0,0,0-2.906,0c-.032.474-.05.959-.364,1.152-.656.043-3.355-2.143-1.758-2.6.242-.039.645.078.788-.061a2.413,2.413,0,0,0,.061-.667c-1.152-.264-2.956-1.262-2.663-2.785a1.8,1.8,0,0,1,1.03-1.152c.093.232-.193.349.242.364-.011-.071-.111-.05-.182-.061.057-.089.435-.1.061-.121.082-.157.371-.014.485,0-.046-.221-.517-.046-.546-.121A.158.158,0,0,0,205.461,114.264Zm15.2,7.327c.032-.086-.235-.146-.061-.182.086-.032.146.235.182.061-.21-.018,0-.164-.121-.182-.014.046-.05.071-.121.061.029-.189-.164-.16-.182-.3.242-.189.267.15.3.121.15-.143-.089-.114-.061-.3.032,0,.068-.05,0-.061-.121-.071-.4.029-.485.3C220.5,120.988,220.482,121.6,220.66,121.591Zm-5.148.906c.111-.139.335.046.545.121.014-.086.1-.1.121-.182C216,122.429,215.462,122.314,215.512,122.5Zm-8.111-1.209a1.665,1.665,0,0,0-.121-.364.166.166,0,0,1-.182.121c.014-.075.093-.125-.061-.121-.029.189.153.217.242.121C207.237,121.152,207.472,121.416,207.4,121.288Zm-.909-.788c.075.014.036.068,0,.121.21.011.228.214.424.242.036-.107-.178-.253,0-.3.118-.007-.232-.068-.182.182,0-.121-.164-.078-.121-.242.032,0,.068-.05,0-.061,0,.036-.011.071-.061.061C206.552,120.464,206.5,120.432,206.492,120.5Zm.364-5.812c-.2.039-.563-.078-.667.061C206.392,114.71,206.752,114.824,206.855,114.688Zm.121.542c.645.21-.392-.135-.182-.364-.538.114-.827.25-.061.121.014.086.1.1.121.182-.235-.228-.57-.064-.788.061-.264,0-.039.111-.3.242a.285.285,0,0,0-.061-.182c.107.018.232-.285.121-.121-.453.207.075.21-.182.424-.014-.046,0-.118-.061-.121.025.1-.089.157,0,.182.1,0,.217-.135.364-.242a1.247,1.247,0,0,0,.3,1.758.228.228,0,0,0-.242.242c.15-.078.253.178.3,0-.253-.007-.011-.039,0-.121-.114-.057-.2.182-.242,0a.261.261,0,0,0,.242-.121,1.9,1.9,0,0,0,.788.242,5.422,5.422,0,0,0,0-1.936c.1.31.421,0,.3-.182-.05.267-.135.225-.3.121C207.012,115.4,207.03,115.28,206.976,115.23Zm-1.818,2c.228-.1.275.282.364.121-.039-.178-.014-.314-.364-.242,0-.032-.05-.068-.061,0C205.147,117.123,205.169,117.159,205.158,117.23Zm22.647.182h-.97c-.3.039-.767-.078-.97.061A12.186,12.186,0,0,0,227.805,117.412Zm-7.69,2.906c.207-.171.021-.139.121-.3.032,0,.068-.05,0-.061,0,.036-.011.071-.061.061C220.036,119.9,220.065,120.279,220.115,120.318Zm1.455,1.815c0-.143.164.021.121.121-.121-.1-.078,0-.242,0,.1.189-.225.246-.061.3a2.823,2.823,0,0,1,.242-.3c.039.253.392-.029.242.061C221.776,122.218,221.495,121.872,221.57,122.133Zm.546.788c.118.018.121-.082.182-.121.025.071.292.071.121,0s-.324-.246-.424-.121C222.158,122.842,222.3,122.682,222.115,122.921Z" transform="translate(-136.175 -81.552)" fill="#fff" fill-rule="evenodd"/><path d="M223.331,135.4c.021.221-.05.535.061.667C223.2,136.049,223.235,135.5,223.331,135.4Z" transform="translate(-148.351 -95.24)" fill="#fff" fill-rule="evenodd"/><path d="M238.578,126.072c.061,0,.071.05.121.061.039-2.5-.082-5.166.061-7.569h2.845c.125.036.4-.075.424.061h-3.209c-.143,2.36-.021,4.984-.061,7.448C238.814,126.286,238.561,126.179,238.578,126.072Z" transform="translate(-158.211 -84.4)" fill="#fff" fill-rule="evenodd"/><path d="M253.286,136.336c-.217-.125-.328-.36-.546-.485-.011-.05-.061-.061-.061-.121A3.611,3.611,0,0,1,253.286,136.336Z" transform="translate(-167.285 -95.452)" fill="#fff" fill-rule="evenodd"/><path d="M252.34,118.7c.014-.046,0-.121.061-.121h6.3a5.9,5.9,0,0,1,.061,1.333H258.7v-1.273C256.6,118.683,254.337,118.562,252.34,118.7Z" transform="translate(-167.066 -84.417)" fill="#fff" fill-rule="evenodd"/><path d="M47.53,114.17h.424c-.193.15-.011.36-.061.424-.014-.086-.132-.068-.182-.121A1.519,1.519,0,0,1,47.53,114.17Z" transform="translate(-35.279 -81.579)" fill="#fff" fill-rule="evenodd"/><path d="M121.521,117.414c-.068-.007-.093.089-.121,0,.082-.061.225-.057.242-.182-.221-.039.114-.1-.182-.182.25.021,1.619.139,1.637.121-.264.264-1.3-.26-1.455.061a7.148,7.148,0,0,1,1.515.061c-.5.068-1.276-.146-1.576.121Z" transform="translate(-82.811 -83.432)" fill="#fff" fill-rule="evenodd"/><path d="M123.925,123.813c-.128-.071-.235.036-.364-.121.071.428.3.075.364.364-.253.046-.3-.292-.485,0,.185-.153-.039-.335.182-.424.046.014.071.05.061.121.339.011-.21-.2,0-.242.114.007.043.2.182.182C123.875,123.742,123.925,123.752,123.925,123.813Z" transform="translate(-84.124 -87.589)" fill="#fff" fill-rule="evenodd"/><path d="M122.465,133.311c.043.164-.121.121-.121.242-.143-.018.068-.16.061-.242-.089.032-.153.089-.242.121-.007.107.075.128.061.242-.1.018-.228-.5.121-.485C122.369,133.243,122.4,133.3,122.465,133.311Z" transform="translate(-83.271 -93.817)" fill="#fff" fill-rule="evenodd"/><path d="M120.913,135.035c.007-.086-.3-.232-.121-.485.185.157,0,.292.061.364.007-.15.2-.014.182.061C120.984,134.985,120.974,135.035,120.913,135.035Z" transform="translate(-82.385 -94.693)" fill="#fff" fill-rule="evenodd"/><path d="M119.481,136.56c0-.078-.107-.053-.121-.121.089-.011.225.021.242-.061-.082-.15-.225.068-.242-.061.121-.15.385.064.242.182C119.553,136.513,119.542,136.56,119.481,136.56Z" transform="translate(-81.499 -95.797)" fill="#fff" fill-rule="evenodd"/><path d="M103.91,132.254v-.242c.139.018.068-.175.182-.182-.1.239-.1.185,0,.424C104.006,132.276,103.988,132.326,103.91,132.254Z" transform="translate(-71.557 -92.943)" fill="#fff" fill-rule="evenodd"/><path d="M102.036,132.643c-.239-.114.057-.492-.061-.121.239,0,.189-.128.242-.182.146.143-.1.164-.121.3Z" transform="translate(-70.29 -93.271)" fill="#fff" fill-rule="evenodd"/><path d="M91.34,132.242c.125-.107.053-.189.121-.242.029.182.046.207.182.242-.046.014-.071.05-.061.121-.125.053-.121-.307-.182-.121.036.253.692.082.364.424.082-.189.018-.207-.182-.242v.061A.55.55,0,0,1,91.34,132.242Z" transform="translate(-63.469 -93.052)" fill="#fff" fill-rule="evenodd"/><path d="M87.6,124.663c.071-.029-.014-.26.182-.3-.168.3.075.328-.121.424C87.65,124.734,87.6,124.724,87.6,124.663Z" transform="translate(-61.062 -88.136)" fill="#fff" fill-rule="evenodd"/><path d="M86.088,122.1c-.214-.193.007-.025.121-.121.068.011.032.061,0,.061-.175.036.093.093.061.182C86.252,122.155,85.928,122.208,86.088,122.1Z" transform="translate(-60.032 -86.604)" fill="#fff" fill-rule="evenodd"/><path d="M94.035,126.572c-.078.021-.1.107-.182.121-.014-.068-.068-.093-.121-.121-.025.1.089.157,0,.182-.082-.039-.011-.232-.121-.242-.014.046,0,.118-.061.121a.261.261,0,0,1,.121-.242C93.743,126.768,94.038,126.344,94.035,126.572Z" transform="translate(-64.891 -89.442)" fill="#fff" fill-rule="evenodd"/><path d="M93.486,127.52c-.171-.057-.185.314-.3.485C93.115,127.933,93.29,127.342,93.486,127.52Z" transform="translate(-64.645 -90.148)" fill="#fff" fill-rule="evenodd"/><path d="M96.483,131.83c-.178.175.153.1.121.3-.114-.057-.2.182-.242,0,.075-.007.143-.018.121-.121-.089.032-.314-.071-.3.061.064,0,.153.029.061.061-.321-.139.157-.15.182-.3Z" transform="translate(-66.551 -92.943)" fill="#fff" fill-rule="evenodd"/><path d="M102.037,128.294c-.011-.05.025-.057.061-.061.089.239.253-.26.3-.061-.057.064-.064.239-.121.3C102.172,128.251,102.026,128.487,102.037,128.294Z" transform="translate(-70.35 -90.558)" fill="#fff" fill-rule="evenodd"/><path d="M103.338,126.572c-.089-.025.025-.078,0-.182.061.078.332.289.182.061.342-.153-.182.364.121.364C103.5,127.053,103.416,126.4,103.338,126.572Z" transform="translate(-71.166 -89.442)" fill="#fff" fill-rule="evenodd"/><path d="M108.387,120.11c0,.089.225.246.061.3-.014-.075-.068-.036-.121,0-.057-.114.182-.2,0-.242-.121.143-.121-.007,0-.061Z" transform="translate(-74.34 -85.401)" fill="#fff" fill-rule="evenodd"/><path d="M105.464,123.68c.071.1-.135.428-.364.424.082-.107.46-.264.182-.364.029-.089.053.007.121,0C105.453,123.751,105.46,123.716,105.464,123.68Z" transform="translate(-72.323 -87.698)" fill="#fff" fill-rule="evenodd"/><path d="M104.738,125.834c-.089.752-.014.025-.182,0-.1-.193.267-.727.061-.121C104.642,125.77,104.671,125.824,104.738,125.834Z" transform="translate(-71.961 -88.826)" fill="#fff" fill-rule="evenodd"/><path d="M111.574,129.79v.061a.41.41,0,0,1-.121.182.166.166,0,0,0-.121-.182c.068.189.039.171-.121.242.086-.078.025-.3.182-.3.078,0,.057.107.121.121C111.527,129.865,111.513,129.794,111.574,129.79Z" transform="translate(-76.254 -91.63)" fill="#fff" fill-rule="evenodd"/><path d="M118.34,131.161c.253-.007.011-.039,0-.121.114.014.135-.068.242-.061-.278.15.16.107.121.364-.039-.1-.317-.3-.182-.061A.166.166,0,0,1,118.34,131.161Z" transform="translate(-80.842 -92.395)" fill="#fff" fill-rule="evenodd"/><path d="M79.615,136c.125-.125.424.029.182.121.15.078.25-.178.3,0-.075.007-.143.018-.121.121.285.061.182-.043.242.242-.064-.064-.235-.321-.3-.182H79.8C79.779,136.152,79.586,136.184,79.615,136Z" transform="translate(-55.922 -95.593)" fill="#fff" fill-rule="evenodd"/><path d="M76.654,133.092c-.064-.118-.3.1-.424-.121.36.153.51-.064.727-.121-.007.114-.2.043-.182.182C76.726,133.043,76.715,133.092,76.654,133.092Z" transform="translate(-53.746 -93.599)" fill="#fff" fill-rule="evenodd"/><path d="M75.234,133.811c-.3-.032.064-.032.061-.121-.193-.082-.364.15-.424,0,.16,0,.464-.175.546-.061-.253.007-.011.039,0,.121A.285.285,0,0,1,75.234,133.811Z" transform="translate(-52.871 -94.075)" fill="#fff" fill-rule="evenodd"/><path d="M69.015,133.311c-.111-.189.018-.032.182-.121,0,.253.082.082.242.182a.285.285,0,0,0-.182.061H69.2A.41.41,0,0,0,69.015,133.311Z" transform="translate(-49.077 -93.818)" fill="#fff" fill-rule="evenodd"/><path d="M57.89,135.835c.335-.146-.071.061.182.121.246-.449-.032-.171.364-.182-.107.071-.278.21-.121.364a.59.59,0,0,0-.364-.182C57.936,135.906,57.886,135.892,57.89,135.835Z" transform="translate(-41.945 -95.432)" fill="#fff" fill-rule="evenodd"/><path d="M56.442,133.675c.118-.018.121.082.182.121-.029-.392-.578-.332-.182-.606a.131.131,0,1,0,.182.182.164.164,0,0,0,0,.242c.178-.043.3-.071.364,0-.118.246-.118-.114-.3.061-.029.25.164-.057.182.182a.306.306,0,0,0-.3,0C56.542,133.775,56.456,133.76,56.442,133.675Z" transform="translate(-40.921 -93.818)" fill="#fff" fill-rule="evenodd"/><path d="M54.49,131.113c.225.043.1-.26.242-.3.078.15-.178.25,0,.3.032-.025.089-.3.121-.121-.075.21-.175.111-.3.182C54.5,131.184,54.494,131.149,54.49,131.113Z" transform="translate(-39.757 -92.286)" fill="#fff" fill-rule="evenodd"/><path d="M53.931,129.826c.239-.143.282-.1.061.061-.139.029-.182-.335-.242-.182-.1-.032.064-.292.061-.424C53.924,129.437,53.731,129.612,53.931,129.826Z" transform="translate(-39.259 -91.302)" fill="#fff" fill-rule="evenodd"/><path d="M52.5,124.36c-.353.25-.339.221-.485.727.086-.232-.157-.442,0-.546.011.071-.011.171.061.182.1-.342.068-.193.3-.364Z" transform="translate(-38.128 -88.136)" fill="#fff" fill-rule="evenodd"/><path d="M55.323,125.55c.061.039.064.139.182.121-.278.046-.1.2-.485.121C54.717,125.789,55.341,125.807,55.323,125.55Z" transform="translate(-40.045 -88.902)" fill="#fff" fill-rule="evenodd"/><path d="M51.989,117.236H50.053a11.751,11.751,0,0,0,1.936.061,11.03,11.03,0,0,1-1.875.061c-.05-.011-.057.025-.061.061C49.864,117,51.515,117.182,51.989,117.236Z" transform="translate(-36.892 -83.497)" fill="#fff" fill-rule="evenodd"/><path d="M211.41,114.51a.583.583,0,0,1,.485.242c-.018.182-.253-.214-.3,0a.431.431,0,0,1,.182.121C211.439,114.831,211.667,114.606,211.41,114.51Z" transform="translate(-140.729 -81.798)" fill="#fff" fill-rule="evenodd"/><path d="M218.2,118.24c.349.193,1.612-.082,1.576.121H218.2Z" transform="translate(-145.099 -84.198)" fill="#fff" fill-rule="evenodd"/><path d="M237.96,114.675c.189-.029.171.153.242.242-.353.3-.132.029-.424-.061a12.654,12.654,0,0,0-2.6,0c-5.958,0-12.65.05-18.166-.061h18.529C236.327,114.8,238.138,114.892,237.96,114.675Z" transform="translate(-144.333 -81.902)" fill="#fff" fill-rule="evenodd"/><path d="M276.155,115.772c-.043.139-.182.182-.3.242-.021-.15.378-.178.182-.3-.175,0-.257.2-.3.3-.086-.143.1-.442.3-.485C276.066,115.619,276.123,115.68,276.155,115.772Z" transform="translate(-182.104 -82.454)" fill="#fff" fill-rule="evenodd"/><path d="M277.24,117.273c-.21.531-.342-.125-.061-.061-.075-.018-.21.175-.061.182a.41.41,0,0,1,.121-.182C277.24,117.233,277.24,117.255,277.24,117.273Z" transform="translate(-182.946 -83.533)" fill="#fff" fill-rule="evenodd"/><path d="M270.17,136.1v-.061c.278-.071.617.107.424.3C270.609,136.23,270.5,136.038,270.17,136.1Z" transform="translate(-178.539 -95.642)" fill="#fff" fill-rule="evenodd"/><path d="M261.072,131.15c-.011.05.025.057.061.061v.182c-.239-.1-.021.26-.182.242.046-.278-.068-.171-.121-.242C261.023,131.389,260.962,131.325,261.072,131.15Z" transform="translate(-172.529 -92.505)" fill="#fff" fill-rule="evenodd"/><path d="M262.044,134.21c.057.125.125.239.182.364-.235.292-.1.05-.121-.061-.111.332-.182-.285-.364-.061-.061.182.321.032.121.242.029-.25-.164.057-.182-.182C261.844,134.256,261.937,134.449,262.044,134.21Z" transform="translate(-173.076 -94.474)" fill="#fff" fill-rule="evenodd"/><path d="M260.83,134.759c.086-.078.171-.3.242-.061-.3-.1.139.3.242.364a.166.166,0,0,0-.182.121c.2.168.332.431.546.424-.014-.439.217-.406.3-.242-.125.121-.118-.025-.242-.061.089.289-.082.424-.242.364,0,.036-.011.071-.061.061-.132-.153-.193-.374-.364-.485v-.121c.05-.011.061-.061.121-.061-.139-.164-.193-.232-.364-.242Z" transform="translate(-172.529 -94.72)" fill="#fff" fill-rule="evenodd"/><path d="M260.49,122.888c.111.007.128-.075.242-.061.107.132.335.146.485.242C260.875,123.005,260.7,123.116,260.49,122.888Z" transform="translate(-172.311 -87.148)" fill="#fff" fill-rule="evenodd"/><path d="M252.177,118.309c-.018-.2-.21.26-.182-.061,1.608.164,4.745-.189,6.539-.061a.642.642,0,0,1-.061.121Z" transform="translate(-166.842 -84.146)" fill="#fff" fill-rule="evenodd"/><path d="M252.2,119.6v2.6A10.739,10.739,0,0,1,252.2,119.6Z" transform="translate(-166.924 -85.073)" fill="#fff" fill-rule="evenodd"/><path d="M250.275,129.388c-.168-.182-.382.157-.485.121.228-.264.335-.521.485-.182Z" transform="translate(-165.426 -91.228)" fill="#fff" fill-rule="evenodd"/><path d="M248.915,131.863c-.214-.1-.242,0-.424.121.171-.271.089-.225-.061-.364.107-.053.178-.193.3-.061C248.787,131.667,248.879,131.739,248.915,131.863Z" transform="translate(-164.55 -92.734)" fill="#fff" fill-rule="evenodd"/><path d="M247.07,131.83c.185.093.424-.071.546.242-.335-.171.032.1-.121.182-.171-.139-.1-.139-.121-.364.018.118-.082.121-.121.182-.139.018-.068-.175-.182-.182Z" transform="translate(-163.675 -92.943)" fill="#fff" fill-rule="evenodd"/><path d="M243.85,127.75c.107.157.553-.021.667.3-.2.011-.121-.128-.364-.182a.166.166,0,0,1-.121.182A1.423,1.423,0,0,1,243.85,127.75Z" transform="translate(-161.603 -90.317)" fill="#fff" fill-rule="evenodd"/><path d="M236.351,137.354c-.021.078-.107.1-.121.182-.21-.075-.435-.26-.546-.121C235.634,137.233,236.173,137.347,236.351,137.354Z" transform="translate(-156.347 -96.47)" fill="#fff" fill-rule="evenodd"/><path d="M227.831,118.451c-.014-.114-.1.036-.121-.061a13.555,13.555,0,0,1,2.057.061Z" transform="translate(-151.218 -84.288)" fill="#fff" fill-rule="evenodd"/><path d="M226.872,126.684c-.018-.118.082-.121.121-.182-.107-.036-.25.178-.3,0,.171.05.157-.086.3-.061.039-2.26-.082-4.681.061-6.842v6.781a.746.746,0,0,0-.061.364C226.947,126.734,226.932,126.684,226.872,126.684Z" transform="translate(-150.562 -85.073)" fill="#fff" fill-rule="evenodd"/><path d="M225.675,138.194c0-.061.05-.071.061-.121-.171-.111-.5-.1-.424-.3,0,.011.449.1.424.424Z" transform="translate(-149.668 -96.765)" fill="#fff" fill-rule="evenodd"/><path d="M212.157,133.311c-.089.1-.271.068-.242-.121.153,0,.075.046.061.121a.166.166,0,0,0,.182-.121,1.879,1.879,0,0,1,.121.364C212.35,133.682,212.114,133.418,212.157,133.311Z" transform="translate(-141.052 -93.817)" fill="#fff" fill-rule="evenodd"/><path d="M210.451,131.891c.05.011.057-.025.061-.061.068.011.032.061,0,.061-.043.164.121.121.121.242-.05-.25.3-.189.182-.182-.178.05.036.2,0,.3-.193-.029-.214-.232-.424-.242.036-.053.075-.107,0-.121C210.4,131.823,210.451,131.855,210.451,131.891Z" transform="translate(-140.073 -92.943)" fill="#fff" fill-rule="evenodd"/><path d="M207.319,114.51h.061v.061c.029.071.5-.1.546.121-.114-.014-.4-.157-.485,0,.374.025,0,.032-.061.121.071.011.171-.011.182.061C207.13,114.859,207.412,114.738,207.319,114.51Z" transform="translate(-138.093 -81.798)" fill="#fff" fill-rule="evenodd"/><path d="M208.141,117.2c-.146.107-.267.239-.364.242-.089-.025.025-.078,0-.182.061,0,.046.075.061.121.257-.214-.271-.217.182-.424.111-.164-.014.139-.121.121a.285.285,0,0,1,.061.182c.264-.132.039-.242.3-.242C208.248,117.112,208.163,117.126,208.141,117.2Z" transform="translate(-138.37 -83.344)" fill="#fff" fill-rule="evenodd"/><path d="M209.272,122.66h.061a.261.261,0,0,1-.242.121c.039.182.128-.057.242,0-.011.082-.253.114,0,.121-.05.178-.153-.078-.3,0A.228.228,0,0,1,209.272,122.66Z" transform="translate(-139.198 -87.042)" fill="#fff" fill-rule="evenodd"/><path d="M212.09,117.572v-.061c.168.1.253.146.3-.121C212.511,117.572,212.193,117.882,212.09,117.572Z" transform="translate(-141.167 -83.651)" fill="#fff" fill-rule="evenodd"/><path d="M210.469,116.564c-.05-.011-.061-.061-.121-.061-.021-.078-.107-.1-.121-.182-.767.128-.478-.007.061-.121C210.076,116.428,211.114,116.774,210.469,116.564Z" transform="translate(-139.667 -82.885)" fill="#fff" fill-rule="evenodd"/><path d="M59.871,117.048H59.75c.089-.139.171-.114.242,0,2.014.018,4.532-.025,6.418,0,.068,0,.31-.146.061.061-2.075.078-4.514-.16-6.478.121-.05.011-.057-.025-.061-.061C59.943,117.1,59.921,117.063,59.871,117.048Z" transform="translate(-43.142 -83.37)" fill="#fff" fill-rule="evenodd"/><path d="M95.559,117.265c-3.876.039-7.912-.082-11.687.061-.153,0-.075-.046-.061-.121H95.5c.011-.05-.025-.057-.061-.061-3.612-.075-7.32.1-11.021,0-.068,0-.777.011-.424-.061a17.156,17.156,0,0,1,2.966,0h7.327C94.689,117.083,95.231,116.929,95.559,117.265Z" transform="translate(-58.603 -83.404)" fill="#fff" fill-rule="evenodd"/><path d="M60.382,126.408c-.082.114.068.267-.242.242.011-.071.111-.05.182-.061-.082-.064-.542-.349-.242-.242h.061A.318.318,0,0,0,60.382,126.408Z" transform="translate(-43.289 -89.399)" fill="#fff" fill-rule="evenodd"/><path d="M67.779,121.3c.043.225-.21.15-.3.242.039.182.128-.057.242,0-.007.114-.2.043-.182.182-.3-.2.128-.235.182-.424Z" transform="translate(-48.084 -86.167)" fill="#fff" fill-rule="evenodd"/><path d="M75.009,120.85c.032.193.339.164-.061.182,0-.4-.382.121-.182-.242A.351.351,0,0,1,75.009,120.85Z" transform="translate(-52.767 -85.838)" fill="#fff" fill-rule="evenodd"/><path d="M79.07,123.994c.107-.346-.007.25.061.182-.043.121-.16.16-.3.182.1-.153-.036-.292-.061-.061-.143-.089-.093-.15-.061-.3.078-.189.078.171,0,.182.05-.053.168-.036.182-.121.046.146.014.36.182,0C79.07,124.033,79.07,124.011,79.07,123.994Z" transform="translate(-55.317 -87.83)" fill="#fff" fill-rule="evenodd"/><path d="M60.6,117.654v-.182c2.139.039,4.439-.082,6.478.061-1.808.264-4.467-.346-6.357,0-.057.011-.05.068-.061.121Z" transform="translate(-43.689 -83.673)" fill="#fff" fill-rule="evenodd"/><path d="M118.177,122.8a1.028,1.028,0,0,0-.182-.242c-.032-.086.235-.146.061-.182.025-.089.053.007.121,0,.05.011.057-.025.061-.061.068.011.032.061,0,.061a.325.325,0,0,0,.182.182c-.1.214-.121-.153-.242-.121-.093.053.018.089-.061.242.05.011.057-.025.061-.061.1.021-.053.107.061.121C118.252,122.794,118.216,122.8,118.177,122.8Z" transform="translate(-80.619 -86.823)" fill="#fff" fill-rule="evenodd"/><path d="M117.441,123.68c.068.086.018.328,0,.424-.111-.071-.046-.314-.121-.424.061,0,.046.075.061.121C117.441,123.8,117.431,123.726,117.441,123.68Z" transform="translate(-80.186 -87.698)" fill="#fff" fill-rule="evenodd"/><path d="M118.088,128.77c0,.061.05.071.061.121v.121c.128.075.175.228.364.242-.014.064-.121.043-.121.121-.068-.011-.032-.061,0-.061-.007-.214-.2.128-.182-.061-.018.043.1-.217-.121-.121-.093.082-.018-.168,0-.3C118.02,128.82,118.056,128.77,118.088,128.77Z" transform="translate(-80.651 -90.974)" fill="#fff" fill-rule="evenodd"/><path d="M120.55,129.465c0-.036.011-.071.061-.061.089.093.264-.314.242-.364.064-.143,0,.153.121.242-.032.093-.064,0-.061-.061-.061.039-.064.139-.182.121C120.924,129.6,120.71,129.5,120.55,129.465Z" transform="translate(-82.264 -91.123)" fill="#fff" fill-rule="evenodd"/><path d="M206.48,122.42c.011-.068.061-.032.061,0,.349-.071.324.064.364.242-.089.16-.135-.221-.364-.121C206.551,122.47,206.53,122.435,206.48,122.42Z" transform="translate(-137.557 -86.863)" fill="#fff" fill-rule="evenodd"/><path d="M69.247,125.408c-.011-.068-.061-.032-.061,0-.082-.078-.018-.125,0-.3.071-.011.107.014.121.061.05.011.057-.025.061-.061.071-.175.071.1,0,.121-.078-.071-.1-.025-.182,0,.014.064.121.043.121.121C69.3,125.383,69.3,125.418,69.247,125.408Z" transform="translate(-49.188 -88.578)" fill="#fff" fill-rule="evenodd"/><path d="M68.481,130.14H68.36c.018.125.16.121.242.182-.121.118-.381-.139-.364-.364.232-.011.021.05.061.182a.285.285,0,0,1,.182-.061Z" transform="translate(-48.603 -91.737)" fill="#fff" fill-rule="evenodd"/><path d="M69.29,131.15c.061,0,.071.05.121.061-.021.1.046.114.121.121a.189.189,0,0,1-.3-.061c-.1.15-.157.1-.061-.061.053.025.107.053.121.121C69.4,131.289,69.3,131.221,69.29,131.15Z" transform="translate(-49.17 -92.505)" fill="#fff" fill-rule="evenodd"/><path d="M79.134,125.734c.111.086-.275-.157-.364-.121.185-.143.025-.036,0-.242A1.219,1.219,0,0,1,79.134,125.734Z" transform="translate(-55.38 -88.786)" fill="#fff" fill-rule="evenodd"/><path d="M65.772,124.3c.114-.153.007.1,0,.182a.166.166,0,0,1-.121-.182c-.05-.011-.057.025-.061.061-.061,0-.046-.075-.061-.121.05.011.057-.025.061-.061C65.715,124.127,65.712,124.487,65.772,124.3Z" transform="translate(-46.861 -88.017)" fill="#fff" fill-rule="evenodd"/><path d="M59.883,127.5c-.189.086-.26.285-.3-.061.061,0,.046.075.061.121.061-.025.317-.132.061-.121.061-.185.2.025.242.061C59.933,127.576,59.883,127.54,59.883,127.5Z" transform="translate(-43.032 -90.072)" fill="#fff" fill-rule="evenodd"/><path d="M116.852,127.75c.057.278.189-.053.182.424-.046.157-.178-.417-.3-.182C116.567,127.939,116.867,127.857,116.852,127.75Z" transform="translate(-79.775 -90.317)" fill="#fff" fill-rule="evenodd"/><path d="M105.841,128.187c.007-.114.225.05.3.061.05.011.057-.025.061-.061.114,0-.014.26-.182.182.086-.107.057-.139-.121-.121.135.086-.075.146.061.182-.025.089-.078-.025-.182,0C105.926,128.305,105.8,128.277,105.841,128.187Z" transform="translate(-72.76 -90.573)" fill="#fff" fill-rule="evenodd"/><path d="M78.863,128.26c.143.018.114.21.3.182-.068.207-.235-.018-.3.121-.068-.011-.032-.061,0-.061C78.763,128.385,78.87,128.428,78.863,128.26Z" transform="translate(-55.413 -90.645)" fill="#fff" fill-rule="evenodd"/><path d="M100.66,130.068c-.05-.011-.057.025-.061.061-.107.018,0-.235.121-.182-.053.214.2.107.182,0,.068.011.032.061,0,.061-.011.053.025.057.061.061A.261.261,0,0,1,100.66,130.068Z" transform="translate(-69.398 -91.726)" fill="#fff" fill-rule="evenodd"/><path d="M248.586,130.531c.05.011.057-.025.061-.061.068.011.032.061,0,.061-.1.164.086.132-.121.3C248.476,130.794,248.447,130.42,248.586,130.531Z" transform="translate(-164.586 -92.067)" fill="#fff" fill-rule="evenodd"/><path d="M250.834,134.222c-.011.171.239.153,0,.242-.032-.107-.032-.25-.121-.3,0,.257-.139.143-.242.061a1.028,1.028,0,0,1,.242-.182C250.734,134.118,250.819,134.133,250.834,134.222Z" transform="translate(-165.863 -94.365)" fill="#fff" fill-rule="evenodd"/><path d="M252.3,135.533c-.061,0-.071-.05-.121-.061-.086.036-.011.232-.121.242.2-.317-.071-.335-.061-.485a1.028,1.028,0,0,0,.242.182C252.242,135.472,252.292,135.483,252.3,135.533Z" transform="translate(-166.847 -95.13)" fill="#fff" fill-rule="evenodd"/><path d="M252.57,136.59c.15-.089-.2.193-.242-.061a2.507,2.507,0,0,0-.242.3c-.164-.053.16-.114.061-.3.164,0,.121-.1.242,0,.043-.1-.121-.264-.121-.121C252.192,136.148,252.474,136.494,252.57,136.59Z" transform="translate(-166.872 -95.827)" fill="#fff" fill-rule="evenodd"/><path d="M253.87,138.029c.1-.125.235.043.424.121.171.071-.1.071-.121,0-.061.039-.064.139-.182.121C254.177,138.033,254.034,138.193,253.87,138.029Z" transform="translate(-168.051 -96.903)" fill="#fff" fill-rule="evenodd"/><path d="M250.47,135.421c.225-.121.075-.242.121-.364.025.1.078-.014.182,0,.046.275-.168-.093-.121.182.107.185.189-.164.242,0-.043.121-.064.071-.242.242.011-.071.107-.139,0-.182-.292.235.2.3.242.546-.139-.039-.16-.2-.3-.242C250.57,135.521,250.484,135.507,250.47,135.421Z" transform="translate(-165.863 -95.019)" fill="#fff" fill-rule="evenodd"/><path d="M248.6,133.113c.089-.275.364-.374.485-.3.068.011.032.061,0,.061-.029.189.21.16.061.3-.036.029-.061-.31-.3-.121.018.143.21.114.182.3.071.011.107-.014.121-.061.125.018-.089.164.121.182-.036.175-.093-.093-.182-.061-.175.036.093.1.061.182C248.967,133.6,248.989,133,248.6,133.113Z" transform="translate(-164.66 -93.559)" fill="#fff" fill-rule="evenodd"/><path d="M70.718,133.432c-.164-.111.292-.032.3.061.157.078-.2-.043-.3.061-.111-.046.036-.064.121-.061C70.84,133.432,70.765,133.447,70.718,133.432Z" transform="translate(-50.174 -93.939)" fill="#fff" fill-rule="evenodd"/><path d="M261.072,135.533c-.157-.007-.086-.235-.242-.242v-.061c.171.011.225.078.364.242C261.133,135.472,261.122,135.519,261.072,135.533Z" transform="translate(-172.529 -95.13)" fill="#fff" fill-rule="evenodd"/><path d="M59.033,135.072c.146.182.036.207.182.242-.086.014-.1.1-.182.121.082-.164.036-.267-.121-.424,0,.064-.029.153-.061.061.146-.228-.1.046-.121-.182h.182C58.933,134.968,59.019,134.983,59.033,135.072Z" transform="translate(-42.485 -94.912)" fill="#fff" fill-rule="evenodd"/><path d="M62.219,138.723a2.485,2.485,0,0,1-.3.364c-.1-.071.153-.285.242-.364C62.073,138.652,62.155,138.7,62.219,138.723Z" transform="translate(-44.52 -97.354)" fill="#fff" fill-rule="evenodd"/><path d="M109.243,136.239c-.107.125-.938.264-.485.061C108.986,136.349,109.047,136.228,109.243,136.239Z" transform="translate(-74.59 -95.779)" fill="#fff" fill-rule="evenodd"/><path d="M263.21,138.588c.139-.093.314.214.485,0-.05.078-.214.346-.3.182.264-.071-.057-.089-.121-.121C263.217,138.659,263.214,138.627,263.21,138.588Z" transform="translate(-174.061 -97.279)" fill="#fff" fill-rule="evenodd"/><path d="M108.9,137.6c0,.057-.075.046-.121.061.011.15.2.018.242,0,.143.068-.2.157-.364.121C108.713,137.692,108.753,137.592,108.9,137.6Z" transform="translate(-74.614 -96.655)" fill="#fff" fill-rule="evenodd"/><path d="M235.19,218.6c.314-.111-.071,1,.242,1.091C235.022,219.651,235.411,218.817,235.19,218.6Z" transform="translate(-156.031 -148.768)" fill="#fff" fill-rule="evenodd"/><path d="M230.878,196.507a1.256,1.256,0,0,1,.97-1.212c1.729-.289,2.253,2,2.542,3.33h.97a2.471,2.471,0,0,1,.606,1.091h-1.212c-.143,1.776-.021,3.815-.061,5.69a10.568,10.568,0,0,0-1.152-.788c-.039-1.615.082-3.391-.061-4.906h-3.633a5.7,5.7,0,0,0-.061,1.333c2.022-.984,3.063,2.328,1.758,3.694-.314.018-.6-.478-.97-.606a3.193,3.193,0,0,0,.667-2.3c-.745.021-1.038.5-1.455.849v2.6c-.2.132-.713-.449-1.03-.606-.314-.093.071-1.2-.242-1.091a1.87,1.87,0,0,1-2.785-1.333v-.667c.057-1.369,2.246-1.558,2.785-.485-.011.05.025.057.061.061a3.57,3.57,0,0,0,0-1.455h-3.209c-.164-.381-.382-.71-.546-1.091H233.9c.114-1.423-1.4-3.095-2.421-1.694a11.356,11.356,0,0,0,.061,1.273c-.6.032-.56-.57-.667-1.03C230.878,196.953,230.878,196.728,230.878,196.507Zm-4.421,6.236c.77.631,1.875-.121,2.178-.727A1.155,1.155,0,0,0,226.457,202.743Z" transform="translate(-149.358 -133.764)" fill="#fff" fill-rule="evenodd"/><path d="M272.2,199.87h-.727a11.516,11.516,0,0,1-.545-1.091h4.421c-.282-.788-.6-2.061-1.875-2.057-.075-.41-.168-.8-.242-1.212,1.875.082,1.932,1.982,2.6,3.269H281.4c.107.417.389.663.485,1.091H280.07a13.3,13.3,0,0,0-.061,2.057,1.666,1.666,0,0,1-1.212,1.152c.467.663.963,1.294,1.455,1.936-.028.292-.353.292-.424.546-.874-1.308-2.186-2.175-2.482-4.057.467-.752,1.127.649,1.455-.182a3.569,3.569,0,0,0,0-1.455h-2.663c-.143,1.776-.021,3.815-.061,5.69a8.2,8.2,0,0,0-1.152-.788c-.039-1.615.082-3.391-.061-4.906H273.47c-.143,1.736-.021,3.733-.061,5.569-.253.1-.813-.513-1.152-.727a10.307,10.307,0,0,0-.061-1.815,3.1,3.1,0,0,1-.97-.3,2.277,2.277,0,0,1-.242,1.694c-1.333,1.476-3.758-.681-3.876-2.178.214-.007.271-.175.485-.182.182.642.66,1.626,1.455,1.754a1.162,1.162,0,0,0,1.212-1.815c-.492.064-.806.592-1.273.485-.4-.089-.538-.752-.667-1.03.677-.1,2.7-.824,1.515-1.455a1.417,1.417,0,0,0-.909,0c-.257.107-.578.15-.727.364a5.848,5.848,0,0,1-.606-1.091c1.615-1.226,4.207.406,3.148,2.36.324.342,1.259.321,1.455-.121A3.8,3.8,0,0,0,272.2,199.87Z" transform="translate(-176.57 -133.918)" fill="#fff" fill-rule="evenodd"/><path d="M48.04,218.594c.246-.1.068.738.121,1.03a.166.166,0,0,1,.182.121.285.285,0,0,0-.182-.061C47.99,219.45,48.211,218.826,48.04,218.594Z" transform="translate(-35.607 -148.767)" fill="#fff" fill-rule="evenodd"/><path d="M23.323,205.751H22.6a9.743,9.743,0,0,0-.545-1.03c4.36-.143,8.981-.021,13.441-.061.093.431.381.667.485,1.091h-3.33a5.7,5.7,0,0,0-.061,1.333c2.014-.991,3.08,2.342,1.754,3.694-.314.018-.6-.478-.97-.606a3.167,3.167,0,0,0,.667-2.3,2.231,2.231,0,0,0-1.455.849v2.6c-.2.164-.652-.431-.97-.546a.166.166,0,0,0-.182-.121c-.053-.289.125-1.13-.121-1.03a1.868,1.868,0,0,1-2.785-1.394v-.606c.061-1.373,2.239-1.551,2.785-.485-.011.05.025.057.061.061a3.57,3.57,0,0,0,0-1.455H27.434c-.232,1,.182,2.642-.242,3.451a1.906,1.906,0,0,1-1.03.182,2.92,2.92,0,0,1-.727-1.03c.239-.043.67.107.727-.121a10.318,10.318,0,0,0,0-2.482H24.585a16.584,16.584,0,0,0,0,3.148c.164.988,1.911,1.79,2.663,2.542a1.087,1.087,0,0,1-.061,1.754c-.442-.164-.628-.585-1.03-.788.931-.588-.442-1.415-1.212-1.936-.745-.506-1.458-.831-1.576-1.515A26.483,26.483,0,0,0,23.323,205.751Zm8.054,2.3c0-1.144-2.542-.866-2.118.727C29.9,209.381,31.377,208.707,31.377,208.054Z" transform="translate(-18.883 -139.799)" fill="#fff" fill-rule="evenodd"/><path d="M25.6,207.74a29.208,29.208,0,0,1,.061,3.209C25.518,210,25.639,208.792,25.6,207.74Z" transform="translate(-21.16 -141.788)" fill="#fff" fill-rule="evenodd"/><path d="M79.45,218.512c.018-.143.189-.135.242-.242.2.267-.111,1.038.182,1.212-.364-.061-.1-.745-.182-1.091C79.6,218.423,79.539,218.48,79.45,218.512Z" transform="translate(-55.818 -148.564)" fill="#fff" fill-rule="evenodd"/><path d="M73.354,205.751H70.146a9.743,9.743,0,0,0-.546-1.03c6.257-.143,12.775-.021,19.135-.061a2.919,2.919,0,0,1,.606,1.091H88.129c-.143,1.776-.021,3.815-.061,5.69a10.562,10.562,0,0,0-1.152-.788,9.238,9.238,0,0,0-.061-1.758H85.1c-.125.3.007.856-.3.97-.677,0-2.353-1.886-.97-2.057a7.1,7.1,0,0,0,0-2.057H81.708a11.75,11.75,0,0,0-.061,1.936c-.952.071-2.539-.267-2.785.546-.267.895.51,1.619,1.515,1.273.168-.232-.21-.5,0-.788.952-.874,2.314.9,1.212,1.576.235.488.449,1.005.667,1.515a2.727,2.727,0,0,1-.727.242c-.118-.567-.442-.927-.546-1.515a2.7,2.7,0,0,1-2.966-2.36v-.667c.185-.927,1.259-.963,2.421-.909a1.24,1.24,0,0,0,0-.849H74.627a5.7,5.7,0,0,0-.061,1.333c2.029-1,3.066,2.339,1.758,3.694-.421-.1-.61-.439-.97-.606a3.167,3.167,0,0,0,.667-2.3c-.742.025-1.045.488-1.455.849v2.6c-.232.16-.688-.474-1.03-.606-.289-.175.018-.945-.182-1.212-.053.107-.225.1-.242.242a1.927,1.927,0,0,1-2.6-1.455v-.667c.05-1.369,2.253-1.562,2.785-.485-.011.05.025.057.061.061A3.433,3.433,0,0,0,73.354,205.751Zm11.748,0a7.1,7.1,0,0,0,0,2.057H86.86a6.634,6.634,0,0,0,0-2.057Zm-13.866,3.088a1.687,1.687,0,0,0,2.178-.788A1.163,1.163,0,0,0,71.237,208.839Z" transform="translate(-49.48 -139.799)" fill="#fff" fill-rule="evenodd"/><path d="M155.37,218.79c.053-.089.089-.193.242-.182v1.03c-.139-.2-.021-.663-.061-.97C155.47,218.691,155.456,218.776,155.37,218.79Z" transform="translate(-104.67 -148.781)" fill="#fff" fill-rule="evenodd"/><path d="M209.484,207.74c.217,1.5-.135,3.569.182,4.967-.324-.232-.182-.767-.182-1.152Z" transform="translate(-139.47 -141.788)" fill="#fff" fill-rule="evenodd"/><path d="M135.48,205.771h-1.815c-.175-.371-.374-.717-.546-1.091h29.247a4.494,4.494,0,0,0,.546,1.03,5.176,5.176,0,0,1-1.273.061c-.143,1.776-.021,3.815-.061,5.69-.349-.239-.66-.51-1.03-.727-.317-1.4.036-3.469-.182-4.967h-1.394c-.143,1.776-.021,3.815-.061,5.69a10.924,10.924,0,0,0-1.152-.788,23.438,23.438,0,0,0-.061-2.724c-.71.118-1.3-.16-1.875,0-1.376.385.05,2.2.424,2.906a1.491,1.491,0,0,0-.485.3c-.435-1-2.182-2.424-1.333-3.754.5-.781,1.94-.492,3.269-.546.139-.242.021-.745.061-1.091h-5.391c-.135.371-.064,1.095.182.97a2.9,2.9,0,0,1,.727,1.515c.242,2.838-4.05,4.453-5.148,1.633-1.458.977-3.676-.043-3.33-1.936.061,0,.046-.075.061-.121-.143-.139-.542-.021-.788-.061h-.061a8.294,8.294,0,0,0-.485-1.03c.988-.143,2.239-.021,3.33-.061a2.883,2.883,0,0,1,.727,1.091c-1.02-.385-2.189.6-1.875,1.333.324.767,2.168-.471,2.36-.727-.681-.866-.125-2.132,1.273-1.815a2.705,2.705,0,0,1,.485.909,3.355,3.355,0,0,0-1.273.121.957.957,0,0,0,.121.788c.267.068.581-.292,1.03-.242.107.36.364.563.364,1.03-.652-.029-1.219.381-1.091.909.207.845,2.41.118,2.6-.485a2.849,2.849,0,0,1-1.212-1.576V207.4a1.334,1.334,0,0,1,.788-.97.78.78,0,0,0,0-.667H142.5c-.143,1.776-.021,3.815-.061,5.69a10.93,10.93,0,0,0-1.152-.788v-1.03c-.15-.011-.189.093-.242.182a1.848,1.848,0,0,1-2.966-.909,1.8,1.8,0,0,1-1.576-.546c-.346.139-.492.478-.909.546a19.464,19.464,0,0,0,1.455,2c-.1.2-.3.3-.424.485a1.994,1.994,0,0,1-.788-1.091,5.106,5.106,0,0,1-1.152-1.394c-.271-.392-.977-1.54-.242-1.758.406-.121.463.221.727.364.121-.061.26-.1.3-.242C135.566,206.944,135.605,205.735,135.48,205.771Zm1.273,0a6.3,6.3,0,0,0,0,1.936c1.415.567,1.451-.973,2.6-1.152a2.091,2.091,0,0,1,1.758.546c.342.46.118-.938.182-1.333h-3.633C137.359,205.771,137.056,205.771,136.753,205.771Zm15.62,1.818c-.759-1.922-1.925,1.351-.364,1.576.125-.239.346-.382.364-.727A1.2,1.2,0,0,0,152.373,207.589Zm-12.593,1.633c.724-.225,1.444-.453,1.515-1.333-.909-.973-3.594.446-2.3,1.333A1.065,1.065,0,0,0,139.78,209.222Zm8.721-.546c-.121,0-.078-.164-.242-.121.036.107-.075.357.061.364C148.337,208.8,148.483,208.8,148.5,208.677Z" transform="translate(-90.353 -139.819)" fill="#fff" fill-rule="evenodd"/><path d="M187,207.74c0,.378-.064.831.182.97C186.934,208.835,186.862,208.114,187,207.74Z" transform="translate(-124.977 -141.788)" fill="#fff" fill-rule="evenodd"/><path d="M139.74,207.739c.125-.036.086,1.173,0,1.515Z" transform="translate(-94.612 -141.786)" fill="#fff" fill-rule="evenodd"/><path d="M118,207.74a6.634,6.634,0,0,1,0,2.057Z" transform="translate(-80.624 -141.788)" fill="#fff" fill-rule="evenodd"/><path d="M149.311,209.073c.264.025.053-.9.121-1.273-1.169-.039-2.5.082-3.572-.061h3.633C149.429,208.136,149.65,209.53,149.311,209.073Z" transform="translate(-98.55 -141.788)" fill="#fff" fill-rule="evenodd"/><path d="M175.627,215.9c-.132-.007-.025-.257-.061-.364.164-.043.121.121.242.121C175.791,215.783,175.645,215.78,175.627,215.9Z" transform="translate(-117.661 -146.8)" fill="#fff" fill-rule="evenodd"/><path d="M272.21,207.6a1.418,1.418,0,0,1,.909,0Z" transform="translate(-179.852 -141.653)" fill="#fff" fill-rule="evenodd"/><path d="M48.034,209.134a6.229,6.229,0,0,0,.061-1.394,3.57,3.57,0,0,1,0,1.455C48.056,209.191,48.02,209.184,48.034,209.134Z" transform="translate(-35.601 -141.788)" fill="#fff" fill-rule="evenodd"/><path d="M79.957,209.134a6.229,6.229,0,0,0,.061-1.394,3.57,3.57,0,0,1,0,1.455C79.981,209.191,79.946,209.184,79.957,209.134Z" transform="translate(-56.143 -141.788)" fill="#fff" fill-rule="evenodd"/><path d="M235.184,209.134a6.229,6.229,0,0,0,.061-1.394,3.57,3.57,0,0,1,0,1.455C235.206,209.191,235.17,209.184,235.184,209.134Z" transform="translate(-156.025 -141.788)" fill="#fff" fill-rule="evenodd"/><path d="M299.89,209.195V207.74A3.569,3.569,0,0,1,299.89,209.195Z" transform="translate(-197.663 -141.788)" fill="#fff" fill-rule="evenodd"/><path d="M143.175,207.74v1.936A6.3,6.3,0,0,1,143.175,207.74Z" transform="translate(-96.774 -141.788)" fill="#fff" fill-rule="evenodd"/><path d="M187.12,213.679v-.849A1.2,1.2,0,0,1,187.12,213.679Z" transform="translate(-125.1 -145.063)" fill="#fff" fill-rule="evenodd"/><path d="M164.587,213.515c0-.3-.628.025-.727-.182.242.039.645-.078.788.061C164.634,213.44,164.644,213.511,164.587,213.515Z" transform="translate(-110.133 -145.381)" fill="#fff" fill-rule="evenodd"/><path d="M33.6,210.232V207.75A10.318,10.318,0,0,1,33.6,210.232Z" transform="translate(-26.315 -141.794)" fill="#fff" fill-rule="evenodd"/><path d="M29.045,207.74v3.148A16.584,16.584,0,0,1,29.045,207.74Z" transform="translate(-23.336 -141.788)" fill="#fff" fill-rule="evenodd"/><path d="M118.043,218.328a9.98,9.98,0,0,1-.061-1.758A8.949,8.949,0,0,1,118.043,218.328Z" transform="translate(-80.606 -147.47)" fill="#fff" fill-rule="evenodd"/></g></g></svg>