<?xml version="1.0" encoding="utf-8"?>
<!-- Generator: Adobe Illustrator 25.4.1, SVG Export Plug-In . SVG Version: 6.00 Build 0)  -->
<svg version="1.1" id="Layer_1" xmlns="http://www.w3.org/2000/svg" xmlns:xlink="http://www.w3.org/1999/xlink" x="0px" y="0px"
	 viewBox="0 0 168.9 73.4" style="enable-background:new 0 0 168.9 73.4;" xml:space="preserve">
<style type="text/css">
	.st0{fill:#FAA819;}
	.st1{fill:#21A64A;}
	.st2{fill-rule:evenodd;clip-rule:evenodd;fill:#282828;}
</style>
<g transform="translate(-13.168 -22.76)">
	<rect x="60.8" y="50.5" class="st0" width="13.1" height="2.4"/>
	<rect x="61.8" y="54.8" class="st1" width="11.4" height="2.4"/>
	<g transform="translate(13.168 22.76)">
		<path class="st2" d="M75.3,0.1C76,0,76.6,0,77.3,0.1H75.3z"/>
		<path class="st2" d="M75.9,2.2c0.2-0.1,0.5-0.1,0.7,0H75.9z"/>
		<path class="st2" d="M157.9,8.8c0.4-0.1,0.7-0.1,1.1,0H157.9z"/>
		<path class="st2" d="M85.3,10.4c0.1,0.2,0.1,0.5,0,0.7V10.4z"/>
		<path class="st2" d="M157.8,11c0.4-0.1,0.9-0.1,1.3,0H157.8z"/>
		<path class="st2" d="M25.6,12.1c0.4-0.1,0.8-0.1,1.2,0H25.6z"/>
		<path class="st2" d="M81.4,12.1c0.3-0.1,0.7-0.1,1,0H81.4z"/>
		<path class="st2" d="M25.5,14.3c0.6-0.1,1.2-0.1,1.8,0H25.5z"/>
		<path class="st2" d="M81,14.3c0.6-0.1,1.1-0.1,1.7,0H81z"/>
		<path class="st2" d="M166.7,18.8c0.1,0.4,0.1,0.9,0,1.3V18.8z"/>
		<path class="st2" d="M12.3,32.6c9.1-0.1,18.6-0.1,27.7,0H12.3z"/>
		<path class="st2" d="M70,33.2c0.1-0.1,0.5,0,0.7-0.1C70.6,33.3,70.2,33.2,70,33.2z"/>
		<path class="st2" d="M16.8,36.9c-0.1-1,0-2,0.1-3h6.5c-2.1,0.1-4.4,0-6.5,0.1L16.8,36.9L16.8,36.9z"/>
		<path class="st2" d="M25.3,34C29,33.9,33,34,36.9,34C33.1,34.1,29.1,34,25.3,34z"/>
		<path class="st2" d="M38.7,34h1.6c-0.5,0.1-1,0.1-1.5,0.1c-0.1,0.1,0,0.4-0.1,0.5C38.6,34.5,38.7,34.2,38.7,34z"/>
		<path class="st2" d="M25,41.2c-0.3,0.1-0.2-0.5-0.2-0.7c-0.1-2,0.1-4.4,0-6.4C25.1,36,24.7,39.1,25,41.2z"/>
		<path class="st2" d="M81,34.2c0.8-0.1,1.6-0.1,2.4,0H81z"/>
		<path class="st2" d="M93.6,34.2c0.3-0.1,0.7-0.1,1,0H93.6z"/>
		<path class="st2" d="M73.1,34.2h1.6c0.1,0,0.3-0.1,0.3,0.1C74.4,34.3,73.7,34.2,73.1,34.2z"/>
		<path class="st2" d="M76.6,34.2C76.6,34.2,76.6,34.2,76.6,34.2l2.5-0.1c0,0.4,0,0.9-0.1,1.3v-1.2C78.2,34.2,77.4,34.2,76.6,34.2z"
			/>
		<path class="st2" d="M93.2,34.2c0-0.1,0.3,0,0.4-0.1h1C94.1,34.2,93.7,34.3,93.2,34.2z"/>
		<path class="st2" d="M4.9,35.2c0-0.2-0.1-0.6,0.1-0.7C4.9,34.7,5,35.1,4.9,35.2z"/>
		<path class="st2" d="M2.7,34.6v2.1C2.6,36,2.6,35.3,2.7,34.6z"/>
		<path class="st2" d="M58.3,34.6L58.3,34.6c0,0.2,0.1,0.5,0,0.6V34.6z"/>
		<path class="st2" d="M20.6,34.8c0.3-0.1,0.6-0.1,0.9,0H20.6z"/>
		<path class="st2" d="M103.3,34.8c0.1,0.6,0.1,1.2,0,1.8V34.8z"/>
		<path class="st2" d="M60.5,34.8v1.6C60.4,35.9,60.4,35.4,60.5,34.8z"/>
		<path class="st2" d="M49.8,35.1L49.8,35.1l0.1,1.1h-0.1V35.1z"/>
		<path class="st2" d="M105.4,35.1c0.1,0.4,0.1,0.7,0,1.1V35.1z"/>
		<path class="st2" d="M89.7,35.9c0.2-0.1,0.7,0,1-0.1h1C91,35.9,90.3,36,89.7,35.9z"/>
		<path class="st2" d="M33.7,36c0.2-0.1,0.4-0.1,0.6,0H33.7z"/>
		<path class="st2" d="M4.9,36.2c0.1,0.1,0,0.5,0.1,0.7C4.8,36.8,4.9,36.4,4.9,36.2z"/>
		<path class="st2" d="M49.8,36.2L49.8,36.2c0,0.2,0.1,0.6,0,0.7V36.2z"/>
		<path class="st2" d="M72.3,36.5c0,0.3,0.1,0.7-0.1,0.8C72.3,37,72.2,36.6,72.3,36.5z"/>
		<path class="st2" d="M31.2,36.6c0.2,0.2-0.6,0.1-0.8,0.1C30.5,36.6,31.1,36.8,31.2,36.6z"/>
		<path class="st2" d="M26.6,36.7c0.2,0.1,0.8-0.2,0.8,0.2h-0.1C27.3,36.6,26.7,36.9,26.6,36.7z"/>
		<path class="st2" d="M90.2,36.9c0.5-0.1,1-0.1,1.5,0H90.2z"/>
		<path class="st2" d="M40.1,37c0.1,0.2,0.1,0.5,0,0.7V37z"/>
		<path class="st2" d="M17.5,37.1h0.6C17.9,37.2,17.7,37.2,17.5,37.1z"/>
		<path class="st2" d="M79,37.2c0,0.5,0,1-0.1,1.5C78.9,38.2,78.9,37.7,79,37.2z"/>
		<path class="st2" d="M70,37.4c0.1-0.1,0.5,0,0.8-0.1C70.7,37.5,70.3,37.3,70,37.4z"/>
		<path class="st2" d="M91.7,37.6c0,0.4,0,0.9-0.1,1.3C91.6,38.5,91.6,38,91.7,37.6z"/>
		<path class="st2" d="M88.5,38.6c0-0.2-0.1-0.5,0.1-0.5L88.5,38.6C88.6,38.7,88.5,38.7,88.5,38.6z"/>
		<path class="st2" d="M18,38.5h0.6C18.4,38.6,18.2,38.6,18,38.5z"/>
		<path class="st2" d="M72.1,38.8c1-0.1,1.9-0.1,2.9,0H72.1z"/>
		<path class="st2" d="M75,38.9c0,0.2,0.1,0.5-0.1,0.6C75,39.3,74.9,39,75,38.9z"/>
		<path class="st2" d="M21,39.9h0.7C21.5,40,21.3,40,21,39.9z"/>
		<path class="st2" d="M25.4,57.1c0.2,0,0.6-0.1,0.8,0.1C25.9,57.1,25.5,57.2,25.4,57.1z"/>
		<path class="st2" d="M26.4,57.1c0.1-0.1,0.5,0,0.7-0.1C27,57.2,26.6,57.1,26.4,57.1z"/>
		<path class="st2" d="M81,57.1c0.2,0,0.6-0.1,0.7,0.1C81.5,57.1,81.2,57.2,81,57.1z"/>
		<path class="st2" d="M82,57.1c0.1-0.1,0.5,0,0.8-0.1C82.6,57.2,82.2,57.1,82,57.1z"/>
		<path class="st2" d="M82.4,59.2c0.1-0.1,0.4,0,0.6-0.1C82.9,59.3,82.5,59.2,82.4,59.2z"/>
		<path class="st2" d="M81.5,62.7v0.7C81.4,63.2,81.4,63,81.5,62.7z"/>
		<path class="st2" d="M31,66c0.1,0.3,0.1,0.6,0,0.8V66z"/>
		<path class="st2" d="M32.2,66c0,0.6,0,1.3-0.1,1.9C32.1,67.2,32.2,66.6,32.2,66z"/>
		<path class="st2" d="M34.3,66c0.1,0.7,0.1,1.4,0,2.1V66z"/>
		<path class="st2" d="M35.6,68c-0.1-0.7-0.1-1.4,0-2.1V68z"/>
		<path class="st2" d="M38.7,66c0,1.9,0.1,3.9-0.1,5.7C38.6,69.8,38.5,67.7,38.7,66z"/>
		<path class="st2" d="M52.2,66c0,1.9,0.1,3.9-0.1,5.7C52.1,69.8,52,67.7,52.2,66z"/>
		<path class="st2" d="M52.9,66h4.8C56.1,66.1,54.5,66.1,52.9,66z"/>
		<path class="st2" d="M60.8,66c0.1,0.2,0.1,0.5,0,0.7V66z"/>
		<path class="st2" d="M63.6,66h3.8c0,0.3,0.1,0.8-0.1,1.1v-1C66.1,66,64.7,66.1,63.6,66z"/>
		<path class="st2" d="M68.6,66c0,1.9,0.1,3.9-0.1,5.7C68.6,69.8,68.5,67.7,68.6,66z"/>
		<path class="st2" d="M71.3,66c0,1.9,0.1,3.9-0.1,5.7C71.3,69.8,71.1,67.7,71.3,66z"/>
		<path class="st2" d="M84.1,66c0.1,1.5,0,3.3,0.1,4.9C84,69.3,84.2,67.6,84.1,66z"/>
		<path class="st2" d="M85.4,66c0,1.9,0.1,3.9-0.1,5.7C85.4,69.8,85.3,67.7,85.4,66z"/>
		<path class="st2" d="M95.6,66c0.1,0.5,0.1,1,0,1.5V66z"/>
		<path class="st2" d="M98.3,66c0.1,1.5,0,3.3,0.1,4.9C98.2,69.3,98.3,67.6,98.3,66z"/>
		<path class="st2" d="M99.5,71.6c0-1.9-0.1-3.9,0.1-5.7C99.5,67.8,99.6,69.9,99.5,71.6z"/>
		<path class="st2" d="M103.5,66c0,0.7,0,1.4-0.1,2.1C103.4,67.3,103.4,66.6,103.5,66z"/>
		<path class="st2" d="M60,67.6v0.6C59.9,68,59.9,67.8,60,67.6z"/>
		<path class="st2" d="M28.5,67.7v0.7C28.4,68.2,28.4,67.9,28.5,67.7z"/>
		<path class="st2" d="M9.6,67.8v0.6C9.5,68.2,9.5,68,9.6,67.8z"/>
		<path class="st2" d="M21,67.8v0.7C20.9,68.3,20.9,68,21,67.8z"/>
		<path class="st2" d="M76.4,67.8v0.7C76.3,68.3,76.3,68,76.4,67.8z"/>
		<path class="st2" d="M67.4,68.1c0.1,0.9,0.1,1.8,0.1,2.7C67.3,70,67.3,69,67.4,68.1z"/>
		<path class="st2" d="M95.7,70.8c-0.1-0.6-0.1-1.2-0.1-1.8C95.7,69.6,95.7,70.2,95.7,70.8z"/>
		<path class="st2" d="M9.1,19.5c0.3-0.4,0.7-0.7,1-1C9.8,18.8,9.5,19.2,9.1,19.5z"/>
		<path class="st2" d="M8.9,51.6c0.2,0.1,0.4,0.4,0.6,0.5v0.1C9.3,52,9.1,51.8,8.9,51.6z"/>
		<path class="st2" d="M9.8,52.4c0.3,0.3,0.4,0.2,0.6,0.6C10.1,52.9,9.9,52.7,9.8,52.4z"/>
		<path class="st2" d="M42.5,52.8c0.3-0.3,0.5-0.6,0.8-0.8C43.1,52.2,42.8,52.5,42.5,52.8z"/>
		<path class="st2" d="M64.6,51.7c0.5,0.4,0.9,0.9,1.3,1.3C65.5,52.6,65,52.2,64.6,51.7z"/>
		<path class="st2" d="M98.1,52.8c0.3-0.3,0.6-0.6,0.9-0.9C98.7,52.2,98.4,52.5,98.1,52.8z"/>
		<path class="st2" d="M161.9,29.7c0.4-0.4,0.7-0.8,1.2-1.2C162.7,28.9,162.3,29.3,161.9,29.7z"/>
		<path class="st2" d="M166.2,11.8c-0.2-0.2-0.4-0.4-0.6-0.6C165.9,11.4,166.1,11.6,166.2,11.8z"/>
		<path class="st2" d="M26.8,12.1c3.4,0.1,6.8,0.9,9.9,2.4c0.4,0.2,0.8,0.6,1.2,0.6c0.8-0.2,1.6-0.6,2.3-1
			C48.5,10.3,56.6,6.3,65,2.8c3.3-1.5,6.8-2.4,10.4-2.7h1.9c6.8,0.5,10.9,5,10.1,12.6c9.2,2.7,15.3,8.5,17.6,18.1
			c12.9-5.8,25.6-11.7,38.6-17.6c4.3-1.9,8.7-4.1,14.3-4.4h1.1c2.4,0,4.8,0.9,6.7,2.4c0.2,0.2,0.4,0.4,0.6,0.6
			c2.1,2.3,3.3,6.7,2.2,11.1c-0.6,2.6-1.9,5-3.8,7c-0.5,0.6-1.2,1.6-2.1,1.5c-0.6-0.1-1-0.7-0.9-1.4c0-0.1,0.1-0.2,0.1-0.3
			c0.4-0.4,0.8-0.7,1.2-1.2c2.2-2.3,3.5-5.3,3.6-8.4c0.1-0.4,0.1-0.9,0-1.3c-0.4-4.7-2.7-7.5-7.6-7.8c-0.4-0.1-0.9-0.1-1.3,0
			c-5.5,0.4-9.9,2.5-14.2,4.5c-12.8,5.8-25.5,11.5-38.3,17.6c0,0.7,0.1,1.3,0.1,2.1v1.1C105.3,42,103,47.6,99,51.8
			c-0.3,0.3-0.6,0.6-0.9,0.9C94,56.7,88.6,59,83,59.2c-0.2,0-0.5-0.1-0.6,0.1C76.3,59.3,70.4,57.1,66,53c-0.4-0.5-0.9-0.9-1.3-1.3
			c-4.2-4.5-6.4-10.4-6.3-16.5c0.1-0.1,0-0.4,0.1-0.6v-0.8c0.1-0.5,0.1-1,0.2-1.6c0.1-0.8,0.3-1.5,0.4-2.2c0.2-0.8,0.5-1.6,0.7-2.4
			c1.1-3.1,2.9-5.9,5.1-8.3c0.3-0.1,0.6-0.6,0.8-0.8c4.2-4.1,9.9-6.4,15.7-6.5h1c0.9,0,1.9,0.1,2.8,0.2c0.1-0.4,0.2-0.9,0.1-1.3
			c0.1-0.2,0.1-0.5,0-0.7c-0.3-5.3-3.3-8-8.7-8.2c-0.2-0.1-0.5-0.1-0.7,0c-3.5,0.2-6.9,1.1-10.1,2.5c-8.8,3.7-17,7.9-25.8,11.8
			c0.7,0.6,1.4,1.2,2.1,1.8c0.4,0.5,0.9,0.9,1.3,1.3c2.2,2.4,3.8,5.2,5,8.2c0.2,0.8,0.5,1.5,0.7,2.4c0.1,0.6,0.3,1.2,0.4,1.9
			c0,0.3,0,0.5,0.1,0.8v0.1c0,0.1-0.1,0.4,0.1,0.4v0.1c0,0.2-0.1,0.6,0.1,0.7v2.8c-0.3,5.6-2.6,10.9-6.4,15
			c-0.3,0.3-0.6,0.5-0.8,0.8c-4.3,4.1-10,6.4-15.9,6.5c-6,0.1-11.8-2.1-16.2-6.2c-0.2-0.4-0.3-0.3-0.6-0.6c-0.1-0.1-0.2-0.1-0.2-0.2
			v-0.1c-0.2-0.2-0.4-0.4-0.6-0.5c-3.8-4.1-6-9.4-6.2-14.9v-2.1c0-0.2,0-0.5,0.1-0.7c-0.6,0.3-3,1.3-2.8-0.7C0.2,32,2.2,32,3.1,31.4
			c0.8-4.4,2.9-8.6,6-11.9c0.4-0.3,0.7-0.7,1-1c4.2-3.9,9.7-6.2,15.5-6.3L26.8,12.1z M25.5,14.3c-4.8,0.1-9.3,1.9-13,5
			c-3.4,2.8-5.8,6.7-6.8,11c10-4.6,20-9.2,29.8-13.9c-2.6-1.2-5.4-1.9-8.2-2C26.6,14.2,26,14.2,25.5,14.3z M81,14.3
			c-5.4,0.2-10.5,2.4-14.3,6.2c-3.8,3.8-6,9-6.2,14.4c-0.1,0.5-0.1,1.1,0,1.6c0.2,5.1,2.2,10,5.7,13.8c0.4,0.4,0.7,0.8,1.2,1.2
			c3.7,3.5,8.6,5.4,13.7,5.6c0.1,0.1,0.5,0,0.7,0.1H82c0.2,0,0.6,0.1,0.8-0.1c5.2-0.2,10.1-2.3,13.9-5.9c0.2-0.2,0.5-0.4,0.7-0.7
			c3.7-3.8,5.8-8.7,5.9-14c0.1-0.6,0.1-1.2,0-1.8V34c-0.8,0.5-2.6,0.8-2.5-0.7c0.1-1.1,1.5-1,2.2-1.6c-0.7-4-2.6-7.6-5.3-10.6
			c-0.4-0.4-0.8-0.9-1.3-1.3c-2.7-2.5-6-4.2-9.5-5c-0.8,2.5-2.2,4.7-4,6.6c-0.2,0.2-0.6,0.7-1,1c-0.5,0.4-1.1,0.3-1.5-0.1
			C80,22,80,21.5,80.2,21.1c0.4-0.3,0.8-0.7,1.1-1.1c1.5-1.6,2.7-3.5,3.3-5.6c-0.6-0.1-1.3-0.1-1.9-0.1C82.2,14.2,81.6,14.2,81,14.3
			L81,14.3z M40.8,19.9c-0.9-0.8-1.9-1.6-3-2.2C26.9,22.8,16,27.9,5,32.8c-0.1,0.5-0.1,1.1-0.1,1.6c-0.1,0.1,0,0.5-0.1,0.7v1
			c0,0.2-0.1,0.6,0.1,0.7c0.2,5,2.2,9.7,5.6,13.3c0.4,0.4,0.7,0.8,1.2,1.2c3.7,3.5,8.6,5.5,13.7,5.7c0.1,0.1,0.5,0,0.8,0.1h0.2
			c0.2,0,0.6,0.1,0.7-0.1c9.3-0.7,15.4-5.5,18.6-12.5c1.8-4.1,2.4-8.7,1.5-13.2c-0.8-3.8-2.6-7.4-5.3-10.3
			C41.6,20.7,41.2,20.3,40.8,19.9z"/>
		<path class="st2" d="M64.8,19.5c0.3-0.3,0.5-0.6,0.8-0.8C65.4,18.9,65.2,19.3,64.8,19.5z"/>
		<path class="st2" d="M43.6,19.6c-0.5-0.4-0.9-0.9-1.3-1.3C42.7,18.7,43.1,19.2,43.6,19.6z"/>
		<path class="st2" d="M66.2,50.3c0.4,0.4,0.8,0.7,1.2,1.2C66.9,51.1,66.6,50.7,66.2,50.3z"/>
		<path class="st2" d="M96.7,51.2c0.2-0.2,0.4-0.5,0.7-0.7C97.1,50.8,96.9,51,96.7,51.2z"/>
		<path class="st2" d="M96.4,19.9c0.4,0.4,0.9,0.8,1.3,1.3C97.2,20.7,96.8,20.3,96.4,19.9z"/>
		<path class="st2" d="M82.8,21.4c-0.3,0.4-0.6,0.7-1,1C82.2,22.1,82.7,21.6,82.8,21.4z"/>
		<path class="st2" d="M80.2,21.1c0.3-0.4,0.7-0.8,1.1-1.1C81,20.4,80.6,20.7,80.2,21.1z"/>
		<path class="st2" d="M11.7,51.4c-0.4-0.4-0.8-0.7-1.2-1.2C11,50.6,11.3,51,11.7,51.4z"/>
		<path class="st2" d="M42,21.1c-0.4-0.4-0.8-0.8-1.2-1.2C41.2,20.3,41.6,20.7,42,21.1z"/>
		<path class="st2" d="M13,33.9c-0.2-0.4-0.4-0.7-0.6-1c0,0.1,0.2,0,0.2,0.1c0-0.1-0.1-0.3,0.1-0.4H40c0.2,0.5,0.5,0.9,0.8,1.3
			c-0.1,0.1-0.4,0-0.5,0.1h-1.6c0.3-0.3,1.1-0.1,1.6-0.1c-0.5-0.1-1-0.1-1.5-0.1c0.2-0.3,1.2,0.2,1.5-0.1c0,0-1.4-0.1-1.6-0.1
			c0.3,0.1,0,0.1,0.2,0.2c0,0.1-0.2,0.1-0.2,0.2c0,0.1,0.1,0,0.1,0c0,0.2-0.1,0.5,0.1,0.6c-0.2,0.6,0.8,0.9,1,1.5
			c-0.1,0-0.1-0.2-0.2-0.2c-0.2,0,0.3,0.3,0,0.2c0-0.1,0-0.1-0.1-0.1c-0.2,0.1,0,0.3-0.2,0.4c0.2-0.3,0.2,0,0.5,0
			c-0.1-0.3-0.3,0.1-0.4-0.4c0.1,0.2,0.2,0.1,0.4,0.1h0.1c0,0.3,0.2,0.4,0.2,0.8v0.7c-0.1,1-0.6,2-1.5,2.6c0-0.1-0.2-0.2-0.2-0.1
			c-0.1-0.1,0.1-0.2-0.1-0.4c-0.2,0.3,0.1,0.4,0.1,0.5c-0.1,0.2-0.3,0.3-0.4,0.4c0.1-0.1-0.1-0.3-0.2-0.2c0,0.1,0.2-0.1,0.2,0.1
			c0,0.1-0.2,0.1-0.2,0.1c0,0.1,0.1,0,0.1,0.1c-1.7,1.5-5.1,0.7-5.6-1.5c0.1,0.1,0.1,0,0.2,0c-0.1-0.2-0.1-0.2,0-0.4
			c-0.1,0,0,0.2-0.2,0.2c-0.1-0.1-0.4,0.2-0.5,0.3h-0.1c0-0.1,0.3-0.2,0.1-0.3c-0.1,0.1,0,0.2-0.2,0.2c0.1-0.4-0.2,0,0.1,0.1v0.1
			c-1,0.9-2.5,1-3.5,0.2c0-0.1-0.1-0.1-0.1-0.2v-0.1c0.2,0,0.3,0.1,0.2,0.2c0.3-0.3-0.3-0.2-0.4-0.4c0.1-0.2,0.1,0.2,0.2,0.1
			c0-0.1,0-0.1,0.1-0.1c-0.1,0-0.2-0.1-0.2-0.2c-0.1,0.1,0,0.1-0.1,0.2c-0.1,0-0.2-0.2-0.3-0.2c-0.4-0.6-0.5-1.4-0.2-2.1h0.1
			c0-0.4-0.5-0.1-0.8-0.2v-0.1c0.2-0.1,0-0.1,0.1-0.4c-0.2,0-0.1,0.3-0.2,0.3h-0.1c-0.2-0.4-0.4-0.8-0.7-1.2c1.4-0.1,3.1,0,4.7-0.1
			c0.2,0.5,0.5,0.9,0.7,1.3c-0.1,0.2-0.7-0.1-0.8,0.1c-0.4-0.1-0.9,0.1-1.2,0.4c0-0.2-0.3,0.2-0.4-0.2c-0.1,0.1-0.1,0.1-0.1,0.2
			c0.1,0,0-0.1,0.1-0.1c0.1,0,0,0.2,0.1,0.2c0.1,0,0-0.1,0-0.2c0.1,0,0.1,0.1,0.1,0.1c-0.2,0.4-0.7,0.9-0.5,1.6
			c0.2,0.4,1,0.2,1.4,0.1c0,0.2-0.5,0.2-0.2,0.3c0.1,0,0-0.1-0.1-0.1c0-0.1,0.2,0,0.3-0.1c0,0.1,0,0.1-0.1,0.1c0,0.2,0.1-0.1,0.2,0
			c0-0.2-0.3-0.1-0.1-0.3c0.6-0.3,1.2-0.7,1.8-1.2c0,0.2,0.1,0,0.2,0.2c0.1-0.1,0.1-0.2,0.1-0.3c-0.1-0.2-0.2,0.3-0.3,0.1
			c0.1-0.2,0.3-0.2,0.4-0.4c-1.1-1.2,0.1-3,1.9-2.5c-0.1,0.1-0.1,0.2,0,0.1c0.2,0-0.1,0.1,0,0.2c0.1,0,0.1-0.1,0.1,0
			c0.2-0.1-0.1-0.2-0.1-0.3c0.4,0.3,0.5,1,0.8,1.3c-0.1,0.1-0.4-0.1-0.6,0c-0.2-0.1-0.4-0.1-0.6,0c-0.9-0.1-1,1.3-0.2,1.5
			c0.5-0.2,1-0.3,1.5-0.2c0.1,0.3,0.2,0.6,0.4,0.8c-0.1,0,0,0.1-0.1,0.1c-0.1,0,0-0.1-0.1-0.1c-0.2,0-0.1,0.2-0.2,0.3
			c0.2-0.1,0.2-0.1,0.1-0.2c0.1,0,0.1,0.1,0.1,0.2c0.1,0,0.1-0.1,0.1-0.2c0.1,0.2,0.2,0.3,0.2,0.5c-0.9,0.1-2.2,0.1-1.9,1.2
			c0.1,0.4,0.7,0.5,1.4,0.4c1.1-0.1,2.9-1,2.7-1.5c-0.1-0.2,0.1,0,0.2,0.1c0-0.3-0.4-0.2-0.1-0.4c-0.1,0-0.1,0.1-0.2,0.1
			c0,0.1,0.3,0.1,0,0.1c-1.8-0.4-2.7-3.7-0.2-4V34c0-0.1-0.3,0-0.4-0.1C33,34,29,33.9,25.3,34v7.5c-0.5-0.2-0.9-0.5-1.3-0.8
			c0.1-0.1,0.2,0.1,0.3,0.2c-0.1-0.3,0-0.2-0.2-0.2c0-0.1,0-0.1,0.1-0.1c0-0.2-0.2,0.1-0.3,0c0.2-0.1-0.1-0.2-0.2-0.1v-0.8
			c0.1-0.1,0-0.4,0.1-0.6c-0.1,0-0.2,0-0.2,0.1c-0.2,0.1-0.3,0.2-0.5,0.3c0-0.1,0.2-0.1,0.2-0.2c-0.2,0.1-0.4,0.3-0.7,0.1
			c0.1,0.2,0.4,0,0.4,0.1c-0.1,0.1-0.2,0.2-0.4,0.2c0-0.1-0.3-0.1,0-0.1c-0.1-0.1-0.4,0.1-0.5,0.1c0.1,0.2,0.2-0.1,0.4,0
			c0,0.1-0.4,0.1-0.1,0.1c-0.2,0.1-0.4,0.2-0.6,0.2H21c-0.3,0-0.6-0.1-0.8-0.3c0.1,0,0.1-0.1,0.2-0.1c-0.2-0.1-0.2,0.1-0.2-0.2
			c-0.2,0.1-0.3-0.1-0.2,0.1c-0.1-0.1-0.2-0.2-0.4-0.2c-0.2-0.2-0.4-0.4-0.6-0.6c0-0.1-0.1-0.1-0.1-0.2c-0.1,0-0.1,0.1-0.3,0.1H18
			c-0.5,0-1-0.4-1.2-0.8c-0.3,0.4-0.8,0.8-1.2,1.2c0.2,0.4,0.5,0.8,0.8,1.2h-0.2c0,0.2,0.3,0,0.1,0.2c0,0.1,0.1,0,0.1-0.1
			c0.2,0.2,0.2,0.3,0.1,0.4c0.1,0,0.1-0.1,0.2-0.1c-0.1,0,0-0.1-0.2-0.2c0.5,0.4,0.9,0.8,1.2,1.3c-0.2,0.2-0.4,0.4-0.7,0.5
			c-0.4-0.5-0.7-1-1.1-1.5c0.1,0,0.3,0.1,0.4,0.2c-0.2-0.2,0-0.3,0.1-0.4c-0.4,0-0.1-0.3-0.4,0.2c-0.3-0.1,0.2-0.3-0.2-0.1
			c-0.2,0-0.1-0.3-0.3-0.3V40c0.1-0.1,0.2-0.1,0.3,0c0-0.2-0.2,0.1-0.2-0.2c0.2-0.2,0.2,0.2,0.3-0.1c-0.1-0.1-0.2,0-0.4,0
			c-0.1-0.1-0.1-0.2,0-0.2c0,0,0,0,0,0c0,0.1-0.1,0.1-0.2,0c-0.1,0-0.1-0.1,0-0.2c0,0,0,0,0,0c-0.4,0.3,0.2,0.2,0.2,0.6
			c-0.1,0-0.1-0.1-0.2-0.1c-0.3-0.3-0.5-0.6-0.7-1c0.1-0.1,0.2,0,0.3-0.2c0-0.2-0.1,0.1-0.1,0.1c-0.2-0.1,0.1-0.2,0-0.3
			c-0.1,0,0,0.3-0.2,0.3c-0.4-0.5-1.9-2.2-0.5-2.6c-0.2,0.2-0.2,0-0.3,0.4c-0.1,0,0-0.1-0.1-0.2c-0.2,0.1,0.1,0.3,0,0.5
			c0.1-0.5,0.1-0.5,0.5-0.7c0.3,0.1,0.5,0.3,0.7,0.4c0,0.1,0,0.1,0.1,0.1c0.2-0.9,0.2-1.8,0-2.7h-0.1C14.4,34,13.7,34,13,33.9z
			 M39.1,39.4c-0.3,0-0.2,0.5-0.1,0.5c0-0.1-0.1-0.1-0.1-0.2c0.1,0,0.2-0.1,0.2-0.1c0,0.1-0.2,0.2-0.1,0.2c0-0.1,0.2-0.1,0.1-0.2
			C39.1,39.5,39.1,39.4,39.1,39.4L39.1,39.4z M26.2,35.6c0-0.1-0.2-0.1-0.1-0.2c0,0,0.1-0.1,0-0.1c-0.1,0.1-0.3-0.1-0.1,0.1
			C25.9,35.6,26.2,35.6,26.2,35.6L26.2,35.6z M28.5,37.9c0.1-0.2,0.1-0.5,0.3-0.5C28.6,37.2,28.5,37.8,28.5,37.9L28.5,37.9z
			 M32.5,37.4c-0.3,0,0.2-0.5-0.1-0.4c0.2,0.2-0.1,0-0.2-0.1c0,0.1-0.1,0.2,0,0.2C32.2,37,32.3,37.6,32.5,37.4L32.5,37.4z M33.1,36
			C33,36,33,36,33,36c0.3,0.1-0.1,0.3-0.2,0.4C33,36.4,33.2,36.1,33.1,36C33.1,36,33.1,36.1,33.1,36L33.1,36z M32.7,36.9
			c0.2-0.6-0.2-0.1-0.1,0.1c0.2,0,0.1,0.8,0.2,0C32.7,37,32.7,36.9,32.7,36.9L32.7,36.9z M14.6,38c0,0.1-0.2,0.4-0.1,0.4
			c0.1-0.2,0.1,0.2,0.2,0.2c0.2-0.2,0.2-0.2-0.1-0.1C14.5,38.3,14.7,38.1,14.6,38L14.6,38z M15,36.9c0.4,0.1,0.2-0.1,0.5-0.1
			c-0.1,0-0.1-0.1-0.2-0.1C15.3,36.9,14.7,36.9,15,36.9L15,36.9z M13.2,33.9C13.2,33.9,13.2,33.8,13.2,33.9c0.7,0,1.3,0,1.9-0.1
			c-0.6,0-1.3,0-1.9-0.1h1.9C14.6,33.7,13,33.5,13.2,33.9L13.2,33.9z M16.8,33.8C16.8,33.8,16.8,33.9,16.8,33.8c2-0.2,4.5,0,6.5-0.1
			c0.2-0.2,0-0.1-0.1-0.1c-1.9,0-4.4,0-6.4,0c-0.1-0.1-0.2-0.1-0.2,0h0.1C16.8,33.7,16.8,33.7,16.8,33.8L16.8,33.8z M35.7,33.7h-7.3
			c-1-0.1-2-0.1-3,0c-0.4,0.1,0.4,0.1,0.4,0.1c3.7,0.1,7.4-0.1,11,0c0,0,0.1,0,0.1,0.1H25.2c0,0.1-0.1,0.1,0.1,0.1
			c3.8-0.1,7.8,0,11.7-0.1C36.6,33.5,36.1,33.7,35.7,33.7L35.7,33.7z M16.9,34c-0.1,1-0.2,2-0.1,3c-0.3-0.1,0.2,0.2,0.2,0.2
			c-0.1,0-0.2,0-0.2,0.1c0.3,0,0.2-0.1,0.2-0.2c0.1,0.1,0.3,0.1,0.4,0.1c0.2,0.1,0.4,0.1,0.6,0h0.2c0-0.9,0.5-1.6,1.3-1.9
			c-0.1,0.2-0.5,0.2-0.2,0.4c0-0.1,0.2-0.1,0.2-0.2c-0.1-0.1-0.2,0.2-0.2,0c0.1-0.1,0.3,0,0.3-0.2c0.3-0.2,0.6-0.3,0.9-0.3h0.9
			c0.2,0,0.4,0,0.5,0.1c-0.2,0.4,0.2-0.2,0.2,0.2c0.4,0,0.1,0,0.1-0.2c0.6,0.3,0.9,0.9,1.5,1.2c-0.2,0.4-0.1,0.1-0.2,0
			c0,0.1-0.1,0.1-0.2,0.1c0.1,0,0.1-0.4,0-0.2c0,0.2-0.1,0.2,0.1,0.3c0-0.2,0.2-0.1,0.1,0.1c0.1,0,0.3-0.1,0.3-0.2
			c-0.1,0.1,0-0.5-0.1-0.2c-0.1-0.7-0.1-1.5-0.1-2.2L16.9,34c0.1-0.1,0.1-0.1,0.1-0.1c1.9-0.3,4.5,0.3,6.4,0c-2-0.1-4.3,0-6.5-0.1
			C16.9,33.9,16.9,33.9,16.9,34L16.9,34z M24.9,34.1c0.1,2-0.1,4.5,0,6.4c0,0.2-0.2,0.7,0.2,0.7C24.7,39.1,25.1,36,24.9,34.1
			L24.9,34.1z M37.6,35.9c-0.1,0,0-0.1-0.1-0.1c0,0,0,0.1-0.1,0.1c0.1-0.2,0-0.2,0.1-0.2c0.1,0,0.1,0.3,0.2,0.1
			c-0.1,0-0.1-0.1-0.2-0.2c0,0,0.1-0.1,0-0.1c0,0,0,0.1-0.1,0.1c-0.1,0-0.1-0.1-0.1,0c0.2,0-0.1,0.1-0.1,0.2
			C37.5,35.8,37.5,35.9,37.6,35.9c-0.5,0.6-0.5,1.3-0.2,1.9c0,0-0.1,0.1,0,0.1c0,0.1-0.1,0.4,0,0.3c0.2-0.1,0.1,0.2,0.1,0.1
			c0,0.2,0.2-0.2,0.2,0.1c0,0-0.1,0.1,0,0.1c0-0.1,0.1-0.1,0.1-0.1c-0.2,0-0.2-0.2-0.4-0.2v-0.1c0.3,0.1,0.3,0.5,0.7,0.5
			c0,0,0-0.1,0.1-0.1c0.2,0,0.4,0.1,0.2-0.1c0.1,0,0.1-0.1,0.2-0.1c0,0.1,0,0.2,0.1,0.1c-0.1-0.1-0.1-0.4-0.1-0.2
			c0,0.1-0.2,0.5-0.2,0.4C38.9,37.6,39.1,34.9,37.6,35.9L37.6,35.9z M37.2,36.1c0,0,0-0.1-0.1-0.1c0.1,0.1,0,0.4,0.1,0.4
			c0-0.1,0.1-0.3,0-0.4C37.2,36,37.3,36.1,37.2,36.1L37.2,36.1z M20.2,38.7c1.3,0,2.6-0.5,3.5-1.5c-0.5-0.9-2.8-1.5-3.6-0.5
			c0-0.1-0.1-0.1-0.1-0.1c0.1,0,0.1-0.1,0.2,0c0.1,0,0.1-0.3,0-0.1c0,0,0,0.1-0.1,0.1c0,0,0-0.1-0.1-0.1c0,0.2-0.1,0.2,0,0.3
			c0,0,0-0.1,0.1,0c-0.3,0.4-0.4,1-0.2,1.5c-0.1,0-0.1,0-0.2,0.1c0-0.1,0.2-0.2-0.1-0.2c0,0.2,0.2,0.5,0.4,0.4
			c-0.1-0.1-0.2-0.1-0.2-0.2h0.1c0.1,0.1,0.2,0.1,0.2,0.2c0,0.1,0.1,0.1,0,0.2c0-0.1-0.1-0.1-0.1-0.1c-0.1,0.2,0,0.2,0.1,0.1
			c0,0.1,0.2,0.1,0.3,0.1c0,0,0,0,0,0C20.3,38.8,20.2,38.8,20.2,38.7L20.2,38.7z M23.4,36.6c0,0.2,0.2,0.1,0,0.2
			c0.1,0,0.5,0.2,0.4,0.1C23.7,36.8,23.5,36.7,23.4,36.6L23.4,36.6z M18.7,36.2C18.7,36.2,18.7,36.2,18.7,36.2c0,0.1-0.1,0.2,0,0.2
			c0,0,0-0.1,0.1-0.1c0,0.1,0,0.2,0.1,0.2c0-0.1,0.1-0.3,0-0.2C18.9,36.5,18.9,36.1,18.7,36.2L18.7,36.2z M16.9,37.4
			c0,0-0.2-0.2-0.2-0.1c0.3,0,0,0.1-0.1,0.1c0,0,0-0.1-0.1-0.1C16.6,37.7,16.7,37.5,16.9,37.4C16.9,37.5,16.9,37.5,16.9,37.4
			L16.9,37.4z M37,37.7c0.1-0.2,0.3,0.3,0.3,0.2c0-0.5-0.1-0.1-0.2-0.4C37.1,37.5,36.8,37.6,37,37.7L37,37.7z M33,37.8
			c0.1,0,0.2,0.1,0.2,0c-0.1,0,0.1-0.1-0.1-0.2c0.2,0,0.2,0,0.1,0.1c0.2,0.1,0.3-0.2,0.2-0.2c0,0,0,0.1-0.1,0.1
			c-0.1,0-0.3-0.2-0.3-0.1C33,37.7,33.2,37.7,33,37.8L33,37.8z M23.5,37.8C23.4,37.8,23.4,37.9,23.5,37.8c0.1-0.1,0.2,0.1,0.3-0.1
			c-0.2,0-0.2-0.2-0.3-0.2C23.5,37.8,23.4,37.7,23.5,37.8L23.5,37.8z M31.6,38.3C31.5,38.3,31.5,38.3,31.6,38.3c0-0.1,0-0.1-0.1-0.1
			c0,0.1-0.2,0.2-0.2,0c-0.1-0.1-0.2,0.2-0.1,0.2c0,0,0-0.1,0.1-0.1C31.4,38.4,31.5,38.4,31.6,38.3L31.6,38.3z M20.7,39.5
			c-0.1,0-0.2,0-0.1,0.1c0.1-0.1,0.5,0,0.3-0.1c0-0.1-0.5-0.2-0.3-0.1C20.6,39.5,20.7,39.5,20.7,39.5L20.7,39.5z M34.2,40.5
			c-0.5,0.2,0.4,0.1,0.5-0.1C34.5,40.4,34.4,40.6,34.2,40.5L34.2,40.5z M34.1,41.1c0.2,0,0.5-0.1,0.4-0.1c0,0-0.2,0.2-0.2,0
			c0,0,0.1,0,0.1-0.1C34.1,40.9,34.1,41,34.1,41.1L34.1,41.1z M17.6,41.4c-0.1,0.1-0.3,0.3-0.2,0.4C17.5,41.6,17.6,41.5,17.6,41.4
			C17.6,41.3,17.6,41.3,17.6,41.4L17.6,41.4z"/>
		<path class="st2" d="M13,33.9c0.7,0.1,1.4,0.1,2.1,0.1C14.4,34.1,13.7,34.1,13,33.9z"/>
		<path class="st2" d="M15.2,34c0.2,0.9,0.2,1.8,0,2.7c0,0-0.1,0-0.1-0.1C15.3,35.8,15.3,34.9,15.2,34z"/>
		<path class="st2" d="M19,38.6c0.2,0.2,0.4,0.4,0.6,0.6C19.4,39.1,19.1,38.9,19,38.6z"/>
		<path class="st2" d="M23.6,39.1c0-0.1,0.1-0.1,0.2-0.1c0,0.2,0.1,0.5-0.1,0.6v-0.5C23.6,39.1,23.6,39.1,23.6,39.1z"/>
		<path class="st2" d="M27.6,38.9c0.1,0,0.2,0.2,0.3,0.2c0.1,0.1,0.1,0.2,0.2,0.2c0,0.1,0.1,0.1,0.1,0.2
			C28,39.4,27.8,39.2,27.6,38.9z"/>
		<path class="st2" d="M69.3,32.7c0.4-0.2,0.9-0.2,1.4,0c0.3,0.1,0,0.3,0.4,0.4c0-0.1-0.1-0.1-0.2-0.1c0-0.2,0.3,0.2,0.3,0
			c1,0.6,1.2,1.9,1.2,3.5c-0.1,0.2,0,0.6-0.1,0.8v0.1h2.7c0.1-1,0.1-2.1,0.1-3.1c0-0.1-0.2,0-0.3-0.1c0-0.2-1.2,0.1-1.6-0.1
			c-0.3-0.3-0.5-0.9-0.8-1.2c7-0.1,14.2,0,21.3-0.1c0.2,0.2-1.6,0.1-2.4,0.1H72.7C78.2,33,84.9,33,90.8,33c0.9-0.1,1.7-0.1,2.6,0
			c0.3,0.1,0.1,0.4,0.4,0.1c0.1,0,0.1,0,0.1,0.1c-0.2,0-0.4,0.3-0.3,0.5c0-0.1,0.1-0.3,0.3-0.3c0.2,0.1-0.2,0.2-0.2,0.3
			c0.1-0.1,0.3-0.1,0.3-0.2c0.1,0.1,0.2,0.2,0.2,0.4c-0.1,0-0.1,0.1-0.1,0.2c-0.1,0,0-0.2,0.1-0.2c-0.3-0.1-0.1,0.6,0.1,0.1
			c0.2,0.1,0.2,0.3,0.3,0.4h-0.1c-0.3-0.1-0.7-0.1-1,0c-0.1,0-0.4-0.1-0.4,0.1v7.5c-0.3-0.2-0.6-0.3-0.9-0.5
			c-0.2-0.2-0.7-0.3-0.7-0.7c0.3-0.1,0.4,0.1,0.4,0.2c0.2-0.2-0.1-0.4-0.4-0.3v-1.5c0.1-0.4,0.1-0.8,0.1-1.3c0-0.2,0.1-0.6-0.1-0.7
			c-0.5-0.1-1-0.1-1.5,0c-0.8-0.1-1.6,0.2-1.6,1.2c-0.1,0.1,0,0.4-0.1,0.5c-0.1,0.2-0.1,0.2-0.2,0.2c0.1,0.1,0.2,0,0.1,0.2
			c0.2,0-0.1-0.3,0.2-0.2c0.1,0.3,0.2,0.6,0.4,0.8c-0.1,0.2-0.2,0-0.4,0.3c0,0.2,0.2-0.1,0.2,0.2c0.2-0.2-0.2-0.1-0.1-0.2
			c0.2-0.2,0.2,0.4,0.4,0.1c0,0.1-0.1,0.4,0.1,0.1c0.2,0.4,0.6,0.7,0.8,1.2c-0.2,0.1-0.6,0.6-0.7,0.1c0.1,0,0.4,0.1,0.1,0.1
			c0.1,0.2,0.3-0.1,0.3-0.2c-0.2,0.2-0.3-0.1-0.5,0C89,41.2,89,41.1,88.9,41c0.1,0,0.1,0,0.1-0.1c0.2,0.1,0.3-0.1,0.2-0.4
			c0.1,0,0.1,0.2,0.2,0.1c-0.1-0.2-0.3-0.2-0.3,0.2c-0.2,0-0.3-0.3-0.5-0.4c0-0.1,0.1-0.1,0.2-0.1c-0.1-0.1-0.5-0.5-0.2-0.4
			c-0.1-0.2-0.2,0-0.2,0.1h-0.1c-0.8-0.9-1.8-3.6-0.1-4.3c0.2,0.2,0.4,0.1,0.7,0.2c-0.1-0.1-0.4-0.1-0.5-0.2
			c1.1-0.2,2.1-0.3,3.2-0.2h0.1c0-0.4,0-0.9-0.1-1.3c0,0,0-0.1,0.1-0.1c-1.8-0.1-4.9,0.2-6.5,0.1c0,0.3,0.2-0.1,0.2,0.1
			c-0.1,0,0,0.1-0.1,0.1v0.2c-0.1,0.9-0.1,1.7,0,2.6c0,0.4-0.1,0.7-0.4,1c-0.1-0.3-0.3-0.1-0.5,0.2c0.1,0,0.3-0.3,0.5-0.1
			c-0.2,0.3-0.5,0.4-0.7,0.7c-0.1-0.1-0.2,0-0.3,0.1c0.1,0.1,0.2,0.1,0.1,0.4c0.2-0.1,0.2-0.2,0.4-0.1c0.2,0.2,0.3,0.4,0.5,0.5
			c-0.1,0-0.2,0.1-0.2,0.2c0.1,0.1,0.2,0.2,0.2-0.1c0.1,0.1,0.1,0.2,0.1,0.3c0.2-0.1,0-0.1,0-0.2c0.2,0.1,0.3,0.3,0.4,0.4
			c-0.1,0-0.2-0.1-0.2-0.2c0,0.1,0.3,0.2,0.1,0.5c0.1,0,0-0.2,0.1-0.2c0.1,0,0.1,0.1,0.1,0.1c0.2,0.1,0.3,0.4,0.5,0.5
			c0.6,0.4,0.1,0.6-0.2,1c-0.4-0.4-0.8-0.8-1.1-1.3c0.1,0,0.2,0.2,0.3,0.2c0-0.2-0.5-0.3-0.2-0.5c0.1,0,0,0.1,0,0.2
			c0.2-0.2,0.2-0.1,0.2-0.2c-0.1-0.2-0.1,0.2-0.2,0c0-0.3,0.2,0.1,0.1-0.2c-0.1,0-0.2,0.1-0.2,0c0,0.1,0.1,0.2-0.1,0.4
			c-0.4-0.4-0.7-0.8-1-1.3c0-0.1,0.1-0.1,0.1-0.2c0,0.2-0.1,0.2,0.1,0.4c0.2-0.1-0.2-0.4,0.1-0.2c-0.1-0.3-0.4-0.2-0.5-0.2
			c-0.3-0.4-0.7-0.7-1-1.2c0.1,0,0.1-0.1,0.1-0.2c0.2,0.1,0.2,0.2,0.4,0.2c-0.1-0.3-0.6-0.1-0.7-0.3c-0.8-1,0.8-1.2,1.4-0.6
			c0.4-0.5,0.1-1.8,0.2-2.6c0-0.1-0.3,0-0.4-0.1c-0.8-0.1-1.6-0.1-2.4,0h-0.4c-0.1,2.4,0,5.1-0.1,7.6c-0.1,0-0.1-0.1-0.1-0.1
			c-0.5-0.3-0.9-0.7-1.5-0.9v-2.1c0.1-0.5,0.1-1,0.1-1.5v-1.7c0.1-0.4,0.1-0.9,0.1-1.3h-0.5c-0.7-0.1-1.4-0.1-2.1-0.1
			c0,0.1,0.1-0.1,0.1,0.1c-0.1,0-0.1,0-0.1,0.1v3.8c0,1.1,0.3,3-0.1,3.7c0,0,0,0,0-0.1c0-0.1,0-0.2,0.1-0.4v-6.8
			c-0.1,2.2,0,4.6-0.1,6.8c-0.1,0-0.1,0.1-0.3,0.1c0.1,0.2,0.2,0,0.3,0c0,0.1-0.1,0.1-0.1,0.2c-0.1-0.1-0.2-0.1-0.2-0.2
			c0-0.3-0.4-0.4-0.4-0.4c-0.1,0.2,0.3,0.2,0.4,0.3c0,0.1-0.1,0.1-0.1,0.1c-0.3-0.2-0.6-0.4-1-0.6c-0.1-0.1,0-0.4-0.1-0.7v-0.7
			c0.1-0.1,0-0.4,0.1-0.6v-0.1c-1-0.1-1.9-0.1-2.9,0c0,0.5-0.1,1-0.4,1.2c-0.7,0-3.4-2.1-1.8-2.6c0.2,0,0.6,0.1,0.8-0.1
			c0.1-0.2,0.1-0.4,0.1-0.7c-1.2-0.3-3-1.3-2.7-2.8C68.3,33.4,68.7,32.9,69.3,32.7c0,0.2-0.3,0.4,0.2,0.4c0-0.1-0.1-0.1-0.2-0.1
			c0.1-0.1,0.4-0.1,0.1-0.1c0.1-0.2,0.4,0,0.5,0C69.8,32.7,69.3,32.9,69.3,32.7C69.3,32.8,69.3,32.7,69.3,32.7z M84.5,40
			c0-0.1-0.2-0.1-0.1-0.2c0.1,0,0.1,0.2,0.2,0.1c-0.2,0,0-0.2-0.1-0.2c0,0-0.1,0.1-0.1,0.1c0-0.2-0.2-0.2-0.2-0.3
			c0.2-0.2,0.3,0.2,0.3,0.1c0.1-0.1-0.1-0.1-0.1-0.3c0,0,0.1-0.1,0-0.1c-0.1-0.1-0.4,0-0.5,0.3C84.3,39.4,84.3,40,84.5,40L84.5,40z
			 M79.3,40.9c0.1-0.1,0.3,0,0.5,0.1c0-0.1,0.1-0.1,0.1-0.2C79.8,40.9,79.3,40.8,79.3,40.9L79.3,40.9z M71.2,39.7
			c0-0.1-0.1-0.2-0.1-0.4c0,0.1-0.1,0.1-0.2,0.1c0-0.1,0.1-0.1-0.1-0.1c0,0.2,0.2,0.2,0.2,0.1C71.1,39.6,71.3,39.9,71.2,39.7
			L71.2,39.7z M70.3,38.9c0.1,0,0,0.1,0,0.1c0.2,0,0.2,0.2,0.4,0.2c0-0.1-0.2-0.3,0-0.3c0.1,0-0.2-0.1-0.2,0.2
			c0-0.1-0.2-0.1-0.1-0.2c0,0,0.1-0.1,0-0.1C70.4,38.9,70.4,39,70.3,38.9C70.4,38.9,70.3,38.9,70.3,38.9L70.3,38.9z M70.7,33.1
			c-0.2,0-0.6-0.1-0.7,0.1C70.2,33.2,70.6,33.3,70.7,33.1L70.7,33.1z M70.8,33.7c0.6,0.2-0.4-0.1-0.2-0.4c-0.5,0.1-0.8,0.2-0.1,0.1
			c0,0.1,0.1,0.1,0.1,0.2c-0.2-0.2-0.6-0.1-0.8,0.1c-0.3,0,0,0.1-0.3,0.2c0-0.1,0-0.1-0.1-0.2c0.1,0,0.2-0.3,0.1-0.1
			c-0.5,0.2,0.1,0.2-0.2,0.4c0,0,0-0.1-0.1-0.1c0,0.1-0.1,0.2,0,0.2c0.1,0,0.2-0.1,0.4-0.2c-0.4,0.6-0.3,1.3,0.3,1.7c0,0,0,0,0,0
			c-0.1,0-0.2,0.1-0.2,0.2c0,0,0,0,0,0c0.1-0.1,0.3,0.2,0.3,0c-0.3,0,0,0,0-0.1c-0.1-0.1-0.2,0.2-0.2,0c0.1,0,0.2,0,0.2-0.1
			c0.2,0.1,0.5,0.2,0.8,0.2c0.1-0.6,0.1-1.3,0-1.9c0.1,0.3,0.4,0,0.3-0.2c-0.1,0.3-0.1,0.2-0.3,0.1C70.8,33.8,70.9,33.7,70.8,33.7
			L70.8,33.7z M69,35.7c0.2-0.1,0.3,0.3,0.4,0.1c0-0.2,0-0.3-0.4-0.2c0,0-0.1-0.1-0.1,0C69,35.6,69,35.6,69,35.7L69,35.7z
			 M91.6,35.9h-1c-0.3,0-0.8-0.1-1,0.1C90.3,36,91,35.9,91.6,35.9L91.6,35.9z M83.9,38.8c0.2-0.2,0-0.1,0.1-0.3c0,0,0.1-0.1,0-0.1
			c0,0,0,0.1-0.1,0.1C83.9,38.3,83.9,38.7,83.9,38.8L83.9,38.8z M85.4,40.6c0-0.1,0.2,0,0.1,0.1c-0.1-0.1-0.1,0-0.2,0
			c0.1,0.2-0.2,0.2-0.1,0.3c0.1-0.1,0.2-0.2,0.2-0.3c0,0.3,0.4,0,0.2,0.1C85.6,40.7,85.3,40.3,85.4,40.6L85.4,40.6z M85.9,41.4
			c0.1,0,0.1-0.1,0.2-0.1c0,0.1,0.3,0.1,0.1,0s-0.3-0.2-0.4-0.1C86,41.3,86.1,41.1,85.9,41.4L85.9,41.4z"/>
		<path class="st2" d="M75,40.2c0,0.2-0.1,0.5,0.1,0.7C74.8,40.8,74.9,40.3,75,40.2z"/>
		<path class="st2" d="M80.4,41.7c0.1,0,0.1,0.1,0.1,0.1c0-2.5-0.1-5.2,0.1-7.6h2.8c0.1,0,0.4-0.1,0.4,0.1h-3.2
			c-0.1,2.4,0,5-0.1,7.4C80.6,41.9,80.4,41.8,80.4,41.7z"/>
		<path class="st2" d="M86,40.9c-0.2-0.1-0.3-0.4-0.5-0.5c0-0.1-0.1-0.1-0.1-0.1C85.6,40.5,85.8,40.7,86,40.9z"/>
		<path class="st2" d="M85.3,34.3c0,0,0-0.1,0.1-0.1h6.3c0.1,0.4,0.1,0.9,0.1,1.3h-0.1v-1.3C89.5,34.3,87.3,34.1,85.3,34.3z"/>
		<path class="st2" d="M12.3,32.6h0.4c-0.2,0.2,0,0.4-0.1,0.4c0-0.1-0.1-0.1-0.2-0.1C12.4,32.8,12.3,32.7,12.3,32.6z"/>
		<path class="st2" d="M38.7,34c-0.1,0-0.1,0.1-0.1,0c0.1-0.1,0.2-0.1,0.2-0.2c-0.2,0,0.1-0.1-0.2-0.2c0.2,0,1.6,0.1,1.6,0.1
			C40,34,39,33.5,38.8,33.8c0.5,0,1,0,1.5,0.1C39.8,33.9,39.1,33.7,38.7,34L38.7,34z"/>
		<path class="st2" d="M39.8,36.2c-0.1-0.1-0.2,0-0.4-0.1c0.1,0.4,0.3,0.1,0.4,0.4c-0.3,0-0.3-0.3-0.5,0c0.2-0.2,0-0.3,0.2-0.4
			c0,0,0.1,0.1,0.1,0.1c0.3,0-0.2-0.2,0-0.2c0.1,0,0,0.2,0.2,0.2C39.8,36.2,39.8,36.2,39.8,36.2z"/>
		<path class="st2" d="M39.2,39.5c0,0.2-0.1,0.1-0.1,0.2C38.9,39.7,39.1,39.6,39.2,39.5c-0.1,0-0.2,0.1-0.3,0.1
			c0,0.1,0.1,0.1,0.1,0.2c-0.1,0-0.2-0.5,0.1-0.5C39.1,39.4,39.1,39.5,39.2,39.5z"/>
		<path class="st2" d="M38.5,40.3c0-0.1-0.3-0.2-0.1-0.5c0.2,0.2,0,0.3,0.1,0.4c0-0.1,0.2,0,0.2,0.1C38.6,40.3,38.6,40.3,38.5,40.3z
			"/>
		<path class="st2" d="M38,40.8c0-0.1-0.1-0.1-0.1-0.1c0.1,0,0.2,0,0.2-0.1c-0.1-0.1-0.2,0.1-0.2-0.1c0.1-0.1,0.4,0.1,0.2,0.2
			C38.1,40.7,38,40.8,38,40.8z"/>
		<path class="st2" d="M32.4,39.3v-0.2c0.1,0,0.1-0.2,0.2-0.2c-0.1,0.2-0.1,0.2,0,0.4C32.4,39.3,32.4,39.4,32.4,39.3z"/>
		<path class="st2" d="M31.7,39.4c-0.2-0.1,0.1-0.5-0.1-0.1c0.2,0,0.2-0.1,0.2-0.2C32.1,39.2,31.8,39.2,31.7,39.4L31.7,39.4z"/>
		<path class="st2" d="M27.9,39.2c0.1-0.1,0.1-0.2,0.1-0.2c0,0.2,0,0.2,0.2,0.2c0,0-0.1,0.1-0.1,0.1C28,39.4,28,39,27.9,39.2
			c0.1,0.3,0.8,0.1,0.4,0.4c0.1-0.2,0-0.2-0.2-0.2v0.1C28,39.4,27.9,39.3,27.9,39.2z"/>
		<path class="st2" d="M26.5,36.5c0.1,0,0-0.3,0.2-0.3c-0.2,0.3,0.1,0.3-0.1,0.4C26.6,36.6,26.5,36.6,26.5,36.5z"/>
		<path class="st2" d="M26.1,35.5c-0.2-0.2,0,0,0.1-0.1c0.1,0,0,0.1,0,0.1c-0.2,0,0.1,0.1,0.1,0.2C26.2,35.6,25.9,35.6,26.1,35.5z"
			/>
		<path class="st2" d="M29.1,37.1c-0.1,0-0.1,0.1-0.2,0.1c0-0.1-0.1-0.1-0.1-0.1c0,0.1,0.1,0.2,0,0.2c-0.1,0,0-0.2-0.1-0.2
			c0,0,0,0.1-0.1,0.1c0-0.1,0-0.2,0.1-0.2C28.9,37.3,29.1,36.9,29.1,37.1z"/>
		<path class="st2" d="M28.8,37.4c-0.2-0.1-0.2,0.3-0.3,0.5C28.5,37.8,28.6,37.2,28.8,37.4z"/>
		<path class="st2" d="M29.9,38.9c-0.2,0.2,0.2,0.1,0.1,0.3c-0.1-0.1-0.2,0.2-0.2,0c0.1,0,0.1,0,0.1-0.1c-0.1,0-0.3-0.1-0.3,0.1
			c0.1,0,0.2,0,0.1,0.1C29.4,39,29.8,39,29.9,38.9L29.9,38.9z"/>
		<path class="st2" d="M31.7,37.7C31.7,37.7,31.7,37.7,31.7,37.7c0.1,0.2,0.3-0.3,0.4-0.1c-0.1,0.1-0.1,0.2-0.1,0.3
			C31.8,37.7,31.7,37.9,31.7,37.7z"/>
		<path class="st2" d="M32.2,37.1c-0.1,0,0-0.1,0-0.2c0.1,0.1,0.3,0.3,0.2,0.1c0.3-0.2-0.2,0.4,0.1,0.4C32.3,37.6,32.2,37,32.2,37.1
			z"/>
		<path class="st2" d="M34,34.7c0,0.1,0.2,0.2,0.1,0.3c0-0.1-0.1,0-0.1,0C33.9,34.9,34.2,34.8,34,34.7C33.9,34.9,33.9,34.8,34,34.7
			L34,34.7z"/>
		<path class="st2" d="M33.1,36c0.1,0.1-0.1,0.4-0.4,0.4c0.1-0.1,0.5-0.3,0.2-0.4C33,36,33,36,33.1,36C33.1,36.1,33.1,36,33.1,36z"
			/>
		<path class="st2" d="M32.8,37c-0.1,0.8,0,0-0.2,0c-0.1-0.2,0.3-0.7,0.1-0.1C32.7,36.9,32.7,37,32.8,37z"/>
		<path class="st2" d="M35.3,38.2L35.3,38.2c0,0.1-0.1,0.2-0.1,0.2c0-0.1,0-0.2-0.1-0.2c0.1,0.2,0,0.2-0.1,0.2
			c0.1-0.1,0-0.3,0.2-0.3c0.1,0,0.1,0.1,0.1,0.1C35.3,38.2,35.3,38.2,35.3,38.2z"/>
		<path class="st2" d="M37.5,38.8c0.3,0,0,0,0-0.1c0.1,0,0.1-0.1,0.2-0.1c-0.3,0.1,0.2,0.1,0.1,0.4c0-0.1-0.3-0.3-0.2-0.1
			C37.6,38.9,37.5,38.8,37.5,38.8z"/>
		<path class="st2" d="M23.7,40.4c0.1-0.1,0.4,0,0.2,0.1c0.2,0.1,0.2-0.2,0.3,0c-0.1,0-0.1,0-0.1,0.1c0.3,0.1,0.2,0,0.2,0.2
			c-0.1-0.1-0.2-0.3-0.3-0.2h-0.1C23.9,40.6,23.7,40.6,23.7,40.4z"/>
		<path class="st2" d="M22.9,39.5c-0.1-0.1-0.3,0.1-0.4-0.1c0.4,0.2,0.5-0.1,0.7-0.1c0,0.1-0.2,0-0.2,0.2C23,39.4,23,39.5,22.9,39.5
			z"/>
		<path class="st2" d="M22.4,39.7c-0.3,0,0.1,0,0.1-0.1c-0.2-0.1-0.4,0.1-0.4,0c0.2,0,0.5-0.2,0.5-0.1c-0.3,0,0,0,0,0.1
			C22.5,39.7,22.4,39.7,22.4,39.7z"/>
		<path class="st2" d="M19.9,39.5c-0.1-0.2,0,0,0.2-0.1c0,0.3,0.1,0.1,0.2,0.2c-0.1,0-0.1,0-0.2,0.1h-0.1
			C20.1,39.6,20,39.5,19.9,39.5z"/>
		<path class="st2" d="M15.9,40.4c0.3-0.1-0.1,0.1,0.2,0.1c0.2-0.4,0-0.2,0.4-0.2c-0.1,0.1-0.3,0.2-0.1,0.4
			c-0.1-0.1-0.2-0.2-0.4-0.2C16,40.5,15.9,40.5,15.9,40.4z"/>
		<path class="st2" d="M15.5,39.9c0.1,0,0.1,0.1,0.2,0.1c0-0.4-0.6-0.3-0.2-0.6c-0.1,0-0.1,0.1,0,0.2c0,0.1,0.1,0.1,0.2,0
			c0,0,0,0,0,0c-0.1,0.1-0.1,0.2,0,0.2c0,0,0,0,0,0c0.2,0,0.3-0.1,0.4,0c-0.1,0.2-0.1-0.1-0.3,0.1c0,0.2,0.2-0.1,0.2,0.2
			c-0.1-0.1-0.2-0.1-0.3,0C15.6,40,15.5,39.9,15.5,39.9z"/>
		<path class="st2" d="M14.7,38.8c0.2,0,0.1-0.3,0.2-0.3c0.1,0.1-0.2,0.2,0,0.3c0,0,0.1-0.3,0.1-0.1C15,38.9,14.9,38.8,14.7,38.8
			C14.7,38.9,14.7,38.9,14.7,38.8z"/>
		<path class="st2" d="M14.7,38.5C14.9,38.4,15,38.4,14.7,38.5c-0.1,0.1-0.1-0.3-0.2-0.1c-0.1,0,0.1-0.3,0.1-0.4
			C14.7,38.1,14.5,38.3,14.7,38.5z"/>
		<path class="st2" d="M14.4,36.2C14,36.5,14,36.4,13.9,37c0.1-0.2-0.2-0.4,0-0.5c0,0.1,0,0.2,0.1,0.2c0.1-0.3,0.1-0.2,0.3-0.4
			L14.4,36.2z"/>
		<path class="st2" d="M15.3,36.6c0.1,0,0.1,0.1,0.2,0.1c-0.3,0-0.1,0.2-0.5,0.1C14.7,36.9,15.3,36.9,15.3,36.6z"/>
		<path class="st2" d="M15.1,33.7h-1.9C13.8,33.8,14.5,33.8,15.1,33.7c-0.6,0.1-1.2,0.2-1.9,0.1c0,0-0.1,0-0.1,0.1
			C13,33.5,14.6,33.7,15.1,33.7z"/>
		<path class="st2" d="M70.7,32.7c0.2,0,0.4,0.1,0.5,0.2c0,0.2-0.3-0.2-0.3,0c0.1,0,0.1,0.1,0.2,0.1C70.7,33,70.9,32.8,70.7,32.7z"
			/>
		<path class="st2" d="M73.1,34c0.3,0.2,1.6-0.1,1.6,0.1h-1.6V34z"/>
		<path class="st2" d="M93.6,32.8c0.2,0,0.2,0.2,0.2,0.2c-0.4,0.3-0.1,0-0.4-0.1c-0.9-0.1-1.7-0.1-2.6,0c-6,0-12.6,0.1-18.2-0.1
			h18.5C92,32.9,93.8,33,93.6,32.8z"/>
		<path class="st2" d="M94.1,33.3c0,0.1-0.2,0.2-0.3,0.2c0-0.2,0.4-0.2,0.2-0.3c-0.2,0-0.3,0.2-0.3,0.3c-0.1-0.1,0.1-0.4,0.3-0.5
			C94,33.2,94,33.2,94.1,33.3z"/>
		<path class="st2" d="M94.3,33.7C94.1,34.3,94,33.6,94.3,33.7c-0.1-0.1-0.3,0.1-0.1,0.1C94.2,33.8,94.2,33.7,94.3,33.7
			C94.3,33.7,94.3,33.7,94.3,33.7z"/>
		<path class="st2" d="M91.6,40.5L91.6,40.5c0.3-0.1,0.6,0,0.4,0.2C92.1,40.6,92,40.4,91.6,40.5z"/>
		<path class="st2" d="M88.5,38.6C88.5,38.7,88.6,38.7,88.5,38.6l0.1,0.2c-0.2-0.1,0,0.3-0.2,0.2c0-0.3-0.1-0.2-0.1-0.2
			C88.5,38.9,88.4,38.8,88.5,38.6z"/>
		<path class="st2" d="M89,39.7c0.1,0.1,0.1,0.2,0.2,0.4c-0.2,0.3-0.1,0.1-0.1-0.1c-0.1,0.3-0.2-0.3-0.4-0.1c-0.1,0.2,0.3,0,0.1,0.2
			c0-0.2-0.2,0.1-0.2-0.2C88.8,39.8,88.9,40,89,39.7z"/>
		<path class="st2" d="M88.3,40c0.1-0.1,0.2-0.3,0.2-0.1c-0.3-0.1,0.1,0.3,0.2,0.4c-0.1,0-0.2,0-0.2,0.1c0.2,0.2,0.3,0.4,0.5,0.4
			c0-0.4,0.2-0.4,0.3-0.2c-0.1,0.1-0.1,0-0.2-0.1c0.1,0.3-0.1,0.4-0.2,0.4c0,0,0,0.1-0.1,0.1c-0.1-0.2-0.2-0.4-0.4-0.5v-0.1
			c0,0,0.1-0.1,0.1-0.1C88.5,40.2,88.5,40.1,88.3,40L88.3,40z"/>
		<path class="st2" d="M88.2,35.7c0.1,0,0.1-0.1,0.2-0.1c0.1,0.1,0.3,0.1,0.5,0.2C88.6,35.9,88.4,36,88.2,35.7z"/>
		<path class="st2" d="M85.3,34.2c0-0.2-0.2,0.3-0.2-0.1c1.6,0.2,4.7-0.2,6.5-0.1c0,0,0,0.1-0.1,0.1L85.3,34.2z"/>
		<path class="st2" d="M85.3,34.5v2.6C85.2,36.3,85.2,35.4,85.3,34.5z"/>
		<path class="st2" d="M84.8,38.2c-0.2-0.2-0.4,0.2-0.5,0.1C84.6,38,84.7,37.8,84.8,38.2L84.8,38.2z"/>
		<path class="st2" d="M84.4,39.1c-0.2-0.1-0.2,0-0.4,0.1c0.2-0.3,0.1-0.2-0.1-0.4c0.1-0.1,0.2-0.2,0.3-0.1
			C84.2,38.9,84.3,39,84.4,39.1z"/>
		<path class="st2" d="M83.4,38.9c0.2,0.1,0.4-0.1,0.5,0.2c-0.3-0.2,0,0.1-0.1,0.2c-0.2-0.1-0.1-0.1-0.1-0.4c0,0.1-0.1,0.1-0.1,0.2
			C83.4,39.1,83.5,39,83.4,38.9L83.4,38.9z"/>
		<path class="st2" d="M82.2,37.4c0.1,0.2,0.6,0,0.7,0.3c-0.2,0-0.1-0.1-0.4-0.2c0,0.1,0,0.2-0.1,0.2C82.4,37.6,82.3,37.5,82.2,37.4
			z"/>
		<path class="st2" d="M80,40.9c0,0.1-0.1,0.1-0.1,0.2c-0.2-0.1-0.4-0.3-0.5-0.1C79.3,40.8,79.8,40.9,80,40.9z"/>
		<path class="st2" d="M76.6,34.2c0-0.1-0.1,0-0.1-0.1c0.7,0,1.4,0,2.1,0.1H76.6z"/>
		<path class="st2" d="M76.3,41.6c0-0.1,0.1-0.1,0.1-0.2c-0.1,0-0.2,0.2-0.3,0c0.2,0.1,0.2-0.1,0.3-0.1c0-2.3-0.1-4.7,0.1-6.8v6.8
			c-0.1,0.1-0.1,0.2-0.1,0.4C76.4,41.7,76.4,41.6,76.3,41.6z"/>
		<path class="st2" d="M76,41.4c0-0.1,0.1-0.1,0.1-0.1c-0.2-0.1-0.5-0.1-0.4-0.3C75.6,41,76.1,41.1,76,41.4L76,41.4z"/>
		<path class="st2" d="M71.1,39.5c-0.1,0.1-0.3,0.1-0.2-0.1c0.2,0,0.1,0,0.1,0.1c0.1,0,0.2,0,0.2-0.1c0.1,0.1,0.1,0.2,0.1,0.4
			C71.3,39.9,71.1,39.6,71.1,39.5z"/>
		<path class="st2" d="M70.4,38.9C70.4,39,70.4,38.9,70.4,38.9C70.5,38.9,70.5,38.9,70.4,38.9c0,0.2,0.2,0.1,0.2,0.2
			c-0.1-0.2,0.3-0.2,0.2-0.2c-0.2,0.1,0,0.2,0,0.3c-0.2,0-0.2-0.2-0.4-0.2C70.4,39,70.4,39,70.4,38.9C70.3,38.9,70.4,38.9,70.4,38.9
			z"/>
		<path class="st2" d="M69.2,32.7L69.2,32.7L69.2,32.7c0.1,0.1,0.6,0,0.6,0.2c-0.1,0-0.4-0.2-0.5,0c0.4,0,0,0-0.1,0.1
			c0.1,0,0.2,0,0.2,0.1C69,33.1,69.3,32.9,69.2,32.7z"/>
		<path class="st2" d="M69.8,33.9c-0.1,0.1-0.3,0.2-0.4,0.2c-0.1,0,0-0.1,0-0.2c0.1,0,0,0.1,0.1,0.1c0.3-0.2-0.3-0.2,0.2-0.4
			c0.1-0.2,0,0.1-0.1,0.1c0,0.1,0.1,0.1,0.1,0.2c0.3-0.1,0-0.2,0.3-0.2C69.9,33.8,69.8,33.8,69.8,33.9z"/>
		<path class="st2" d="M70.1,35.6L70.1,35.6c0,0.1-0.1,0.1-0.2,0.1c0,0.2,0.1-0.1,0.2,0c0,0.1-0.3,0.1,0,0.1c-0.1,0.2-0.2-0.1-0.3,0
			C69.8,35.7,69.9,35.6,70.1,35.6C70.1,35.6,70.1,35.6,70.1,35.6z"/>
		<path class="st2" d="M70.9,33.9L70.9,33.9c0.2,0,0.3,0.1,0.3-0.2C71.3,33.9,71,34.2,70.9,33.9z"/>
		<path class="st2" d="M70.8,33.7c-0.1,0-0.1-0.1-0.1-0.1c0-0.1-0.1-0.1-0.1-0.2c-0.8,0.1-0.5,0,0.1-0.1
			C70.4,33.5,71.4,33.9,70.8,33.7z"/>
		<path class="st2" d="M16.7,33.7h-0.1c0.1-0.1,0.2-0.1,0.2,0c2,0,4.5,0,6.4,0c0.1,0,0.3-0.1,0.1,0.1c-2.1,0.1-4.5-0.2-6.5,0.1
			c0,0-0.1,0-0.1-0.1C16.8,33.7,16.8,33.7,16.7,33.7z"/>
		<path class="st2" d="M37,33.9c-3.9,0-7.9-0.1-11.7,0.1c-0.2,0-0.1,0-0.1-0.1L37,33.9c0-0.1-0.1-0.1-0.1-0.1c-3.6-0.1-7.3,0.1-11,0
			c-0.1,0-0.8,0-0.4-0.1c1-0.1,2-0.1,3,0h7.3C36.1,33.7,36.6,33.5,37,33.9z"/>
		<path class="st2" d="M17.1,37c-0.1,0.1,0.1,0.3-0.2,0.2c0-0.1,0.1-0.1,0.2-0.1c-0.1-0.1-0.5-0.3-0.2-0.2h0.1
			C16.9,37,17,37,17.1,37z"/>
		<path class="st2" d="M19.7,35.1c0,0.2-0.2,0.2-0.3,0.2c0,0.2,0.1-0.1,0.2,0c0,0.1-0.2,0-0.2,0.2C19.2,35.4,19.6,35.3,19.7,35.1
			L19.7,35.1z"/>
		<path class="st2" d="M22.2,35c0,0.2,0.3,0.2-0.1,0.2c0-0.4-0.4,0.1-0.2-0.2C22.1,34.9,22.2,35,22.2,35z"/>
		<path class="st2" d="M23.8,36.2c0.1-0.3,0,0.2,0.1,0.2c0,0.1-0.2,0.2-0.3,0.2c0.1-0.2,0-0.3-0.1-0.1c-0.1-0.1-0.1-0.2-0.1-0.3
			c0.1-0.2,0.1,0.2,0,0.2c0.1-0.1,0.2,0,0.2-0.1C23.6,36.4,23.6,36.6,23.8,36.2C23.8,36.2,23.8,36.2,23.8,36.2z"/>
		<path class="st2" d="M16.9,34v-0.2c2.1,0,4.4-0.1,6.5,0.1c-1.8,0.3-4.5-0.3-6.4,0C17,33.9,17,33.9,16.9,34L16.9,34z"/>
		<path class="st2" d="M37.6,36c0-0.1-0.1-0.2-0.2-0.2c0-0.1,0.2-0.1,0.1-0.2c0-0.1,0.1,0,0.1,0c0.1,0,0.1,0,0.1-0.1
			c0.1,0,0,0.1,0,0.1c0,0.1,0.1,0.1,0.2,0.2c-0.1,0.2-0.1-0.2-0.2-0.1c-0.1,0.1,0,0.1-0.1,0.2c0.1,0,0.1,0,0.1-0.1
			C37.7,35.8,37.5,35.9,37.6,36C37.6,36,37.6,36,37.6,36z"/>
		<path class="st2" d="M37.3,36c0.1,0.1,0,0.3,0,0.4c-0.1-0.1,0-0.3-0.1-0.4c0.1,0,0,0.1,0.1,0.1C37.3,36.1,37.2,36,37.3,36z"/>
		<path class="st2" d="M37.4,37.8c0,0.1,0.1,0.1,0.1,0.1V38c0.1,0.1,0.2,0.2,0.4,0.2c0,0.1-0.1,0-0.1,0.1c-0.1,0,0-0.1,0-0.1
			c0-0.2-0.2,0.1-0.2-0.1c0,0,0.1-0.2-0.1-0.1C37.3,38.2,37.4,38,37.4,37.8C37.4,37.8,37.4,37.8,37.4,37.8z"/>
		<path class="st2" d="M38.3,38.3C38.3,38.3,38.3,38.3,38.3,38.3c0.1,0,0.3-0.4,0.3-0.4c0.1-0.1,0,0.2,0.1,0.2c0,0.1-0.1,0-0.1-0.1
			c-0.1,0-0.1,0.1-0.2,0.1C38.7,38.5,38.4,38.4,38.3,38.3z"/>
		<path class="st2" d="M68.9,35.6C68.9,35.5,69,35.5,68.9,35.6c0.4-0.1,0.4,0.1,0.4,0.2c-0.1,0.2-0.1-0.2-0.4-0.1
			C69,35.6,69,35.6,68.9,35.6z"/>
		<path class="st2" d="M20.1,36.8C20,36.8,20,36.8,20.1,36.8c-0.1-0.1-0.1-0.1-0.1-0.3c0.1,0,0.1,0,0.1,0.1c0.1,0,0.1,0,0.1-0.1
			c0.1-0.2,0.1,0.1,0,0.1c-0.1-0.1-0.1,0-0.2,0C20,36.7,20.1,36.7,20.1,36.8C20.1,36.8,20.1,36.8,20.1,36.8z"/>
		<path class="st2" d="M19.9,38.4h-0.1c0,0.1,0.2,0.1,0.2,0.2c-0.1,0.1-0.4-0.1-0.4-0.4c0.2,0,0,0.1,0.1,0.2
			C19.7,38.4,19.8,38.3,19.9,38.4L19.9,38.4z"/>
		<path class="st2" d="M20.1,38.6c0.1,0,0.1,0.1,0.1,0.1c0,0.1,0,0.1,0.1,0.1c-0.1,0.1-0.2,0.1-0.3,0c0,0,0,0,0,0
			c-0.1,0.1-0.2,0.1-0.1-0.1c0.1,0,0.1,0.1,0.1,0.1C20.2,38.8,20.1,38.7,20.1,38.6z"/>
		<path class="st2" d="M23.8,36.9c0.1,0.1-0.3-0.2-0.4-0.1c0.2-0.1,0,0,0-0.2C23.5,36.7,23.7,36.8,23.8,36.9z"/>
		<path class="st2" d="M18.9,36.3c0.1-0.2,0,0.1,0,0.2c-0.1,0-0.1-0.1-0.1-0.2c-0.1,0-0.1,0-0.1,0.1c-0.1,0,0-0.1-0.1-0.1
			c0.1,0,0.1,0,0.1-0.1C18.9,36.1,18.9,36.5,18.9,36.3z"/>
		<path class="st2" d="M16.9,37.4c-0.2,0.1-0.3,0.3-0.3-0.1c0.1,0,0,0.1,0.1,0.1c0.1,0,0.3-0.1,0.1-0.1
			C16.7,37.2,16.9,37.4,16.9,37.4C16.9,37.5,16.9,37.5,16.9,37.4z"/>
		<path class="st2" d="M37.1,37.4c0.1,0.3,0.2-0.1,0.2,0.4c0,0.2-0.2-0.4-0.3-0.2C36.8,37.6,37.1,37.5,37.1,37.4z"/>
		<path class="st2" d="M33.1,37.6c0-0.1,0.2,0.1,0.3,0.1c0.1,0,0.1,0,0.1-0.1c0.1,0,0,0.3-0.2,0.2C33.3,37.7,33.3,37.7,33.1,37.6
			c0.2,0.1,0,0.2,0.1,0.2c0,0.1-0.1,0-0.2,0C33.2,37.7,33,37.7,33.1,37.6z"/>
		<path class="st2" d="M23.5,37.6c0.1,0,0.1,0.2,0.3,0.2c-0.1,0.2-0.2,0-0.3,0.1c-0.1,0,0-0.1,0-0.1C23.4,37.7,23.5,37.8,23.5,37.6z
			"/>
		<path class="st2" d="M31.3,38.3C31.2,38.3,31.2,38.4,31.3,38.3c-0.2,0.1-0.1-0.2,0.1-0.1c-0.1,0.2,0.2,0.1,0.2,0
			c0.1,0,0,0.1,0,0.1c0,0.1,0,0.1,0.1,0.1C31.5,38.4,31.4,38.4,31.3,38.3z"/>
		<path class="st2" d="M84,38.5C84.1,38.5,84.1,38.4,84,38.5C84.1,38.4,84.1,38.5,84,38.5c0,0.2,0.1,0.1-0.1,0.3
			C83.9,38.7,83.9,38.4,84,38.5z"/>
		<path class="st2" d="M85,39.9c0,0.2,0.2,0.2,0,0.2c0-0.1,0-0.2-0.1-0.3c0,0.3-0.1,0.1-0.2,0.1c0.1-0.1,0.2-0.1,0.2-0.2
			C84.9,39.8,85,39.8,85,39.9z"/>
		<path class="st2" d="M85.5,40.4c-0.1,0-0.1-0.1-0.1-0.1c-0.1,0,0,0.2-0.1,0.2c0.2-0.3-0.1-0.3-0.1-0.5c0.1,0.1,0.2,0.1,0.2,0.2
			C85.4,40.3,85.4,40.4,85.5,40.4z"/>
		<path class="st2" d="M85.7,40.8c0.1-0.1-0.2,0.2-0.2-0.1c-0.1,0.1-0.2,0.2-0.2,0.3c-0.2-0.1,0.2-0.1,0.1-0.3c0.2,0,0.1-0.1,0.2,0
			c0-0.1-0.1-0.3-0.1-0.1C85.3,40.3,85.6,40.7,85.7,40.8z"/>
		<path class="st2" d="M85.8,41.1c0.1-0.1,0.2,0,0.4,0.1c0.2,0.1-0.1,0.1-0.1,0c-0.1,0-0.1,0.1-0.2,0.1C86.1,41.1,86,41.3,85.8,41.1
			z"/>
		<path class="st2" d="M84.6,40.4c0.2-0.1,0.1-0.2,0.1-0.4c0,0.1,0.1,0,0.2,0c0,0.3-0.2-0.1-0.1,0.2c0.1,0.2,0.2-0.2,0.2,0
			c0,0.1-0.1,0.1-0.2,0.2c0-0.1,0.1-0.1,0-0.2c-0.3,0.2,0.2,0.3,0.2,0.5c-0.1,0-0.2-0.2-0.3-0.2C84.7,40.5,84.6,40.5,84.6,40.4z"/>
		<path class="st2" d="M83.9,39.6c0.1-0.3,0.4-0.4,0.5-0.3c0.1,0,0,0.1,0,0.1c0,0.2,0.2,0.2,0.1,0.3c0,0-0.1-0.3-0.3-0.1
			c0,0.1,0.2,0.1,0.2,0.3c0.1,0,0.1,0,0.1-0.1c0.1,0-0.1,0.2,0.1,0.2c0,0.2-0.1-0.1-0.2-0.1c-0.2,0,0.1,0.1,0.1,0.2
			C84.3,40,84.3,39.4,83.9,39.6z"/>
		<path class="st2" d="M20.5,39.5c-0.2-0.1,0.3,0,0.3,0.1c0.2,0.1-0.2,0-0.3,0.1c-0.1,0,0-0.1,0.1-0.1
			C20.7,39.5,20.6,39.5,20.5,39.5z"/>
		<path class="st2" d="M88.5,40.4c-0.2,0-0.1-0.2-0.2-0.2v-0.1c0.2,0,0.2,0.1,0.4,0.2C88.6,40.3,88.6,40.4,88.5,40.4z"/>
		<path class="st2" d="M16.5,40.2c0.1,0.2,0,0.2,0.2,0.2c-0.1,0-0.1,0.1-0.2,0.1c0.1-0.2,0-0.3-0.1-0.4c0,0.1,0,0.2-0.1,0.1
			c0.1-0.2-0.1,0-0.1-0.2h0.2C16.4,40.1,16.5,40.1,16.5,40.2z"/>
		<path class="st2" d="M17.7,41.4c-0.1,0.1-0.2,0.3-0.3,0.4C17.3,41.7,17.6,41.4,17.7,41.4C17.6,41.3,17.6,41.3,17.7,41.4z"/>
		<path class="st2" d="M34.7,40.5c-0.1,0.1-0.9,0.3-0.5,0.1C34.4,40.6,34.5,40.4,34.7,40.5z"/>
		<path class="st2" d="M89.1,41.3c0.1-0.1,0.3,0.2,0.5,0c0,0.1-0.2,0.3-0.3,0.2C89.6,41.4,89.3,41.4,89.1,41.3
			C89.2,41.4,89.2,41.3,89.1,41.3z"/>
		<path class="st2" d="M34.3,40.9c0,0.1-0.1,0-0.1,0.1c0,0.1,0.2,0,0.2,0c0.1,0.1-0.2,0.2-0.4,0.1C34.1,41,34.1,40.9,34.3,40.9z"/>
		<path class="st2" d="M79.2,69.8c0.3-0.1-0.1,1,0.2,1.1C79,70.9,79.4,70,79.2,69.8z"/>
		<path class="st2" d="M81.5,62.7c0-0.6,0.4-1.1,1-1.2c1.7-0.3,2.3,2,2.5,3.3h1c0.3,0.3,0.5,0.7,0.6,1.1h-1.2
			c-0.1,1.8,0,3.8-0.1,5.7c-0.4-0.3-0.8-0.6-1.2-0.8c0-1.6,0.1-3.4-0.1-4.9h-3.6c-0.1,0.4-0.1,0.9-0.1,1.3c2-1,3.1,2.3,1.8,3.7
			c-0.3,0-0.6-0.5-1-0.6c0.5-0.7,0.8-1.5,0.7-2.3c-0.7,0-1,0.5-1.5,0.8v2.6c-0.2,0.1-0.7-0.4-1-0.6c-0.3-0.1,0.1-1.2-0.2-1.1
			c-0.9,0.5-2,0.2-2.6-0.7c-0.1-0.2-0.2-0.4-0.2-0.7v-0.7c0.1-1.4,2.2-1.6,2.8-0.5c0,0.1,0,0.1,0.1,0.1c0.1-0.5,0.1-1,0-1.5H76
			c-0.2-0.4-0.4-0.7-0.5-1.1h9.1c0.1-1.4-1.4-3.1-2.4-1.7c0,0.4,0,0.9,0.1,1.3c-0.6,0-0.6-0.6-0.7-1C81.5,63.2,81.5,63,81.5,62.7z
			 M77.1,69c0.8,0.6,1.9-0.1,2.2-0.7c-0.3-0.6-1-0.8-1.5-0.6C77.3,67.9,77,68.5,77.1,69L77.1,69z"/>
		<path class="st2" d="M95.6,66h-0.7c-0.2-0.4-0.4-0.7-0.5-1.1h4.4c-0.3-0.8-0.6-2.1-1.9-2.1c-0.1-0.4-0.2-0.8-0.2-1.2
			c1.9,0.1,1.9,2,2.6,3.3h5.6c0.1,0.4,0.4,0.7,0.5,1.1h-1.8c-0.1,0.7-0.1,1.4-0.1,2.1c-0.2,0.6-0.6,1-1.2,1.2c0.5,0.7,1,1.3,1.5,1.9
			c0,0.3-0.4,0.3-0.4,0.5c-0.9-1.3-2.2-2.2-2.5-4.1c0.5-0.8,1.1,0.6,1.5-0.2c0.1-0.5,0.1-1,0-1.5h-2.7c-0.1,1.8,0,3.8-0.1,5.7
			c-0.4-0.3-0.7-0.6-1.2-0.8c0-1.6,0.1-3.4-0.1-4.9h-1.4c-0.1,1.7,0,3.7-0.1,5.6c-0.3,0.1-0.8-0.5-1.2-0.7c0-0.6,0-1.2-0.1-1.8
			c-0.3,0-0.7-0.1-1-0.3c0.1,0.6,0.1,1.2-0.2,1.7c-1.3,1.5-3.8-0.7-3.9-2.2c0.2,0,0.3-0.2,0.5-0.2c0.2,0.6,0.7,1.6,1.5,1.8
			c0.6,0.2,1.3-0.2,1.4-0.9c0.1-0.3,0-0.7-0.2-1c-0.5,0.1-0.8,0.6-1.3,0.5c-0.4-0.1-0.5-0.8-0.7-1c0.7-0.1,2.7-0.8,1.5-1.5
			c-0.3-0.1-0.6-0.1-0.9,0c-0.3,0.1-0.6,0.1-0.7,0.4c-0.2-0.3-0.4-0.7-0.6-1.1c1.6-1.2,4.2,0.4,3.1,2.4c0.3,0.3,1.3,0.3,1.5-0.1
			C95.7,67,95.7,66.4,95.6,66z"/>
		<path class="st2" d="M12.4,69.8c0.2-0.1,0.1,0.7,0.1,1c0.1,0,0.2,0,0.2,0.1c-0.1,0-0.1-0.1-0.2-0.1C12.4,70.7,12.6,70.1,12.4,69.8
			z"/>
		<path class="st2" d="M4.4,66H3.7c-0.2-0.4-0.3-0.7-0.5-1c4.4-0.1,9,0,13.4-0.1c0.1,0.4,0.4,0.7,0.5,1.1h-3.3
			c-0.1,0.4-0.1,0.9-0.1,1.3c2-1,3.1,2.3,1.8,3.7c-0.3,0-0.6-0.5-1-0.6c0.5-0.6,0.8-1.5,0.7-2.3c-0.6,0.1-1.1,0.4-1.5,0.8v2.6
			c-0.2,0.2-0.7-0.4-1-0.5c0-0.1-0.1-0.1-0.2-0.1c-0.1-0.3,0.1-1.1-0.1-1c-0.9,0.5-2,0.2-2.6-0.7c-0.1-0.2-0.2-0.5-0.2-0.7v-0.6
			c0.1-1.4,2.2-1.6,2.8-0.5c0,0.1,0,0.1,0.1,0.1c0.1-0.5,0.1-1,0-1.5H8.6c-0.2,1,0.2,2.6-0.2,3.5c-0.3,0.2-0.7,0.2-1,0.2
			c-0.3-0.3-0.6-0.6-0.7-1c0.2,0,0.7,0.1,0.7-0.1c0.1-0.8,0.1-1.7,0-2.5H5.7c-0.1,1-0.1,2.1,0,3.1c0.2,1,1.9,1.8,2.7,2.5
			c0.5,0.4,0.6,1.1,0.2,1.5c-0.1,0.1-0.2,0.2-0.2,0.2c-0.4-0.2-0.6-0.6-1-0.8c0.9-0.6-0.4-1.4-1.2-1.9c-0.7-0.5-1.5-0.8-1.6-1.5
			C4.5,68.1,4.5,67,4.4,66z M12.5,68.3c0-1.1-2.5-0.9-2.1,0.7C11,69.6,12.5,68.9,12.5,68.3L12.5,68.3z"/>
		<path class="st2" d="M4.4,66c0.1,1.1,0.1,2.1,0.1,3.2C4.4,68.2,4.5,67,4.4,66z"/>
		<path class="st2" d="M23.6,69.9c0-0.1,0.2-0.1,0.2-0.2c0.2,0.3-0.1,1,0.2,1.2c-0.4-0.1-0.1-0.7-0.2-1.1
			C23.8,69.9,23.7,69.9,23.6,69.9z"/>
		<path class="st2" d="M23.9,66h-3.2c-0.2-0.4-0.3-0.7-0.5-1c6.3-0.1,12.8,0,19.1-0.1c0.3,0.3,0.5,0.7,0.6,1.1h-1.2
			c-0.1,1.8,0,3.8-0.1,5.7c-0.4-0.3-0.8-0.6-1.2-0.8c0-0.6,0-1.2-0.1-1.8h-1.8c-0.1,0.3,0,0.9-0.3,1c-0.7,0-2.4-1.9-1-2.1
			c0.1-0.7,0.1-1.4,0-2.1h-2.1c-0.1,0.6-0.1,1.3-0.1,1.9c-1,0.1-2.5-0.3-2.8,0.5c-0.3,0.9,0.5,1.6,1.5,1.3c0.2-0.2-0.2-0.5,0-0.8
			c1-0.9,2.3,0.9,1.2,1.6c0.2,0.5,0.4,1,0.7,1.5c-0.2,0.1-0.5,0.2-0.7,0.2c-0.1-0.6-0.4-0.9-0.5-1.5c-1.5,0.2-2.8-0.9-3-2.4v-0.7
			c0.2-0.9,1.3-1,2.4-0.9c0.1-0.3,0.1-0.6,0-0.8h-5.8c-0.1,0.4-0.1,0.9-0.1,1.3c2-1,3.1,2.3,1.8,3.7c-0.4-0.1-0.6-0.4-1-0.6
			c0.5-0.6,0.8-1.5,0.7-2.3c-0.7,0-1,0.5-1.5,0.8v2.6c-0.2,0.2-0.7-0.5-1-0.6c-0.3-0.2,0-0.9-0.2-1.2c-0.1,0.1-0.2,0.1-0.2,0.2
			c-1,0.4-2.1-0.1-2.5-1.1c0-0.1-0.1-0.2-0.1-0.4v-0.7c0.1-1.4,2.3-1.6,2.8-0.5c0,0.1,0,0.1,0.1,0.1C24,66.9,24,66.4,23.9,66z
			 M35.6,66c-0.1,0.7-0.1,1.4,0,2.1h1.8c0.1-0.7,0.1-1.4,0-2.1H35.6z M21.8,69c0.8,0.4,1.8,0,2.2-0.8c-0.3-0.6-1-0.8-1.5-0.6
			C21.9,67.9,21.6,68.5,21.8,69L21.8,69z"/>
		<path class="st2" d="M50.7,70c0.1-0.1,0.1-0.2,0.2-0.2v1c-0.1-0.2,0-0.7-0.1-1C50.8,69.9,50.8,70,50.7,70z"/>
		<path class="st2" d="M70,66c0.2,1.5-0.1,3.6,0.2,5c-0.3-0.2-0.2-0.8-0.2-1.2V66z"/>
		<path class="st2" d="M45.1,66h-1.8c-0.2-0.4-0.4-0.7-0.5-1.1H72c0.1,0.4,0.3,0.7,0.5,1C72.1,66,71.7,66,71.3,66
			c-0.1,1.8,0,3.8-0.1,5.7c-0.3-0.2-0.7-0.5-1-0.7c-0.3-1.4,0-3.5-0.2-5h-1.4c-0.1,1.8,0,3.8-0.1,5.7c-0.4-0.3-0.8-0.6-1.2-0.8
			c0-0.9,0-1.8-0.1-2.7c-0.7,0.1-1.3-0.2-1.9,0c-1.4,0.4,0.1,2.2,0.4,2.9c-0.2,0.1-0.3,0.2-0.5,0.3c-0.4-1-2.2-2.4-1.3-3.8
			c0.5-0.8,1.9-0.5,3.3-0.5c0.1-0.2,0-0.7,0.1-1.1H62c-0.1,0.4-0.1,1.1,0.2,1c0.4,0.4,0.6,0.9,0.7,1.5c0.2,2.8-4.1,4.5-5.1,1.6
			c-1.5,1-3.7,0-3.3-1.9c0.1,0,0-0.1,0.1-0.1c-0.1-0.1-0.5,0-0.8-0.1h-0.1c-0.1-0.4-0.3-0.7-0.5-1c1-0.1,2.2,0,3.3-0.1
			c0.3,0.3,0.6,0.7,0.7,1.1c-1-0.4-2.2,0.6-1.9,1.3c0.3,0.8,2.2-0.5,2.4-0.7c-0.7-0.9-0.1-2.1,1.3-1.8c0.2,0.3,0.4,0.6,0.5,0.9
			c-0.4,0-0.9,0-1.3,0.1c-0.1,0.3,0,0.6,0.1,0.8c0.3,0.1,0.6-0.3,1-0.2c0.1,0.4,0.4,0.6,0.4,1c-0.7,0-1.2,0.4-1.1,0.9
			c0.2,0.8,2.4,0.1,2.6-0.5c-0.6-0.4-1-0.9-1.2-1.6v-0.6c0.1-0.4,0.4-0.8,0.8-1c0.1-0.2,0.1-0.5,0-0.7h-8.7c-0.1,1.8,0,3.8-0.1,5.7
			c-0.4-0.3-0.8-0.6-1.2-0.8v-1c-0.1,0-0.2,0.1-0.2,0.2c-0.8,0.7-1.9,0.6-2.6-0.2c-0.2-0.2-0.3-0.4-0.4-0.7
			c-0.6,0.1-1.2-0.1-1.6-0.5c-0.3,0.1-0.5,0.5-0.9,0.5c0.4,0.7,0.9,1.4,1.5,2c-0.1,0.2-0.3,0.3-0.4,0.5c-0.4-0.3-0.7-0.6-0.8-1.1
			c-0.5-0.4-0.9-0.9-1.2-1.4c-0.3-0.4-1-1.5-0.2-1.8c0.4-0.1,0.5,0.2,0.7,0.4c0.1-0.1,0.3-0.1,0.3-0.2C45.2,67.1,45.3,65.9,45.1,66z
			 M46.4,66c-0.1,0.6-0.1,1.3,0,1.9c1.4,0.6,1.5-1,2.6-1.2c0.6-0.1,1.3,0.1,1.8,0.5c0.3,0.5,0.1-0.9,0.2-1.3h-3.6
			C47,66,46.7,66,46.4,66L46.4,66z M62,67.8c-0.8-1.9-1.9,1.4-0.4,1.6c0.1-0.2,0.3-0.4,0.4-0.7C62.1,68.3,62.1,68,62,67.8L62,67.8z
			 M49.4,69.4c0.7-0.2,1.4-0.5,1.5-1.3c-0.9-1-3.6,0.4-2.3,1.3C48.9,69.5,49.2,69.5,49.4,69.4L49.4,69.4z M58.1,68.9
			c-0.1,0-0.1-0.2-0.2-0.1c0,0.1-0.1,0.4,0.1,0.4C58,69,58.1,69,58.1,68.9L58.1,68.9z"/>
		<path class="st2" d="M62,66c0,0.4-0.1,0.8,0.2,1C62,67,61.9,66.3,62,66z"/>
		<path class="st2" d="M45.1,66c0.1,0,0.1,1.2,0,1.5V66z"/>
		<path class="st2" d="M37.4,66c0.1,0.7,0.1,1.4,0,2.1V66z"/>
		<path class="st2" d="M50.8,67.3c0.3,0,0.1-0.9,0.1-1.3c-1.2,0-2.5,0.1-3.6-0.1h3.6C50.9,66.3,51.1,67.7,50.8,67.3z"/>
		<path class="st2" d="M58,69.1c-0.1,0,0-0.3-0.1-0.4c0.2,0,0.1,0.1,0.2,0.1C58.1,69,58,69,58,69.1z"/>
		<path class="st2" d="M92.4,65.9c0.3-0.1,0.6-0.1,0.9,0H92.4z"/>
		<path class="st2" d="M12.4,67.3c0.1-0.5,0.1-0.9,0.1-1.4C12.6,66.4,12.6,66.9,12.4,67.3C12.5,67.4,12.4,67.4,12.4,67.3z"/>
		<path class="st2" d="M23.8,67.3c0.1-0.5,0.1-0.9,0.1-1.4C24,66.4,24,66.9,23.8,67.3C23.8,67.4,23.8,67.4,23.8,67.3z"/>
		<path class="st2" d="M79.2,67.3c0.1-0.5,0.1-0.9,0.1-1.4C79.3,66.4,79.3,66.9,79.2,67.3C79.2,67.4,79.1,67.4,79.2,67.3z"/>
		<path class="st2" d="M102.2,67.4V66C102.3,66.4,102.3,66.9,102.2,67.4z"/>
		<path class="st2" d="M46.4,66v1.9C46.3,67.2,46.3,66.6,46.4,66z"/>
		<path class="st2" d="M62,68.6v-0.8C62.1,68,62.1,68.3,62,68.6z"/>
		<path class="st2" d="M54.5,68.1c0-0.3-0.6,0-0.7-0.2c0.2,0,0.6-0.1,0.8,0.1C54.5,68.1,54.5,68.1,54.5,68.1z"/>
		<path class="st2" d="M7.3,68.4V66C7.4,66.8,7.4,67.6,7.3,68.4z"/>
		<path class="st2" d="M5.7,66v3.1C5.6,68.1,5.6,67,5.7,66z"/>
		<path class="st2" d="M37.4,70.9c-0.1-0.6-0.1-1.2-0.1-1.8C37.5,69.7,37.5,70.3,37.4,70.9z"/>
	</g>
</g>
</svg>
