<svg xmlns="http://www.w3.org/2000/svg" width="65" height="65" viewBox="0 0 65 65"><g transform="translate(0 -1020.363)"><g transform="translate(0 1020.363)"><ellipse cx="32.5" cy="32.5" rx="32.5" ry="32.5" fill="#ffba00"/></g><path d="M31.721,52.365l.067-.019a30.37,30.37,0,0,0,10.623-5.863,30.6,30.6,0,0,0,2.232-2.1q1.061-1.1,2.009-2.312t1.771-2.5q.824-1.3,1.518-2.668t1.242-2.811q.392-1.06.707-2.146L32.878,12.732A14.165,14.165,0,0,0,22.783,8.5,14.458,14.458,0,0,0,12.688,33.133Z" transform="translate(10.969 1031.33)" fill="#ff7500"/><path d="M15.523,1A14.531,14.531,0,1,0,30.055,15.531,14.546,14.546,0,0,0,15.523,1Zm0,1.938A12.594,12.594,0,1,1,2.93,15.531,12.579,12.579,0,0,1,15.523,2.938Zm-.015,2.906a.969.969,0,0,0-.954.984v8.7a.969.969,0,0,0,.969.969h8.7a.969.969,0,1,0,0-1.938H16.492V6.828a.969.969,0,0,0-.984-.984Z" transform="translate(16.977 1037.33)" fill="#fff"/></g></svg>